<mxfile host="Electron" agent="Mozilla/5.0 (Windows NT 10.0; Win64; x64) AppleWebKit/537.36 (KHTML, like Gecko) draw.io/24.7.5 Chrome/126.0.6478.183 Electron/31.3.0 Safari/537.36" version="24.7.5" pages="2">
  <diagram name="第 1 页" id="Ea-E3japOG1JBHn9lcSm">
    <mxGraphModel dx="989" dy="582" grid="1" gridSize="10" guides="1" tooltips="1" connect="1" arrows="1" fold="1" page="1" pageScale="1" pageWidth="827" pageHeight="1169" math="0" shadow="0">
      <root>
        <mxCell id="0" />
        <mxCell id="1" parent="0" />
        <mxCell id="mD_qEpijUKouMIoYxmoU-2" value="" style="rounded=0;whiteSpace=wrap;html=1;fillColor=none;dashed=1;" parent="1" vertex="1">
          <mxGeometry x="430" y="70" width="260" height="340" as="geometry" />
        </mxCell>
        <mxCell id="mD_qEpijUKouMIoYxmoU-17" value="3.呼叫" style="ellipse;whiteSpace=wrap;html=1;aspect=fixed;" parent="1" vertex="1">
          <mxGeometry x="525" y="260" width="40" height="40" as="geometry" />
        </mxCell>
        <mxCell id="mD_qEpijUKouMIoYxmoU-3" value="" style="shape=cylinder3;whiteSpace=wrap;html=1;boundedLbl=1;backgroundOutline=1;size=15;" parent="1" vertex="1">
          <mxGeometry x="390" y="340" width="90" height="130" as="geometry" />
        </mxCell>
        <mxCell id="mD_qEpijUKouMIoYxmoU-4" value="" style="points=[[0.35,0,0],[0.98,0.51,0],[1,0.71,0],[0.67,1,0],[0,0.795,0],[0,0.65,0]];verticalLabelPosition=bottom;sketch=0;html=1;verticalAlign=top;aspect=fixed;align=center;pointerEvents=1;shape=mxgraph.cisco19.user;fillColor=#005073;strokeColor=none;" parent="1" vertex="1">
          <mxGeometry x="160" y="350" width="110" height="110" as="geometry" />
        </mxCell>
        <mxCell id="mD_qEpijUKouMIoYxmoU-5" value="" style="shape=image;aspect=fixed;image=data:image/png,iVBORw0KGgoAAAANSUhEUgAAAyAAAAMyCAYAAACVbqX4AAAABGdBTUEAALGPC/xhBQAAACBjSFJNAAB6JgAAgIQAAPoAAACA6AAAdTAAAOpgAAA6mAAAF3CculE8AAAABmJLR0QA/wD/AP+gvaeTAAAAB3RJTUUH6AcIAgkmQRwtagAAgABJREFUeNrs3XeYVPXd/vH7c2a2VyB2VIRlC4sVjSUWbDF2owEU0Fixt9hSTLIxRY2xl8SGjSIQjUajicZI7CYxicCysCyIig0V2N5mzuf5Q/MkVtru1Pfruub6XdfzM8vM/T3zPd97TjMBAJCC3j+xqiSvO3KVSzvI7EdlU+r/SCoAkP6MCAAAqWbVxJr9ze0OSVv8zw7r6UDhucVTF8wlIQCggAAAsN4+nFBRmmO5V7nrlC/YR8XMNFnx2A9Kpzd+QGIAQAEBAGCdtEwcuZu7T5F8q9Xvvex9D3VpWWX9HVankPQAgAICAMAa8TGKNOfUXmjmP5WUs5a7sRcD6eSSqfXzSRIAKCAAAHypleNrtgzM7pO0x3r8mV4zv6akO/iRzarvIVUAoIAAAPAZLRNrjnC3uySV99Gf/HcQamLJ9Pn1pAsAFBAAACRJPnp0tGXw8kvl+qGkoI//fJe71ZVV1l/FtSEAQAEBAGS5juMqN+sNo/fLtXv/thx7Mifae0LhvY1vkToAUEAAAFmo5Zja3T3w30raKDF7OHvfFU4on9LwJOkDAAUEAJBN5WNizcnudrOk3AT/027mvyzpbviBzVKckQAACggAIIP56NHR1sHv/czdLknyzu7pIMfGF99d/y6jAgAUEABABnr/xKqS3K7oAzLfP0Xe0pthXIcPuH/+vxgdAKCAAAAySNvxtRvHe/0PknZIsbfWHnpw3IBp8x5klAAgOQIiAAD0pVXjtx4a7/VnUrB8SFJRYOFvmyeOqHN+hAOApGDyBQD0meYJtTtJ/qikDdNgFzijtKf5BJu1rJORAwAKCAAgzayaWLO/uT0gqSRd3rNLz4Q9XYcNnLWkmREEgMTgFCwAwHprnlhznLn9IZ3KhySZtGeQm/9c+9FVmzKKAEABAQCkgZYJNRfL7W5JOen4/k0aGQsiT68cX7MlowkACZl3AQBYN83ja8+X+TUZ8nHeiYfBNwZOnzeHkQUACggAIMW0TKz9jrtfnWEf60M3/3r5lIZ/MsIAQAEBAKSI5vEjzpHpugzdj6xy830pIQBAAQEApICWiTUnu9ttGb0PMXs/iPveJdPn1zPiAEABAQAkq3xMGHGiS7crO25isjwIgtEl981rYOQBoO9wFywAAOXj823oYfjEqnEjhzH6ANB3OAICAFiD8jHyEJc/JHkkCz/+69F4fLei+xe+zZYAABQQAEA/WzW+epRZMFtScRbH8M/uHttrw1n1bWwRALB+OAULAPCFVh5dPcQseDTLy4ck7ZCX6zN99OgoWwUAUEAAAP2geUztwCASPC5pY9KQJB3Yutl7txADAFBAAAB9zMfU5lqOz5JUTRr/k4vslJaJtd8hCQCggAAA+mqRXaegJVf3umkf0vicfNyvWjl+5JEkAQAUEABAH2hZVHup5ONI4ov3nYGF97ZOqB1BFACw9rgLFgDg/60aX7OfWfDHLL3d7truQhf25MV22mDywlayAIA1xxEQAIAkacVxtVuY2XTKx5ryqtzu4FZyAAAKCABgbZfSxw/Jj8TCByR9hTTWhh3TMrHmZHIAAAoIAGAtNMeKbpLZjiSxDuXN7cZVE2t2IAkAoIAAANZAy/iak8z9JJJYZ/nmNmPFmKFlRAEAFBAAwJdonVA7ws1uIon1VhHJzb+OGACAAgIA+AI+aVROKL9bUj5p9InjmyeMOJAYAIACAgD4HK3tnZdJ2okk+rDUyW5fefx25SQBABQQAMD/aJlQ+zWXXUQSfcvkm0V6e64gCQD4srkSAJBV3j12m6KCMPZvSRWk0S/czQ8on9LwJFEAwGdxBAQAsky+x6+nfPQrM7ffvHvsNkVEAQAUEADIaqsm1uzPLXcTYmhBPP5zYgCAz+IULADIEn5gRV7LwLxXJa8ijYTsYuPx0HYYOH3eHLIAgP/iCAgAZImWATk/oHwktPJFohZeSw4A8EkcAQGAbCgfx1VXejx4VTzzI+FCD44aMG3egyQBAB/hCAgAZDiXTPHgN5SPJO1oLbzKx9TmkgQAUEAAICu0jK+Z6NLeJJE0Q1tydQoxAMBHOAULADKYjxlc0JJbulDS5qSRVMt78uIVG0xe2EoUALIdR0AAIIO15JVdSPlICRvmdAfnEAMAcAQEADJW67HbbBiGsSZJJaSRErvc5nhP55YDZy1pJgsA2YwjIACQoeIfPQiP8pEyvCyam3cqOQDIdhwBAYAM1HpszcgwDP4teYQ0Usp7pT0tW9msZZ1EASBbcQQEADKQx62O8pGSNmrJKzuJGABkM46AAECGaT1mRG0YaI74kSlVLS3tmV9hsxQnCgDZiJ0TAGQYD1TH/J7ShrTm1R5MDAAoIACAtNc6oXaES0eSRIqXRHduyQuAAgIASH+h9CPm9rSwT+sxI2qJAQAFBACQtlaOr9lS8qNIIi1YaHYKMQCggAAA0ndCD3SupChJpEsF8Yl+YEUeQQCggAAA0s77J1aVyIMTSSKtDGoekHsYMQCggAAA0k5eT/QUyctIIr2Y6QRSAEABAQCkFZfMQz+VJNKygny97ZiRG5EDAAoIACBtrBpfO1qmSpJIy/oYiQXhN8kBAAUEAJA+E7mF3E0pncfPNYYUAGQTIwIASF+rxm89wCz+tqR80kjbXXE8EtpmxdPnvUcWALIBt2sEgDQWKDzcKR9pziPxiE9umVj7VOg2L65g/qCpc5aRC4BMxREQAEhjzRNGPCbpQJLIOKskzZVU7+5zgsDmhWFkXvm0uSuJJkVr5JjBBR15JeW9YbTgv78QxMoVukmSh0FoQaQ5J+zp6g1yO8t657bYLMVJDhQQAED6lI8xtQOV6+9KyiGNrNlpL3NpnsvmmodzA7d/FsfmL2Ah239WHr9ducVjFR7XFkEQ31zSlua2uUuDJZX/z2sdjkRaXNJlZVPrLyNpUEAAACmvZcKIE126kySyXptL/5T0d8n/nhMPny26f+HbxLJ2fNKonJa2ru1d2s6kETKvlTRC0qb9/E93he7VA6Y1vM4ogAICAEhpzRNGPC7pGySBz7HI3f5q5n+NxYO/Drp/3ptE8qnWdszIjWKRcC+T7yLXzpLtoKRdT+X3lE1tOJ5RAQUEAJCyfMzggpbc0hXiAnSsyfYieytwf0mmFyV7qWRF9z/s8aburPvO5JTt6eb7B9J+Lm2TOusgiwehb1syfX49WysoIACAlLRy4sjRgYdPkwTWUbtks2X6o8LwT2XTGhZl4odcMWZoWSQn/xCTvummAyUVpnBJ/F351Poj2TRBAQEApKTmCTXnSXYtSaCPLJHrMckeLV3ZPTudj458dKSj5HBZMFHy/SXlpstbdw93Kp+24BU2R1BAAAApZcWYoWWR3ILHJd+VNNAP2t31ZBD4HyLSH4qmNLyTDm+65ZjqXcNI5CRzfUvysvRcldn9ZVPqj2ETBAUEAJD80nHMyG0ikfBIhX6wLNhe8gipIAFcsn9K/gfJHi2dWv8Pkzxl3tyYwQWtOSXj3ewMSTtkQN6x0L2CO2KBAgIASLi3J40qLOzo+Jo82N/k35RUQSpIAUskTZHZfWVT6puSVsjHDC2L5BWcI/dzJQ3KsMp3Tdm0+RewqYECAgDod6vGbz0gUHi4W3iUzPaXK49UkMIr5Rdcdp88MiNRT2hvHlM7UDnheTI7Wx89/C8TtcR7urYYOGtJM9sYKCAAgH5ZUFleeKS7HSVpX/FUc6TfSqLbQj0q6b6SXnvcZtX39PU/0TqmYgPPzT3fpbMklWR8pK6LSqfN/xUbFyggAIA+4XUKWhfWHizzb3ugQzjSgQzygaRpodnkAVPqX13v78rxQ/KbY4XfMdf3JBVnUY5vlr614VCbPTvGJgUKCABgnb177DZFBR4/QfLz5BpGIsjwJcYrku5yD6atyylaLeNHHO6mayQNzc4FWnBo6dR5j7IdgQICAFhr7UdXbRqPRM526VRJA0gEWaZL0oPufldZZcNfrE7hl/3HrceOrAnD+HWSfT2bQ+PBhKCAAADWbvFQp6C5sWYfMztF0hFKn4ehAf1pqVx3R8P47UX3L3z7E9+Z0aOjzYOXX2yuH/N9kST1BkF0cMl9c5YTBSggAIAv1H501aa90cjx5jpJWXrqCLAmi2vJHjSzG0qnzHuhdULtiFB+t6SdiOZ/FmlmF5ROqb+GJEABAQB8RssxtbuHgb5j8kMlRUkEWNNFts9xt0pJ+aTxGX8vmzr/q8QACggAQNLHd7NaVHO4yy6RtDOJAOjracY9UlE+be4SokAmCYgAANa+eKwaP2JMy6IRc132IOUDQD8xWTiWGJB5GzYAYM2Kx4EVec0D8r5t5peI6zsAJGal9q+yKfN3IAhQQAAgi3z0/I7ek83tQpcGkwiARIpHbMuB99a/QRLIFFwoCQBf4P0Tq0pye4ITFcYukWwTJxIASRDEdYCk20kCFBAAyFDNY2oHKlffUbfOkryMRAAk2YEUEGQSTsECgI+9e+w2Rfnx+Flm/l1J5SQCIEW0lhYVDLLbXuklCmQCjoAAyHo+ZnBBa17Z6e7x78p8AxIBkGJK2lrbd5P0V6IABQQA0rl4TBqV09zWdUKz6UfmvhmJAEhVYSSyJwUEFBAASNfiUaeguXHEUS3tnb8wUwWJAEj9icu/RgjIFFwDAiB79t+StR5Te4gC/6lL25IIgDTSUtozf6DNUpwokO44AgIgKzSPr/1qi/lNku9EGgDSUOnK6Mhaad4cogAFBMB6aztm5EY90kYW0cCIxwdINkDSAJcNMAuj7lZmpkDSgC/7O+4eM7NWl8VNYYvLuuS+yhSslGmlheEqM1+pMLq8ePq897Ih29YxFRvE8/Iul/sJkgK2NgDpKgjC3SRRQEABAbAGC+Cc6BZBENnM3bc0883cbTOXtjDTZpIGxz3Mi0iSS/6JMyNd7vZxuViTf80+/u/8f/6OyT/6w3IzSSYFoZonjOiR9I6kZSa947JlkppkWiypqbQw//V0vuWjj1GkJa/29ND9MnMfwJYIIO0LiGl7UkAm4BoQoI+0HFP5lXgkd2Tg8RGyYKR5WOOykZK+kqYfKSZpqWQLTT43lP87EkTmFHfNa0z1c5BbJo7YQ64buc4DQIZ5vmzq/N2JARQQIAutGjdymEXCXWT6qklbu9lIedY8P6JL7vPM7BW5vSQPXiqZPnehSZ7sN9Y+sWaTmNsvJU1gfgOQibufsqnzOaILCgiQ6T6cUFEaUe5Oku9i0i6yYOcsKhtraoVML0n2UhCPP1Mci7xos+p7EvWP+6RROa3tnee49GNJJQwHgEwVU3TzQVPnLCMJUECADLJ8TG1xXl64lzzYz6V9TV4rLl5eW+2SnjGzP8fi9ucB0+fN7a8jJC0TR+7mHt4mqZbYAWT+ys0OLJtS/0eCAAUESGM+enS0dZN3d/JIZD9338+kXSXlkEyfek/yP5r0cFtR4Z82ve2VjvX9gx9OqCiNKucXkp1OQQSQPSs3P69sSsP1BAEKCJBmVowZWhbJyTtQFhwh6RuSl5FKggqfrNPkT5jpYcVjj5ROb/xgbf9Gy/gRh8t0k0uDSRRAVs2hpl+VT5l/EUmAAgKkgfajqzbtjUQOM+kISXtLyiWVpE9Bcclnm9uUXut+cNDUppYv+6+bx9QOVK5ukXwc2QHI0goyvWxqw3hyAAUESFEtx1R+xYOccVI4XrJd2eZTeJcq6zTTw+Y2taQo70+ffgZJ8/jaA2Q+WdKmpAUgiz1bNnX+nsQACgiQQt6eNKqwqKPrcHk4XrIDxPUcaTgz2fse6uqy3vpfvTNgVF5Re8cvJTuDOQsAtKRs6vxhxAAKCJACmifU7mQKT3HZ0eJWrJni35IVSF5FFAAgydRdOmV+QSo8ewmggCArfXQnpLxjTX4KT70GAGSDnrx46QaTF7aSBNJVlAiQjlaNGzksyImf4m6TJB/Az0AAgGyR35tXIIkCAgoIkAjNE2p3cul7pvBwd+PZDwCArBPr7SkkBVBAgARYNbH2DrmfxHmDAICsXrzlRAtIAemMX5CRNsx9N1IAAGS7uMcpIKCAAAnC08oBACze4gGnYIECAiRIKREAALJexDkbGRQQoL/5GEUkFZEEACDbhWHYQQqggAD9rDln61Lx3BoAABSxSCcpgAIC9DMPe7n+AwAASfEgRgEBBQTob9FIhAvuAACQFI3lcAoWKCBAf4vFPY8UAACQuoMujoCAAgL0+4aao1xSAADA4gN7mtrJARQQoL83VI6AAAAgyd+yWYqTAyggQD+LB6KAAABgeoMQQAEBEjLfcgoWAAByCggoIEBiCkhoUVIAAGT9/lAUEFBAAAAAkCChOwUEFBAgIdxCQgAAZDsLOAICCggAAAASJAw1jxRAAQESsqWaEwIAIMutKp/WwBEQUECARHCLU0AAANm9L5TmmMT+EBQQIEGbKg9dAgBkNXP9gxSQCbi1KdJCKOsK+NEHQN9plfS4mVZ95v/HtUKyBQqDl0PTe/31BiIRy/GYD5R6B3jEBsptgFwDFWigXAPMtIlLm0jaxN02NXkBw5bdPLAXSAEUECBBAo93SUYQANbUCkmLJVsuhUvN9HoY2lKL6A2PR94v6135js1a1pkC73P5mv6HH06oKM0N8jeLuTYKwvjmsmArybcy+RCXbSXZYMkjDH3mylFIAQEFBEiU0ILOwDkCAuB/WbPM53qoRQrUJKkpkN7p9ehrg6bOWZZpn3bQ1KYWSS2SGj7v/98njcppbuvZXIoNNQuqJI0w92o31eijIylIb72haZCkd4gCaT97EwHSQctx1ZUeDxaSBJDVVsn0rEJ72oPwr2XdDa/aLHF92BpYefx25UFvd7XJRri0raTtJW0nqYR00srb7pE9yqfNXUIUoIAA/ezDo0duHo2E3HoQyHwdJi2Sq0mBNynUInNviuSETYX3Nr5FPH3H6xS0NlUN9zDY3i3YweQ7SNpJUinppPTKbXFUvkfRlAaOhIACAvSnluOqB3k8+IAkgIzztkkvuPlzHkYf4ZfdJJeSMYqsyqndOgi0u6SvuWsPk29GMik2TrK58mCv8mlzV5IGKCBAf022k0bltLR39pAEkBGWS/bbwMMZxZUNz1mdQiJJXSuPrh4SRILdXdrbpP0lbU4qKbGEe7EziOy/8X1z2skCFBCgnzRPGNEqqZgkgLQTuqzeFD7jst+V9cyfzbUb6av12JE1oce/Lg/2l3y0pCJSSRZ/orQnONRm1fMDHSggQH9omTDiTZcGkwSQFppcetjc/xLv7X5+4KwlzUSSgcvfMbW5q/JsN/PwEDMdIdcwUkn4Qu63JT3zj6bUgwIC9INVE0bMNWkkSQApuTfplutPbpoasejskvvmLCeU7NM2oXrruNvhsuAIfXRRO+uMRBRBtzvKptVPMvHEXlBAgD7VPHHEs3LtThJAypjv8mlB6H8pWRX7pz3e1E0k+I8Vx9VuEYn74ZLGSdqNNUc/lxDZL8un1l9CEqCAAH1bQH4v16EkASRVk2QzIorPKJ66YC5xYE2sPLp6iEWD8eYaL6mWRPprUeeXlE5t+CVJgAIC9JGWCTW3uewUkgAS7g03zZQFM8rvm/cP4sB6lZGJtduaa0IgP4br+vqcm+mk0inz7yIKUECAPtA8vuYymf2QJICEWGXSDFlwb8mUeS9ybjn6fKU8RpGWvJpvyO0USQdLipJKn4hZaEeWTq9/hChAAQHWt4BMqD1T8ptIAui/NaGkp2Q2ubS7+SGbtayTSJAI7UdXbRoLghNldpKkISSyvl9k6wxCfb10ev1zpAEKCLAeVk2sPcrcf0sSQJ/vCpolv8ci4c2l9y5oJA8kbeFcp6Clqfbr8vBMyQ6SFJDKOlsZBL5nyX0N84gCFBBgHbVMqP2ay/k1B+g7f3O3O3t6NW3DWfVtxIGUmvOPq670eORcyb8tHna4rt6I5NjOxXfXv0sUoIAA62Dl0dVDgkjwGkkA6zXtx2WaFUpXDJhS/yp5INU1j6kd6LmaJOksk29GImvt7+1FBaM3ve2VDqIABQRYSz56dLRls/e7JI+QBrDW3pRpchj6XQOmNbxOHEi7fcCkUTktbR1Hy+z7kqpJZG0We/5gyfCGMVankDRAAQHWUvOEEa9L2oIkgDXWYG6/LCnOn2q3vdJLHEj7IlKnoKWxZqzMLhXPFFnz3GRXlU+tv5gkQAEB1r6APCNpD5IAVrPWkP4ot+tLp9U/wS10kalFpHlR7ZGB/FKXtiWRNVr0nVQ6df5kkgAFBFi7AnKfpIkkAXyuXje7N1DsqtIpCxcSB7KkbVvrxJrD3e3HkrYjkS9d9XWbgn1Kp8x7gTCQTNzeDuk2ey4lA+CziwpJvwndh5dPqT+Z8oHs2vzlpVMaHiqdOn8Hkx9pEjdX+OK2lucePvjh0SM3JwxQQIA1njxDnlEA/FeH3K6PebSibOr807m4HFlfRKY2/K5k6vzt3exbLptLKp9ro2jEf+djBhcQBSggwJptsvyyC0gt5vpF0NMzpGxa/XmDps5ZRiTAf4tI+ZT6B8qG12/nrrFy8cPVZ/iolryyyc6p+Eje9xRIHyuP36486O1ZSRLIUr1muiuIBz8qnj7vPeIA1mCpPXp0tHnT9080859I2phE/icb6fvlU+dfThKggACr0TxhxLuSNiIJZNVk7XrA5d8rm9awiDSAtff+iVUlud3RiyU/XzxZ/T9Cdz+gfFrDn4kCFBDgS6yaMOKvJu1JEsgKrkYP/KzyKQ1PEgaw/tqPrtq0N4j+xMxPFKeiS9LyaDy+fdH9C98mCiQKXzykYWt2LixEFvQO65TpJ6W5HdtSPoC+U3T/wrfLp9WfEsa1o6TnSUQb9kYi03306ChRgAICfFEBcf2LFJDhngostn3ZlPl1dvfSLuIA+t6A++f/q3Tq/D3cNVbSm1m9X5X2bN10+U/YKkABAb5AGFBAkLHeMPmRZVPn78ezPICELLy9fNr8WTH1jHTpakm92ZqFm77bPGHEgWwVSNB3D0izSXJMbW5LrrdKyiUNZMpmLenWnrz4xRtMXthKHEBytB4zojYM/DbJdsvSCD6IxYMdBt0/7022BlBAgE9pnjjin3JtTxLIAK+7+8nchQZImV8DrGVizbFyu1bSwCyM4NnSnvl72yzF2RrQXzgFC2m6g7B/kgLSnZlmxdSzDeUDSKHvpeRlUxruzYnEtnHZ77Iwgj1a82q+w5aAfv6eAemneULtmZLfRBJIUz2SLiybOv9GogBSW8uEmm+67GZJm2TR6rA7lO08YEr9q2wB6A8cAUF6zo1mXIiOdPWO5HtRPoD0UDq14XfqsZEyuz9rPrQrz9yn+PFD8tkCQAEBPtZWmPdvyTg/FWlWnH1O6L5r2dSGl0gDSB9ls+pXlE2pP8ZlYyR9kBXzlTSypbfockYf/bR9AempecKI+ZJqSAJp4k+dQfSoje+b004UQPpqO75243iv3yrpsCz4uO7uX+c6NfQ1joAgnb1MBEgHZppV2mOHUT6A9Fd8d/27ZVPnH27SSZLaMn76Mrvj/ROrShh5UECAjxZ1z5ACUpyb+ZUlFfOPtln1PcQBZI7SqfMnm8V3lGX8w3G3zO0OOBULfbuGIwKkq1XHVm1lYWQJSSBFtZr826VTG35HFEDm8kmjclo6On8g1w+VuT/sukv7l0+d/xQjDgoIsl7zhBFLJW1JEkgxi4JQ3yyZPr+eKIDssGpizf7mdq+kjTN0yfhaZxDZmlNJ0Rc4BQtpzmeTAVJsm3w03tO1E+UDyC7lUxqezInEdpT8hQyd27bKD2M/YaRBAUHWMw8oIEiZvbPcf1o6vOHwgbOWNBMHkH0K7218q7SocLSkjHzOj8nOax5f+1VGGuu/LQFpjOtAkCJi5n5a6bSGO4kCgCQ1T6w9Ru63SyrKqIWj+ZySZRuNstmzY4wy1hVHQJDWyu9b+Jqk10kCSdQm6TDKB4D/VTalfrqFkR0lzc+kz+Vu27QMfu9MRhgUEGQ5rgNB0ix3873Kps5/nCgAfFrp9LkL4j1du0n6U2btdu2y9qOrNmWEQQFB1jIFT5MCkuDtIAhGl09p+CdRAPgiA2ctaS7tmX+wpBsyqVvFIpFrGV1QQJC9BSSIPC4pJAkk0BtyH11y37wGogCw2v3ULMXLps4/18xPkZQpDyUd2zy+5iBGFxQQZKWS++Ysl+xlkkCCvB7Gw73KpjUsIgoAa6N0SsMdods3JH2YGc3KrvcDK/IYWVBAkJVc+j0pIAHekdl+A+5fsJQoAKyLAdPqn/ZYsLNL8zLg41Q0D8w7n1EFBQRZKUIBQf/7IAi1f9mU+iaiALA+ymfMW+w5uXuY+Zx0/ywm/wEXpIMCgqxUMrV+vkyLSQL9tIttdvMDeLo5gL4y4O5/r/JQ35KU7j9qFMci0SsYUVBAkKWcoyDoD+1mdhB3uwLQ18qmNSxSj+0s93+k+f53YvOEml0YUVBAkHVCRSgg6GtdLh1eOmXeC0QBoF9KyKz6FWHoY5TeD9U1yW7wOtaVoIAgy5Qv+8pzklaQBPpofxo319HlU+c/RRYA+tOA+xcstTC2o+Tp/GPHTi1NNRMZTVBAkF3LxdmzY5L9gSTQJ9y/Uzpt/sMEASARSqc3ftDdExxg8tnpO2/aT/34IfmMJiggyLIWommEgD5wQ9m0+TcQA4BE2nBWfVtbUeHBMj2Sph9hi9bewjMZSVBAkFVKl23wZ0nvkQTWo8Q+Utoz/zsEASAZNr3tlY7SivlHyFUnKUy39+/S91cev105IwkKCLJn7Th7dkxu95ME1nELeqXTosfYLMXJAkDSZqI6hWXT5v/EzI+S1JVmb39gJNb9XUYRFBBkFY/YFFLAOngjauGhG983p50oAKSC0ikND7n5YZI60ul9hx6c8+GEbQYzgqCAIGuU3zfvH5IWkATWQltE4SFFUxreIQoAKbVPm9LwpJm+IemDdHnPJi+IWLyO0QMFBNnFfSohYI23FteJxVMXzCUKAKmodMr8Z0P3HV32VtqUENfxrRNqRzB6oIAge1aUkXCqJCcJrHZbMV1dPm3+LJIAkMoGTGt43QI/SmlzOpZHQvnljBwoIMga5fctfE2m50kCX8akp8uWbfg9kgCQDsrum/+yS4cpfS5MP6zlmNrdGTlQQJA9Qr+NEPAl3rQgevRHD7AEgPRQPnX+U3I/SlJazF0ehFcyaqCAIGuU5nbOUhpdtIcEMnUr0JiS++YsJwwA6aZsWsNjkl+UJhPubi0Ta45g1EABQXasMe9e2uVmd8kkXrz+9+VuZ5fdN/9lviUA0raETG24zsyvTIs514JLGTFQQJA9Inar0vBJsujPZqpp5VPrbycIAOmuZErD9yT7dcq/UfdRLcdxLQgoIMgS5ffMWyzpTySBj8vHmx6PnEUQADJjSpOXTqk/02V3pPybjYfnM2KggCB7JmhLg1+HkAhhoPDY8mlzVxIFgEwqIWXd9adJdn8qv083O2LVt0cOY8RAAUFWKOmqf0ym17n2IctfgX5act+Cv/KNAJBxJWSW4qWF+cdJ/kQKz8OBheE5jBYoIMiaidlcN5FENvMXSt/Y8GfkACBj93W3vdLbkxt+S65/p/DbPHHl8duVM1qggCArdOfGb5W0iiSyca9sza5wIs/7AJDpNpi8sDUqP0jS0hR9i8WRsPsURgoUEGTNpGzSb0giC4V+Zvl9C18jCADZoGhKwzuBgoMkrUjF9+duZ/vo0VFGigICZMfGHrHrZerieojseZn0QNmU+VPZ+gFkk5L75jWY6wiZulNwbt68Zcv3xzBKFBAgKxTfXf+uue4liazxYRALziQGANmodMr8Z012akq+OdcFjBAFBMgaYU7kSsniJJEVziuePu89YgCQtSXk3vp7ZHZdCjYQHkxIAQGyR/nkuUvM/EGSyHiPld07fwoxAMj6EtJRf6HkT6ReB/HzGB0KCJA1TPqJTCHXSGTsqyUWCU5jSweAj25FH4v3jpFpfirN1R7o8PYTqzZlhCggQFYouWd+veQzSCIzudmFg+6a9yZJAMBHBk1tarFI/Eil1u3oo72xyPGMDgUEyB6mH0viuRAZN6x6uuzu+jtIAgA+qXTywoWuYFwqXQdpZid7HWtRCgiQJcrubljk3BEr03S7+akmOVEAwGeV3zPvCZNfkjrvyLdqWVy7PyNDAQGyhuf4ZSl6j3Re6/IK7FdldzcsYssGgC9Wes/8q112R8o8rykSTmJUKCBA1hhwZ8Prct1OEhnhjfac/F8QAwCsXllp91mSvZIK78Vlh7ZPrNmEUaGAANnzBQh6LlNqXZSHdRAqOH/T217pIAkAWD27salbER0tqTUF3k5Ob9ROYFQoIEDWKLmr6X0z/Zwk0pjrzwPunsezXQBgLZTdWd9ksnNSohBJp/oYRRiVLCrBRICsX7+eXZHX0pZbL2kYaaSdHrP4NqWTFy4kCqS6tuNrN3aLV7mCoaFZzpr8bwJXd+j+OUf3fJWCT95wIVDQFTdvN480q0sryyrnNludQpLHl2k+fsQUmSYkf2dsB5bdXf9HRoQCAmSNVSfWHmXuvyWJNJvAzK8sndzwXZJAqlh+Rm1xbmdYaa5KWVApeZXklZJVSipNRu9xWbMpfF0WvOGh3jTTG+Z6PRba6/Fo72sbTF7Yyshlrw8nVJRGc3P/qST/COey35XfVX8kI0IBAbKrhBw/4q9m2pMk0sbb3QVWteEt9W1EgWRoPr5muBTsJGknM982lFWafLM0/CgfSHrNTEslXyIPGsIwPq8jr6iBa6uyZFs+qfarCv05STlJfBuxiNvmxXfXv8uIUECArNF6Us3I0O2fSZ6AsaaTl/sppXc18NBBJIQfPyS/2Yp2MwtHS9pZsp0kDcjwjx3K9JqkeXKfYx75WxDR34vvmPceW0TmaTmh5mI3uzLJE/t5ZXc2XM9oUECA7JqAT6q5Uq6LSSLlzS9pbdjGZilOFOiXwjFGkdaS6q+a2z5uvo9ku0nKJxlJ0uuS/ib5y+7Bc6VbbviK1c2OEUuab/N1Ctper/mjm5L5YMCXSyc37MJoUECArPL2pFGFxbGOeZK2Io1U3lP6oaV3LXiUINC3pWNwQWtp8X7y4BDJD5e0EamskXaXXjTTn0PzP5cNXvAvLn5PT63HbrOh5/S+KmnjpH0PLRhedmd9E6NBAQGySsuJtYdJ4cMkkbKeKZ3csBcxoC+sPH678kjQfZSkb0raVxzl6AsfSHrcZI/2Rrv+NPC2Jc1Ekkb7wBNGHC7zh5K4NP1B6eT5PFiWAgJkYwmpniWzb5FEynEPbdeyu+a/TBRY543o7Iq81vacg2SaKOlgSXmk0m965f6smz0aSg8OuLPhdSJJfa0njZjq8vFJWpnOLb2jYRtGgQICZN/ke9o2G3pv7zxJG5BGSplVemfDWGLAulh1YtWOgdnJko1V5l9AnpLdT64XPbAZ0cBnFd3W8A6RpKaWSZVfUSyol9mGSVqcbl1yZ8M8RoICAmRfCTlxxFg3n0ESKaPXFYzg3GCsjY+v6zpGptMk7UgiKSMu2TNyn9qtcCbPIknBfeDJtd9yD2clp6nq52V3NlzKKFBAgKzUclLNTEljSCL53PSbsjsaTicJrInmk2orAouf427HSionkZTWJtMMhX5n6eQFLxJHCu0Dk3c68uKSOxuGm+SMAgUEyDqrTt96QNAb+5ekLUkjqXrirkrOH8dqi8cptTuZxy+W7EhJAYmknXqX7ghjeXcPuPvfq4gjyc3w5JEbhYrXSxqU6H/bPdi57M76vzEKFBAgK7WcUr2b3P4qKUoaSeK6vfTOhkkEgc/fPGQtJ9ccaNJFkkaTSGasfd11rwV+fentCxqJI4ml/qTq8WY2NQkL1OtK7mg4nxGggADZW0JOHvF9yX9OEknRG4965YDfLFhKFPjM4uiUEQea+2Xi+o5MFcr0eCBdV3R7w1OckpOkfeBJ1Q/L7LAE/7NvldzRsDljTgEBspbXKWhZVvOEffScACTWnaV3NJxMDPhfbafU7Be6LpO0K2lkjbkyv6ZkVWSazarvIY7EaT+xatN4ENQrwddThfIdy+9Y8AojQAEBslbrpBFj3H0mSSRUbxiPV5dPblxCFJA+vsZD4VWSeBhl9npH8hs9jNxadmf9CuJI0D7wlJozXLo5kf+mm/2k7Lb5daSfebhAD1hDofuRpJBg5lMoH5CkjpO3GdwyqeY+U/gy5SPrbSLZLywI32g9pfqGjpO3GUwk/a94VcOtLv07oYtU90NJPkN370QArN67x25TVJjf+56kItJImLjkI7gANbu9PWlUYbF3nC3pB5JKSASfo0dmd0eD2GWFv2l8izj6T8sp1btJ9lwC148e9ZwtCu+Ys4z0MwtHQIA1UFDQczjlI7FMmkn5yPLFzqSaI4q9faGkKygf+BK5cp8Ui0eaWifVXNt2Ru3GRNI/Sm9f8IKkKYncFcSD2MEkn3m4rSiwRovh4GgZN+JIpNCDa0khO62YVLtFVPEbJR0m40A91li+S+cpFk5qOXXE9d298ct5wnrfC3KCi8NYeLik0kT8ey7/uqRbST7T1lUAvlTzSbUDLRK+IymXNBLmudLbGvYghuzidaOjre+8e47cfiKpmESwnt4z8x8Vr1hwp81SnDj6cL84qeZ8k65J0D+3smRlwwaMYYYVWSIAVtPSg/hRlI8EZ27O0Y9sW9CcWjO89Z33npXb1ZQP9JGN3O3W1gE1/24+pfoA4ug7pSq8SVJ9gv65AS2DakeROgUEyLYGcgwhJDTwJcUrFjxMDtnBJWudVHO6uf4l1y4kgn4w0sz+2HJqzSMrT6seQhx9MEvf9kqvKTw7YYvVMNyf1DNsGyIC4Iu1n1W1abw3eJOyntAF6XlltzZcTxLZ8v2yOyX7BmkgQYueDpcuK/HCa+y2V3pJZP20nFYzU64xCRi5p0tvnb8PiWcOFlXAl4jFgnF8TxK7P4vl9t5FDJmvdVLV3vHe4BXKBxLJpUJJV7Rax7y2U0fsSyLrmafrB5ISUOR8Fx9Ty6nQFBAgO5hrHCkkdHd226Abm1rIIYNHeIwizaeNqHML/iyJ26UiWSpD+ZMtp4649cOzK0qJY92U3dqwSO6TE/BPFTQPjG1D4hQQIOOtmjRymKSvkkTChGHcbyGGzNV62jYbtgyq+aO5/5j9D1KAST4ppztnDkdD1l0k1y8zqaPfB8sju5E2BQTI/Ek1iB8tk8k+2k3x6t+Xm54uv2Pha2x5GVroT68e5er9p0n7sb3zSqlXoC1D8yebT6u5ZfkZtdyBbS0V3bTwbZdu7P9x8l1JmwICZLzQ9S1SSCD3OwkhM7WePmJMxO0ZSZuRBlKUmXR6fuivtp5asydxrOX+MoheKWllvw6QRAGhgACZbeWZNVuaaTuSSFT50KrSwraHCCLThlXWcnrNJe5+/8cX/wKpvtUOddPTradVX++TRuWQx5op//XclZL/sp//mS07Tt5mMGlTQIDM/WLE7XBSSBwzm2LXLuskiQxaxp1dkddyWs00ua5gX4N02wW47JzWSMdfVkyq3YI41kxbWHSDpLf789+IR+I8K4gCAmTyglhHcG504l6BNJmtLnMsP6O2uC2W83szHc32zSttX9Lu0Ug4p/W0mqP5Vq/epre90mHSz/r1WkGuA6GAAJlq1elbD5B8d5JIUNlz/bPoN/P/RRKZoX1SzSZ5Hj7r0tdJAxmgzE3TW88YcSPPoVi94o03ul2uuf33Lzh3wqKAAJm6II4fJIlzfxMWOEc/MkXzqTXD4xE9b+L6KWQWdz+rdYNwdsdpldxI4cum87rZMQuCy/rxn9jez67II2kKCJCBXwo/mBQSpjuu6DRiSH+tp9WMtMCfk7QVaSAzW4h2jQWRV1pPqx5NGF+seMMNHpLZgn7683nt8bwaUqaAAJm1f6lT4IH25/znBL0C/9NHd09BOms7u3ZbD/QXmW3Ids0rw68L2cgDe7LljOoL/D//F3yC1c2OyfTd/hqDuEKeiE4BATJLy/LaUZK+QhIJKnyhZpBCems/bcT2YTx8StIGpIEsEZXsV21nVN/nxw/JJ47PKlk+/1FJ/fJgWZNRQCggQIZ9ISw8gBQSprPbIr8nhvS16vTqUfHAn5I0iDSQbVw2obWw4Om2c0duRBqfKgmzFHf5Nf1TQJwCQgEBMmyH4qKAJC7tP2x4S30bOaSn1tNqRgZmf5I0gDSQxXbxWPxvbWfXbksUn9QeK5os6b2+L36igGRCSSUC4CMrJg0ti+bkfSApShoJmHw8GFNyS/1vSSL9NJ9RW2FB+Ixcm5AGIElqkwUTSm+q56ju/2g5s/rbkt3d1383iEY2Lr5+3nsknL44AgJ8LBrN3ZPykbiddXFe8x+IIf10nL3NYLPwScoH8AnF8vDBljNrTiaK/yq9ecE9Lt3f1383FotzFIQCAmQIsz0IIUFRy35v1y7rJIn00jKp8iuxMPakpCGkAXxGRNJtLWeNuJAo/ieUILiizxevZpzyRgEBMmZVTAFJEDfj7lfpNmbnDy5QTuRhyatJA/iSPYn7Vc1n1PyMKD5SfGP9qzL9tW8nJC5ET3ecbgJIenvSqEKpYweuikqI9pK29ieIIY3Kh2RtvaV3yHw30gDWoIWYftB8ds3A0kENZ1mdQlqZ3+hme/XdH+SHkHTHERBAUklu1y6SckkiIZ60u5d2EUP6aD1zxFUuH08SwNqskXV66/sj7vQ61lrFX9n4YZPe6LM/6DacLYwCAmSAOKdfJWyvbI8QQjqVj5rTZX4BSQDr1EKOb/2gZnK2lxCrmx1z1y19+CfLW8+u4OGnFBAgvbm0JykkRBjE7TFiSA8tZ9Tu7qbrSAJYL99u+aBmqo9RJKsn/zB6m0kdfbbfDqMVbFoUECB9y8ekUTky21km8er318vFt9S/y1aX+laeWbOlIuGDMuWy3fLitX4vMx3dslHNFK8bnbXX3pb/eu5KDzS9rzL1gNOwKCBAGmvJ6xglqYgkEsEeJYPU9+6F2xRFAv1eEqc4AH01+5mObv3gvTuy+XSswIMb++yPuSrZqiggQPruFMTtdxO38wm5/iMNFPb03iWJ21wCfb/D+XbLhzU3ZOvHL76x/lVJz/VRlpyCRQEB0nqPQAFJjNeLb1owlxhSW/M5I86WawxJAP3VQXRm81nZ+5wQl/fJxeiBxClYaYzngCCreZ2C1hX+NZJIwE7XuftVqlt1TvUok1/F83CAfp4PTT9oOaempfSGhl9m22cvHRR5oHVF+K6kjdevyFBA0hlHQJDV2laNrJI0kCT6Xyj/Iymkrg/PrigNZDMk5ZFGQqyQbMkXvT5+ZkIvMWW0K1rPqZ6UdeWrrr5Hsrv64E+VtJxZPYjNKD1xBATZvSj22PbGz72J0NOZlzObGFJ5Z5Bzm6RhJLHu3PWmTI0mvSbTh3JvNllL6L4i8Mh7pvj7FrUPCss3et/qZsdW+/fqFHQ2V24S67UhHrEtTdrC3bY005YfX4C7lfghMa3X4i77devZ1R+U3Ljgwez65PF75MH31vfPRIJgC0kfsiml4SZABMhmLedUXyXZhSTR71PN06U3zN+HHFJT87kjJpr7fSSxVj6Q7EW5P68geL4jJ/KvjX81pz2hhef4Ifnt5UXV8bjXBkH4VXfbWdL2knIZnrTSqcD3Lb1uwYvZtf+teV7Sbuu5bzmi9Ib5D7MJpR+OgCCrudn2tPBECJ8gg9TUcfY2g2PqvZGfo1azzJHecPlT8uBZhbEXS25qXGiSJ/U93b20S9K/P35NlSQ/uyKvTdFdwsD2M2lfSTuxr095BXJ7uPn82t3Krq1vyp4vld8t2XoVEFe4OZsPBQRIr/IhWetHvxaiv+uHGQUkRb8DbUHvZEnlpPEZccmecfPfB4r8qeS6eQ1psaa7salb0l8/fv1wxSVDy6Kd+aPNtJ/L95VUw9CmpA0sDB9vuaBy19KrGz/Iii+Y5c+KePeNWo/rzsyMApKu/ZMIkK1Wnlc9JOp6jST63fvFAxZsbHUKiSK1tJ5bc4bkN5PE/3YyPSv36cqNPVjyq8XLM+0DNp9fW2EeH2Mf3WqZH2BSz4vFQdu+du2yzuyYg6oflnTYevyJ+0uuX3AMm0364QgIsnnj34EKnpAl3ZOUj9TTfl7NJqH8FyQhybRSrlkK7caSGxrmZfJH/fgUn8slXb7yvOohOeaHu9sYSdyOPDXs2ubFt0uamBVfvUAz3NejgJi2YJOhgADptjLejoOACUjZ9CQppJ5QfpOksqyOQHpS8juKy6K//+jWoNllwHULlkq6XtL1Ld+prjS3YxX6ybL1ez4D1tuElnOrXi29fuFVmf5BO7ojvy/IjXdIKly3HQwFJG3LJxEgW7WdV/2oSweTRP8KYr5Z0U0L3yaJ1NFyfvWh5vp9lu702l2aHI/5teU3LeQUzE+v5+pqc9uawyPlfrqkPUkkaeJmfkjxtQsz/vlJrefVzJB87Dr+z3tLrlvAXd8oIEA6TXrVb0nalCT61cKS6xZUE0PqePfCbYoKYz31Jm2ZbV95Sdd4r24svXkBzw1YA23nV2/tbqdLPlFSCYkkvA6u8sB2Lr1mQWOG74uPlPTAuv7vi+Ox/I9vvoA0wgOMkJ071nNHbiTTprKPaziv/nr9la0ttRTFe79rpi2zaBvskekGxWPDSq5bUEf5WIuF3bUL5pZc13BGTzw22AJdIOlt5rREvqzcXA+/f3FVRpe/4vKux2RqWdecWsNoMd9WCgiQJlt+L3d/SQATBSSVdHxn5OaSX5Atn9dlj4eK1JZcu+Dckhub3mcLWDeDbmxqKb5mwTXF5V3DJDvTpddJJWGq83t0e0bvJ+qWdrl8nR8mmJNvFBAKCJAeQtl2pJCICSakgKSQuGKXSyrIgurxplxHlV7bcFBWPdgtAQvFkmsbbikpi1TK/FxJlLqEBG/jWs+vOSPDP+Ssdf1fxkIKCAUESB9cl9DfuxNpaeG1jW+RRGpoPr/yq3KNz/y1mk3uicVHlly34EFGvb+KSH1PyTULb+jK8WGSLpPUQSr9XqqvaT+vZodM/XQlsdgTkq9al/9tGIoCQgEB0mQHGqiS84v79+XSP9jSUmiyt+AqmSyDt7l33HRo8TUNJw26samFEe9/G/xyYWvJtQt+HA1shMweZt7r11deGGjmikuGZuSts+3Gpm4P1m0bikQoIBQQIG1+TFIVIfRzxIH9nRRSQ9t3RuyrzL2laijp1liYP6L0mgWPMtqJV3B1w+sl1zQc4dKhJnFr4/6bVYfl9OTekbGfztbtNKzQ4xQQCgiQ+lrPrthA0kCS6F9mIUdAUqZve12GbmUNLu1Rcs2C0wZc9+9VjHRylV6z4NEib6uV7OeSuC1qv2zy+lbLd6qPz8jtpzh4UtLKtV7IBhwBoYAA6bAYi0QqSaH/Y+6N9L5CDMnXdn7NfpLvnnnrMN3dHuTsVHrNghcY5RQal2uXdZZc03CpS9tI/hSJ9Mu2f/2qC6u2yrjPVVff4+5rfRTTnYvQ01GUCJCFtbuKR3D2u9cGXrmkmRhSoAma12XY9t5pbqcVX9NwL6ObukqvWdDo0v7tF9ac6+6XS8onlb6LNxLqHh+jvW2W4hlVQgL9XtKxa/W/cR6SmZ5LMSDbNnrj+o/+X/XqVUJIvpYLKneX6WsZ9JE+cIVfp3ykyWJS8uJfNVwnRUZJzAl9G67t0bpF9UWZ9rE6O6N/1FqevudSERsEBQRIg7WxOAWr32cWn0cIqbAADM7PoI8zLxbXTqVXNz7HyKaXkqvr5xeHbbvKddNHUzD6qOD9pO2i2u0y6TNteEt9m6TZa7VP5xoQCgiQJtM2zwDpb6Hxa2eSfXyO+OEZ8nFe8VyNHnDdgqWMbJrOutcu6yy5ZsHZJjtA0tsk0idyPYzf7ZNG5WTUp3J7ZK22LfdCNgUKCJDa81rd6KhMQ7mnvPr7GSBz2dqSK+J2vkyR9N+e/Nmentg+pZcv+JBRTX/FVzc8KevdXubPMlf2yWvb1rKOTDrSqWhO8Mha7W/MOAWLAgKktpbm94dIyiWJ/mNSe0npgiaSSJ73L64qkemEDPgos9uVdyAPFswsJb9avLy4OLqfzO8gjT6Yc93rms+vrciUz1NwZf0bktb4NF7jGhAKCJDyIiEXoPe/eVankBiSJy8ejJPS/Lxo00tdgR+28a/mtDOiGbhorqvvKblq4SlynSqpl0TWb80eROK3uzLnfnfm/tia/rcuTsGigAApv6bRSFLoX27O6VfJ3s4DPynNP8IrvUHPNzb45cJWRjOzlVy94DZzO1jr8AA6fMLo1ouqTsiUD+Nmj6/5fp3ngFBAgNRfmG3HOcP9/JLNYUtLntZLRtRK2iWNt6E5nqMDeI5M9ii+uuFJD7WLTAuYQ9f9ZbKrms+vHZgR20RL0fMyNa/hZy/nW0QBAVL7VxXXMFLo55JntoAUkriNh2EaH/2wBnnv/lxwnn1Kr1nQGOvN31Uunmy/7gYG0XhdRuxHbnulV9Kf13DWG8DQU0CA1J7UpC1JoX9FLFhICkkqH3WjoyaNT9O3/14kHjmg5FeLlzOS2WnAdf9e1VkcOUDS06Sxzk5vvXh4TUbMZ1rT60CsnGGngACpO5mdP7hA0gYk0a868gvqlxFDksJvfXt/SRul4VvvVWhjC6+Z9yajmN02rKtvK+6KHSj5Q6SxTqLyyA2Z8EEivcHjWrMHV5Zk3LNQKCBA5mjLLR0qk3GucH++vJE7YCVPGAkmpOdzY+yMkqsbnmEEIUl2Y1N3cVF0nAI9wJy6Tq/92i+qOSjdt4Oi6xrekenfa/KZmwf2cCE6BQRIVb41GfT70mEJGSTH8rraYpOOSMO3flPpVQ08DwKfnEnq6nuKCzY+2uX3kcY6/Bhh+pXXjY5mwJawJqdhxcryB3HHPAoIkHrav1s9yuTnkUR/7yuMU2iSpLAzfpin3wO5ni4u3Ph8Rg+fX0Jmx0oKFx5vZpNJY215TWv7O8dlwD5lurTao+p/s7rZMcacAgKkjNYLa0a2Xlz9QBjq7+7amUT6eV/hTgFJ1nLD9c00e8vveDwcy8IBX15CFBYtaZgk6feksdaL9x/52RV56fwRSq6cXy/TFV8++ekaBpsCAqSE5otqhrd+t3qKIv6qTEdy7UdiXh4YF6Ano3ycP7hApm+k0bbiQcROLr268QNGD6tdR89SvLi37WhJzzPPrvnLTFu2FUROTffxL75ywaUK/Kcy9Xx6HjHTFSVXLXiAb0kafq+JAJmk5YLKr1g0cpnkp0iKkkiCF8KBdiu9fMGLJJHg7f6S6kMtvX4hvrXkygWnMXJYqx+Wzq8dGOTGn5U0gjTW2Hvt8dxhG/9qTnu6f5BV360cGlFwnLm2kPtyC/yBoisa/84QpycWaMiMhe+kUTnt5R1nuvmPeChRUjUSQeIF0jc9fd5uU3s89wJGDWur7Nr6FR0/GPmNeCz2gqTBJLJGNioMes6RdHm6f5DyKxqXSKpjSDNmvwWkt7bv1uzXNqD9X25+rSTKR/Is5wnWSSjfkrn0jTR5u6GHwYmZ8GsskqPw5/PeVBA5QNIK0lgzZrrw/YurSkgCqYQjIEhbK79bPSRHusnlB3MyYUpYQASJ135J5TYybZImC6Ffllw5/1lGDeuj5PL6+a3frT5K0hOSeADd6g0sMJsk6WqiQKrgCAjSjteNjrZdUnVuVJrj0sEkkjLLy/lkkHjhR78Gp4Nlbb25P2PE0Ccl5IoFs2V+IUms4X5TutDrhuSTBCggwDpo/271qLbOd192s+skcUg5leqH+SJSSELuYfj19FgB2UWceoU+LSGXL7zBpXtIYo1s3NaVfxwxgAICrM3apW5Ifst3q38VSi/LtAOJpOAYyd8ghQRnfv7gApntngY16bniKxtmMGLo8xKS33WapFdJYk2+hnaxj1GEIEABAdZA+3dHbN/Wnf8PM10gU4T7u6fmK1SEhxAmWFtuyU4y5aX4thEG8vNMckYMfb6mrlva5VEfJ1Mb8/BqXvJh7cOqx7LVgAICfAmvU9D2/apzQwtfklRLIqktErPXSSHRq69wj9R/jz656IoFrzBY6C+lP1u4UGankMQa7FdNXDcDCgjwRVZdWjGsrav6WXe7TlIuiaS8nqKi+uXEkODFhIKvpfhb7LDe6A8ZKfS3kl803C9pKkms1g4t36velRhAAQE+peV7NUdE4pF/yLQbaaSN961OITEksHzUKTALU30hcUfxVfXvMlpIhN6w50zJORV0NUw6mxRAAQH+s6A6uyKv9ftVN5v572RWzjm7afVayRacWG3dtdUp/j3piQTRXzFSSJSBVy5pDsxPlcmZk7/09a32i6s2ZYsBBQRZr/m7tRVtJdEXJDuDNNISTyVOMLPYDqn9/vy+wp/P49doJFTRLxofN/PJJPGlcsKoTiMGUECQ1Vp+UH1oEMRfkbi9bvpyCkiiE3eNSuG3F49bcCWjhKRsfDnRi+XimrQvnUDsVK+r5fpKUECQhfOfZK3fr/qBuR6SVEoi6bwvs2ZSSDCzVC7ss8p+1sCDKZEUZXX1K0zG3Z6+dP7Qhm3dscMIAskSJQIkw7sXblPUltd7l+RjSCMT9mXqJoXElvc203ap+v4C+dWMEpKp6PKGKW0/qD5e0j6k8QXziAUnSvotSSA5+wkgwTp/ULNlUV73c5SPjNJDBIn8Do0crNQ9ajin6OcL/8EoIZlMcgt0nqQ4aXxRRv71jrqKwSQBCggyXtv3q7aJuT8n2XakkTncOAKSSKHFalJ2UcMFwEgRxT9dMFeuO0jiC0XiPZFvEwMoIMho7ZfWHORmz8vELy4ZN5F4jBQSWPikqhR9az1h1HkYHFJHbu+PJLUQxBf9YhCc4B/dnBeggCDztFxafUoof1imYu7BnoEvGQ8hTKyqFN0Wfl9a1/gBw4NUUVK3eLnkVzFPf9HLh7VdWr0XWwooIMg4rZdWXWbSbeKmB0BfGZ6SO5Qw5PQrpJyuXl0viWL8RVzHEAIoIMigOU3W+sPq6yX7IWkAfck2T8E3tbxwUeMTjA1SzQa/XNjqbleRxBdNJzrKJ43KIQgkEr9Io3/KxxhF2quqbjf3E0gjS+omErheCLdIvU3AH7NZ3HEIqamkO+fm9vzuCyVtQBqfMajjK637SXqcKJAoHAFB369D6mpzO6qrpst0AufXZsmLmSRhmutqB8pUlGrbgJv9gdFBypb2X81pN/ObmK+/4PsbaBxbCSggSOvy0R6P/dYlnvEB9INIvDcVT7/q7YnGOf0KKS0e0S2SOkji8xqaHeFnV+QRBCggSMvy0RaPzZJ0KGkA/fVFS8lTSJ4ZVNfErU6R0krrGj8w0z0k8bnKOgZEvkEMSBSuAUHfrIkmjcppi7fNMNNhpAH043ct0KCUu2m/61FGBukgEvivYqFNkhQhjU9/jXW4pIdJAonAERD0Sfno2Kj1fjMdQRpAf0/aQXnKzQEe/omRQTrIr2tc4rLfk8TnfpMP8jrWhaCAIB2mK8naN2m9zc2OJA0gIV+6QSn2jlYV/2zRAgYG6SIShFeQwuexjTrjw3ciB1BAkPI6flx5g9yOJwkgQf3DwuIUe0P/MO7DjDRSWNf4N0l/I4nPigfBIaSAROAaEKyz1h9X/8TlZ8nIIuuxDSROoJRa7ruFLOSQfkVeuttMXyWJz0zlh0ji4cFIyK4MWPvyUVd9lsl/RBJAdou4/kEKSDdhEJ0hUzdJfKaBbNvxg2GbEwQoIEg57XXVh5j8OpIAoDinsiD9lNXVrzB3Hp75aS7znOj+BAEKCFJKxw+H7+zuM+TcwhCA3i78eeNbxID0XGzbvYTwObG49iYF9DeuAcEa6/xp1VbxuD8sqZA0gCRKnWtunmUwkK4KNyt+rP2dtg8kfYU0PmEfIkB/4wgI1sjKuiHl8bgek2wj0gAgSW76KykgbXv8qa/0mvx+kviMTVt+WlVFDKCAILmLjJmK5ChvuqRq0sAX7MoLyCAb9yDhbEJAWs9c0n2k8FmROKdhgQKCJGufX3WFpG+QBL7EICLIuoVbW/GlPIAQ6e3jZ4K8ThKf5KKAoH9xDQi+VNtPqiZIupAksJrl6EAySNzKP0UWKE1mPIAQGfCVMj3m0ukk8QlfIwL0J46A4IvLx2WV20q6nSSw+sVoyBGQ7LOSCJAhM9gjZPAZm75/ZVUJMYACgoR6/8qqErnNlMS5/Vgt4whINg46D3FDRij0nqcldZDEJ7/hhZ3iQnRQQJBYBZ36jaRKksAaooAASM+Vdt3SLnFL6c/wgBvPgAKCBGq/rPJkBRovk3jxWsPXAK9jPknciikFXkBmrYaeYh7/1Mt9OzYMUECQEK11NSNddj1JYC1FmvO2LiOG/ucW9JIC0Med3u0vpPDpUGwHQgAFBP1ueV1tsQXhLPGkc6zLvqqbC9ETsyZQFykAfaswXPAvcWOFT9vOneOdoICgvyfgIH6zeNgg1nUyCeKbkUIChFpKCEAfF/s6hZL+RhKfMKDrZ1VDiAH9geeAQJLU9tOqEyQ/jiSwzjtw0xBJfyWJ/hUJ/KV4CrwPd+6ChcziZi+Z/ACS+K/YR6dhvUYS6GscAYE666qHSOK6D6zvgnQrUuh/BT9c+JqkVSlQOD9gNJBJTP4SKXxmYt+eEEABQX8sGi0e9Tsk8cAhrOfOOxxCCgnzRgq8BwoIMkoYsb+TwqcXCRpJCKCAoM91/LTqVLn2JQn0QQWhgCRsUWBvJn9dYlwMj4xS+v0FH0paRhL/M6uLhxGif3ANSBbr/FnNlnGFvyQJ9BEKSKIW/4G/mexb05iUx0ggA1fccyQNJoj/z2OY3zoqx059hdt/o09xBCRbFzAui4tTr9CnBvuto3KIIQFrArMUOAXL8xkJZOC3aw4ZfEJO2/KWCmIABQR9ouNn1ZMk348k0Ici3StaNyeGBCz9Qy1MgbfBc1+Qgf3D6wnh05lERhACKCBYb50/q9nSza8iCfS1WExDSSEBBUQpsEhybcFIIOMWRfFwESl8eqEY1pIC+hrXgGShuIW/FqdeoT+Ytpb0Z4LoXyXxTRa357zTrWReh2HakpFApukNcxdFIjGC+B9uxhEQ9EOxRVZp/0XlEZIOJAn005SyHRkkYO1fNzsmJf00rM18piKMBjJJWV39CkkrSOITKCCggGDd+TWDC9ztWpJAP25lFJCERe3/SvI7yOlsHLYpA4EMrPichvWJuUZVXjeaM2ZAAcG6aess+p64VSr6V43fUMHtWROxRJIl/anNsSDKdSDIwC+XNxHCJ+S25r7NnbDQp2i0WaL58toK89hFJIF+ltPRHh0p6RWi6F8e9RcVJvdpIBH5CEnPMxrIqP5hvshlBPE/AukgSQtIAn24TSEbRDx2vSTu248ErIw5DSsRioY2zpPUmuSl2vaMBDJuCpNxBOSzmexBCqCAYK20X1F1uD769QJIxK6KApKIpf9YxSV7OZnvITSngCDzhP4uIXxqvnEbSAqggGDNl4J1tbkKdTVJIHEbnVFAEhf2k0lelGzDnbCArGggnEEBCgjWXFt+/FQ3DZNJvHgl5BVoO+6Ykqj+ET6R5PEubFsyopqBQOYtuHl94gVQQLCm3r+yqsTcLyUJJHRNLBV35L3NqTkJUPT9Ra9K/l5S12ke7sRIAAAoIJAk5Yd2gaQNSQIJLyEuLlhMxOLf5JI9keTGeQAjAQCggEBtPx+5USC/gCSQlDWp2Z6kkKiyZw8ltwX5/lwHAgCggEAWif3QTcWcu8orGS8z7e51zC+JUNxT9EeZOpI43oM6m6q/ykggY0SZwz/n2j6AAoIvt+qXFcNcPokkkESDOvIqRxFDAn5sqHulw2V/SuZ7iAf6BiMBAKCAZLFoGPm+pBySQHJXxsa1AQmL2h9I6r8vP5BRAABQQLJU5xW1W0iaSBJIARSQBCkK8h4yqS2Jb2Gnll9UcjteAAAFJBvFLPY9mXI5Z5VXsl9u2mXltUPK+Vb2P7toTrvLHkzmeAdRO4GRQOZ8qXjxLBBQQLBGOq6p3MwkFgFIFdGc7vyDiCFRC6bw3qT++67j/NZRnPoJAKCAZJOw1y6WlEcSSJk1sfkRpJAYRZ2NT0t6I4lvYeOOVa0HMxIAAApIlmi9atiGkk4hCaSYA71uSD4xJKDs1Sk06Y5kvgeXTmIkAAAUkKwZyMjpMhVwniqvFLsOpLijMH8/vqEJKgAWvV2mnuSNuR3YfHltBSOB9G/0vLgGBP0pSgQZsOi4oSKvo0unmZwwkIIbqB8h6VGC6H/FF9e/2/bLygdMOiZJbyESDXovlsRziJDO3aNE7E+BfsURkAzQ3mnjJW1MEkjRvfmhPlMRgkjQpB4GNyV5vL/dcfWwzRkJpCs3LycFgAKC1e3vzc4jBaSwDbuWVu5GDIlR+N0FL8j0QhLfQq6H0Z8wEkjbhZHZQFIAKCD4Eq1XVe0j0zacn8orlV9x6Zt8WxPI/fLknivux7VdVbUNA4H0/PrYAObtT3+nFbJlgAKC/2fmnGuNNNhOdaQ7lzEmSuFFi/4g19wkvoVI4H4NY470XBn5AEL49CSuOCGAAgJJUssvqgeZ6wiSQBrYsuvqyq8RQ8IKn7v5Fcl8D27at/2qymMZDaTd98eNAvLp77MoIKCA4GPRnPgEmfI4PMwrHV6h+3i+tYlT1L7ofpleTeaYW6BrWm+o2IDRQHottn0gc/YnXwFHQEABwf9PkmYnkALShtk4r6vNJYgExV2nUG4/TvLbGBT0BFcxGkivL484AvKZUkYBAQUEktqvqdpR0nYkgTQysKOk5+vEkDhFFy18WNJLSX4bx7VdXbkvo4E0siERfLqUGRehgwICSaFOIgSkG3fjNKyET/J+SdKXLq47Vl47pJzRQMrPUXWjo5J4js1nggm7CAEUkGyfB64ZXCDzozkvlVe6vczscL+5tphvceIUXLjoGTfNSPLYD8kNc+/jrlhIdd2Fy7aUKcp8/Zm5u4WtAxSQLNepokMllZME0rA+F7Z3xY4gh0RP9PGLJOtI8ts4pPPayjMZDaSyWGBDSeFzZm55KymAApLtE4H7t0gB6coUTiSFxCq8YPGbsvDy5M9d+lX71RXbMyJI2fnJRAH5/OXiCjIABSSby0fd6KhJ3yAJpPEufv/Oq6q2IocEl5CoXyWpIclvI8/NZnA9CFJ2dhIF5AtWH++QASgg2Tw51s2OeaDvcU4qrzR+BR7xSXybEzx3nNPUbRE/QaZ4Us8llw3PCXMf9hsq8hgVpNwy2zSUOfpzvremt9k6QAHJckXnN97spmtIAmm7k5dOZAGaeIXnLXrZZTcnvQyZ9uyMBXdwUTpScFnEEZDP/9IuJwRQQKCi5saL3DWdJJCmNmyP2VHEkIS5Iy/6A0lLUqCETuy4ruqnjAhSxUeF2IeRxGeFJi5CBwUEHz3luKg153iTniINpOlWfBoZJCH1M+vbzMKJkmIpsOL7QfvVlacwKkgFXb+qGiKpjCQ+K9JLAQEFBP9fQup72nvtmwr0L85R5ZWG5xTv0XZN9dZ8kxOv8PymF2V2WUpsC4Fubb+m8gxGBUnvwznakbn5c1+e397NReiggOC/NrhkYav35BzkUiNpIO1KtIWnkkKSSshmC3/h0rOpsBnIdFP7tVWnMypIcgXZgQw+1yqrW8qT0EEBwScVX1z/bhDG95O0lDSQZo7lyehJWvWPVTxwHSPpvZQoIfKbO66pOpeRQdLqh2sUKXxOLtL7pAAKCD5X4QWL34xI+0p6izSQRko7u2MnEUOS5o3vNL4VKjhaqXA9iGRufl3bdVWXMDJIQvkwiQLyBb8OUEDQH9sVMknLjZXVkbj+KmlD0kB67Pn1emFhyXA79ZVewkiOtuuHX2huV6XOJqFri1Y1Xmh1ChkdJELnjVVbhXFfQhKf649F5zUeSAzoSxwByTClZzcucNn+klaQBtKCacv2zrZxBJE8RecsutqVOrf1Nun89vLKKV5Xm8voICGlN8bRjy9xQPv1lTw8FhQQfLni8xbOkYf7S/qQNJAeHcQv4qF0Sczf5EVlPSdKeiGFSsgxneW9j314Q0UpI4T+3+CcAvKlU7R+03Hd8HOIAhQQfKmi85v+6bJ9JPH0UqSDbTpuqDqMGJK4wjhhaVcYhEcoBR5S+B8u7ZsfBs+23FhZzQihP4Vuu5LCaiqa7Pr26ypv48gk+qbVIqO1Xju8JgjsKUmbkAZS3L8Lz2ncwUxOFEmfM56R9JUUelttLp1VfG7jPYwQ+rzoXjO4oCNSuFJSHmms0Q8Dz8Zy8g4vP2PuStLAuuIISIYrOX9RQ0SRvSQtIw2kuO06b6g8ghiSP2fIdZAppZ58XGzS3e3XD5+18toh5YwS+rTd5hTtSvlYcybtkdPb/Vz7jVWbkgYoIPhC+ec2LIqE2ks8JwQpzqU6rgVJvqLzGv8eD+wISSn28DH7Vk6Q+3LnDRV7MUros4VQ3Nme1t4ID/3pjquHbU4UoIDgi0vI+Y1LFNjXJM0lDaSwbdqvr5pADMlXcvbCv8h9jKTulKogUmXowdMd11fe13Zz7caMFPpgo/o6Iazbd9GjkWe7rq8ZThpYh+0H2WTltUPKcyK5vzdpD9JAilpWmNdWZae+3UEUydd2fdU3zPx3kvJT8O01m9mPCzZaeJONVZzRwtrquKZyM4/qTdZD67WSfCsS05755zfyHBWsMY6AZJkB5y9dVRTrOEDy35MGUtTgju7i84ghNRSfu/CPbsERkjpT8O2Vuft1He8O/3fHDVXf8jr2aVhLUX2T8rGeXJvFo3qSa0Kwdr0V2Tlf1I2Odgx861bJTiQNpODE1BqGvcOLz3vtPdJIDZ03VO4RSg9LGpDCb3OuyesKzl70u0y+m1rrr4dtGPQG35RslKRyuVok/cvieqjwO41vsbWuuY4bKv/i0t4k0Sfqe6N5e3B3LFBA8OUlxGUdN1T+WKYfsS0gBaenW4vOWXgaOaTQwvf6mpFBEP+jXJul+Ft91aVrikp6ZtoJS7syJf+267bayIKcUyVdJKn4c/6TXsnv6JJ/d9A5TS1ssavZnm+o2CBQ8LakKGn01aLSZxesyD3A6up7SAMUEHz5Tu2Gqglmfqe4DSFSSyy0cLuSs5rqiSJ1dF4/dIswiD4qaes0eLsr3f0ej+i2kjMXNaTvHF25rQU6T65j1nCenhvrzRld9p36FWyxX6z9huGnyuw3JNHnC8spBWc1HscznUABwWp13Fj1NZf/TtIGpIEU8njR2Y0HEUNqef/KqpLCwnCKZGnz9HqXnjXTDIvoocLTU/80Jb9108LO7pKDZH66S/uswwe+o+icxlPYWr9sv1f51DplizXZAC8tOnvRz8kBFBCsVtctlUPjcT0qqYY0kDK7MQ8PKD6n6QmSSLFxqVPQMajyZ5K+m2b7Epf0Nzf7XRjTQ6XnLVyYKm9sxa1Dy/J7cw5w929JOkhS0Xr8ue64BZuVnrXgQ7bWz2r99bANg1jkbUkR0ugXoaRDis5ufJwoQAHBaq28dkh5bjR3mqQDSQMpMUmZFhaE4bZ2TlM3aaSe9hsrj5B0l6TyNP0Iy8z1tMtmR6I+O/+MxN1K1Otqc9sGxXcLzPeV+36SdurTBbH7IUXnLPoDW+nnbLc3VZ0u91tIon+XFBEPd8o/p2kxUYACgjXYKSro2KDqMrl/n20EKeLHRWc1XkYMqanrlsqh8VAzJO2YAR9nmaS/S/qHW/iP0KOv9NVRBHdZ+6+rtg5C38+l/fXR85iK+uuDuOnbxWc23ssW+lkdN3H3qwR5tbCoZ5dMuhkEKCDo/wn6m5LucamENJDsNW5Ewbb5Zy1oJIrU5DdU5HVGIj9z9+8o854x9UczPeGu9rXcw0Yl21TuI12qMWlTff7dq/qpgNiBxWcu/CNb5ye13Vy7sXnvMnH6VWK2Q9kNxWctPJckQAHBGmu9eXhNxO13LlWRBpI8WT1VcGbj/txZJcXnjBurRwcW3i1pS9JIqs7unNgmA09d0kwUn9R+c+UZct1MEgnsIPLDis5a9ChR4D94aiy+VMmZixo6w/CrLs0kDSR5D7Zv+01VE0gixeeMsxfM7s6JbSvZrfroQlQk5wtzJ+XjC7M5hhASyiSb3H5rzSZEgf/ZKIA1037L8NPkdq2kfNJAkiyP5eXUlJ3M8w3SQcctFbu4gt/ItS1pJHTHvqA93766wUkLW0njk1purKyOBGogiWQUP/990VmLDicISBwBwVooOmPRb9xsZ5MWkgaSZMNod+8VxJAeCs9oeqlw+aY7mukCSW0kkhD/8mhkH8rH54sGOpkUktWM7bCOmyqPJghIHAHBOvCba4s7rfcWdx1LGkjGJhiY9io4o/FZokgfHTdUDPZIcIOkb5JGv7mlsLDnAu449AUTx8za3I73e5eJB+4m0/vxqEaUntr4AVFQQIB1W1DcVDXW5b+WaSBpIMEz1+LC9vxt7aI57YSRXtpurD7AgvDnkkaRRp9ZbvLTC89c9CBRfNk+q/JoN00niSRP327TCs9ayPV8FBBgPRYTt2+1kfXm3CnpYNJAYvmvi85YdAY5pOnccUvlfib9SuL6kPU0Kx7RGfyivHrtt1S+JGlnkkiB2dvDA4rPbHqCJCggwHpMJLLOXw8/y2VXSiogESRs0/PwG+zE0ngAZyrS/n7lBDPVSdqKRNbKO+Z+Fkc91kzHTcN39sBeIomUWX3OLXxv0x2sbnaMMLITF6Fj/ecRkxeesejGuGx7Sc+RCBK26QXBnSuvHVJOFGk6gGMVLz6z8d7Cr+RUS366pCZSWd26Ta0y+1Fhe/5wysfarHaCcwghhbi27tjw7VMJIqvnMqAP55Q6BR0bVp5u0uU8QR0JmsTuKzyj8TiSyJT5Y/iBUnCO5Puzj/qEXplu92jvZcWnvPYecay5zluHbhHGo02SckgjpXwYD4Oq0rMWfEgUFBCgbyb8m2q2DIP4b2T6BmkgARPZkYWnN/6OJDJH683Da4JAZ8vtOJmKsnmR5vIpUYvenH9awyK2jLXX/pvKm+Q6kyRS8EcH+fXFpy86jyQoIECfartl+Hgzu1rSxqSBfvR+qPjIktMXLyeKzLLy2iHlefm5E102XvJdsmS/FcrszyafXNATPmTnNHWzJazjPujm2o0t6H1NPEA3VXVZNBxeeErTMqKggAB9asWtQ8vy45GfynSGpAiJoF8mM9Mf8k9ddKiZnDQyU+ftVVup14+R+TEujczAj/imyyYH8d67Cs567XVGfP11/Gb4L+W6iCRSeO52/abgjEWnkwQFBOgX7b+u2N5kt0jahTTQT1PahYWnN15NDpmv7dbqrS0eOyYwHeKyrdP4o/RIeiS08I6idxc/YXUKGd0+2kZu32qjoDe6OMtP4UuL74BFg+qCUxa+RhQUEKBfuMu6bq081uW/kLQZiaDPF3NuexSe3vg3osiihebNQzaOBNH9Q9N+Jttf0iYp/pY7JD3lbo+Eij/MqYP9FPKvh18vE3e/Soe1gXRX0WmLTiQJCgjQv5PNvdsUdbR3XWTmF0kqJBH0oSVdFt9h4KlLmokiO7X+etjISBDs49K2JttW7rVK7jUAoaQ3zPSnMNSjhZ2dT9l3lnUyUv2n89ahW7hHGiXlkUZaiFksVsGphxQQICE6bq8Y7HH93GQTxXNp0HdT28zC0xrHkQMkyetGR3s2eGt4PGLbuMJtTRoqabAsGCz3DdT3P4K859IcuV4y+bzenLw/l51cv4KRSJz2W4ffaS5+UU+vb+o1hac1XUAOFBAgYT7+xfLnch1GGuiTXZnrtKLTF91KEljttjKzNretrbsspyv4xLOLeiJqKYnldNmZ9W2klD7abhu+XRDqH+KmJ+n1PZRaCnt8czunqYU0KCBAQnXcOnxnyS6XfG/SwHrqCt12KT6t8VWiALJqPzJb0l4kkZbL0gsLT+VGIhQQIEk6bx22d6jg+ybtRxpYDwt74t27lp/xxkqiALKgfNw2/Ci5fksSabssfb3gnU0rrG52jCwyG+fcIyUVnLr46aJTF+2v0HaW2cMSz3bAOqnKjeQ/4DNrc4kCyGx+zeACua4iibQexS07N152BDlQQICkKjy98W+FkxqPiJtvLbP7ZIrJJF681vzle3es6uFaECDDdRTlXyrTVsx56f2ySHASW3Pm4xQspJXOX1cP8Wj8fLkmKbm31US6TXZmPyg4pfEXJAFknq47q6rCePiquO1uJggVDYcUnrj4TaLIXBwBQVopOH3B0sJTFp3rkWCYyy6T9A6pYE24+886bq/k1rxAxn23ZWEY3kb5yJy1qcUiE4khs3EEBOm947l1VE6nmo+QBadLPpptGqvRJYX7Fk5a/AJRAJmh/fbKSebOaZaZtXdvLDilqdqM6z8pIECqryxvq64Mg/BEuZ8iaSCJ4At8GMTju+aftmQRUQDprfOOrbZ0j86VVEIambZCDXYvPHnh8wSRmTgFCxkjf9KCxsKTG79b0JO7pZtOk/QSqeBzDAqjkT+03b7VRkQBpC93mXv0TspHhvYPDzkNK5PHlwiQybruGFbhsvHumiBZJYngf8zp6e0ezTNCgPTUflvFGWZ2M0lkrHcK3lo02OoUEgUFBEhbrbdV1EaC4Fi5HydpExKBTC8XWLC/nbSwlTCA9NE9uWJEPG5/l1RIGhks8N0KT2p6kSAoIEDa85mKdDcP3ycM/HC5HSppC1LJ5lnQ/1IQxA62E5Z2EQaQBnP4XUPyO+M5L0vahjQyfbB1VeEpiy4mCAoIkHE+OjKiQyQdKtlufC+y0iMF8dKj7NRXeokCSG0ddw6/Xq5zSCIrNBWevGg4MVBAgMzesd1eMdjNDja3fWS+t6QNSCVrZsPpBW8umsj5xkAql4/Kb8r9AdYv2SMe+siSSU31JEEBAbKCu6z97uqRQTy+j2R7S76XpHKSyeAJ0XRb/omLTuPe80Dq6bqtujIexP9uUilpZNNC1b5fcHLj5SRBAQGydwc4uXKou3Z3+SjJR0m2o3j6boY1T5tSUNp4vI1VnDCAFPla3rtNUVes82V31ZJGlo299ETRSYsOIAkKCID/TIy3blrYGSkeaRZu7R7UuvnWJlVLGkw6lBAAfaPjzuHTJR1NElmpvaAkd6CNre8hCgoIgC9bv84cXNDWkjcskG2lINhErk1NfrGkAtJJl9nRZhX0lkzgwnQgyeXjjuHnynQdSWTzTpWnolNAAKyT9snDf2quS0kijSZI12P5kd6juEUvkKTycWfFrpLNlpRLGlk8F5suLThx0c9JInMERAAkRqEHv5TZu7KPqz+vlH95oIO6POchnzmYI1dAgrXfWrOJAntAplzmo+x+hdJefCMoIADW5Reckxa2uulHJJFeXDqgs63gT35nVQlpAAn63t26aaHlxB6UaxPSgElf85m1HAWjgABYF4VFjZNNPpck0s4enRY+1Xb7VhsRBdDf5WNUTle0+AFJu5AG/rP77GiNbUMMFBAA68DGKm6uC0kiLe0URKIvdN1ZVUUUQD+VD5d15LTc6ubfIA18cgfq2xECBQTAOso/qekJmT/Eeb1p+RoaBv5i593D92RLBvpexz3DLzPTCcw1vD79MgspIBQQAOv1Q04kPFdSO0mkIx/gric6Jg8/hiyAvtN+V+Up3CkQX7Jk3Z4MKCAA1kPBcUveMPlVJJG28mSa2n5XZR1RAH1QPu4efrCZ30IS+GK+rdexbqWAAFgv+YpdKWkJSaQtM/mPO+4afoPPVIQ4gHXTObliL3PNlCtKGvgSRd1bVVcQAwUEwPqsXk9Y2uWBzuXc3rR/nd3VUfHIqqlbDGCrBtayfNwzbG8P7A8yFTKX8Frt80A8th3fGgoIgPX9Oefbix6V+wySSG8uOzC3N+/vbfdUcZtIYE3Lx92V+7oHj0oqIg2sgRUeqokYKCAA+kA84udI+pAk0t6wwMMXOu7m4nRgdbruGr6/yx+RVEgaWANLIqHvUXRi0z+JIjMYEQDJ13lXxbFudi9JZMzEelt+d+lZduorvaQBfKp83F3x9VD2kKQC0sAaeC4ehEeVHLd4OVFQQAD0sY57hj8s6TCSyBCuZ0PvHVt8wtJ3CQP4SNu9FQcEbg9JyicNrH6R6rfnF+SdZWPre0iDAgKgH3TeO3QL98g8SSWkkTHelOxbhd9u/BtRINt13Dv8SLmmScojDaxGu5mfW3Bc051EkZm4BgRIEQXHLXnDzb5HEhllc8mfb7+nso5b9SKry8c9w8+VaxblA6tj0ry4hbtQPiggABKkcEnjr+V6liQyStTkP+7sHP5s1+TKocSBbOIu67in8gpJ17HmwOo2F5luyG/2HUuOWzyPODK+aAJIJV33VFeGFn9VnCOdiRNus6QzCo5bNI00kPGrybuG5HdGondLNo40sBrLXXZC0XGNjxEFBQRAknTeV/l9d/85SWTowsx1V2FB7jk2tr6NNJCJWidXbBCJ2O9l2oU0sJoZcUZcfg53uaKAAEj2dHzrqJzOgpbnJe1EGpk6yFrkEZtQNLHx74SBTPLxUdzHJA0jDXyJN911RtG3Fz1KFBQQAKmyE586dHgYj/xTUjFpZKyYpGsK8jvrbOyyTuJAumu/Z/ghZrpH0kDSwBfolXRzQW/wIztpYStxUEAApJjOeytOcrM7SCLjLQnMT8+f2PQEUSAd+UxFOrorf2jyH4qLzfHFngotcn7xxAVziYICAiCFddw3fJakb5FE5q/hXLo3HkYuKP32gg+JA+mibdpWGwWxnOky35s08AUWufzComObfk8UkPiVAkh53bHeUyS9QRIZz0z6dtTije33VU4iDqSDzvsq9wji0X9SPvC5XG+67NSCwZuNoHzgEzs8IgDSYCc/ddjeHgZ/5keDbJqc/XHFomcUnLBgKWkg5daVLuucMvwCSZdLipIIPuUtN/9FYW7eHTa2voc4QAEB0lTHlMrLJf8uSWRX93Tzawu7IldwsSZSRdtdQzYOcnJul3QIaeBTFrjZtYU9PffaCUu7iAMUECDN+dOjo51vvfWcpJ1JI+t8INfPCvIW3WRjFScOJEvH1IoxcrtF0ldIA/+zh3pepusLcpoeZI4CBQTIMF33VFeGkfgr4ta8WTph+1xzuyD/2EVPkgYSqfXeYRtGIsEtch1FGvjYKpPuDyN+W9ExTf8iDlBAgAzWOaXiRJfdSRJZPXH/IQh1Ud5xixpIA/2tY0rFt+R2i0wbkEbWC930lIW6qyDW+ztOswIFBMimEjK1YrKkE0giq8UkmyzFflEw4bXXiQN9rWVa5VdyPLxJ0jjSyGpxmb/grt8r0IzCYxa/SSSggABZyGcOLujuzX/epe1JI+v1SrrHFFyeP6FxCXFgveeXOgVdlRUnyvVzSRuSSFbqMOkJN/t9LOqPloxtep9IQAEBoK6plUOl8B8uDSANfFREfKqF+nn+sYubiAPrtOqcPmy3ILQbXBpFGlm1GFwZSs+b6wV58Fx+rOfvnF4FCgiAzy8h04cf7KH/XjwfBP8VkzTdwsjP849duJA4sEbF457KzSwaXilpPGuDjOaSvy7ZQpcvNNe8ILAXco9pmm8mJx5QQACskc7pwy6T2w9JAp8Sl+u3brq+cHzTi8SBz12NPlaR17VK35H0fXF3vXTwun9096kSSbkmFbnUKanr40Vds7utkPmHcl+hwFa4+wrJ3gzdGotyOhfa2GWdxAgKCID1W0B8dL72Y5IOIA18gX/IdEN+JG8GTyXGf+aNzuHDxprZzyQNI5G0sCA/1M42samFKEABAZB0LfdUD8rJib0iaUvSwJd4V65b4zmx3xSPXfoucWR18fihpBEkkjZCD33PwomLnycKUEAApIz26UN3DBQ8KymfNLAaPXLNcg9uKJzQ+DfiyJLiUTVsjLn9SEbxSMMR/E3BMYtPJwdQQACknM7pw06R7DaSwFqY52b3ugdTi45Z+DZxZGjxkP1QUi2JpOVC7V95ka6vce0GKCAAUlbH/RU3m+sMksBaikt60t3uLYh2PsRiJ82Lx5SK0u6oJnioszjikdbazMJR+UcvaSQKUEAApO7C4+nR0a53l/1J0j6kgXXUIulhC4J788Y2PsXtOdNH+9Rho4IgmCT5eHFXqwxYpdmJBUcvuosgQAEBkPKaZ9YOzA27X5ZUQRpYT29I9kczfzRvVdkf7dRXeokktfhdQ/I7C6KHmnySZPuRSKZ0D/02f1zTGJIABQRA2uieVlHrgZ5zqZw00DcrXX0o2aNhED5UWNj5hB36dgehJE/H/RW7mHScpAmSSkkko75sS7vy4tsP+ObSVWQBCgiAtNI5vWK0TH+UlEca6Ov1r0lPuPlD8Xj4x+Lxr71HJP2v6/6hla5ggj56YjlHODNTzN33Kjxm8QtEAQoIgPRcJc6oGGuu6ZIC0kA/WiLZn13+5554z5/LJ7yxkkj6RsuD1YNye3qPctlxknZj353h3H5UcMyinxIEKCAA0r2EnG/SNSSBBIlJ+oekv8j8qfz2+At2wtIuYllz7dOrNo1YeKgHfqRc+0qKkEpWeCbfmvaxsYoTBSggANJe1/3DfulmF5EEkrH5yfRPc/0tdH/ZgujLBWMXvkYs/+V1Cjqqhu4QBJFvSDpM8h3ZR2edFR76doXHLH6TKEABAZAZCxyXdc0YNllmx5MGUsD7kv9NZn8z+d+6entfzqbTttxlPQ9UVnkY31Nu+7u0t6RBbBZZPEfLvlU4btEDJAEKCIDM2sE9PTrauXzZgyYdShpIQcskNbj7/CDQfI9HGnrzgvmlRy74MN0/WMcDFYODuI90D3aStIvku0gayJDjo8nZbis4etGpBAEKCIDM3M/NHFzQpYInJN+dNJAmlkuql7TA3Zco0DKFelNRe70g3vROKp0v7zOHlnW6jQyCYGQo39pcIyVtTdnAl6jPL+j4Kre1BgUEQEZbNXWLAXk5uX/9eGEEpLOYpHckvSHzNyzUmwqCJR6GjWZ6szMn/kFfPUuheWbtwLygc1AYCwYFgQ1yaQO5D5G0lUwf/b/S5gwJ1kJrEARfzftW4wKiAAUEQMZrn161aRCJPS/ZENJAlugyqXNt/gcuFUnKJTr0A3dpbOHYpt8SBSggALJnNXZ/xTAP9LykjUgDABK4ADP7Vf6YRdyZEBQQANmnY1bFeSZdSxIAkCCuZ/I3GLyv7T07RhjIRjwZGchy5rY/KQBAwtrHO3HFxlE+kNVrDyIAstfK3w0pz49F3xPnuANAInR5oL0Lj2p6iSiQzTgCAmSx/N6cIygfAJAgrrMoH4AUJQIgi1n4LRkHQgGg36db19X5Y5vuJAmAIyBA1vKZtcUy248kAKDf/SnPmy4hBoACAmS1jqBrP0l5JAEA/aqxu7vnGBurOFEAFBAgy7/8wYGkAAD96kMLI4eVT3hjJVEA/8U1IEC2Mj+AEACg33S5/PCCsQsXEgXwSRwBAbJQ94PDRkrakiQAoF+E7jax8KjFzxMFQAEBICkuHj4IAP3FTRcWfmvRAyQBUEAA/P/eUaMJAQD6Y3713xQe2XQtQQBfjGtAgGzbN9Yp6DJ9jSQAoG+Z/MG8+OKzSAKggAD4H+3bDt8m4j6IJACgTz2Zl2/j7SButwtQQAB8+ku/lxMDAPQhfzY/1n24HbSsmyyA1eMaECDbdpPuu5ECAPTRnCq92p3be7iNXdZJGsCa4QgIkG1MOxICAPTJfLog3qP9y4/kQYPA2n11AGSNlkcqv5ITC98nCQBYb40eDfYpPLTxLaIA1g6nYAFZJDcW34kUAGB9+cIwiOxN+QAoIABWt8tUwOlXALB+GuK98dFFhy98myiAdcM1IEAWMfNtuAMWAKyzBWE8Z9/isU3vEgWw7jgCAmQRl2pJAQDWZf60ObHQ9yo6quEd0gAoIADWZOf5WEWepOEkAQBr7eVYGNmn5MjFy4kCWH+cggVkifZuq4mY850HgLXif8iPdI4tOOLtDrIAKCAA1kIQUY24AAQA1sa9+aWbn2R7z44RBdCHaxIiALKDuYaRAgCsGXe7Mf9fTSdQPoC+xxEQIHsayFCOgADAavWa+QUFhzfdSBQABQTA+uAICACszgcyH5d/2OK/EAVAAQGw/obKCAEAPp/93aN+ZOFBi5eRBdDP3zYiADKfPz062t36ZpekCGkAwKcXQz4lt6tnko1d1kkaQP/jCAiQBTqb39wkCCgfAPApMZNfmnfYkiuJAqCAAOhTwaZSSAwA8F/vu2tc/uFLniYKgAICoI9FIuGm3AALAP7fP13+zYLDlrxBFEDi8RwQIAu4fCNSAABJ0h15Edut4FDKB5AsHAEBsoApGOA8BARAduty6ZyCQxffThQABQRAP3PzgfQPAFlsURAEY3MPXvRvogAoIAASwGQD3WggALJyAnworyd+gn1z8SrCACggABLE5eWkACDL9Ei6MP/gxTcSBUABAZD4BlLAY0cBZA3Tm2Fo4woPbXqRMAAKCIDk7IxzKSAAsmTCezQv0vVtO3jZCrIAUhO34QWyYn/sOYQAIMPFXPaTvL83HW7foHwAqYwjIEA29A+zHOcadACZ653QNKbwoKbniQJIfRwBAbKAS3mkACBz5zh7uvCgxZQPIE1wBATIDjlcAwIAAFIBR0CAbODGNSAAAIACAiBBzHMJAUDGLmbM46QAUEAApBJ3TsACkLlTXKgOUgDSB9eAANkgsE5CAJCxzNsJAUijZQkRAJnPxa+DADJ5jjPmOIACAiCVmDk7ZwCZu5gxtZICQAEBkEqcXwcBZPQkt4wMgPTBNSBANjBOwQKQuUL5m6QApA+OgABZwJ2L0AFkMMvlCAhAAQGQUvtmrgEBkLnC/OboW8QAUEAApJYWIgCQod63sfU9xACkD64BAbKB6V1CAJCJ3PQGKQDphSMgQDbsoN3eIwUAGbmQcTWQAkABAZBizOIcAQGQoROc6gkBoIAASLX9c2AUEAAZyeXzSAFIL1wDAmSBnt7g3ZyoEwSAjBO6zSUFIL0YEQCZz13W/eSwbkk5pAEgcyY3vZt/wOJNCAJIL5yCBWQBM7mk5SQBILMmN/2NEAAKCIDU9RoRAMio/uH2EikA6YdrQIBs2VGbNbp8d5IAkCk8CP9OCkD64QgIkDUNRE2EACCD9OTFi18kBoACAiBVedhICAAyhvlLdsCcdoIAKCAAUndnvYgQ0tJySQ9JaiMK4H+nNP2FFID0xDUgQJbILexd1N2RF4ofHtLJ7HgYnVD09YVv+9Ojo12xN3YxCw6R/JuSKokH2Sx0PUUKQHriOSBAFun687A3JG1OEikvbtJPcp9b/HOrU/h5/0H3n7faRoocIvmhLn2VYoks05q3Iv8rNra+hygACgiAlC4gFY9IfghJpLRlHtrEgq83/XWNV2J/GrZhNOoHm+wQub4uqZgYkeFm5e+3eCwxAOmJX8yALOLSP0khtRdVebHubdemfEhSyQGLlxfsu+Su/H0XH5UX2XyAu+8h2ZWSuPEAMpK5P0QKQBp/h4kAyB7dfx52hJt+RxIpZ6ncT8nfb8mf+37MPzpVywPfX66dJRUQN9Jcb15u70a2xxsriQKggABIcZ1PDt3CAnudJFKGy3V7Xn70Qtt9YWu//2NPj472+pvbuvt+rmB3ffRgynKGAWm2cvlz/j6L9ycIgAICIE10PzXsA5cGkUTSNbnZyQX7rN3pVn1eSMLXdwgt2MXddjYLd5XbVgwNUtzZ+fsuvokYAAoIgDTR9ZdhT8q1H0kkrwO67Nr8jo6f2qFvd6Tam2v781YbRYPIzi7f2aSvmmt7CitSSKw3ps1KDli8nCgACgiANNH59LCfmutSkkiKxxTx8/L3WpJWD4XsfHLoFkEk2D50bW/m20vaTtIWDCeS4A/5+yzmTn5AmuNBhECWsdCelTlBJFaTzM/P33vJo+n45gv2X/KGpDckPfyf/5s/VlHamW81Zj7S5NVyjZRU83Ex4cct9M/8JbuXFIBM+C4DyCr+XFVJd09shfgBIhE+kPTTvA/yf5MtD0zzRzYt7CnNH6Z4MNSlYVI4TLJhcg2VaQtJeWwWWEfNefndm9huyzqJAqCAAEgznX8Z9neTdiSJftPhrmvzu+2XdlBTC3H8V9uft9ooNyeyaRjTYJk2d/dNA9PmLn3F5INctoGkDSSVkBY+2W51R/6+i08hCCD98QsokIVM/qzMKCB9H2yPpLvjPdGfFH194dsE8lnF+732nqT3JP3rS9eaj1XkdUQjg6J5vYPi8UhhYPESc5WFQVBoHhaZVNZf7zGUFZv0PUkRRix1hAruIAWAAgIgXdfJZs+4dD5J9JluuU32MH5lwb6v8ZyVvthGD2rqlvT2x6+E63x6mEzcrCFVuPSPwn0WvUwSAAUEQJrK7bS/dBd4r6Qc0lifVfJHRzxCt58W7tO0jEAyR742/0m33txb0tdIIyXw3A8go3afALJS1+yhfzXXniSxTlbJ/fZYNLy2aM/X3yGOzNT59JAhgYJ/iafFJ5VLH+Qp3Nz2XtpFGkBm4AgIkKVM+qOMArKWXpPp1twwvNX2WbqKODJbwd5Ll3b9ZcjRFgR/ENeDJHOuut1GUz6ADPteA8hGPU8P2c4t+BdJrJ5Lz5rs2ty9Fj9sppBEskv37GE/lPwykkiKWBj3Cq6tAiggADJhUe2ynr8OWyb5pqTxuZpdmhYEwR25ezb9kziy/bsy9AFJ3ySNhJuSN3rJscQAZJaACIDsZCZ3+UMk8em1pp4x+XG5uT2b5I9ecgblA2by3GjOtyW9ShoJFcrivyAGIAPnVSIAslfnX4ftE8ifIgl7W/L7PNDk/D2WNJIHPk/7c5tvGo3nvChpC9JIxM8B+m3e6CVjCAKggADIpP37TEW6Nxr6jn305Ols+/QfyoLHPAxn5fmWj9ves2NsEVid7mcqRsjD5yQNII1+XqAEtmPuHotfIQmAAgIgw3T9degdJp2UFZVDel/Sg+42I3/54mdsrOJsAVhbvc8M2Sv04DFJhaTRb1/WR/NGLzmUIAAKCIDMXUzNzuBprsHMHw/jejxPW8zmSAf6pLg/M+QA8+BhSXmk0ff1w4Jw19w9lvLkc4ACAiAj9/Qu63l26CJJwzLkI3WY9ELoetSj/lDB17h9J/qphDw77Bvm/hAlpM/9Nm9Prv0AKCAAMlr3M0N/JOknafr2O136u0nPhxY8kV9Q9rzt+Eovo4oEfXeOkjRNUi5p9Iled9Xm77VkEVEAFBAAGazz+a22DOK2ROlxa+53JL0i03OB6floS/B3O6ipm1FEsnQ9N+xAC/0BSQWksb6LEr8xd8/XziEJgAICIAv0PDf0KXftk2Iz1FKFmi/TPEn/Dk3PF+y+5A1GCylX4p8btnfg/ntJxaSxzlpyPaiwPZveJwogs0WJAIAkuXSnlLQC8pbpP0XD6+U+L8fy5tvuC1sZGaSDgt0XP93z/NB9FOoRlzYikXVgusL2oHwA2fF1BwBJXl+b27Oi6zXJN+3bP+wfymyZpDddesPc3zLTm+b+RjwSXZbXrGWcQoVM0fnXLbcKgsjjkqpIY628mRvpqbLdlnUSBUABAZBFup4ZcoBZsN3HzaFYspwvLhbqkKnbXC0yi7vCle7WEYkEK0KLrewNbGVRSeFKq63vIVlkVZl/uXpQd0/P70zagzTWeDVyVN7uSx4kCIACAgAA1qWEPD062pP7xs/kuoQ0VuvxvN2XHEQMAAUEAACsp55nh01y8xvFbXq/SEcYj48s2Ov114gCyB4BEQAA0D9y91h8myncSxIPxPwc7v4jygdAAQEAAH1ZQnZf+lJuNNhGZrNI4xPm5BUMvIEYgOzDKVgAACSAu6z7xa3OMNmVchVleRyhme+au9trf2PLALIPR0AAAEgAM3n+bq/d7PHoNmY+O7vbmF1D+QCyeD4kAgAAErz+dlnvi8NOcferlX1PT6/P7Ql3tL2XdrElABQQAACQQJ0vDhkSCYM7XNo3Sz5ytyL+1bxdXpvD6AMUEAAAkATust6Xhp7q7j+TbFBGf1bp/PzdllzHqAMUEAAAkOzF+bNbDOiJRi+R63xl4HNDzPVkzm5LDjCTM9oABQQAAKSIrpeHVlpcV0s6JIM+1sp41LYt/OriNxlhABQQAABSsYg8N/QgC3S1pOo0/ygu07fydl3yIKMKgAICAEAqr9xdQc+LWx2lwH4qV1Wafoxf5u265BJGEwAFBACAdCsiZpcpjY6ImOsvOd1bHGB7z44xigAoIAAApFsRmalIz+ZDj5bsB5LXpPjbfSO3N9jR9mx6n5EDQAEBACCdi4jLul8auq9J50o6OAX3510Was/cry35O6MFgAICAEAG6XphWIVF/GS5TpVUnhKLC/OTc3d+7U5GBwAFBACADOX/GFrWHdPxJh0vabukvQ/Xb/J3XXI6IwKAAgIAQJboeXmrbRXat2Ua79JGCVxU/CWnpOBAq63vYRQAUEAAAMgy/vToaHf+6wdaYOPkOkRSWT/+c3Nzo9rDdlzSTPIAKCAAAGR7GZmpSGyLobu6fIybjZW0cR/++bfiZrvypHMAFBAAAPD5ZWSrYbuE8fAbMjtA0ihJwTr+uVUKbI+8nRbPI1kAFBAAALD6QvKPyq/0xOL7ufmeJu0pacQarhG6Q7cDC3ZZ/DQpAqCAAACAdS4k3b29u1nERsm1vaTtJQ3+9H8maULezkumkxgACggAAOj7UuK928u1jcwqglCv5u685DckAwAAAAAAAAAAAAAAAAAAAAAAAAAAAAAAAAAAAAAAAAAAAAAAAAAAAAAAAAAAAAAAAAAAAAAAAAAAAAAAAAAAAAAAAAAAAAAAAAAAAAAAAAAAAAAAAAAAAABAVjEi+HIHHnhgXmlp6ZZmtmkYhoPcfUMzGySpWFKJmUXd3SSVS2o2s9Dde82sNQzD94Mg+MDdPzCzt8IwXDxr1qw2UgUAAAAFJMt985vfHBSNRrcNgmAbd99aUpWkrSRt0sc5vefui4MgmOfu/zKzf3d0dMx55JFHOhgFAAAAUEAyUF1dXbBw4cKRYRju7u67mdnu7r5lEt9STNK/JD0j6a/RaPS5adOmrWTzBAAAAAUkTR1zzDFfCcNwb0n7ufuh+ujIRqqKS/q3pEfd/ZFZs2a9wqYKAAAACkiKGzNmzMaSvmVm4yTtJilI048yX9L0eDw+7YEHHljCZgsAAAAKSOqUjoIgCMa4+/GS9pQUyaCP55JeknRHZ2fn/Vw3AgAAAApIkowbN26ku0+SNFHSgCwYu1WS7ovH47c88MADC9iUAQAAQAFJgDFjxuwu6RIzO1jZeVG9S3pK0g0zZ858hE0aAAAAFJA+VldXFzQ0NBzj7pdI2pph/LiJuL8QBMHPZsyY8ThpAAAAgALSB+937Nixh0i6TNJ2DN8XetHdL501a9ZfiAIAAAAUkHUwZsyYfST9ysy2Z9jW2J/i8fgFDzzwQD1RAEi2448/Pr+zs3OrMAy3lLRZEASF7l4oqVhSToLexj9nzpw5k9EAAArIlxWPLYIg+Jm7H8twrZPQzKaGYXjBrFmz3icOAIkwfvz4AfF4fJcwDHcys69K2kGp8fylw7heDgAoIJ/r+OOPz+/o6PiBpIsk5TFU622FmX1/xowZt+mjC9cBoE8dffTRQ+Lx+NclHWpmByhxRzXW1OIRI0ZU1tXVhYwWAFBAPr0T2y0Mwzsk1TBEfe55d580a9as+UQBYH0deOCBeaWlpYd9fBv0/VL5vbr7ebNmzbqeUQMACsj/O/TQQwsLCgp+Kel0pe9Ty9NBt6SfLV++/IrZs2fHiANY0K0wAABA+0lEQVTA2ho/fvyAWCx2oaRJkr6SBm+5NScnZ/DUqVNbGD0AoIBI+v8HCU4Tt9VNpL+Z2bEzZsxoJAoAa+LjH4rOlnSJ0uuhrzfMnDnzXEYQAJIvFY4y2JgxYy5y91coHwn3VXf/57hx404lCgCrM27cuEMKCgoWSroizcpHaGY3M4IAkBqSegTksMMOK8nPz79L0lEMRXK5+8O9vb3HP/TQQ6tIA8D/GjNmTFkQBL/8+DqPdPSHmTNnHsJIAkBqSNoRkDFjxlTl5+e/RPlIkSZqdnheXt7fxo0bty1pAPiPcePG7WRm9WlcPmRmNzCSAJDlBWTcuHGHmNk/JI1gCFKHuw939xfHjh37bdIAMG7cuDHuPlvSZmn8MRpnzJjxJKMJAFlcQMaOHXuKu/9OHz35FqmnQNLd48aNu3X06NFR4gCy09ixYy919xmSCtP5c7j7deLZRwCQUiKJ+ofq6uqCDTfc8GpJvxC32E0Ho4qKinbcbrvtHp07d243cQDZY8yYMReZ2eVK4YfVrqFV+fn5354zZ04vowoAqSMhO5cxY8ZEzGyypOPSNKcPJC2RtFTSm5Led/cPgiBokdTm7v+/czOzIn10FGEDd9/QzAaHYTjMzKokbZiGn31eEAQH3X///W/ydQGyonx8x8yuzogdnNlVM2bMuJhRBYAsKyCTJk3KWbVq1VRJY9Ikk2ZJz3z8+nckEpk7ffr09/riD3/84K6vStpJ0i7/196Zh8lRlH/8+9bMZjcniZAAKhjkygFRTkWuBY2ywoZkQ3XvJAQiwnIIggh4IQwCyikIiBLwZyAkO91FNiGAESG4gQCinJIsCTdySQJkc5E9pvv9/bEDBgiQY6qne+b9PM8+4chWVb9HVb11vAXgIAD9EyCT14IgOGzmzJmLxGUEoayDj0lEdEuZfE6glNopl8u9LJoVBEGooABEa92LiG4DUB9jGbzHzAuI6D5m/juAx4wxQRQV19bWpocMGfI1AIcBGAtgtxjLablS6shcLveAuI0glB+ZTGZUEAQPI+F3Pt6HmVuMMZJlURAEIYZYu2RcuMDcHNPgI2DmeUQ0rbq6eta0adPWlKIRra2teQAPFn5+qbXeiYgmAjgOwPYxk9mgMAz3ACABiCCUGRMmTBgUBMGscgk+ACCVSl0rmhUEQYgnVnZAstmsamtruwXAxJh9bxsAo5SaGudt+YL8DgXQhJ6dkaoYNGu67/tHi8sIQvnhOM5UAOWUfnuh7/ujINmvBEEQYomVHZC2trbfxyz4uBfAr33f/3sSlJLNZsNCm+9taGjYNp1Ofw/ADwFsXaImPcnMJ4i7CEL5obU+GMlNELJeiOi3EnwIgiDEuJ+2MJj9tJC+sdQwM9+llLrY87x/JF1R9fX1fWpqak4gop8A2DbCqt8NgmCfmTNnvijuIgjlRV1dXXX//v2fADC8jD5rWZ8+fbafOnVqh2hYEAShAgIQrbVLRM0ofe742cx8njHm6XJTWH19fZ/evXufDOBs2N8RCZi5zhgjrwgLQhniuu4ZzHxVmX3Wr33f/4VoVxAEoQICENd1v17IIlVTwu95AcAPfd//S7krrhCInA7gFwD6Wqrmp77vXypuIgjlRyFF+vOIX8KLzaE7n89/uaWl5TXRsCAIQpkHIJlMZusgCB4F8MUSfUcXgKv69OmTrbRtd631F5RSv2HmSUUuerbv+w2Qc9SCUK59RxMR3VCCql8lolZmfoKIXgTwVhiGxXqpfK0xpk20KwiCEG82+xJ6bW1tOggCr4TBx31E1OR53guVqEBjzOsAjnEcZzoRXcvMOxeh2LZCQCPBhyCUJ0REZ0dYXweAGcx8gzHmX9K3CIIgVDZqcwsYMmTIJQAOLkHbA2Y+f8SIEaMrNfhYF9/37165cuXuAM5Dz47QprKCiMYZY1aLewhCedLY2HgAgJ0iqm66UmoX3/e/b4z5pwQfgiAIwmYdwdJajyaiuxH9pfOlzHy0XI5eP67r7haG4XQiGrWRv8pEdJTneS0iRUEo6z7iBmZuslzNO8x8nDFmjkhcEARBWJdN3gHJZDJbEdHNUQcfzDyPmb8iwccn43newr59+34NwDXYuNXGCyT4EITypq6urpqZteVqng+CYD8JPgRBEISiBiD5fP4mRPseBYjodyNHjvy2Mea/orpPZ+rUqR2+75/OzPUA3tqAwO7OESNGXCiSE4TyZsCAAQcDGGSxipfy+fwhM2fOfE6kLQiCIKx3Tr8pv+S67kRmvjXCdjIz/9wYc4mobOMZN27ckHQ67RFR7ScEds91dnbuO3v27HaRliCUN47jXAzg55aKX8XM+xhjloikBUEQhE9io3dAxo0btyUz/zbCNgYATpTgY9OZNWvW0mXLlo0GsL43PVYDaJDgQxAqhoNsFUxEJ0vwIQiCIBQ9AKmqqroawJCI2vceMx/p+/6NoqrNo7W1Ne/7/k8BNOF/WbKYiI7zPG+hSEgQyh+tdW8A+1gq/m7P86aLlAVBEISiBiBa60MBHB1R27qYebwx5i5RU/Hwff9GZv4meu6FXO55nhGpCEKFdPhK7Qag2kLRrJT6mUhYEARBKGoAorVOAbgqonaFACYbY/4qKio+xpgF+Xx+D2b+uUhDECoHZt7JUrn35HK5J0TCgiAIwoawMS+hN23CuxKbBBH92PO8ZlGPPVpaWt4UKQhCxWElAFFK/VlEKwiCIGzwuLEhf0lrvQURXRBRmy70PO9qUY0gCEIiApB8Op3+i4hWEARBKGoAQkQ/AjA4gvZM933/PFGLIAiCFbYrdoHM/Nj06dNXimgFQRCEogUgY8eOHQjg9Aja8mxHR8fJohJBEARr9Ct2gUT0tIhVEARBKGoAUl1d/RMAAy23o4OInDlz5qwSlQiCIFijb7ELZOaXRayCIAhC0QKQCRMmDGLmU203gohO8TzvKVGHIAiCVYq+A6KUkuNXgiAIQvECkO7u7hNtDFgf4WbP8ySDiiAIgn36WCizS8QqCIIgFCUAaWpqqiKiH1iu/79dXV1niBoEQRBK2+cLgiAIQskHoxUrVmQAfNFy/WfOnj27XdQgCIIgCIIgCBUegDCz7d2P+b7v50QFgiAIgiAIglA5rPcl9EwmMyoIgn0t1tsVBMFJAFhUIAiC1rqfUmo3ALsw804AdgCwNTNvTUSDAdQA6IWeLE4dAFYT0cowDFcU/vkdAEuIaAkRtXV0dCyR3VUhqUycOHFAd3f37sy8s1JqJ2YeyszbENEQ9LzJVV346QNgbcEHVjFzO4DVzPw2ES1h5meUUovT6fQSeaslWWQyma3z+fzeSqmdAewYhuGORLQdEfVh5oEAegOoAvAuEb0bhuG7AN5VSr0ahuHTANry+fzCWbNmvSPSjAfZbFY9/fTTu6RSqWHoeRR2JwCfBzCYiIYw86DCXx1Y+LMdwKqCT68ionYALxPR4oJvL8nlcq8kdS5N6/uPjuNcB8DmDsiF8uCgUEzGjx8/LJ1O77655YRhuMgY01ZMH9Nabw1gm1QqVR2GYX8AKSIaYEsWzLzS9/2746wv13V3BHAIgIOYeS8AuwJIFbmaNwDcT0TzwjCcZ4x5Ke72BwBE9FIul3vURjsdx3kHwOeKOogQneR53g3SC22e/SilDlFKHcDMewPY+ZPG583gVSJqZeZ5+Xx+XktLy2sWJ8+jwjDctRhlKaWWNDc3/9vi4sfhSqnNTs6wcuXKOXPnzu3c1N8fN27ckHQ6XU9EBxLRN5h552L1gwW9/00pdU8ul3tDPC4axowZ0793794HM3MtM+9LRF8F0L/I1bwH4FFmnpdKpe7973//+8/W1ta8je+pq6urHjBgwJhilfexHZDJkyfXvPfeexMt6uSdjo6Oy8U0hWKSSqXGMfOvi1DU+QB+tQmDWArA7kqpPZj5q8w8Sim1AzNvi56Ve4RhuG6QYFMc1wKIVQBSW1ub3mabbQ4Ow3AcgHpm3j6Caj8PoJGZG4kIjuO8AOBepVRu2LBh92ez2TCG9gcAfwJwfFJ8j5lPdxznqJi05VRjzJK4y0xr3QvAoUTUAODwgq3a7he2Y+ZJACal02k4jrOEiO4houZcLvdQMSsKw/BoZj67SGVdDuAcW0JRSv2emb+0ueXU1NRsDWDpJgQd44lIAzjo/UWYItvB55l5AoAJYRjCcZyFAGYFQTB15syZL8rsobi4rrtjGIYNAMYS0b7MnC4s1Niqsg+Ag4jooDAMLxgyZMgqrfV8pdTtYRgaY8yKYlVUU1OzBTP71gKQtWvXfhcWHx5k5mvkwUGhHMhkMluFYfhdAN9l5tEAPvf+wEFEticTn+ZjN8ZoorWXUmoyM2fCMNyyxM3ZET1HGU5sa2t72XXdW8IwnGaMeV6sebMYXviJA1vEWVCNjY3fCMNwMgAnBm3dlZl3ZeZTHcd5lplvATDNGPMfMWnrk9Q9AZxYCAh7R1z9bgB2S6VSv3Qc5zFmnlJTUzN92rRpa0Qzmz4XCIJgAjNPZuY9LAYbG0J/IjqCmY8gomscx5kN4GZmvtcYE8RJbuu7A+JYrG9lVVXVtWKuQlLJZrOqra3tUCI6JgiCo0oweHwW/zDGPF3KBtTV1VX369fvaCI6DcBXShWIfQZDmfk8Ivql4zgPALjU9/2/iIULxWbSpEl9u7q6jgVwWhiGw2LazF2I6CIAv3IcZx6A3/i+/3fRXtEDj7owDM9l5m/EpEl7EdENnZ2dFzmOcwUzX2+MWS2a2jC01vsqpc4MgmAcgF4lDjzWR28AGQAZInrdcZzrq6qqrovLfbAPBSD19fV9mPlwi/VdN2PGjOVitkICIcdxdFtb26/Qs3IYy0Yy802lqrtwcfaHAE4FsHVS9Iqeow8HOY7zODNfZIyZDUmQIWwm48aN27KqqurMzs7Ok1DkezcWUQBGAxjtOM6DBX/4q2hzsyeqI4joMmY+PIaTVKAnscGlRHSO4zjXMfNVxTy6U4aB5BHM/FMA+8d1LrAevgDg4u7u7rMcx7mGma8xxrwbmwCkT58+hzGzrZfP1zDz1WK6QtJwHOcQAFcA2DPmTV0FwCvB4NoPwOnd3d1nJmiitT72JKIWx3GeJqJfep53u1i/sLFMmDBhUD6fPxPA6Sj+hdMo2Z+I5jqO8y9m/oUx5h7R7sYxduzYgb169boSwGQk4xHQLQGcT0QnaK1PN8bcJlr80Fh3GBFdwMz7JvgzBhV0fKbjONcy829Ktev10SNY37VY1zRjzDIxYSFBnU1vIjofwNkJGTxmRNyRkOu6RzHzFQC2LyPV787Msx3HuYuZT7OZPUsoH7LZrHrmmWeOzufzlwMYUkaftg8R/U1rfSeAH8gdkQ0eP0YT0Z8AbJfA5n+eiIzjOH9RSv0gl8u9XMm6dF13F2a+yvIcOWr6A/g5EU12XfdnnufdEnUD1p1UETMfZm2mQnSzdElCgjqc3YjoCQA/SUjwAaVUZMevMpnMKK31w4WMGNuXqRkcTkSLtNa/KGQtEoT10tjY+LVFixY9wcw3l1nwse4YfgQRPe267hm1tbVp0fr6mTx5co3rutcT0d0JDT7W5bthGC50HOekStRlfX19H9d1r2TmhWUWfHwo2GTmmx3HmVtIjx99AJLJZHZHzxkxGx3Xc57nPSJdk5CQyUQtMz+AnrcpEgEz/9vW2xHrorXu5bruBUEQPEpEX6sAc+hNRBcR0ZOZTGaUeIewvglKGIYPElEl2McAZr5qyJAhj4wfP35nsYAPM27cuC3fe++9u5n5ZBT/HZdS0RfAHxzHuXXSpEl9K0WXWutD+/Tp8zQzn4meBx/LncOYeaHW+vSobPeDACQIgtEWJ0e3QC51CgmAiA4Lw/CvsJiK2oojK2X9ITit9a4A/sHM51VIh7wuw4MgeKTQOQsCxo8fP7J3796PFCYoqQr7/D1TqdRjjuNkxBJ6SKfTu1VVVT2KnqQW5cjErq6uR13X3a2c9djU1FTlOE6WiO5h5i9XmBnXENHVjuPM1lpbv8+p1gkSDrQXf/B06Z6EhLAfgOqEtXltZ2fnDMvBx2QieoyI9qhg26ghoqtd150+ZsyY/uIqlYvruqelUqnH0POmQqXSH8AMx3H+OHny5JpKtwkiugvA0HL+RmYexswPaq0PLsfv01rv1N7e/jB6HiRWFWzOY4joMa211cv26n++Q/tZMtj5colTEKwOfN7s2bPbbZRdWA36PRH9GT1b8RUPM0/o3bv3P7XWO4g0KgutdW/HcW5l5msSuFBhixPXrFnzUENDw7YVLodKCcIGENHdWutxZebbhxHRvwDsJS4NABhKRA84jnOc1QDEdd2dYe/i3GzRoyBYDUCsvHyeyWS2am9vvwfAKSLljwUhw4joQdd1vyLSqJjg4wsA7gcwUaTxsT5oj3Q6/aDcC6kYqonIaK0nl8PHOI5zFhHdiYQdvY6AXgBuchznZ9YCkDAMrV0mVUrNFR0KgrWBf3Eul3u42OU2NDR8KQzDBwAcLFL+RLZl5gVa69EiivLGdd0diWg+Ee0t0vhEdkilUg+7rvt1EUVFkCKiP2mt3SQPoY7jXAHgclTePa4NlhGAX7uue206nS7qsbR0YRJjJXsHEb3oed6zoj9BsMYNKHKCh8KrvX9j5i+IeD+TfkQ0h5n/EdMXjoXNDz72Yea/ANhKpPGZbMnMfwPwlIiiIlBEdIvjOO/4vn9vkhre1NRU1d7efjMASaSwATDzqUS0U1GNp/DnVyw1eL6oTRCs0RmGYVETPGitdyWie2EpJXeZUkNEtSKGsgw+9mTmv0rwsVH0B3CAiKFi6AVgZpKOo2qtU+3t7bdI8LHRFPWtwPcDECs7IMz8oOhLEOxARDONMcuKONkaTkTzAWwr0hUqncbGxr2ZeR6Az4k0BOFTGcDMd2itB8e9obW1tWkiygFoFLWVFjVu3LgtAWxto/AwDP8hIhYEawFI0S6fa62/UFjp3VokK1Q6ruvuGIbhXZBLqYKwoWxHRLcg3g8w0pAhQ24AcJSoKwYBSHV1ta1UkmuVUotFxIJghRdyuVxRjjhOnDhxQCGH/fYiVqHSKazizoW9zJCCUK4c5rpubB9rdV03C+A4UVNMApAgCIZaKnuhMSYQEQuCFaagCJfPa2tr093d3TNh6R6YICSJyZMn1xDRncws6WQFYRNg5ktc190zbu3SWk9i5vNEQ/EhTUTWAhARryBYIZ/P56cVo6AhQ4ZcBuBbIlJhUyGiKQBikQGHmZ/fnN9fu3btdQD2Fa0KMWcVgA70ZDIdgHilkK0Ow/DPtbW1e7W2tubj0KDGxsY9wjD8o5hNzAIQWDp2wcwvJFkwWuudiOh4MRH7dHV1XWLrJe8y5faWlpY3N7cQx3EyAH4U50ALwMvMvFgp9QaA1QBWM/N7RNSfmQcUBt/PARgO4Mv4X2INIToe9zzPJP0jXNc9hZm/H+MmLgPwDIAXiGgNM68BsJyZq4nofV8YxMxDiWgEgD5imonnXQD3M3MrES1i5meNMa/iI7vfEyZMGBSG4S5hGI4kogOZ+VCU8EgtEY0aPHjwSQCuK7UAx40bt2UYhrNj7A+dAJ4DsJiI3gWwIgzD1UTUSUQD1xnnBgMYAWC7sglAiGgIM9so+6UkCyaVSn0pDMOfSP9nH6XUHwCUewCyEsB8Zn4IwJLCz7udnZ1r5syZs6oEAfYOAOK2ItTOzPOVUvOUUvPz+fxiY0zXhv5yfX19n759+44IgmBPIjoMwGgA/cTDhA3wh92Z+coYNSlg5keJ6D6l1LwgCJ4wxry7ob+czWbVokWLvgxgd6XUocx8OIAdRNOJoAPATADTmPneDTnKPmPGjOUAHin8/F/BpvciomMBTEQJMrkR0a+01l4xMzVuClVVVTchXvcb3wRwHxHNy+fzC5RSL27MdYWxY8cOrKqq2o2I9mHmw4noQPSkQk5eAMLMVgwzlUq9LP2IUOGsATCTmW9etmzZ/XHZji6kIZyOnlWVOAy2cwDczMx3b869sTvuuOM9AI8WfqbU1dVVDxgw4GBmdtGT7723mKSwnuCjNxHNAFATg+Y8RkQ3K6Wam5ub397UQrLZbAjg+cLPLACnFR4YPRLACRKMxHa8+GM+n7+yGDvcxpjHADymtf45gJOJ6MeINsvhICK6GEBTqQTquu6JzDw2BrptJyKfiG7O5XIPbU5BhdMiCwo/V02cOHFAd3f3aABHA6hHgl50T6NnW6foMPNb0p8IFcpKAH9g5ss2ZtUyKoYMGfJjAPuVuBnLAFyVTqf/WFi9Kzpz587tBPA3AH8bN27cOVVVVd8HcDKAoWKiwvsQURbAbiVsQgDAJ6JLPc+z9oK4MaYNQFs2m7100aJFRxDRqei5/0ViBaWFme8E8ANjzH8s6H01gMsnTZp0fWdn5y8BnBXhJPU4rfVlxpjno5ZpY2Pj0DAMS72r+QIz/6Zv377Tp06d2mGjgunTp69Ez47ZzMI3nwzg+wC2TEIAYmUHpLOz8x3pVoQKIySi6V1dXT+aNWtWLO1//PjxOwM4v4RNeIeZf11TU3PDtGnT1kRVaUEflzU1NV3V3t7eBCALed264im8dH5mqeadAKYT0YWe5z0bVaWF3ZE5AOY0NjZ+LQiC3xLRN8QaSsIKZj7eGHOb7YoK/e1PGxsbZ4VhmEM0CzEppdSZAE6JfDDuuXTet0SLGi8y8/lLly7NRXnyIZfLvQzgJ2PGjLmopqbmp+i54xnbnX9lqXH52bNnr5C+RaggXiKi/T3POyauwQfwwX2bUnRIjJ5jVsONMb+NMvhYlylTpnT7vv/7rq6unYnocgDdYrqVSTabVcw8BT0LcdE6A/MipdTBvu9PijL4WM+E5RFjzAFE5AB4WawiUhYS0V5RBB8f1Xk6nd4TwF8isvXvaa23ifIbtdYTAHynBDrtIqKLwzDczff9W0t17HrOnDmrfN//hVJqVwDT4xyAVFsody2K8EaBICQBZr69q6trT8/z/hHndjqOM5aIvlmCql9VSh3q+/7kUl9IfJ/Zs2e3e553jlLqGwCeFSuuPNra2iYD2CviagMA2UGDBu2Ry+UeiEsX5nme6ejoGAXgFrGMSPhXKpU6xPO8kmQLnTFjxnJmHgPgxgiqqyGiH0b1bfX19X2I6JISiPVxIvqq53nnGmPWxsHIcrncq77vH01EYwG8HTcnULBze74LglAZ/HHkyJENcU8jrLXuBeDSEgRn81Kp1D65XK41jnLJ5XKPMvNXAVwjplw5aK37Abgo4mqXMXOd7/sXTJkyJXY7b4VV02OZWQNYLlZirU98pLq6+pDNSTJQDIwxge/7JwK4IYLqjm9qaqqK4rtqamrOQsSpaoloGjMf4HneM3G0Oc/zbk+lUrsx89y4BSA2jEICEKESuNL3/ZMLZ6pjjVLqeAC7RFzthcaY0c3NzbFOSGGMWev7/unouaAeiFmXP0R0BoBtI6zyn8w8yhhzT9xlY4y5jZn3Q8JT6ceUJel0+ohSHUFdfzzEP0DPJWabDF6+fPm3bX9MJpPZiojOilB+XQAmeZ53TFx2PT6J5ubmt0aOHHkEEf0uTgGIDaogCOXNrb7vn52EhhZ2P86JclADcKbv++chQUcxfd//IzM3oOcIqVCmFHY/To+wyr9XVVWNNsb8NykyMsYsYeZvAHhcLKZorCGicaXe+ViProM+ffocDeApm/UopSbY/pYwDH8MoH9EonuPiMb6vn9rUgwwm82GnuedwcxnACj5wqmCnd0KefxLKGcWLF269HsJmlx/n5m/FFFdATMf7fv+VUlUrDFmDjN/Gz2vrgvlyemILgPa7FWrVtUVUmUmzRf+W1VVdQgzPyAms/kw8+lxPaIzderUDiLKoOctElvff2Qh+LfCuHHjtizs5kTBSmb+lud5c5Noi8aY3wE4rtRBiK0ApKa2tjYNQSg/3s3n80fH5VHBDYAKx02iquxHxpgZSVawMWYBMx8JoFPMvbzQWvcqvH8RxYSzddWqVY2F92gSyfTp01f26tXrCFheHa+A4GOeMeZPcW5jITjKWqyir1Kqzlbh6XT6JESz+9HFzEcZYx5Osk36vn8zM59ayjbYCkAwcOBA2QURNohevXolJhUqM5/W0tLySlLa67ru4Yju7kfW87xry8EmjTH3AfgeYrBNLRRxwFOqEUAUKUGf7u7uHpfk4GPdIEQp9V0iekUsaJPoBvDDJDR06dKlVwN42uL4WWuj3Nra2jQRnRSBiEIiOjoJd7k2cJz7A0qQnGbdAMTKlptSSgIQYYOoqqpKypsx840xzUmSbYQrHMb3/QvKyS59328G8Cvx0PIhoiMa7yilDo97ZryNIZfLvQHgCADviRVtNLcWXqGPPa2trXlmPtei/x1so9ytt956HIAvRiCirOd5pszGuZ8BuK0UdSsA79ooOJVK9YUgfDZdMcoI8lmd54+RoEvVWusvAPiW7XoKr76eUI7GOWLEiAsB/F3cNPlorUcA2Nd2N0FE38/lcq+Wm/w8z1tIRGeKJW2cPQRBcGWSGmyMuQPAY5bGihGZTGbrYpcbhuH3IhDNfGb+dTnaaFdX1wkowUOk1gIQItoKgvDZtCck+LjTGPNYkgRLRBMBpCxXkwfQaIxZUY7Gmc1mQ2aeDHkXIfEQ0TERVPM7z/NuL1cZep53A4BZYk0bPG7cN3PmzEVJazYR/d6WG4ZheFCRFxa2IaLRlmWyLJ/PZ4wxZZmmffbs2e1KqWMQcRp6ZXFg3Um6H2EDJgXvJqSpSczqdHQE+rvG87x/lbONGmP+Q0Snibcmu6sBMNFyHf+prq4+t9wF2d3dfQKAZWJSG8StSWx0GIYG9jIB7lbk8lwAVpMeMfM5LS0tb5azoeZyuQcAXBF1AGKlIyGinaXvETago3s9AUHSKyNHjmxNklzHjx//ZQC7W67mv2EYVsQdCc/zpgNYIB6bTFzX3RuWz4gz8xlJOU66OcyaNesdZj5frOozySOhu0XGmNVEdJclPyl2UpSxlsXxoDHm5kowWGa+CEBkgZZiZltnVWUHRNiQyf1/EtDM5iS8dv4hx1aqPgLdnVWuR68+4XvPRoLuAAkf4gjLA/ffjDEVczRp2bJlNzLzIjGrT7WJx5LcPzLzPEtFF21xesKECYOI6ACLYggLiVwqot83xqxm5l9GNk8B8B9LxisBiLAhvBb3BoZhmLiUe0R0uOUqng3DMFdJhup53j8AeOKyiZxMHW7Z3yoqW1pra2teKXW2WNanTK6Uuj/J7Sei+ywVXbQdkCAIvgO7x69uN8Y8WWGmO5WZ/x1FRWmLub0TfQQrCIKHwjDcUbpRIJVKnYueNxFsTAziHoB09O3b96Ek6Utr3QvANywPTpf4vh9Umi8w86VE1Ci9QqL8YQsAX7VYxXzf9x+sNLl6njdXa/1vIholVrbevmJRwvX7ouM4awAUO6Np/0wms1Vzc/PbRZBxrWUdXl5pdmuMCbTWVwC4xXoAwswvE5GNsgc0NjZul9R0hMaYtQBelG4UcBzH2kN2RLQ45p+/eOrUqR0JCxj3DsPQZhrsN8IwnF6JvmCMedJxnAUADpCeIRkopQ5kZpvZ4C6rVNkS0XUApoiVrVc2S5IeQwFYAmDPYhfc1dU1AMDbRZDxwczWTkfdl/TXzjeV1atX+/37978CwBCrfbMx5nUAVs4phmEog3TCqaurqwawl8UVhmfiHoAkTWdhGB5ouYpbjTFdFewW10rPkKBZFLNNf3idme+uVNmuXbt2OiRF9SdNjl8vA9+xsoCcTqf7b24ZWuvBzLyrxc//c6Xa7ty5czujWFhQhT+fseSAB0JINAMGDNgDQI2l4t8xxsQ9neMrSdMZEe1hs/wgCG6pZJ8YOHDgLFh6P0mwwh4WfW1Gub4NsCHccccd7wGYISa2nsmVUquT/g1EtMpSYNOvCMV8FT3ptW2wurq6uqLfu8nn8zdFFYAstGRkB0s3lGyYeT+LxS9KwPevSqDavmJRHk8k8GGtojJlypRuAHOldxB/UErdWunCJaI5YmIfp7u7e00Z6NZWANK/CMV81eJ3z6qElNqfRktLyysAnrIegDDzQkvlD9daD5auKNEByMEWnfzRBIggUatYWuvezGwtAYRS6m7xCoCZ7xApJMIftoG9c8xvNDc3/7vSZbxy5cr5AFaJtX2YZcuWhWXwGVZ294hos09VKKWsvXMVhuFfxYIBIrrTegAC4J+22g+5rJnkwbs3EX3LopP/MwFiSNTxCqXUUAApizq7TzwDAPBXAF0ihtgPoDYzGYov4IPz4n8TSQgbCjNTEcqw9tRDKpVqFS0BRGR1oU0BQN++fZ+wNZgS0XdEjclEKfVtFD8F37rlPypSLjpDLZbd1dHR8aCIGCg8MLZQJBH7AdSmP/xdJPzBZPABkYJQJmPdM7lc7g0RLxAEwaMArGUBVQAwderUDosPj4xvamqqElUmclA50mLxyzzPkzTHRSYMw6EW7WFx4dKp0DO5/bdIoXL9QSn1hEj4A54WEQhRUcjOuY2l4h8XCfdQSLBh7c6nWmcwtZXveKv29vbRospkobVOAai3WEUrevKMC8XF2p2rMshrX+zJrUy6Yo5SypY/cBAEz4mEe8jn80+JFISo6Nev31awlwFLxrkPY22hTa3zz9bOs8rLwcmDiA4BsJXF8ueJlK3IdaDF4qVj/rCsZQck5jCzLX94zRizWiTcw6xZs94BIMdWhKgWFgbJOBcZ1hbaPghAqqqq7gOQtzQIjNVa9xY9JooTbRYehqEEIHYmxYMslv2KSPhD8nhdpBB7rPgDM78sov0Y4g9C4sc5pZSMcxH59QcByPTp01cC+JelevorpY4QPSaDhoaGbQHYvP/xkjHmeZG0lYlRjcXiV4iEPxREywvQFeoPRLRSpPsx2kUEQhQEQWBtnOvu7pZx7sN9qLVxTn3k3++2+BGniiqTQSqVOg6AzcQBt4uUrZG2OOGWXP/rsHr1aglAYg4R2fIH8YWPI/4gRIJSKm2xbPHtD8ujPZIAhIhmW/yOg1zX/bqoM95ks1lFRMdbjqhni6TtxY8WJ3OSAWsdCu8fdIgkKs8fiGiNiPZjMmkXKQhJH+eqqqpknFuHfD4fTQDied5TRGQtNSoz/1jUGW/a2tqOgt23JN5ZtmyZvCVhD5sPJ/YS8UY3EArx9QdmrhbRii8IpSEMw7ytsplZxrmI/Fqt57/NtvghDePHj99Z9BlPstmsAnCu5WpaWltb8yJtOxDRaotlDxAJ/4/JkyfXwO5RRWHzseIPzNxfRCsyEUo0I06lrO1AdnV1yTi3DlVVVf0iC0CIyLf4LSqdTv9IVBpP2traXAC726xDKTVNJJ28CRcAhGEoHfM6dHZ29hMpVGZALsG4BCBCeY5zSinx7Q+P+9b8+mMBSC6Xe4SIFlvspL6ntd5B1BovCg8P/tJyNS/lcrkFIm2rk4B2i8VvIRL+H/l8XiZcFeoPFt8XSTISkAtRYS3hQSqVEt+OyK/VJ3Sut1j8mBoAV4hOY8cEAMMt13Er5PVz2xMua4+BKaV2Egl/iO1FBJXpD0S0M+y9xJxIiGg7kYIQBUEQvGFrLsHMMs5FNM6tNwDJ5/PTAIQWO6oGrfWhotd4MHHixAFEdIntPoOZbxJpW8fao0HMPELE+yFEHpXrD/0aGxu/KOLtQWvdD8CXRBJCFBhjugC8Y6n44SLhaMa59QYgLS0trzHzX2x+ERFd29TUJBc4Y0B3d/dFAD5vuZo7jDH/EWnbRSn1msXiR4qEPyRrCUBiDhFZ84cwDEX/BVKp1DDIjpAQIcz8qqVyZZz7sDyiDUAKg+u1tqOq5cuXnyjqLS1a670AnBKBEV8v0rZPGIbPwt4xt60zmczWImX7HbNQHPL5/GKLxX9FJCy+IJRscWGJpaJHSTD9ITlHH4B4nncPgCWWP+zChoYG2bYtXfCRAvBHWM7fTkSLjTH3isTtY4xZTUTWdpqCIBgtUgYKu7d7iSTiTUtLy+sAVloq/lsi4Q+QR4aFqIPeZywVPcR13VEiYaCQMGpI5AFIj375OsvfNzCdTt9amAgL0fNTIto7go7iEsjl83LomAHgOyJhYOXKlQdBsoIlwh0A2NoFObC+vr6PiBjEzEeIGISIabM4hso4B4CI6m2W/2kBCPr27XsTgDctf+MBRHSuqDpaGhsbv0ZE50dQ1avM3CwSj5THLZY9GrI9DWYeK2ZW8f5Q06dPn4MrXbha6z0BSAYsIVLCMLQ5zkkA0oPVce5TA5CpU6d2ALg6go8813Gc/UXXkQ0YnwvD0CCCV5yJ6JJCxgohusnxIxaL31prfVAly7eurq6amTNiaeIPzKwrXb5EdIxYmRA1M2fOfBHAMkvFH6i13qbC54nbA7C6wKI+6y90dHT8AcC7lr81DeDWCRMmDBK3sj9eAPg/RLNi9fLKlSv/JCKPnH9annBUdPKI/v37HwlgSzEz8QcArta6Yo/iaa17oecNKUEoJ9+uIqLvVfjCwrEbEiNYDUDmzJmzCtE8HDi0u7u7pa6urlp8yh6O45xLREdGZMDnz507t1OkHi3GmP8CeN5iFQ2ZTGarChbxj8TKksPIkSMXA3jbUvF9AEyqYPFOALCVWJlQCph5gcX5y/HZbFZVolwLCwvWFxrVBir5agCv2m4MEdUOGDDg5kpVegTBRwbABRFVt3D48OG3itRLxlyLZVcHQfD9ShRqY2NjLSTjT6LIZrMhgLstVnFShY5ZRERni4UJJeSvFoObL7e1tR1WiUJVSk0E8IVYBCDGmLXMHMnElZndZ5555mLxq6JPnL4J4GZEdIGYiM4pDPxCmXXMBc6aOHHigEoTahiGF4hpJXKmPNdi2SPb2trcSpOp67pHweIryYKwAXPTpwC8YbGKX6HCkq4UUsz/LJJAZyP+7lQACyMKQn7qOM5J4l7FIZPJjArDcCYiuHRe0N/tnufNFcmXDmb+O4D3LFaxVXd391mVJFPHccYCOEisK5GB498ABDYnKoWBu5ImKbJQKJR8qLO5uABgr0KgXTG0t7c3MfPOsQpAjDGBUuoURPeew3Wu6x4v/rV5aK2/GgTBvYjuzYK1kDPyJccYsxbAHMvV/KhSXkbXWvcGcLlYVmL9YRkzz7NYxU4rVqw4oYImKadGNUkRhM9YXPCsRjjMF1bK4oLW+nMAzouqvo06t5rL5R4goqjO9aeYeYrW+kxxsU3Ddd19iOg+AIMjrPY3xpiXRPqlJ4L3V/rl8/kbKkGWSqmLAOwkVpVomi37268LqSvLmoaGhi+h52iKIJSckSNHzoPdY1i7tre3/6JCxrkrYfHl880KQAoNPBtAe0TtIyK60nEc6ew2PpI9gJnvBRBZamNm/jczXyrSjw1/BfCOZQc90nGcoyvAl04Xc0o2vXr1akHPDq0ttgBwI8r4zHg2m1XpdPomAP3EooSY2GQIwLdczc+11nuV+Th3GDMfG2nAs7G/0Nzc/BYRRb0r8UvHca6R7FgbbEhjiOivAKK8JJwHcJw8OhgfCrqYGkFV1zQ0NHyxTH1pMBHlAKTEopLN9OnTVwLIWQ7Iv+267snlKsNFixadA+BbYk1CnGDmG2H3ekAVEd1SOIpbdjQ0NGxLRJElKdrkAAQAPM/7M4C7IpbRaYsWLbpz3Lhx8gDYp4x/juOcT0SzAfSNuO7LjDGPiQriRRAE18Pu5VsAGJRKpWbV19f3KSfZNTU1VRHRDESQjlCIaMBT6toIJkO/1VofUIbB+MFEdKFYkRA3jDFtAOZZrmaEUurPKLMdzqampqp0Ot2MCI9ebVYAAgD5fP4E2H8h/cOza6K6qqqqJ1zXlTz8Hx8c+mmtbwOQjdpBmPnRqNI0CxvHzJkzX4xisYCI9q6pqZlWTruUK1as+B1ktbesyOVyTwBYYLmaaiKarbUumztD48eP/zIRGQBpsSIhjhDRdRHMdVzXdbPlJLf29vZrARxciro3ebLQ0tLyJhGVIlXudszc6rruKeJyPWQymVFE9AgRNZSg+pVKqUY5ehVfmDmS7E1E1NDW1nZZOcjMcZwLmflksR7xh01kSyKao7UenHR5NTY2fj6VSt2NaJOZCMJGMXz48DsAPBNB//FLrfXkcpCZ67oXIIIXz4segACA53kGwPUlaHc1M//ecRy/UtKAro/a2tq04zjnBkHwL5ToQSgiOtHzvBek+4svxpgFllOQrsuPHcf5PRK8Te04zvkAzhXLKVt/mAPgX1HMiZRS92utE3uET2s9OAzDeyAZ4ISYU7iMHsURQSKi/9Nan5pkeWmtz2Tm80rZhs0+LrFq1aozATxeKhkGQbBYa3261rqiLomOHz9+5JAhQx4qOFyvEgUfv/M8Lwch9qRSqSg7mlMcx7khgcexyHGcLHqOMQplDDNfFFE9w4howfjx47+cNBk1NjYOVUrdD3ntXEgII0aM8BDNg9lERNck9JkIchwnS0RXlrohmz1BmDt3biczu4j4Psg6DCSiq4nogUwmM6rcHWzixIkDXNe9KJVKPQZgnxIO4K1vvfVWRb2EnWRyudxDiDZxxAltbW2zJ0yYMCgJ8qmvr+/jOE4OwPliLeWPMeYOZn4oouqGplKpB5J0MV1rvVcYhg8x8zCxFiEpZLPZMMJVfSKiK13XvTopDxVqrXu5rvt/cRnnirJCaYx5XinloCcVa6nYLwiCxxzHuSbJW96fRFNTU5XjOD/o7u5+jpl/AaC6ZOEz0SsAnNbW1jyExEBEpwPojHJen8/nn9Ra7xtnuYwfP37nmpqahwE4YiUVA6dSqVMBhBHV93ki+rvjOD9BzI8nuq57DBHdD2BbMRMhgYsLswDcHVlHwnz68uXLH2psbBwaZ7k0NDR8kYhamXlyXNpUtCMSuVxuHoAzSvw9aQCnEdELjuP8vhxepdVap1zX1e3t7QsBXIcSpEr7CMvz+fzhxphl0tUlC8/zXiCiayKudnsimu84zlkxXCUi13WPT6VSjxLRKLGQyiKXyz1BRH+OeHy6xHGc2xsbG7eLmzwymcxWjuM0M/PNAPqIhQhJhYjOQoQL4kS0dxiG/3QcJxNHeTiOk0mn008C2C9O7SrqGW3f938fRSq0DaAawClE9JzjODcmMR3ixIkTBziO8yOl1LPM7APYJQbN6mTmcTNnzlwkXVwyWbt27YWFHawoqQFweXt7++ONjY0HxkEO48eP39lxnLsLD1gNEMuoTMIw/BmAqBdT6sMwfEZrfXZMgnJyHCcTBMFCAI1iFULS8TxvIYCrI652MIAZWut7tda7xkEOWuvtHceZBWAGgNi9oVf0S6LDhw8/nYi8mHxfLwDHE9GzjuPMdxznuIkTJ8Z6suG67nDXda/u7u5+FcBvmTkulxdDAMcYY+ZL95Zc5syZsyoMwxNg99XYT2K3MAznO47jaa2/WqIO+XOu616ZSqUWAhgtFlHZFHZyS5HNpi8RXdbe3v6U4zhH19bWpkvkD/s5jvNgYYKytViEUC4U7oIsiTyaJ/omET3luu61DQ0NXyqRX2/hOM7FRLQYwNi46qjoAUg2mw3DMDwGwD0x+k4CcBCAP3V3d7/pOM4013W/HZcjIVrrEVrr8xzHeZqZ25j5dMRrVZYBnOD7vi/dWllMuu4BcFMJfdEhose11n9pbGysRQRn4hsaGr7ouu6VRPQKM5+JEmWOE+JHoV+bWaLqhwOYNmTIkGdd1z1lzJgx/W1XmM1mldb6MMdx7iOihxCzYxmCUKRxbq1S6jgAQQmqr2bmU9Pp9HOO49wcVYKkxsbGzzuOc0nhlMPPAfSOs47SlhTfpbVuAPAXIjowZt/cB8DRzHx0e3v7GsdxHmDm+5RS84YPH/5kIZe0VTKZzFb5fP4bRHQgM9cR0cg4LyQQ0ame5/2fdGnlAzOfqZQ6sIRZboiI6sIwrHMc5z8AcszcbIx5slgVTJo0qW9HR0cdEX0PwHeYOSWaF9ZHKpU6KQiCfQGU6m7GDsz8+5qamiscx7mTmZv79u07d+rUqR3FqmD8+PHDUqlUY1tb27FENFS0LpQ7uVzuIdd1Ly7hexdVAI4JguAYx3GeXmece6lYFWit+yml6pj52DAMDwOQmHHO2ravMWa11vq76En9eVBMv78vgMOI6DBmRltb27uO4ywA8AwRLQnDcDGAJcaYTUoxXFtbm95yyy23T6fTO4VhuCMR7Qlg/yAIhhERFWZhsZ6nAjjD87zrIZQVxpjVrutqAI+g9BdOtwdwDhGd4zjOawAeAvAgET2cTqeXTJ8+feVGBBx7ENHXmfnQzs7OQ4ioRrQtfBbNzc1va61dIppfmDSUit4ANBHp9957b43W+l9EtADAw0qpJ3O53JvYgOOThXexdgKwLxF9vTDGfVk0LVQaYRj+CsD+RPTNEjdldwC7E9HFjuMsIaKHATwYhuEjAJ43xqzdkEImTJgwKJ/P7wVgXwCHADiImRO5o2/13KkxZvWkSZO+29nZeReAgxMgj88BGANgDDN/EBw4jrOMmV8korcBvAOgHcD7xtJBRH0AbMHMfQuTuYHoWUn7EoCqdctKEAEzH2+MmSpdWHnied5Cx3FOARAnHX8RPelwHWZGd3c3HMdpB/AqM79CRB/tpLcCsA2Az3d2dm7xvp8l0N+E0gflDxfS5P42Jk3qS0S1AGoLEyk4jtMJ4DUA/wHw9kf+fh/0pM7dFj3ZEj9YCWVmUbBQqX4dZDKZiUEQPA7g8zFp1q7MvCuAyevMM5cWxrnXiKhrnb+rmHmIUmobZv5CPp8vmwx11i++TZs2bU1dXd13+vfvfyuAoxIqp8FENPiT/mcZdu5dzDzRGHObdF/lje/7N7uuO6pwLyKuDETPg6O7i8YEy/5wleM4uwI4MaZNrAawY+FHEIQNoLm5+S3XdeuZ+X70nHyJI0MADCGivT76P4ioLBcRVBSVzJ07t3Pp0qUZlO7iq7DhvANgtAQflcPw4cPPBjBbJCEIwMCBA09j5nkiCUEoHzzPe5yZXZTmUrpQqgAEAFpbW/O+7zcBuAClSQEqfDbPBkGwn+/794soKodsNhtWV1cfDeAfIg2h0pkyZUp3VVWVBrBQpCEI5YMx5i5m/rFIosICkALs+36WmR0Aa0T88YGZ5zHzfjNnznxOpFF5TJs2bQ0zH8bMj4o0hEpnxowZy7u7u78JoE2kIQhlFYT8DsBZIonKC0DeN4DbiGh/AC+LCkofewD4NYDvbGq2L6FsOuYV6XS6DrLyKwiYNWvW0nw+/x0ielGkIQjlg+/7VxLRxSKJCgxAAMDzvKeYeS9mvl3UUDKWE9EY3/d/YYyRc5ECmpub306lUocA+KdIY6NYKSIoP1paWl4Lw/AgZl4k0hB/EMoHz/POZeZzRRKl82tVyi8xxrxrjBlLRMfif2lthWi4Tyn1Fc/z7hRRCB8NQqqrqw8FcLdI47MhoqkArhBJlCfGmNerqqoOZOaHRBobxDUAbhQxCAnw7YuZ+XsA8iKNz+QlZj68bAKQdSLRW5j5G8z8b9GxdToBnDVixIjRuVzuVRGHsD6mTZu2ZtWqVUcCuFmk8alkPc+TAazMmTFjxvKamppvM3OLSOMTCZn5DN/3TyeiUMQhJCQImQpAA1gt0lg/zPxoKpXaL5/PP1t2AUjBCJ4cNGjQ3ujJktUtKrfCAmbe0/f9K7PZrAwQwqcyd+7cTt/3JwM4E5K68KOsJaJjfd+/QERROUG5MeYoSCbH9bGKmY8qXPAVhETh+/5sZv4GgJdEGh9jJoBDmpub3yp2wSpOXzllypRu3/ezRLQPgIdF70VjOYAm3/cPMsZIVhdhYzvnqwAcBuAtkQYA4GWl1P6e590ioqg42Pf9LICGQr8qAM8EQbCvMWaWiEJIKsaYp7u7u/dh5rkiDQA9i44/8X1fG2Os7A6pOH6153lP+b6/f+Fsnkx6NsOAiGhKd3f3MN/3b4Ss2gmbHoTc293dPUo6Z9zV3d29dy6Xe0KsoqL9YbZS6isAKvrNJCLyOjo6vjZz5szFYhVC0pk1a9Y7xpjDmfkM9BxXr1TeVEp9x/f9y2zOG1WMBcDGmKnMvCsRXQ65pL5xwmOel0ql9vQ878RZs2YtFYkIReiclxY659MArKqwz19FRCf4vn/ErFmz3hFrEHK53KvMfCgz/6wCx6d3iSjjeV7jnDlzVok1COU0fTLG/I6Ivgbg8UpcVOju7t49l8vNs12XirswjDErPM87p7u7eyiASys8Kt0QHgYwxhjzrebmZrnUL9jonK9TSo0EMKdCvvk+pdQoz/NuEvULHxmfAmPMJcw8ipnnVUQHwHxnPp/fzfO8nFiAUK54nvfU0qVLv4aeRwsr4eHsZczc6HleY1SLbOmkSKawiv9T13VvZOazARwLoEbc5AMeBHCh7/uSOlWwTiGD2pGu6x7JzJcC2LUMP/M1IjpbJlrCBgQizwMY7ThOI3oedh1ahp/5AoAfGWPuEI0LlUBra2sewJUNDQ23pdPpSwC4AKjMPjMP4A/pdPr8GTNmRHqvTSVNUp7nveD7/kmpVGpooaOv5IuAAQBDRPv5vn+ABB9CCfzx9oEDB+5ORD8AUC5H/dYQ0cXV1dXDJPgQNgL2fb951apVwwCcXUZj0woAv1i1atVI3/cl+BAqjpaWlld8388UjmXNL6NPu6eQGfWHUQcfQIJ2QD5KISXYL+rr6y+uqalxiOhEAF+vEH94nYimEtFNuVzuZekehFIyZcqUbgDX19XV/WnAgAEuM/8SwE5JDDwA/Cmfz1/S0tLypmhW2BTmzp3bCeAKrfUfAXyfiM4G8IUEfsoqANen0+lLSzE5EYS44XnevwDUaq0PAPATIjocydwReZCZzzPG3FfKRqSTbhB33HHHewCmApjquu5XmPlY9Dwq88Uys/21AO5i5qkA/ur7vrzLIMRx4nVLU1NTc3t7u8vMTUR0YAKa/iaAKalU6rrm5ua3RZNCMSikrvxdXV3dHwcMGDCJmU8AsG/c201Er4Rh+EcAfzDGrBBNCsLHfHsBgAVa668qpU5lZhdAv5g3uxvAbGa+yhgTi2cu0uVkFJ7nPQXgzGw2e1ZbW9sB6DmvNybBwch7AOYyswFwl61czIJQTAo7IrcCuHX8+PHDUqnU8QCOATA4Rs0MAcxn5usHDRp0e6HNgmArML8JwE2ZTGZUGIYnMPNEAINi1MyAmf9GRH8Iw/AvxhhZ4BKEzw5EngRw/JgxY35UU1PTCOD4GC4yvArgxnw+f1PcdvbT5WgUhVe+7y/8/CCTyYwKgqCOmQ8joq8j3pfXnwZwN4C7+/Tps2Dq1Kkd4uZCUim8D3CW1vrnAA4moiMLiwLblSLoYOYHieg2Zp5pjHldNCRESSEz4WmTJ08+e82aNd9USo1h5noA25Yo6GglottSqdQsGy8dC0IlUEhFfSOAG13X3YWZxxbGuf1QmrvWrwKYqZQyw4YN+0dhThw70pVgHIVO/98ALtVa90qlUnsHQbA/gP2J6CsoXcaSlcz8FBE9BODBVCr1sBwB2TSI6CVmvrfY5SqlXhXpbj7GmC4A9xR+TnVdd09mHs3M+xUWBba2VPWzRNTKzK2pVOo+W5OsYtofMz9jURXzAfQvalQXhq+JhW8chYWluwDclc1mT168ePE+QRB8i4j2Q89dxi0tVMvM3Pa+P6TT6VZb400Yhs8T0b3FKsumLph5AYDnil3u4MGDE//wbxiGS4qlx4/0l2X7Npnnec8CuAzAZePGjRtSVVVVB2D/QjAywlJA0g7gAQB/V0q15nK5J2HhAUFm7gJQNHsgCNBabwFgdwC7E9GOzLwDEQ0FsAM2f5u8k4j+w8wvA3gZwAvMvDCVSi2SC+SC0IPrujuGYbg3Ee0MYCdm3pmIvgzgcwB6fVYgT0RvMPNbAJ4FsFAptaizs/NpeYRTSOJ6itZ6FyLas+AHOxf+HFrwh6oNmIy8CeC/AJa87w9BEPzbGPOuiFcQSsPEiRMHdHV1fU0pNQzALsy8E3oStmyDz75D0oWeTJNvAHgFwCJmXhSG4UKl1HNJPDYpAchnBye9giDYsqqqasswDLcEsIVSqpqZiZkHvm8YSqk1hRWDValUankQBO8AWCaX+ARh86ivr+/Tt2/fgcy8RT6f/+AhUmYOUqnUUmPMWpGSUClMmjSpb0dHx0Cl1IB1/UEple/bt+9SObYrCImca6by+fzAXr16Dczn81WFgAOFeeWKqB4HjJL/B/ANcx7/LV0/AAAAJXRFWHRkYXRlOmNyZWF0ZQAyMDI0LTA3LTA4VDAyOjA5OjM4KzAwOjAwSDk28wAAACV0RVh0ZGF0ZTptb2RpZnkAMjAyNC0wNy0wOFQwMjowOTozOCswMDowMDlkjk8AAAAASUVORK5CYII=;" parent="1" vertex="1">
          <mxGeometry x="525" y="290" width="70" height="71.57" as="geometry" />
        </mxCell>
        <mxCell id="mD_qEpijUKouMIoYxmoU-9" style="edgeStyle=orthogonalEdgeStyle;rounded=0;orthogonalLoop=1;jettySize=auto;html=1;entryX=0.5;entryY=1;entryDx=0;entryDy=0;" parent="1" source="mD_qEpijUKouMIoYxmoU-6" target="mD_qEpijUKouMIoYxmoU-7" edge="1">
          <mxGeometry relative="1" as="geometry" />
        </mxCell>
        <mxCell id="mD_qEpijUKouMIoYxmoU-18" style="edgeStyle=orthogonalEdgeStyle;rounded=0;orthogonalLoop=1;jettySize=auto;html=1;entryX=1;entryY=0.5;entryDx=0;entryDy=0;" parent="1" target="mD_qEpijUKouMIoYxmoU-5" edge="1">
          <mxGeometry relative="1" as="geometry">
            <mxPoint x="590" y="223.53000000000003" as="sourcePoint" />
            <mxPoint x="625" y="289.9550000000001" as="targetPoint" />
            <Array as="points">
              <mxPoint x="591" y="224" />
              <mxPoint x="615" y="224" />
              <mxPoint x="615" y="326" />
            </Array>
          </mxGeometry>
        </mxCell>
        <mxCell id="mD_qEpijUKouMIoYxmoU-6" value="&#xa;&#xa;&#xa;&#xa;&#xa;Prometheus" style="shape=image;aspect=fixed;image=data:image/png,iVBORw0KGgoAAAANSUhEUgAAAbgAAAG0CAYAAABACDLIAAAABGdBTUEAALGPC/xhBQAAACBjSFJNAAB6JgAAgIQAAPoAAACA6AAAdTAAAOpgAAA6mAAAF3CculE8AAAABmJLR0QA/wD/AP+gvaeTAABG0ElEQVR42u2deZxcVZn+n/fc6iUrS7bu6gQSDBBSVZ1Ay44agflJhIR0N4XgiBNHBxdGRWBkZETaBWYUFVBcCIqRHSvdHRIwgCBBgYCQrbsrCSSSQNLVnR2y9lL3vr8/0uxJr7Xc5fl+Pv2ZMVTdOvc57z3Pec89C0AIIYQQQgghxBsIJSCkd2g8bm1OvzLCgTMCKoMBwIhzmG2METiWOGb4gU86g9SYYgAQR4cr0AEjbQCgqm8ZFUehthrZdeDCzn5xTBsAmALZYbW3bxu14JXdVJwQGhwh/WZHvOKwfZ1tE8TgKFGMgcgoqI4AzAg1OsIoRih0BCAjARyZw6J1ANj+zp9gOxRbodgG6HYBtjvGpEK2rt9WoBsjiWQHa5MQGhwJEGunTywaPnhQWRo4RoBjBM4xCjkGwDFQhAGU+uRJ3gngNQCvCfQ1hXlNgddCwGujt494QxYvTjMaCA2OEI8a2eDBhZMNpNyBREUxBUAMQAnVQRqKV0XQqMBKFW0ydkFj6fwVGygNocER4iJSVSccbdSKOYKYAFNUEYPgOAAhqtMn3gLQCKARigYVbSze3944YtG6XZSG0OAIyTI6bVqo5fDtU2DpWVBUAPgEgKOoTFZ5DcBzEHlWYD9XUrtqlQBKWQgNjpABsH36xOFtgwedAtWzBDgTB/4GUZm80qqCl+HIswLnub1t7S8du2hdO2UhNDhCejC09uLicyH6KUA+BmAS49L17APwkkCeApzHSsqTS6UGDmUhNDgSeDZXx46xoTOguADAxwEUUhVPsw2CpwF5Mt3Z8chRC15JURJCgyOBoPWy8iH2PvtsUVwAyHQA46iKb3EgWC7QJx2YJ8MjCp+ROUs7KQuhwRHfsDE+pcxy7IvgaDVETgdnOAaV7VAsUqN/2rev/Qm+uyM0OOJJNlVOGmHBOt8xEhfFeTQ18gHeBLBQRRNvGjzO3VcIDY64PFOLHBlK4wKaGuljy7MTikdUNBEeUfwYhzEJDY64gu3TJw5vG1QcF+AzAM4GYFEVMgC2AagVlQdK6hv/xjV3hAZHck5qVqwCxrkckM8CGEpFSBZYqyq/D9k6d8yCps2Ug9DgSNbYEa84rM3p+AygX4ViKhUhOcIG8LSozCkJTaqTRMKmJIQGRzKdrX0OwGAqQvJIs4jeq+r8Jly3+nXKQWhwpF/ZWrvd/iVV/AcEx1MR4rasToA/q+qvS+uTj/NdHaHBkR5pmTV1PKzOr6jKlwEcTkWIB1gLwa9sM2zOuMSS/ZSD0ODI+2iunnyiqPkWgEvB6f3Em2xR4Deq6V+OrV+znXIQGlyAUUBS1bFzAP3mga2zCPEF7QD+BJGbwrWNaygHocEFiPWzxxcX7R72eTh6Fd+vER/jAKh3VH42tr5xCeWgwREfk4xHCo9wzGyofg9AGRUhAeI5Ufmf0vrGZygFDY74CL28oqB1a9ulKnIDgGOoCAkwT0LwnXBt08uUggZHvGxsNTCtK2PVKnojgGOpCCHvMTqYa8N1DcsoBQ2OeMzYUisjFwukhu/YXMd2APsBjKUUeccRIKEiNZyM4n8MJfA+qerYrJaG6EoReYDm5o5GFMDTAvmCUTOmtK5pFACecu2SNk+Bz0C1KVUV/WNrvHwCJWEGR1zIpsrIFAO5FYJpVMMlmbTgEXHw7XB90+p3OyCRaqjMozqupA3ALSFLbxqdSO6hHDQ4kmdaK8tHO2L/EJAvgkfVuKa/oSJfKKttfPJ9hhePWy326kYAJ1AiV9MikOtKyhvvlho4lIMGR3JMMh4pPDIt31DBdwEcRkXc8hTpInR0fj688NVtH/xPzZWRS0TkAYrkGV5W6JVldcnnKAUNjuSI5qrITIH8FJwZ6S5Uf15an7zmUBv/pqqijwH4FIXyVq0K8JBj49tlDzdtpBw0OJIlWqonR1TNLQD+hWq4rh28PlyX/NGh/usbM48Ph0IFb4DDyF5lnwI3S2fRT8ILl+6jHN6DsyhdyvrZ44tTVdEbVc1ympsbu4byne7MDQAKCgr+lebmaQYLcAMK2puaK6N8BpnBkUyQqoycBZE54MQEt3JHuK7pKz1m35WRJ1XkHMrlm9YygY6Orx3sXSthBkd6YEe84rBUVfS3EPkbzc2tbZwsKLVOuKKnz2kNjEJOpmI+QhFHQWGyuTJyCcVgBkf6QGtl9AJH8GsA46iGa3ndtvSkcYnkjp7rszzqiNNIyXzLn2HpV8OJ5BuUghkcOQRbq04oTVVF5zmChTQ3V9MBwUW9MbcDnX37JErmaz4NW5qaq2P/qTVsR2lw5EO0VMVmd8JaBaCaargckb7tRm9kDEXzPcNE9ZctDdG/b6qcchzloMERdL1rq4zdr9A/ADiciriel0rNpNv68gXHwSjKFhjOMGKvSFVHv0kpaHCBprUycnab3d4E0UuphidIqzhflkTC7uODNYLSBYpBUNyaqorWp2YcN5Jy0OACRTIeKWyujt7siPwFPDbFS9xWVrtqeV+/pIIiShdIZklB0Uqum6PBBYZUdWzSEbYsEcU11NxDCHbalt7Uz29zZ/qAotCwCB5PVUdvWzt9Ijs6NDj/0lIZ+TxUXwbAWXVew9Ef9nbW5IdbOd1LAQPePVJ8Y8igQUs3VkfLKQcNzldsqpw0ork6ulBF/ghgCBXxXD98w9629l/3+9siu6khATRiKV5oqY5+lVrQ4HxBc/XkE42EXhLFBVTDo91vkZ8cu2hd+wC675uoIulikCp+naqK3JeaUTGYctDgPEuqOvo5UfMsgAlUw7NsSZthcwfWcccaykg+0O35LAran988K/oRakGD8xRrp08sSlVHb4PiHgDspXka/eW4xJL9A2rKQoWvUEdyEKbYgmWp6tgsSkGD8wSbqsrHDh5UvBiKb1ANz9OOzs7fDvQipYnlWwFsp5zkw70fDIdqbUt17HvK/YBpcG4mdVH5xwyclwQ4jWr4oe1BfQaPQ3mRipJDtb2q+v2Wqugjr58fO4Jy0ODcZ27VscvhOE8BKKEa/sA25neZc0v5OxUlPfDpwiL9B5cS0OBcQzIeKUxVxuZC9Q4ABVTEN6wvizY8namLqTo0ONJznAATLcVzrZVRzrqmweW5BZw19fDDbbMIov9GNfyFiP5JauBk6nr79re/DGA/lSW9YKgjmN9SGbmCUtDg8kLLrKnjiyT9nEDPpho+xEZdJi/XtY7urxSW9BJLRW5PVUdv4xlzNLjcmltV5GQ16RcgmEw1fElzyfzkS1nICxdSWtInFN9oaYjWclE4DS43LV9l7EKFLAbAQyz92qaIzBdAM33ddLpjIbJwXeJ7ZqGg46+tleWjKQUNLmukqqPfFNFacPG2rxHVp7Jx3aMWvJIC8DIVJv3odp3qiPNCqjJ6ArWgwWU2tGpgunYmuRWARUV8jWNb+kzWzFOQoMSkn0yAwXMtlbFPUAoaXGbMLR63WlbG7uLOJIHJ31b2+1icXtDZ2XkfAJs6k/41SDhCRR9PVUUrKQYNbkCsnT6xqMVePY/LAAJkb3Cey+b1j1rwSgqKp6g0GQBFAB5qqY5eTClocP0iNaNi8JBBxQ8DmEU1goMDWZEDG73bZ7LtE2AJoyenFKji/paq2GxKQYPrE1tnHj8MBe2LAHyKagQsgxOszPqDNlTmA/DLIait4ugnFeAeirnHUuhdXBBOg+s162dNPbwjVPAEgI9TjcCRbh+2pynbP1JyT8Nehdb6QK/NYuk5TkhCACYxfPLTJ1OR21uqY9+jFDS47ruileWji0x6MU8DCCyvT5i7oS1HXe97PK5Vi6PWx0sTyVXi4AsMnfyiqt9PVcV+SCVocAdlY3xKmSPOMwCmMBSC2kpgY65+asyU5GIAb3hUp12O6vSx9Stf1WnTQgDiDB5XVMx3U1WxW3iuHA3ufWytOqE0ZNuLwWGWYCO5M7iujZzv9aBKnbAQH1ufXAkAqZHbTgFwGIPHNSZ3ZUt19FbqQIMDAKRmHDeyE6G/KDCRIRB4Nubyx9Qyd8NrW3eJ/Hd4XtMT7zQajpzDsHFdhv2NVFX0RgoRcIPbEa84DAWFiwCNsPqJKHbm8vfKEg2vAPibhwR6uLS28Zb3t6V6LiPHlVyXqop+hzIE1OC2xCND2+z2PwP4KKuedDXg+/Lwo3M8os4bxab43967CfX62eOLAZzKwHEtNzVXRb9OGQJmcMl4pDBtyzwAZ7DayXsegZwb3E7LmQdgq8uFUYhefmRi6Vvv/ceCt4YcjwO7ahC39tmA21LVscupREAMLhmPFB5hSx24iJu4IIOLJJIdUHX1kgGB/ipcm3z8Q/9ueB6iJzxO9dfNlZFLaHA+R+Nx60hb/gjgfMY9+SAOdH9e4jJkzYF7J5u0tjkF1x+8P2BocN7AEpF7W6oiF9Hg/GpugLSk1/xegUsY7+TgDidt+fhZN082UeDKCfNXvHmI/8qzyTxkcgq5t7UycjYNzoe0VEW+z1MBSHdInjK4A14hd7pQkn+E65r+1I1iYxk1nqLIgdRvrI6W0+B8RHNl7AuAXM/4Jt0/AfnJ4ABgb9t+1002Eeh/SzdDpwIdwaDxXC9uuKX486aq8sB1TnxpcC2VsU+I6G8Z2aTHB8AxeTO4Yxeta3fZZJPHS+uST3efdIIG503KDJyHt8QjQ2lwXja36skRFX0YQCFjOn8JNARLAXS4vaCdIbstv0+guRPumGyiAu12xEPjcQvKLbo8zEmdjjyg8bhFg/MgW+KRElXzKLhPXr6xSs0Jp+7d3zYcgssAvOzWgopt5dXgwrWNa6D6bP6FQH1pXfKl7j6yrb1hMHgCiacRxQUpZ81tNDiP0XpZ+ZC0LQsBHM0wzjslm9OrPnHsonXt4dqme8N1TSer6GcBbHddBueYPXlvdAx+n+/szTjmhh4/VBRShrYfTE6vSFXHrqLBeQSNxy3d6zwAbsHlGhwj7ztOpaw2+UDI0iiAp11UzI7x81e8lfcGZ7A1D4pd+XuA8JeS+oYeD311ii0anF9QvTlVGa2iwXmAFnvNTxWYwah1Uy8RH9qQd3Qi2bp3f9t0QOa5pJhbxAXvv0ruadgL0QfzVleCXzBiA4eB4N5UdfSj/r5Jj5Oqin0W0CsZry7rIAITDzYt+dhF69pLrUmXQOWP+XdhbHZNh8DJ2zDl2pLypkW9+eB+a5fNyPYVg6CYl5px3EganAs5sHhR72ScujSLE/tjB/33RMIuHVX4HwCezLMNb3GLVqXzk/8A0JR7CXB710GsPTJh7oY2APsZ2b7iaBQU+nZmpWcN7vXzY0dYijoAgxmjLjU4B4fcPUHmLO1sd0JxKFblzd7UPRlcV4lym8UpdhXYnX/o47e2M7J9x7kt6VU/osG5pRmogSko0nsAfISx6eJ6MhLtNiOYv+JNMc7FAPIyVd+Iywyus/Ne5HDtoIjePWrBK7tpcAQi1/px0oknDS7VEP0eeDqA+4NLMamnz5TWrkpC9bq8GDDMFjfpFV746jYIHs6hwd3b5++obmNk+9PiAPwhVR2b5Keb8pzBtVZGLxCAe0x6IYMDwr35XOmU5G3Ix/IBx21DlAAcvStHv7S2pHbVi30unmAjI9u3FjccqnVbZx4/jAaXB1pmTR3vCOaCuyl4hcHbp08c3uNzVQPHtvRy5HxrL+d1twlWOiX5BIA3ctBdv6+f3/snw9rXnNBZELpHD2R0NLhcsTF++iC10gsAbvbqJfYNLRrdm8+NSyTXAfLrXJYtFMI613Wia+Co6txs/05a7Pv7lZULDc73qFzYWhm9mgaXy4I6e26GIsbo8xYFaau4t5/tbMcPAOTqHc/u0Ylkqxs1s0LWXGR1Abq8OK529dp+PYc2DS4YHocbU7NiFTS4HNBSFT1fVL/GsPMejvT+VIejH23cCZH/zVGutM6tmpUkGtYDeD57rZfe39+vFra3rwF6t26OeJpCiN7Xeln5EBpcFtk8MzpGgbvgkzHhoGEkXdCnzw+WO3KRxanqWlcLp7g3a7fuoL6/Xx6xaN0u8D1cMBAc7+zTW2hwWXvGIekC/A7AaEabN0k7fTsxu+Sehr2A3pb9ZxeuNjg7pH9CNibdCFaWPdy0cYDaLWVkBwTV/2ipjMVpcFkgVR27QhQXMMq8TKjPWzu1OwW3A8jqLv8KcXUWMi6R3CGQxzJ/4/JIBkxyGeM6QB4n+ps3Zh4f9mLZXWtwLdWTI6L6E4aXxxHd19evTJi/4k0IsroZs8BZ63rtsjBMacTOhMG9xMAOFCNCoYI/ao33lme5ssBrp08sUjX3ARjE2PJ252///n1b+/VNB79FFmcSWra43uDaDtu9EMCbGbzkljGxVQM2p7ahe15AnrZXI3nj3NaG6LdocBlgyOCi/wUwhTHl9ewNbx67aF17f74arm9aDeC5LJVs25gFTZvdLt+EuRvaoJKxrbtE8UhvTw7osVzAPxjgAeutAjdumhWZSoMbAKmq2MehciXDyQc4aBngFeZkqWSemSQhBn/KYAP1aMaupbqYAR44iowld+vlFQVeKbCrDG797PHFUJ0DLgnwSwa3YSBft61h8wDszkLJPGNwO4zzJAQ7M9HdcJB+JmMNhyVPM8ADmcbFWra1XUuD60/3YNfQ70FwPKPINw/DgN5zjUss2Z+RWX8f5mWvSBhJJDtUNRPDlI1j69dk7Kibkm0jn0Vm3w8S7/Rcv9sSj0ymwfWBA6dz4xoGj58SuAwsphZNZLxglnpqHZcRM3ANFIszWreLF6cFeJxRHkiKHFt+74VZla4ooMbjlqX4PYACxo6PEjjLahjoNdqH71kExa4MFmtbOJF8w0s6lowo/AuAHQPsbTyT8fpVWcgoD2rnFae1Nka/TIPrBa326isBfJRh4yvskNjLB3qRCXM3tEGQuYZUvbdIWeYs7VToggFcwnE0/bfMV7CzCEAnQz2gHVgH/7cxPqWMBtcNm6tjxyjwA4aL77p4q0Ynknsy8iCJPprBcnlymykDmTeA3nZTJt+/vc24RHIHRJ9ksAf2GR8esp1fu/u5yWcPABBb9Q4AgxktPot9J3O7XRhT+CQytYO9qCcNLm0N+yuA/f38+jNZrOcHGe0BzuKgM928V2VeDa61KvZvAM5lmPgx8DNncKWJ5VuBzAwtalo8uUB5XGLJfkj/1p6pZG9RdmFb+3xwV5NgP+uiv3j9/NgRNLj3sH7W1MMV3GvSvymcyXSj+kQGrvHaQHfSzytO/zZfdhwrawY3YtG6XRl9R0q8SElhkePK10x5M7gi6bwewCjGhi/ZWzqyoDGjfqkyYIOTLA7V5aSnbJy/9+Omd5bVr8zuvpuC3zHkA57FQb7SUj05QoMDsDEemQiRKxgWvmWxzFma0dl1e9r2vwCgfWBPobe3lwqbSEOfl0yovChZ3LQaAEqjTU8CeJ1hH2hCcOQ2txUqLwZnHLkFQBFjwrfduScyfcljF61rV2BAyw5UHE9ncJJI2Oj7+7Ss79oiNXBE5C4GfsAfe5FzmqsjMwJtcM3VsXN5iKm/cWA9lo3riuiSAXx9bbhuteezDNW+mbxRfTEn5uvIb8HJJoFHVG5ZO32ia5KXnBqcTpsWEkdvYxj4uh+3YWz9ylez04iafhucAI/5QV0DberT50Oak303S+obtojifsZ/4PnI0EHF/xlIg2s5YtvXIJjMGPB1Hy5r+xN22h39Px/OkUW+6D6oSfbh462jE8nWnJXNyM3I8vs+4oEYBW7YEo+UBMrgNlVOGgHBDax+30f3E9m69FELXkkB/Tpjrk3twmf8IK9dMHQVALuXH2/KZdnCtY1rIPoYH4LAMyztGFcsG8iZwVli1QA4knXva9qL2tqyvXVTPxptWRxeuHSfHwQel1iyH9B/9u62tTHX5VOYn/MxIFD9dzec/p0Tg2uZNXW8Qi5nrfsbAZ4YsWjdruz+iPbd4NSp85fQ0tQ7qUxDrotWVtv4JCDL+TQEHssY87+BMDg16e8DKGSd+93htDbrseSYvmYltoH1sJ9kVqd3Jq/96Qxkhp/yYSCAntdcFTnT1wa3qXLKcQA+y8r2PZ1pk/0tm4w6yT5+5W8l9Q1b/CS0AXozRGmjo2hVPspXWt74IAQr+EgQUfxvnp+VLOepYn8fQIhV7Xv+Oi6R3JH1B2aYlUQfThZQoN5/UpterOfTf+brvaPUwDEOrucjQSDysdbKyNm+NLiW6skRBS5mLQdiOGJeLn6l5J6GvQCae/nxdIGlCf9JbfVscILV+SxiSX3TI1As5nNBHJEf+tLgVM0P4ZJTw0lWscUqzOV7rvW9/NwTuVwHljPzePPwTehhqYBC1ua/pMosjgDAGanKyHm+MrhUVflJAGaxboOQvOGprjPbcsWG3hULd/tRblm8OA0g1X0Cl3+DC9cnn1XBI3xACIz8SAHxUQbn/BB5uCGShwbXaE63aNLeZHCKXY41bIGPZe92mFJEX3VFbDj4NoA0n5LAd4IrUlW534g5KwbXWlV+GoBPs1YDwf7Cfe05nchhRNf3IrLvP7Ao2rcNRrdZbFqstW4oZri+aTXPiyNdowo/yHUWlxWDc6Dckis4UftI1hd3f7BtV9OjwRnH/Mrnund3MvmesYmVKbcU1Tjmhj6fY0f8yJSWqugsTxtca2V5FNBPsS4D43A530HeEmzq4SNPl9Q3NPlZde1uT07BOnHRpscl9Q1bIPg/PisEwDWeNjhb7KvBd29Byd527t23P+e79ItxtvTQ+t/ud+kN9NAGp7LObeVtH77nFvDUbwKc0XxR9AxPGtzWqhNKBXIp6zAwDjfv2EXr2nP9q6MTyT0ADrGIWTeU7hy5wO/Kq6Kb5Q/qOiOZMHdDGyDX8ZkhorjakwbXCevrAIpYhQFBcW8ef33rIbKXH3dNo/c1lkrLoavFnZlSaV3jAwCe44MT+HZj1sbqE471lMG1XlY+BMCXWXuBidINpXWNf89jAQ42TNm8t63tD4FQf5g5dAan8oYre+6AKvRaPjuBxxi1rvSUwTl7nC+C570FiXvyPJFh60Fa0JvzMWSaD0ruadh7qJmJqo5r33WV1SWfA/AoH59gI8Ds1IzjRnrC4DQetyD4JqstONji3JPfFEY+aHDN6Ci6M1ithB40i9MCvOHmYqs418NFszxJXhgsBUVf9YTBtdqrKgEcwzoLBgq8MK52dV4XEos4u9//v/V//HJqdx9UONh7uN25ONVhQFlc7arlgNTySQp6O6JXrJ89vtj1BudArmZ1BQcjLtjjUbD3Pf/r5ZJY8p7ANRCKzQcR5g0vlF0s5wb0sGE08T1jinYN+ZyrDS41K1YhwGmsq8DQoR0d+T+CRs27BmfMVVLT+zPifJO/HXSxt27yQtlLE8lVUDzAxynYCOTr7s7gjP4HqylQPBpe+Oq2/Gcvzp4D/4/8MTyv4e8BbR0+nMGpeOZ4IDuk3wfQyUcquChQ3lIVOdmVBtd6WfkQKLiwO1CNqrjjCBox+wC0dHbgW4FtHA5mZqLNXin/uERyHUTm8qEKvMl9yZUGZ+9zPgPBcFZRYNi+0zh/dslTsUdFv3z0o407g1oZ5iC7mSjgqQNexbZuAo/TCXqv+dIt8chQ1xkcFByeDFZP66FIItnhhrJ0duDPZbXJhUGuD8eyWz/8QHezR6ULKZ2/YoMq6vh0BZphnbZ8xlUG13phLMbJJcHCEsc1J2QHOXN7G7vT/tA7OFtNs9fuQwxu5tMV8BwOkpVkqd8G54T0S6yWQOVvr5bUrnqROriHcbtKtwDvnz0aCkmr1+4jXNv0MoBnWaOBbl9O3VgdLXeFwa2fPb4Yis+xUgLFPZTAZb3eA5tKv29Gq9NWsNmbNyM/Y40Gm5BmfrJJvwyuaPfQi8B9JwPVvTKWdR9lcKEvvH9SyX6v7uZSGmtcAGAtazTAjYzgcxvjpw/Ku8FBweHJIAUe8GJJomE9lXBh3bx/JuU2r96H1MAR6K2s0UA3NEdYzu7qvBpc84XRcQA+ztoIUJYgeJAquDaFe8+QpGzz8q1oZ/FcCHayUgPtcp/Nq8EZCxcDEFZEYHDSnZ0JyuBWf3vPhsuqW718L+GFS/eJKofCA+1vcu6mykkj8mZwClzMWgjSqIEsPmrBKykq4db24D0ZnOg2r99PWuRO1mqgKRAJzcqLwbXMmjoewMmsgwBlCIKHqIKreyCt72Zz2OH12xlX29QA4GVWbIDbHCBji777lsFZ6Tg4PBkkOh2nk+d2udnfjG541+v88f5KVOeyZgPNJ1viJ47KucFpBp2VeKKleXJs/ZrtFMK9FDr2+nezbdntjx68lQD3pwwyIbXTVTk1uM3VsWOgqKD2QUoPuEeg2xlZt7oVwD4AUJVdfrinkvqGLVD8lbUb5KYnM3M9em1wtuollD1QOCELj1AGt2c7UABvn+K92y/3pRAuTQl0XOu0N2YeH86ZwUEQp+yBajhfHJ1ItlIJT/AaAKg4vjG4dAfmg8OUQcYUWKHKnBjcpsopx0ExlZoHKH1TeZgqeCTbEVkPAMYn7+CArtMilBswBzyuBzxM2SuDs8SeQbkDlsEZ0OC80tVVXQ8A6phdvopB4RB5wDlzYzwyoD2Pe2VwDuTT1DpQrAnXNq6hDB7p6aomAcC2bF8ZXNpSdrKCjWVs+ZesGtyWeGSoQM+k1gHK3iALqIKHWgFblgNAEbDHT/c1LpFcB4CbfAe5LVKZnlWD67Rx9oFnhwQmIwAepQreYcyCps0AWtJtxbv8dm+ieJo1HGiH+5QOYHORHg1OZGAOSjzH3p2W8wJl8FinRLDUq2fBdXtfhgYXcEpS1ZOnZs3goPh/1DhQPBNJJDsog9ecQP/ux9tKd3ZywXfgkzjT7ySrW4NLVUZPAHAMJQ5SNMlTFMF7WLD+5sf76jrJ4p+s4UCTHYMD9DxqGywcx6HBeZAxIwuW+rbPBbzEGg40p62fNfXwzBuccHlAwNhSVp9soAweNIE5Szv9em8qQoMLNqFi03luRg2u9bLyIQA+Rm0D1EgCf+3a25AQ9+A4/6AIwUYh/RpNPKTBOfudM8HlAQELIuXwJHEdZqi1HIBDJQJNZjM4OHoWNQ1YBmfheapA3EbJPQ17AWygEoHm6OYLo+MyZnAKw91LgsWeEkx+hTIQV3a+gCRVCDgWzsiIwem0aSGBnkJFA8UySSRsykDcyNv7bZLgYoAz+/GdD9Ny5I5yAEMpaaD6yMuoAXFv6yY0uKB3cjJlcFCH79+CB6diE9fiOMLF3mTK1pnHDxuwwfXHKYnHe0eWLKUKxK0USXoDVQg8VkdB4akDNjiRvr/MI57O/XeFIw1rKQRxKyPrVrcCaKMSwcZo345u+5DBpeKRowCMpZQBQrBcarjOiLg5RKGAvkElgt4Xx8AMTh0OTwaw9VhNEYgHApUGR07TeNzqt8EZldOpYdC6Rcr1b8QL3fdWihB4hjWnV0X7n8EBJ1LDgPWLHUODI15wuC3UgFhieu1R5gPmJgCilDBYpAscTjAh7seYrRSBqDqxfhlcS9UJRwE4nBIGK17a9rRvpAzE9YHKDI4AgEj/DM6oFaN6gWPLsYvWtVMG4gGLYwZHAKC8XwbnGEyhdoGD2RvxBEZkN1UgAMZsnhkd02eDE+X7t8Bl+5AUVSCeyN/SNDhygHRB74YpPzjJhBlc0BoNDvsQr8RqgeyhCuRAx7x3w5TvGNza6ROLABxL6QLWaCh2UAXiBRzQ4Mjb7ZbTtwxu8ODCyQBClC5gPSHBm1SBeIHBe/ZyiJJ0ZXDStwzO9PILxHcGt5MqEC+wa0y6gyqQLibrtGk9JmTvvoNTM5maBQ/HEe7QTjzB+A3j01SBdFG8acTmCb02OBWdQM2CmOqDvWLiDRYvtgEohSAAYInVe4ODYjwlo8ER4uJYVQA2lSBdWVmPnvXeZQI0uCDGiEEnVSAegsOU5ACO07sMbks8MhTAKCoWyCixqAHxUp+MEhAAEOllBuekLWZvwW0tCqkC8RBFlIAAgNOLUUcDALaxOcEkoBgaHPFKZ+zAtHBDJQgACNDLSSa9eFlHfNpoqCmmCsQLtAzbzc4YeS+jUzMqBvdocKJKgwuuxR1JDYgXsKR9GFUg70viQu1H95zBiXCIMqj2JqDBEU9gW4xV8gGHM917V9d4Nocog4px2GgQr3TGONpAPkAPSwW6DE7LqFRgM7gSqkC8gKVyBFUg72+/pFvvMgoIwF58gDmKEhBPdNaBsVSBfMDiRnRrcJvikSPAY3KCzNGUgHgCwTiKQN4fEzKyW4Nj9hZ4hm2MRxgDxAvQ4MgHEjh0b3AFtjWSKgW8E5Q2x1MF4gE425t8sPXqfogS6tDgAo4RJ0IViAeYRAnIB1K47jM47WEMkwTC4mhwxNW0xE8cBYBtFfkgR3ZNlDyUwfEdXOCTfHViVIG4up+uNrM3cjAKdsYrhh/S4KDKXlHQGw/IyVrDTWyJi2PUcaZSBXIwOjvbRx7a4DhESQTDW1ZGOdGEuDhEcTJVIAfD6WYtnOlpoRwJSAMicipVIC6GBkcOjmW6yeAUw6kQgerHKAJxIzviFYcBOI5KkINmcI7T7Ts4npBLoIJzqQJxIx3p9o+BB52SQ5rYoQ9tNhDDQwQJABy1MR6ZSBmI63ro0E9SBXLIzjlQ1I35gQZHAABWWpjFEfchhgZHDm1wxtDgSG9yfZ1JEYibaK0sHw3oFCpBDtn/6W6IUsB3cOTtrpCcvX36RE46Iq7BNs4F4Ps30j2HNjhlBkfepaijeNCnKANxTe9cMYMqkO5jRDlESXqHA72IKhA3sH72+GKAs3tJ93Q/yUTAIUrybm9IMHP9rKmHUwmSb4p3DbkAwFAqQXqgm2UCygyOvL9dKbTSVZSB5L1nLnIpVSA9dsq7NTgOUZIPBozi81SB5JPt0ycOh+LTVIL02BFC9+/gLEpEPsDHU9UxHk9C8kb7oKKLARRTCdKLLrnVncF1UiDyoaxf8WXKQPIYgow/0ls6Dm1winbqQw6S+M9OzagYTB1Irtk0KzIVwEepBOllZ6j90AYnNDhyUA5HqJ3v4kjOMUauoAqk1/bWXQYnEA5RkkNFzn9pPM53tCRnHNiaC/9KJUhvUTiHzuAUygyOHIpjWtNruGSA5Awb9hUABlEJ0ge6eQcHDlGSbnpHRq9VQKgEyTYb46cPEpGvUQnStwyuO4MTzqIk3UZPRaoyxlMGSNax0ru+AmAklSB9QaS7SSacRUl6DCD9kdZwR3eS7ezNXEMlSJ9x0I3BcYiS9Ew0tTJyMWUg2SKU3n2FQsNUgvQVNd2/g+ugRKQXwwA3de3uTkhG2RGvOEwF36YSpF9tUzceFgKwnxJlpiMBweehOhJqpkJ0KoDJAAp8cn8TinYPuxLA/7GqSSZptzuuAzDK57e5SSDLHOhyQJcZwRmqci1rPyNN7/5DG5xiB+fIZaYjoUBhWV3y1rf/Yf3s8cUFbw070UBPhuAUQE8G5Fh4dVai6nVb4pG5oxPJVlY3yQQts6aOV6S/4bPbeg2QZYAug+gy41jLS+obtrz3A6mqKGeLZq7h3dFdBredEmVM6M8BuOudlGfuhjYAS7r+AACvnx87omCQngxHTxGYkxV6CoASj9zisLSNn4ELcUmm+kxW+idQz26qbAN4FdDl0mVobU7B8gnzV7zZ3ZcOnLeY/iRrP0Ptrm22HdrgRLdxmVPG+ETzhdFxZQ83bTzUB45+tHEngCe6/gAAzRdGxxkjp6lxTheV0xQ4CXDrQbTy2dRF0T+G5zU9weomA8veYtNVNe6R4nYCWCXAMkdkGdRZbg2xVpTc07C3rxcqEvt88JiyjNGhHYdM0kIisl2VImUIA0svBfCTvnypyxA3AkgAwNrpE4sGFQ86ycA5DUZOh+J0AGNdc5cOfr0xfnpsXGIJ39+SfrExfvogtXff7tLitQFoBLAMciAz27uvrfHYResyM+NctJIRkDnaO+1DGxwc2Qahw2Usv4H5fF8N7oN0PUhvD23eAgCbqsrHWrBPU8XpEDkNQEUes7yPWPbuHwLguiXSL0LOrhsUcowLirIHwAoIlonK8rTosrHbR66SxYvT2fixruHJ8xkBGWN3dx0Paa2MnO2IPEWdMpnGmdNL6hpeyOZv6LRpodYRW45XWGdC9SwoKiCYnMs8TgzOKZ3XtJg1TvpCa1X5aQ6cZ5Hrw5YVuyBohGCpOLoURpeWxFatlho4uSpCS3X0q6r4NaMgY7wWrmv6yCE7Up1GtllM4DLb8sP5IoCsGlxXDzPZ9TcHALZWnVDaIeajUKkQ4Ewc+MvWxrVGHf3D9ukTp4xYtG4Xa530KoOZPb7Yecv5PSTr5vYmgOT7zKxu1SoB3t/a1eb2/lUxm1GQUbqdJBmCsbbDtilTZrlk68zjrxq14JXdufzRUXWrWwAs7PpDMh4pHOHoiQ7MaaI4TYEzAByVQZsd3z6o+HYAPDeO9Iqi3UN/nIWRhjcgulxglomjyzpD1vJxiZXNbrv3VGX0BACnMAoy2tXv3uDSQ97abu0aSp0yy9BOK3QJgDvzWYhIItkB4MWuv9sA4I2Zx4dDVsFpanC6OHoqRCoADOTk7suaK2NPl9U3/oHVTrqjuSoyE4qvD/Ay+wG8BOA5o3heQwUvliaWb/VEUywyW8HhsgznxN0anABAqiq6GwBdLrO8FK5rcn1vTadNC7UcuaNcYJ+mkFOhOBWCY4E+ba68z6g5taS+oYnVTg6avcQjR8GW5QCO7ONXNwLyItR53hh9fsyIQctkzlLPnYCydvrEoiGDijfAO2tePeJvuC1c33TlITO4rv+7hQaXcU5uvih6Rtm8pudd3as88C5vWdffrwFg68zjh3WGCk8EnJMA6frTSTj0pIDBjjiJHfGK045MLH2LVU/eSzIeKRRbHtSezE2xS6AvqciLqvKPQkn/o2vY3fMMHVx0iSrNLeMYdJu9v21wrwM4hmpl2Dwc+RaA571W7q53h3/r+jvQA59RMdgJdUyxukxPDU6CIoJ399qc1Oa0PaDx+AxJJPhSl7zDEY65XaGnf+Cf352eD10Gg5dKIsk1uZzRmNtEQ65kJGSF13s0OAE2cGQ4K2Fdubk6dsyY2sbXvH4n4YVL9+ED247p5RUFrdv3HwdHKtRIBVQqUvbq6wHUsO4JALRURb6mqpcAeO59MxpNZM2HOkIJf2qw6aLyc+A4UxkNWWhhVdf3nMGJbAC3M8kGlu04VwC42pcZ6oF3IW8vVbgbOPBOj9VO3sEp+HPp/BW/+dD0fKwKTiPgON9k65ql8LJCG7r776Y3LkgG4gLyxa0zjx8WmNvN0g4QxJuUzl+x4cPmFhw2VU45TgHuXJId2sdGVrb0aHAwZgO1yhqHdYYK/pMyEBI8jNhXom8zkklvUWzo6Z3tgQyu06HBZZert0+fOJwyEBIcWuInjgI3Qcgegh59ywBA+MSmZnRz7DcZMCM6Bg36JmUgJDg46c7/AjCESmTN4Hp8tWYAoCvN20jFsplN69Wvnx87gkoQ4n9SM44bKYKvUokstqmO9C6D64ITTbLLYaEiZRZHSBAa38LCa8HNM7KcwWkfDE6EBpf1jBpXboxHjqQShPiXrVUnlIoye8s2lvQ8d+Qdg1N11lGyHGRxttRQBkL8SydMDfjuLeuknZ496x2DM45ppGTZR4GvtV4Yi1EJQvxHc7z8eED+nUpkX+qx9Wu299rgbCM0uBxl1raFWykDIf5DHPvHeHePX5I1obWhNx97x+DG1jVsArCDyuWgbqBnp6qilVSCEP+QqoycBZULqUQu/K13I47vX2GvaKB0OeNn62ePL6YMhHgfrYGByC1UIkd699KrzAf+Fw0ud0wo2j30aspAiPdpbYh8BcBHqURusI32J4NTvofLaTcE32mNl0+gEIR4l9SM40Yq5IdUImd07jK6ps8GZ4QGl2OGOLbzewWEUhDiUQoKbkRPp5WTjCHA6kgi2autJd+fwQ0ONQH+PFHXxXyypTLyJcpAiPfYVBk7HRA+vzlEoU29/ez7DK7knoa9AP5JCXPeJ/lp84XRcdSBEO+QjEcKjeBO8Dic3Bqcml7PFTlYxXCiSe5z7uFi4TcUghDvcLgt1wEaoRK5xRj0+lXahw1O5GVKmBfOT1VFL6MMhLifVHVskgD/TSVyn8CJ03uPOpjBPUcN88atW+KREspAiItb2HjcUtU/ACiiGjlXf21JfcOWfhucLUNeBg8/zRdHph38ljIQ4l5a7NXfFuA0KpF7BH1LwD5kcOMSS/YrsIxS5i0Bv7ClKvI1CkGI+0hVlZ8EoIZK5AdH8OyADO6AS4LDlPn0OMjPNlVGplAJQlxkbjMqBgPOfQAKqUaeMGZgGVwXNLj8Umwg9x94oAghrqCg/acAJlGIvLEtnGh4dcAGZ6XxPLXMM4LJKGjj5q2EuIDWyugFAL5CJfLZJMrzAuiADW7MgqbNAvCE7/xX6eXNlZFLqAMh+SMVjxzlCP4AbqmX5+ZQn+3rVw65Al+VywVcUaciv2mZNXU8lSAk96ydPrEIttQCGEk18osjfX911s0WMw4Nzh0crib9kF5eUUApCMktQwYX3woeg+MG2vftbVuaOYMz5u/U1DWc0rK17QeUgZDckaqM/SuU791cwovHLlrXnjGDC9c2rgF0A3V1CSLXpiqjVRSCkOzTemEsBtE7qIRreLw/X+phF2x5nLq6x+Ig+GNL9WRu7kpINjO3GceNdCytBzCEargDFWdRxg1OVRZRWlcxVNXUr5819XBKQUjmWT97fLEUFC4A8BGq4Z6EOly7akXGDc4aKk8CaKe+ruLYYpO+W2t4BhUhGc0SACl6a+idCpxONdxUL/pYX9e/9crgSu5p2KvgcgEXPogzWhtj36UShGQwTaiOXQ/B56iE25DH+vvNHrMAo8phSjeanOoNLVXR86kEIQOnuTJyiarWUAnXYTuW/iVrBicwj1FjV2IUeCBVGT2BUhDSfzZdVH6OiMwFdypxIy+OSyR3ZM3gSuobmgC8QZ1dyTAI6rZPnzicUhDSd1pmRU4xjjMfPLzUlcgAhid7ZXAHUGZx7mVS+6DiuZx0Qkgfza16ckSNLAIwlGq4FScHBieG7+HcTWXLysjNlIGQ3mZuU8ermscBHEk1XMuWkvLk0oFcINSbD9lm6OOWvXsPezpuzuXlqlRVVCHyKsUgpHtU09cAKKMSrqZeauAMqFns7QdTlbH7IXopNSeEEJL1PrvBJ0vnNS0eyDVMHz75J0pOCCEkB7SWyAkD3vC/1wa3d9/+RQDeou6EEEKymr1B50kiYefM4LqOKlhA6QkhhGQTVTyUiev0aWq5UQ5TEkIIySotpVOSz+fc4MaMKnocwA7qTwghJDvIQwOdPdkvg5M5SzsFeJgVQAghJBs4GRwp7PPuF6rKYUpCCCHZYGNZfeMLeTO40lHFTwHYxnoghBCSYf7U37PfMmJwMmdpJwT3sx4IIYRkEkf1nkxer38b9Dr4LauCEEJIphBgydj65Mq8G1y4vmm1AEtYJYQQQjKTvcmdmb6mcVNhCCGEBJLdBSEn4R6DCw19EMCbrBdCCCEDQnDf6ERyj2sMblxiyX4IHmTNEEIIGRC2/C4blx3QKdCOo5xsQgghZADJGxrC8xuXZuPaAzK4rhkvy1hFhBBC+ulwWUuUzICvoOBkE0IIIf1hf5sdeiBbFw8N9AJFbW33tw8qvhnAUNZVfgMFyOwiSUL8izkK0POoQ35R6EMT5q94M3vJYQZIVUZvheCbrK68siVc1zSGMhDSMy1V0fMVeIRK5BfH0RPHzk+uyFo3JiMuqaFbAaRZXYQQQnrJ49k0t4wZXOn8FRtUUcf6IoQQ0htU8bNs/4bJ1IXE4GZWGSGEkJ4NA43h+qYnPWNw4dqml6H6d9YcIYSQ7tM33JzJY3GybnAHymx+xpojhBDSDc07LX0oFz+UUYML1zcuALCa9UcIIeTgiZD+IpJIdnjO4A6knHIbq5AQQshB2N3hFMzJ1Y+ZTF+wffjuPwLYzHokhBDy/vRN78zmwu6sG9yEuRvaIPgla5IQQsh78x915NZc/qDJxkVDRm8DsIX1SQghBAAEmFP2cNNGzxvc6ERyjwh+yiolhBACoC1tWT/O9Y+abF04bYbdLpAU65UQQgLPr8YlVjb7xuDGJZbsV9GfsF4JISTQ7DVq8uIFJpsXbx+25w4Am1i/hBASWH5RUt+QlzkZWTW4CXM3tIngJtYvIYQEEMUu29K8zccw2f6BkhFFvwPwGmuaEEIC5m+CW8Ylkjt8a3AyZ2mnCm5kVRNCSKB4s8MJ3ZrPAphc/Eh4+8i7AX2V9U0IIQFB5Me53LUkbwYnixenVXANa5wQQgLB+vZhu2/NdyFMrn6orDa5EJDHWO+EEOL37E3/a8LcDW2BMTgAgOpVADpZ+4QQ4lueK61N1rmhIDk1uHB902qB3sH6J4QQX+LAkW/m4rRu92VwADrazfcAbGMcEEKI39Dfhec3LnVLaXJucEc/2rhTRb7PQCCEED95G3aFLNzgpiKZfPxo2Ez6DQSNjAhCCPEJRr4/OpFsDbzBSSJhO2K+xYgghBBf8M+9+/b/ynWem68fHjuv4SmBLGBcEEKIx5M3xZXHLlrXToN7D2o5Xwewm+FBCCEeRZAoqW96xJXGm88fDyeSbyjwP4wQQgjxJG/ZxnLt6yaT7wKEy5t+BeA5xgkhhHgLBa7Ox0ndnjE4qYEDkS8BaGe4EEKIZ3gmXNd0l5sLaNxQiHBt4xoF/o/xQgghnqAdIl9xy44lrjY4AHjT0psASTJuCCHE3ajKDeHaxjVuL6drDC6SSHYYsb8IwGb4EEKIOxGgITyq8OdeKKtxU2FKale9KNDfMIQIIcSV2OrIv8ucpZ44FSbkugKl09d1hgrOBzCBsdQnBjdXxq6lDIT0jANnkkAoRJ+zN/lZqYs2U+5Ftuk+mqsiZwrkGQAWQ4oQQlxhF8t3Ws5pkUSywyslNm4sVFld8jlAb2JAEUKIK9gHwWe9ZG6uNTgAKN0x6gcCLGFcEUJI3rO3q7wwa/JDpXZz4TZXx46xHV0OwXAGGCGE5MMldFFpbfJ8t69581QGBwBjahtfU8iVjDBCCMkLW6xO+YIXzc31BgcAZfWNfxDgQcYZIYTkFBWRL4xZ0LTZqzdgvFDINif0VQBvMN4IISRX9qa3lNY2/tnLt+AJg5swf8WbYvBvABxGHSGEZJ2Ve9var/P6TRivFLR0XtNigdQw7gghJKvshuJSN57Q3Vc8tZRfAWmpjs6DoooxSAghWWhmRePh2mStH27GeKmwAmhBZ+dsAKsZh4QQkvFW9ka/mJvnDA4ARi14ZTdEqqDYxWAkhJCM8WSpNanGV3bt1YKnqqKVAGq9fA+EEOISXkdnx0fDC1/d5qebMl4teLiuqR6qtzAuCSFkQLTBkWq/mZunDQ4ASneOuhaKxYxPQgjpHyq4IuyhI3ACY3CyeHHawHwGwCaGKSGE9JnflNU23eXXm/PF+6tUdfSjXZncEMarm3uK8nXjYDOVCEJd62cAVFMJN1cSFu8M6ae8dgRO4AwOAFqqoucr8DB4SKp7nyfLTCpLNLxCJfxPS1Xsxwr9NpVwLWs62+WMox9t3OnnmzR+uZHSuqZHAbmCcetig0vbxVQhMBkc69q9bLMtneF3c/OVwQFAuK7xDihuY/y6E8uSI6hCUBwOrGt3st9RmTkukVwXhJs1fruh0ilNVwGoZxy7D8fWEqoQGFjXLnwEofjc2PrGJUG5Yd8ZnNTAQWfR5wC8xHh2Wd0ApVQhMLCu3ZdWXx2ub6oL0h0bP95UeOHSfWIVnC/AOga1ix4vkYlUIQD1XAMD4Bgq4SruCNclbw3aTRu/3lhpYvlWVcyEYCdj2zU53CRq4H82J8uPBjCYSriGR0utEwI5Ac/4+ebC9U2rVXUGgL2McRfYGzSm3DvU99i2HaMKruFv6Cy6WBIJmwbnQ8rqks85xlwIoI2xnndGbZkV5dCV7zsychpVcEVNLG93QheGFy7dF1QFTBBucuy8hqdU9GIAnQz6PPfuLZxOFfyNQk6lCvnuZKDBtpxzJ8xf8WaQdTBBudGy2uRCKC4BkGb45/HBU5xPFfxL62XlQwR6JpXIK2stSz81LpHcEXQhTJBuNlzfVCeqXwTg8BnIV+8e56+dPrGISviUPc4nAbB+88dGwP6X0YlkK6UImMEBQGl98m5R/QarPm8MGzK4aBpl8CeOkZlUIT8IJGU5+GS4bvXrVCOgBtdlcr8C9Fus/rw9irOogQ+z88srCqBaRSXywjZYzr+Mmd/0T0oRcIMDgHBd8lYFvs8QyEdLiAv18ooCCuEvUtvapgMYQSVyznYV5/+VJpKrKAUN7h3K6ppqFHotAGUo5DaJbtnWEacMvmtOvkkNcs5mW3B2We2q5ZSCBncQk0v+BIqvgRNPcovoVRTBP7ReGIsJ9JNUIqe8YYv9sXG1TQ2UggZ3SML1Tb+FyufBJQS5Q1GRqop9nEL4A8fSa8BdanLJekvkk+NqV6+lFDS4Xphc432qchGAdqqRM5fjRB8fsLXqhFIAl1CJnLHatqyPjaltfI1S0OB6TVl948NGcRG4rVeumNlcPflEyuBt0rC+A6CQSuQAwVJ0dnx8XGJlM8WgwfWZkvqmR0TlPAC7qUb240/U3M4NmL1LSzwyWYGvUImc8GyxKTonvPDVbZSCBtdvSusbn1GD83jUTk44o6Uqdill8CaObX4JgEs+so3iCTPEnHdkYulbFKMvCS85JBvjkYmWLX8GcCzVyCrNIUsnjU4k91AKD2VvVZGLFJKgEtn2Np0bHll8ucxZys3imcFljnGJ5DorjY8B+AfVyCpltm2upwzeYevM44cp5KdUIsveBr2+rC75BZobDS4rjFnQtLl9+J5PCPAQ1chqL/Wa5urYuVTCG3SGCn4F4GgqkTU6IPh8uC75I0rRfzhE2fuulKSqojcIcAPVyBqbQ5ZO5U7o7qa5MvYFEb2LSmStVd4pgqrSeU2LKQYzuFz1BLSsrqkGqpeDC8KzljCnbfMHrWFcupWN1SccK6K3UYmssR6QM2huNLi8EK5P3qmiVQD2Uo2s5MrnpVbG/os6uI/UjIrBIbXmARhGNbIQ+cALRs1p4drGNVSDBpc3ymqTC+HIJwBsohpZyJZFb2qpjl5MJVzU+E6bFtLC9ocUKKcaWYh54CHHGnZ2SX3DFqqRUV1J/3u0x41EQeEDADg5IvN0wGBGeF7TE5Qi75mFtFZGf6eCf6caGcdWlf8J1zf+RHiqCTM4NxFe+Oq2UuuE80T0x2BwZppCOJiXmhWroBT5pbUq9n80t6ywTUXOK6tv/DHNjRmcq2mpjMX1wMyyoVQjo2x21Pr42PqVr1KKPMR1VfRqBbjeLfNZ8QsKEx9b18DXHMzg3E9pfWNCLfNRKHiqbmYZY8ResqkydjqlyC3NlbFraW5Zsbc5b1r6CZobMzjPsXXm8cM6Q4V3AXoR1cgoe6F6Ubg++RilyHLzG49bLc7q26HcRDnDtCnwn2V1Tb+nFDQ47zYQgLRUx66F6o8AWFQkY3QA8oVwXeP9lCI7rJ89vrho99D7oKiiGpmVVsWpLqtdtZxS0OB8QaoychZE7gW3NMokjkBqSsobb5QaOJQjc2yMTymzbPshAGdSjYw2sg+2OaGvTpi/4k2qQYPzFdunTxzePqj4dgCXUY2M8nQB7H8dVbe6hVIMnE0XlZ9jHOdeACVUI2Pshsg14drGOZSCBudrWipjcTV6BxRHUI2MsQUGl3GtXP/RadNCqSO3fVeA68FJZ5nkH7al/zoukVxHKWhwwTC5WVPHq0nfCw4BZRJbVW/c19Z+07GL1rVTjt7Tdd7hXMZjRkkrcGN4x8gfyeLF3LOWBhewHnM8bqXSa64R0R+CJyFnMpDXqcEVzOZ6EYOXVxSktnZcJaI1AIqpSMZ4HcZcFp7X8HdKQYMLdjZXFTlZIfeBp4VnOqITVie+PmZB02aKcZC4q4x9QkV/A+AEqpHZuOtsky8f/WjjTopBgyMAWi8rH+Ls1R8B+nVwOUEmo3ongO+3D9tzx4S5G9ooCLB5VvQjtsgPIXop1cgozapyRVl948OUggZHDsKmWZGpxpLfQcF9FzPLFlX5uRMa+otxiSX7A5mxzZo6Xk3ndwD5dwAhhkTGUAD32pZeOS6R3EE5aHCku6dl2rRQ6ojtV/O9CI2Oxub6RnOdqH65pD75V6pBgyN9YPOs6Ecc0TtU5ByqkfFo3wnVhFHrlyX1DU2+6yTVwKQaY2cL9HIoZoGTmDJNp4j+vG3Y3hoOfdPgSH8bKkBaKyOXqcgtAI6kIlmJ/KWAzLHN0Hu8ntW9MfP4sGUVXibifAWQ8azcrATMckC+FK5rWEYtaHAkQw1XKFR4GzduzirbBVigikfMUPN4yT0Nez2R6VfHjrGhM8TRGSoyDZyklC3eguJ7pVOabufWcDQ4kgVaLopOUwe3AphCNbJKGyCLRXQB7NCi0vkrNrgmq7+8oiC1re0UI5ihai4ANMLqyio2oL8Xq/C7pYnlWykHDY5ks4GrgWldGfmcivwEwBgqkhNaVfAyFEshulQ6OpeEF766LVfZu1UQqjDAmapyFoCTAAxileTiYcNiB3rl2PrkSopBgyM5ZEe84rA2u/16AF8HUEhFctz0Aa8BeA0iG6C6AZANanSD3dG5Qe3C/Ued3PhWT0NZG+OnD3L27SkODZbR4tjjAXM0VMdDZbyIjlfgePDdaz5YD9H/CtcmaykFDY7kkU2VU44TY/9MFBdQDdfRCcEeKPYA6Oz6tyEAigAcTnlcxx4AN7UP33MLZ0fS4IiLSF0U/X9w5Od8J0NIn3EUenchnOt47BINjriUA+/nYtUqzo8AOY6KENL9I6OCR9XW68fOT66gHDQ44iGjg+hNCkykIoR8iCfhyH+H5zcupRQ0OOJFo7u8oqB1a9ulKlIDYAIVIQRPCvS60rrkS5SCBkd8QDIeKTzCMbNFcYNCw1SEBJDnxOC7pfOaFlMKGhzxIakZFYMl1P41FVwFoJSKkADwtBj8gMZGgyMByuiOTOMSNXINFDEqQnyGo4I/W2puLKlreIFyEBpcULO6yshZauRaUZzPOCAeZw8Ed0Htn4frVr9OOQgNjgAANlVGphjB1wD5PHgOHfEWrQrc4Vj6Cx46Smhw5NBGV1U+VtT5hgguB3AYFSEubrQaoPqzHSE8GEkkO6gIocGRXrF+9vji4reGzVDRywGcS0WIS2iDYKFC5oRrG5+SA/uCEkKDI/0jVR2bJHBmq8oXAYykIiTnKFYp5G5F5+/G1q/ZTkEIDY5klLXTJxYNLR40syurO4dxQ7Jsarsg+iAU94Trk89SEEKDIzlhU+WU4yxxvqjQzwMooSIkY7YGLFHB763B5iGvnKxOaHDEj61RDUzLysgZMBKH4mKaHemnra1SQcIR+75xtavXUhBCgyPuaqPicaslver0LrO7BMBoqkJ6MjVY5oGyRMMrFITQ4IgXze5SAKOoCnnb1ETkwXBt4xoKQmhwxNOsnT6xaGjRoLNhnE8Dch6P8AkUnQCeVehjxsIjpYnkKkpCaHDEt2yujh1jA+cCei4U5wEYRlV8RSuAv4jKwqJQ4RNHJpa+RUkIDY4EjvWzxxcX7h52loFzrkLOhaKCqniONIAXVWWhKJ4snd+4jAuwCQ2OkA/QMmvqeDXpjwE4s+tvMgBDZVzFHlF90RF5VgyeN4PMc5zOT2hwhPSRrTOPH9ZRUHgqVM+SA4Z3BoDBVCa3/Q4VLIUjzwqc53aG8A/u/UhocIRkGL28omDz9v0nOY6cISKnqKIcguMAhKhORngLQKOKrBQHSyDpZ3n0DKHBEZJH02vdvv84ONZkRzQCQYUoJgM4huockjSAN1SwCoqlRiUJY68qqV21iu/PCA2OEJeTmnHcSKeoeIpRJyqqExUyAYoJEIxHcIY5Nyuw3gAbVHWDAKsdo41vGklymJHQ4AjxY6s/MzpGC5zxtprxUBkvohMAjAdwNARjoDjCA7fRAWA7BCkoNqhgvXF0A0Q2wNL1aQxfPy6xZD9rm9DgCCHvoPG4tTn9yggHzghAR8CYkao6AiojYXSkUYwAMFKBQV1P0AFDVBS9JzscDoEFBxYEwwHYEOzq+tw+AO1d390JAKLoUGDvO/+m2AboNohsB7BdbNkOONulwNpqtbdvG7Xgld2sKUJ65v8DCrgo3pnuoK0AAAAldEVYdGRhdGU6Y3JlYXRlADIwMjItMDctMjhUMjA6NDk6MTUrMDA6MDD87ZhtAAAAJXRFWHRkYXRlOm1vZGlmeQAyMDIyLTA3LTI4VDIwOjQ5OjE1KzAwOjAwjbAg0QAAAABJRU5ErkJggg==;" parent="1" vertex="1">
          <mxGeometry x="525" y="180.00000000000003" width="70" height="69.36" as="geometry" />
        </mxCell>
        <mxCell id="mD_qEpijUKouMIoYxmoU-7" value="&lt;div style=&quot;background-color: rgb(30, 30, 30); font-family: Consolas, &amp;quot;Courier New&amp;quot;, monospace; font-size: 14px; line-height: 19px; white-space: pre;&quot;&gt;&lt;font color=&quot;#ce9178&quot;&gt;cAdvisor&lt;/font&gt;&lt;/div&gt;" style="rounded=1;whiteSpace=wrap;html=1;" parent="1" vertex="1">
          <mxGeometry x="500" y="90" width="120" height="60" as="geometry" />
        </mxCell>
        <mxCell id="mD_qEpijUKouMIoYxmoU-10" style="edgeStyle=orthogonalEdgeStyle;rounded=0;orthogonalLoop=1;jettySize=auto;html=1;entryX=0.499;entryY=0.96;entryDx=0;entryDy=0;entryPerimeter=0;endArrow=none;endFill=0;" parent="1" source="mD_qEpijUKouMIoYxmoU-5" target="mD_qEpijUKouMIoYxmoU-6" edge="1">
          <mxGeometry relative="1" as="geometry" />
        </mxCell>
        <mxCell id="mD_qEpijUKouMIoYxmoU-11" style="edgeStyle=orthogonalEdgeStyle;rounded=0;orthogonalLoop=1;jettySize=auto;html=1;entryX=0.967;entryY=0.265;entryDx=0;entryDy=0;entryPerimeter=0;endArrow=none;endFill=0;startArrow=classic;startFill=1;" parent="1" source="mD_qEpijUKouMIoYxmoU-5" target="mD_qEpijUKouMIoYxmoU-3" edge="1">
          <mxGeometry relative="1" as="geometry" />
        </mxCell>
        <mxCell id="mD_qEpijUKouMIoYxmoU-12" style="edgeStyle=orthogonalEdgeStyle;rounded=0;orthogonalLoop=1;jettySize=auto;html=1;entryX=0;entryY=0.5;entryDx=0;entryDy=0;entryPerimeter=0;" parent="1" source="mD_qEpijUKouMIoYxmoU-4" target="mD_qEpijUKouMIoYxmoU-3" edge="1">
          <mxGeometry relative="1" as="geometry" />
        </mxCell>
        <mxCell id="mD_qEpijUKouMIoYxmoU-13" value="1.查詢" style="ellipse;whiteSpace=wrap;html=1;aspect=fixed;" parent="1" vertex="1">
          <mxGeometry x="310" y="370" width="40" height="40" as="geometry" />
        </mxCell>
        <mxCell id="mD_qEpijUKouMIoYxmoU-15" value="2. 呼叫" style="ellipse;whiteSpace=wrap;html=1;aspect=fixed;" parent="1" vertex="1">
          <mxGeometry x="470" y="300" width="40" height="40" as="geometry" />
        </mxCell>
        <mxCell id="mD_qEpijUKouMIoYxmoU-16" value="每15s 收集" style="ellipse;whiteSpace=wrap;html=1;aspect=fixed;" parent="1" vertex="1">
          <mxGeometry x="510" y="150" width="40" height="40" as="geometry" />
        </mxCell>
        <mxCell id="mD_qEpijUKouMIoYxmoU-19" value="4.回傳&lt;br&gt;&lt;div&gt;&amp;nbsp; &amp;nbsp;資料&lt;/div&gt;" style="ellipse;whiteSpace=wrap;html=1;aspect=fixed;" parent="1" vertex="1">
          <mxGeometry x="620" y="220" width="40" height="40" as="geometry" />
        </mxCell>
        <mxCell id="mD_qEpijUKouMIoYxmoU-20" style="edgeStyle=orthogonalEdgeStyle;rounded=0;orthogonalLoop=1;jettySize=auto;html=1;entryX=1.004;entryY=0.383;entryDx=0;entryDy=0;entryPerimeter=0;" parent="1" source="mD_qEpijUKouMIoYxmoU-5" target="mD_qEpijUKouMIoYxmoU-3" edge="1">
          <mxGeometry relative="1" as="geometry">
            <Array as="points">
              <mxPoint x="560" y="390" />
            </Array>
          </mxGeometry>
        </mxCell>
        <mxCell id="mD_qEpijUKouMIoYxmoU-21" value="5.回傳&lt;br&gt;&lt;div&gt;&amp;nbsp; &amp;nbsp;資料&lt;/div&gt;" style="ellipse;whiteSpace=wrap;html=1;aspect=fixed;" parent="1" vertex="1">
          <mxGeometry x="510" y="380" width="40" height="40" as="geometry" />
        </mxCell>
      </root>
    </mxGraphModel>
  </diagram>
  <diagram id="UFPfLOAgBmfC8Td2-fAJ" name="第 2 页">
    <mxGraphModel dx="1687" dy="993" grid="1" gridSize="10" guides="1" tooltips="1" connect="1" arrows="1" fold="1" page="1" pageScale="1" pageWidth="1169" pageHeight="827" math="0" shadow="0">
      <root>
        <mxCell id="0" />
        <mxCell id="1" parent="0" />
        <mxCell id="x_g3UTr6BPIwBnfjf8XP-1" value="" style="rounded=0;whiteSpace=wrap;html=1;fillColor=none;dashed=1;" vertex="1" parent="1">
          <mxGeometry x="430" y="70" width="260" height="340" as="geometry" />
        </mxCell>
        <mxCell id="x_g3UTr6BPIwBnfjf8XP-2" value="2.呼叫" style="ellipse;whiteSpace=wrap;html=1;aspect=fixed;" vertex="1" parent="1">
          <mxGeometry x="525" y="260" width="40" height="40" as="geometry" />
        </mxCell>
        <mxCell id="x_g3UTr6BPIwBnfjf8XP-3" value="192.168.&lt;span style=&quot;background-color: initial;&quot;&gt;51.93&lt;/span&gt;" style="shape=cylinder3;whiteSpace=wrap;html=1;boundedLbl=1;backgroundOutline=1;size=15;" vertex="1" parent="1">
          <mxGeometry x="390" y="340" width="90" height="130" as="geometry" />
        </mxCell>
        <mxCell id="x_g3UTr6BPIwBnfjf8XP-4" value="" style="points=[[0.35,0,0],[0.98,0.51,0],[1,0.71,0],[0.67,1,0],[0,0.795,0],[0,0.65,0]];verticalLabelPosition=bottom;sketch=0;html=1;verticalAlign=top;aspect=fixed;align=center;pointerEvents=1;shape=mxgraph.cisco19.user;fillColor=#005073;strokeColor=none;" vertex="1" parent="1">
          <mxGeometry x="160" y="350" width="110" height="110" as="geometry" />
        </mxCell>
        <mxCell id="x_g3UTr6BPIwBnfjf8XP-5" value="" style="shape=image;aspect=fixed;image=data:image/png,iVBORw0KGgoAAAANSUhEUgAAAyAAAAMyCAYAAACVbqX4AAAABGdBTUEAALGPC/xhBQAAACBjSFJNAAB6JgAAgIQAAPoAAACA6AAAdTAAAOpgAAA6mAAAF3CculE8AAAABmJLR0QA/wD/AP+gvaeTAAAAB3RJTUUH6AcIAgkmQRwtagAAgABJREFUeNrs3XeYVPXd/vH7c2a2VyB2VIRlC4sVjSUWbDF2owEU0Fixt9hSTLIxRY2xl8SGjSIQjUajicZI7CYxicCysCyIig0V2N5mzuf5Q/MkVtru1Pfruub6XdfzM8vM/T3zPd97TjMBAJCC3j+xqiSvO3KVSzvI7EdlU+r/SCoAkP6MCAAAqWbVxJr9ze0OSVv8zw7r6UDhucVTF8wlIQCggAAAsN4+nFBRmmO5V7nrlC/YR8XMNFnx2A9Kpzd+QGIAQAEBAGCdtEwcuZu7T5F8q9Xvvex9D3VpWWX9HVankPQAgAICAMAa8TGKNOfUXmjmP5WUs5a7sRcD6eSSqfXzSRIAKCAAAHypleNrtgzM7pO0x3r8mV4zv6akO/iRzarvIVUAoIAAAPAZLRNrjnC3uySV99Gf/HcQamLJ9Pn1pAsAFBAAACRJPnp0tGXw8kvl+qGkoI//fJe71ZVV1l/FtSEAQAEBAGS5juMqN+sNo/fLtXv/thx7Mifae0LhvY1vkToAUEAAAFmo5Zja3T3w30raKDF7OHvfFU4on9LwJOkDAAUEAJBN5WNizcnudrOk3AT/027mvyzpbviBzVKckQAACggAIIP56NHR1sHv/czdLknyzu7pIMfGF99d/y6jAgAUEABABnr/xKqS3K7oAzLfP0Xe0pthXIcPuH/+vxgdAKCAAAAySNvxtRvHe/0PknZIsbfWHnpw3IBp8x5klAAgOQIiAAD0pVXjtx4a7/VnUrB8SFJRYOFvmyeOqHN+hAOApGDyBQD0meYJtTtJ/qikDdNgFzijtKf5BJu1rJORAwAKCAAgzayaWLO/uT0gqSRd3rNLz4Q9XYcNnLWkmREEgMTgFCwAwHprnlhznLn9IZ3KhySZtGeQm/9c+9FVmzKKAEABAQCkgZYJNRfL7W5JOen4/k0aGQsiT68cX7MlowkACZl3AQBYN83ja8+X+TUZ8nHeiYfBNwZOnzeHkQUACggAIMW0TKz9jrtfnWEf60M3/3r5lIZ/MsIAQAEBAKSI5vEjzpHpugzdj6xy830pIQBAAQEApICWiTUnu9ttGb0PMXs/iPveJdPn1zPiAEABAQAkq3xMGHGiS7crO25isjwIgtEl981rYOQBoO9wFywAAOXj823oYfjEqnEjhzH6ANB3OAICAFiD8jHyEJc/JHkkCz/+69F4fLei+xe+zZYAABQQAEA/WzW+epRZMFtScRbH8M/uHttrw1n1bWwRALB+OAULAPCFVh5dPcQseDTLy4ck7ZCX6zN99OgoWwUAUEAAAP2geUztwCASPC5pY9KQJB3Yutl7txADAFBAAAB9zMfU5lqOz5JUTRr/k4vslJaJtd8hCQCggAAA+mqRXaegJVf3umkf0vicfNyvWjl+5JEkAQAUEABAH2hZVHup5ONI4ov3nYGF97ZOqB1BFACw9rgLFgDg/60aX7OfWfDHLL3d7truQhf25MV22mDywlayAIA1xxEQAIAkacVxtVuY2XTKx5ryqtzu4FZyAAAKCABgbZfSxw/Jj8TCByR9hTTWhh3TMrHmZHIAAAoIAGAtNMeKbpLZjiSxDuXN7cZVE2t2IAkAoIAAANZAy/iak8z9JJJYZ/nmNmPFmKFlRAEAFBAAwJdonVA7ws1uIon1VhHJzb+OGACAAgIA+AI+aVROKL9bUj5p9InjmyeMOJAYAIACAgD4HK3tnZdJ2okk+rDUyW5fefx25SQBABQQAMD/aJlQ+zWXXUQSfcvkm0V6e64gCQD4srkSAJBV3j12m6KCMPZvSRWk0S/czQ8on9LwJFEAwGdxBAQAsky+x6+nfPQrM7ffvHvsNkVEAQAUEADIaqsm1uzPLXcTYmhBPP5zYgCAz+IULADIEn5gRV7LwLxXJa8ijYTsYuPx0HYYOH3eHLIAgP/iCAgAZImWATk/oHwktPJFohZeSw4A8EkcAQGAbCgfx1VXejx4VTzzI+FCD44aMG3egyQBAB/hCAgAZDiXTPHgN5SPJO1oLbzKx9TmkgQAUEAAICu0jK+Z6NLeJJE0Q1tydQoxAMBHOAULADKYjxlc0JJbulDS5qSRVMt78uIVG0xe2EoUALIdR0AAIIO15JVdSPlICRvmdAfnEAMAcAQEADJW67HbbBiGsSZJJaSRErvc5nhP55YDZy1pJgsA2YwjIACQoeIfPQiP8pEyvCyam3cqOQDIdhwBAYAM1HpszcgwDP4teYQ0Usp7pT0tW9msZZ1EASBbcQQEADKQx62O8pGSNmrJKzuJGABkM46AAECGaT1mRG0YaI74kSlVLS3tmV9hsxQnCgDZiJ0TAGQYD1TH/J7ShrTm1R5MDAAoIACAtNc6oXaES0eSRIqXRHduyQuAAgIASH+h9CPm9rSwT+sxI2qJAQAFBACQtlaOr9lS8qNIIi1YaHYKMQCggAAA0ndCD3SupChJpEsF8Yl+YEUeQQCggAAA0s77J1aVyIMTSSKtDGoekHsYMQCggAAA0k5eT/QUyctIIr2Y6QRSAEABAQCkFZfMQz+VJNKygny97ZiRG5EDAAoIACBtrBpfO1qmSpJIy/oYiQXhN8kBAAUEAJA+E7mF3E0pncfPNYYUAGQTIwIASF+rxm89wCz+tqR80kjbXXE8EtpmxdPnvUcWALIBt2sEgDQWKDzcKR9pziPxiE9umVj7VOg2L65g/qCpc5aRC4BMxREQAEhjzRNGPCbpQJLIOKskzZVU7+5zgsDmhWFkXvm0uSuJJkVr5JjBBR15JeW9YbTgv78QxMoVukmSh0FoQaQ5J+zp6g1yO8t657bYLMVJDhQQAED6lI8xtQOV6+9KyiGNrNlpL3NpnsvmmodzA7d/FsfmL2Ah239WHr9ducVjFR7XFkEQ31zSlua2uUuDJZX/z2sdjkRaXNJlZVPrLyNpUEAAACmvZcKIE126kySyXptL/5T0d8n/nhMPny26f+HbxLJ2fNKonJa2ru1d2s6kETKvlTRC0qb9/E93he7VA6Y1vM4ogAICAEhpzRNGPC7pGySBz7HI3f5q5n+NxYO/Drp/3ptE8qnWdszIjWKRcC+T7yLXzpLtoKRdT+X3lE1tOJ5RAQUEAJCyfMzggpbc0hXiAnSsyfYieytwf0mmFyV7qWRF9z/s8aburPvO5JTt6eb7B9J+Lm2TOusgiwehb1syfX49WysoIACAlLRy4sjRgYdPkwTWUbtks2X6o8LwT2XTGhZl4odcMWZoWSQn/xCTvummAyUVpnBJ/F351Poj2TRBAQEApKTmCTXnSXYtSaCPLJHrMckeLV3ZPTudj458dKSj5HBZMFHy/SXlpstbdw93Kp+24BU2R1BAAAApZcWYoWWR3ILHJd+VNNAP2t31ZBD4HyLSH4qmNLyTDm+65ZjqXcNI5CRzfUvysvRcldn9ZVPqj2ETBAUEAJD80nHMyG0ikfBIhX6wLNhe8gipIAFcsn9K/gfJHi2dWv8Pkzxl3tyYwQWtOSXj3ewMSTtkQN6x0L2CO2KBAgIASLi3J40qLOzo+Jo82N/k35RUQSpIAUskTZHZfWVT6puSVsjHDC2L5BWcI/dzJQ3KsMp3Tdm0+RewqYECAgDod6vGbz0gUHi4W3iUzPaXK49UkMIr5Rdcdp88MiNRT2hvHlM7UDnheTI7Wx89/C8TtcR7urYYOGtJM9sYKCAAgH5ZUFleeKS7HSVpX/FUc6TfSqLbQj0q6b6SXnvcZtX39PU/0TqmYgPPzT3fpbMklWR8pK6LSqfN/xUbFyggAIA+4XUKWhfWHizzb3ugQzjSgQzygaRpodnkAVPqX13v78rxQ/KbY4XfMdf3JBVnUY5vlr614VCbPTvGJgUKCABgnb177DZFBR4/QfLz5BpGIsjwJcYrku5yD6atyylaLeNHHO6mayQNzc4FWnBo6dR5j7IdgQICAFhr7UdXbRqPRM526VRJA0gEWaZL0oPufldZZcNfrE7hl/3HrceOrAnD+HWSfT2bQ+PBhKCAAADWbvFQp6C5sWYfMztF0hFKn4ehAf1pqVx3R8P47UX3L3z7E9+Z0aOjzYOXX2yuH/N9kST1BkF0cMl9c5YTBSggAIAv1H501aa90cjx5jpJWXrqCLAmi2vJHjSzG0qnzHuhdULtiFB+t6SdiOZ/FmlmF5ROqb+GJEABAQB8RssxtbuHgb5j8kMlRUkEWNNFts9xt0pJ+aTxGX8vmzr/q8QACggAQNLHd7NaVHO4yy6RtDOJAOjracY9UlE+be4SokAmCYgAANa+eKwaP2JMy6IRc132IOUDQD8xWTiWGJB5GzYAYM2Kx4EVec0D8r5t5peI6zsAJGal9q+yKfN3IAhQQAAgi3z0/I7ek83tQpcGkwiARIpHbMuB99a/QRLIFFwoCQBf4P0Tq0pye4ITFcYukWwTJxIASRDEdYCk20kCFBAAyFDNY2oHKlffUbfOkryMRAAk2YEUEGQSTsECgI+9e+w2Rfnx+Flm/l1J5SQCIEW0lhYVDLLbXuklCmQCjoAAyHo+ZnBBa17Z6e7x78p8AxIBkGJK2lrbd5P0V6IABQQA0rl4TBqV09zWdUKz6UfmvhmJAEhVYSSyJwUEFBAASNfiUaeguXHEUS3tnb8wUwWJAEj9icu/RgjIFFwDAiB79t+StR5Te4gC/6lL25IIgDTSUtozf6DNUpwokO44AgIgKzSPr/1qi/lNku9EGgDSUOnK6Mhaad4cogAFBMB6aztm5EY90kYW0cCIxwdINkDSAJcNMAuj7lZmpkDSgC/7O+4eM7NWl8VNYYvLuuS+yhSslGmlheEqM1+pMLq8ePq897Ih29YxFRvE8/Iul/sJkgK2NgDpKgjC3SRRQEABAbAGC+Cc6BZBENnM3bc0883cbTOXtjDTZpIGxz3Mi0iSS/6JMyNd7vZxuViTf80+/u/8f/6OyT/6w3IzSSYFoZonjOiR9I6kZSa947JlkppkWiypqbQw//V0vuWjj1GkJa/29ND9MnMfwJYIIO0LiGl7UkAm4BoQoI+0HFP5lXgkd2Tg8RGyYKR5WOOykZK+kqYfKSZpqWQLTT43lP87EkTmFHfNa0z1c5BbJo7YQ64buc4DQIZ5vmzq/N2JARQQIAutGjdymEXCXWT6qklbu9lIedY8P6JL7vPM7BW5vSQPXiqZPnehSZ7sN9Y+sWaTmNsvJU1gfgOQibufsqnzOaILCgiQ6T6cUFEaUe5Oku9i0i6yYOcsKhtraoVML0n2UhCPP1Mci7xos+p7EvWP+6RROa3tnee49GNJJQwHgEwVU3TzQVPnLCMJUECADLJ8TG1xXl64lzzYz6V9TV4rLl5eW+2SnjGzP8fi9ucB0+fN7a8jJC0TR+7mHt4mqZbYAWT+ys0OLJtS/0eCAAUESGM+enS0dZN3d/JIZD9338+kXSXlkEyfek/yP5r0cFtR4Z82ve2VjvX9gx9OqCiNKucXkp1OQQSQPSs3P69sSsP1BAEKCJBmVowZWhbJyTtQFhwh6RuSl5FKggqfrNPkT5jpYcVjj5ROb/xgbf9Gy/gRh8t0k0uDSRRAVs2hpl+VT5l/EUmAAgKkgfajqzbtjUQOM+kISXtLyiWVpE9Bcclnm9uUXut+cNDUppYv+6+bx9QOVK5ukXwc2QHI0goyvWxqw3hyAAUESFEtx1R+xYOccVI4XrJd2eZTeJcq6zTTw+Y2taQo70+ffgZJ8/jaA2Q+WdKmpAUgiz1bNnX+nsQACgiQQt6eNKqwqKPrcHk4XrIDxPUcaTgz2fse6uqy3vpfvTNgVF5Re8cvJTuDOQsAtKRs6vxhxAAKCJACmifU7mQKT3HZ0eJWrJni35IVSF5FFAAgydRdOmV+QSo8ewmggCArfXQnpLxjTX4KT70GAGSDnrx46QaTF7aSBNJVlAiQjlaNGzksyImf4m6TJB/Az0AAgGyR35tXIIkCAgoIkAjNE2p3cul7pvBwd+PZDwCArBPr7SkkBVBAgARYNbH2DrmfxHmDAICsXrzlRAtIAemMX5CRNsx9N1IAAGS7uMcpIKCAAAnC08oBACze4gGnYIECAiRIKREAALJexDkbGRQQoL/5GEUkFZEEACDbhWHYQQqggAD9rDln61Lx3BoAABSxSCcpgAIC9DMPe7n+AwAASfEgRgEBBQTob9FIhAvuAACQFI3lcAoWKCBAf4vFPY8UAACQuoMujoCAAgL0+4aao1xSAADA4gN7mtrJARQQoL83VI6AAAAgyd+yWYqTAyggQD+LB6KAAABgeoMQQAEBEjLfcgoWAAByCggoIEBiCkhoUVIAAGT9/lAUEFBAAAAAkCChOwUEFBAgIdxCQgAAZDsLOAICCggAAAASJAw1jxRAAQESsqWaEwIAIMutKp/WwBEQUECARHCLU0AAANm9L5TmmMT+EBQQIEGbKg9dAgBkNXP9gxSQCbi1KdJCKOsK+NEHQN9plfS4mVZ95v/HtUKyBQqDl0PTe/31BiIRy/GYD5R6B3jEBsptgFwDFWigXAPMtIlLm0jaxN02NXkBw5bdPLAXSAEUECBBAo93SUYQANbUCkmLJVsuhUvN9HoY2lKL6A2PR94v6135js1a1pkC73P5mv6HH06oKM0N8jeLuTYKwvjmsmArybcy+RCXbSXZYMkjDH3mylFIAQEFBEiU0ILOwDkCAuB/WbPM53qoRQrUJKkpkN7p9ehrg6bOWZZpn3bQ1KYWSS2SGj7v/98njcppbuvZXIoNNQuqJI0w92o31eijIylIb72haZCkd4gCaT97EwHSQctx1ZUeDxaSBJDVVsn0rEJ72oPwr2XdDa/aLHF92BpYefx25UFvd7XJRri0raTtJW0nqYR00srb7pE9yqfNXUIUoIAA/ezDo0duHo2E3HoQyHwdJi2Sq0mBNynUInNviuSETYX3Nr5FPH3H6xS0NlUN9zDY3i3YweQ7SNpJUinppPTKbXFUvkfRlAaOhIACAvSnluOqB3k8+IAkgIzztkkvuPlzHkYf4ZfdJJeSMYqsyqndOgi0u6SvuWsPk29GMik2TrK58mCv8mlzV5IGKCBAf022k0bltLR39pAEkBGWS/bbwMMZxZUNz1mdQiJJXSuPrh4SRILdXdrbpP0lbU4qKbGEe7EziOy/8X1z2skCFBCgnzRPGNEqqZgkgLQTuqzeFD7jst+V9cyfzbUb6av12JE1oce/Lg/2l3y0pCJSSRZ/orQnONRm1fMDHSggQH9omTDiTZcGkwSQFppcetjc/xLv7X5+4KwlzUSSgcvfMbW5q/JsN/PwEDMdIdcwUkn4Qu63JT3zj6bUgwIC9INVE0bMNWkkSQApuTfplutPbpoasejskvvmLCeU7NM2oXrruNvhsuAIfXRRO+uMRBRBtzvKptVPMvHEXlBAgD7VPHHEs3LtThJAypjv8mlB6H8pWRX7pz3e1E0k+I8Vx9VuEYn74ZLGSdqNNUc/lxDZL8un1l9CEqCAAH1bQH4v16EkASRVk2QzIorPKJ66YC5xYE2sPLp6iEWD8eYaL6mWRPprUeeXlE5t+CVJgAIC9JGWCTW3uewUkgAS7g03zZQFM8rvm/cP4sB6lZGJtduaa0IgP4br+vqcm+mk0inz7yIKUECAPtA8vuYymf2QJICEWGXSDFlwb8mUeS9ybjn6fKU8RpGWvJpvyO0USQdLipJKn4hZaEeWTq9/hChAAQHWt4BMqD1T8ptIAui/NaGkp2Q2ubS7+SGbtayTSJAI7UdXbRoLghNldpKkISSyvl9k6wxCfb10ev1zpAEKCLAeVk2sPcrcf0sSQJ/vCpolv8ci4c2l9y5oJA8kbeFcp6Clqfbr8vBMyQ6SFJDKOlsZBL5nyX0N84gCFBBgHbVMqP2ay/k1B+g7f3O3O3t6NW3DWfVtxIGUmvOPq670eORcyb8tHna4rt6I5NjOxXfXv0sUoIAA62Dl0dVDgkjwGkkA6zXtx2WaFUpXDJhS/yp5INU1j6kd6LmaJOksk29GImvt7+1FBaM3ve2VDqIABQRYSz56dLRls/e7JI+QBrDW3pRpchj6XQOmNbxOHEi7fcCkUTktbR1Hy+z7kqpJZG0We/5gyfCGMVankDRAAQHWUvOEEa9L2oIkgDXWYG6/LCnOn2q3vdJLHEj7IlKnoKWxZqzMLhXPFFnz3GRXlU+tv5gkQAEB1r6APCNpD5IAVrPWkP4ot+tLp9U/wS10kalFpHlR7ZGB/FKXtiWRNVr0nVQ6df5kkgAFBFi7AnKfpIkkAXyuXje7N1DsqtIpCxcSB7KkbVvrxJrD3e3HkrYjkS9d9XWbgn1Kp8x7gTCQTNzeDuk2ey4lA+CziwpJvwndh5dPqT+Z8oHs2vzlpVMaHiqdOn8Hkx9pEjdX+OK2lucePvjh0SM3JwxQQIA1njxDnlEA/FeH3K6PebSibOr807m4HFlfRKY2/K5k6vzt3exbLptLKp9ro2jEf+djBhcQBSggwJptsvyyC0gt5vpF0NMzpGxa/XmDps5ZRiTAf4tI+ZT6B8qG12/nrrFy8cPVZ/iolryyyc6p+Eje9xRIHyuP36486O1ZSRLIUr1muiuIBz8qnj7vPeIA1mCpPXp0tHnT9080859I2phE/icb6fvlU+dfThKggACr0TxhxLuSNiIJZNVk7XrA5d8rm9awiDSAtff+iVUlud3RiyU/XzxZ/T9Cdz+gfFrDn4kCFBDgS6yaMOKvJu1JEsgKrkYP/KzyKQ1PEgaw/tqPrtq0N4j+xMxPFKeiS9LyaDy+fdH9C98mCiQKXzykYWt2LixEFvQO65TpJ6W5HdtSPoC+U3T/wrfLp9WfEsa1o6TnSUQb9kYi03306ChRgAICfFEBcf2LFJDhngostn3ZlPl1dvfSLuIA+t6A++f/q3Tq/D3cNVbSm1m9X5X2bN10+U/YKkABAb5AGFBAkLHeMPmRZVPn78ezPICELLy9fNr8WTH1jHTpakm92ZqFm77bPGHEgWwVSNB3D0izSXJMbW5LrrdKyiUNZMpmLenWnrz4xRtMXthKHEBytB4zojYM/DbJdsvSCD6IxYMdBt0/7022BlBAgE9pnjjin3JtTxLIAK+7+8nchQZImV8DrGVizbFyu1bSwCyM4NnSnvl72yzF2RrQXzgFC2m6g7B/kgLSnZlmxdSzDeUDSKHvpeRlUxruzYnEtnHZ77Iwgj1a82q+w5aAfv6eAemneULtmZLfRBJIUz2SLiybOv9GogBSW8uEmm+67GZJm2TR6rA7lO08YEr9q2wB6A8cAUF6zo1mXIiOdPWO5HtRPoD0UDq14XfqsZEyuz9rPrQrz9yn+PFD8tkCQAEBPtZWmPdvyTg/FWlWnH1O6L5r2dSGl0gDSB9ls+pXlE2pP8ZlYyR9kBXzlTSypbfockYf/bR9AempecKI+ZJqSAJp4k+dQfSoje+b004UQPpqO75243iv3yrpsCz4uO7uX+c6NfQ1joAgnb1MBEgHZppV2mOHUT6A9Fd8d/27ZVPnH27SSZLaMn76Mrvj/ROrShh5UECAjxZ1z5ACUpyb+ZUlFfOPtln1PcQBZI7SqfMnm8V3lGX8w3G3zO0OOBULfbuGIwKkq1XHVm1lYWQJSSBFtZr826VTG35HFEDm8kmjclo6On8g1w+VuT/sukv7l0+d/xQjDgoIsl7zhBFLJW1JEkgxi4JQ3yyZPr+eKIDssGpizf7mdq+kjTN0yfhaZxDZmlNJ0Rc4BQtpzmeTAVJsm3w03tO1E+UDyC7lUxqezInEdpT8hQyd27bKD2M/YaRBAUHWMw8oIEiZvbPcf1o6vOHwgbOWNBMHkH0K7218q7SocLSkjHzOj8nOax5f+1VGGuu/LQFpjOtAkCJi5n5a6bSGO4kCgCQ1T6w9Ru63SyrKqIWj+ZySZRuNstmzY4wy1hVHQJDWyu9b+Jqk10kCSdQm6TDKB4D/VTalfrqFkR0lzc+kz+Vu27QMfu9MRhgUEGQ5rgNB0ix3873Kps5/nCgAfFrp9LkL4j1du0n6U2btdu2y9qOrNmWEQQFB1jIFT5MCkuDtIAhGl09p+CdRAPgiA2ctaS7tmX+wpBsyqVvFIpFrGV1QQJC9BSSIPC4pJAkk0BtyH11y37wGogCw2v3ULMXLps4/18xPkZQpDyUd2zy+5iBGFxQQZKWS++Ysl+xlkkCCvB7Gw73KpjUsIgoAa6N0SsMdods3JH2YGc3KrvcDK/IYWVBAkJVc+j0pIAHekdl+A+5fsJQoAKyLAdPqn/ZYsLNL8zLg41Q0D8w7n1EFBQRZKUIBQf/7IAi1f9mU+iaiALA+ymfMW+w5uXuY+Zx0/ywm/wEXpIMCgqxUMrV+vkyLSQL9tIttdvMDeLo5gL4y4O5/r/JQ35KU7j9qFMci0SsYUVBAkKWcoyDoD+1mdhB3uwLQ18qmNSxSj+0s93+k+f53YvOEml0YUVBAkHVCRSgg6GtdLh1eOmXeC0QBoF9KyKz6FWHoY5TeD9U1yW7wOtaVoIAgy5Qv+8pzklaQBPpofxo319HlU+c/RRYA+tOA+xcstTC2o+Tp/GPHTi1NNRMZTVBAkF3LxdmzY5L9gSTQJ9y/Uzpt/sMEASARSqc3ftDdExxg8tnpO2/aT/34IfmMJiggyLIWommEgD5wQ9m0+TcQA4BE2nBWfVtbUeHBMj2Sph9hi9bewjMZSVBAkFVKl23wZ0nvkQTWo8Q+Utoz/zsEASAZNr3tlY7SivlHyFUnKUy39+/S91cev105IwkKCLJn7Th7dkxu95ME1nELeqXTosfYLMXJAkDSZqI6hWXT5v/EzI+S1JVmb39gJNb9XUYRFBBkFY/YFFLAOngjauGhG983p50oAKSC0ikND7n5YZI60ul9hx6c8+GEbQYzgqCAIGuU3zfvH5IWkATWQltE4SFFUxreIQoAKbVPm9LwpJm+IemDdHnPJi+IWLyO0QMFBNnFfSohYI23FteJxVMXzCUKAKmodMr8Z0P3HV32VtqUENfxrRNqRzB6oIAge1aUkXCqJCcJrHZbMV1dPm3+LJIAkMoGTGt43QI/SmlzOpZHQvnljBwoIMga5fctfE2m50kCX8akp8uWbfg9kgCQDsrum/+yS4cpfS5MP6zlmNrdGTlQQJA9Qr+NEPAl3rQgevRHD7AEgPRQPnX+U3I/SlJazF0ehFcyaqCAIGuU5nbOUhpdtIcEMnUr0JiS++YsJwwA6aZsWsNjkl+UJhPubi0Ta45g1EABQXasMe9e2uVmd8kkXrz+9+VuZ5fdN/9lviUA0raETG24zsyvTIs514JLGTFQQJA9Inar0vBJsujPZqpp5VPrbycIAOmuZErD9yT7dcq/UfdRLcdxLQgoIMgS5ffMWyzpTySBj8vHmx6PnEUQADJjSpOXTqk/02V3pPybjYfnM2KggCB7JmhLg1+HkAhhoPDY8mlzVxIFgEwqIWXd9adJdn8qv083O2LVt0cOY8RAAUFWKOmqf0ym17n2IctfgX5act+Cv/KNAJBxJWSW4qWF+cdJ/kQKz8OBheE5jBYoIMiaidlcN5FENvMXSt/Y8GfkACBj93W3vdLbkxt+S65/p/DbPHHl8duVM1qggCArdOfGb5W0iiSyca9sza5wIs/7AJDpNpi8sDUqP0jS0hR9i8WRsPsURgoUEGTNpGzSb0giC4V+Zvl9C18jCADZoGhKwzuBgoMkrUjF9+duZ/vo0VFGigICZMfGHrHrZerieojseZn0QNmU+VPZ+gFkk5L75jWY6wiZulNwbt68Zcv3xzBKFBAgKxTfXf+uue4liazxYRALziQGANmodMr8Z012akq+OdcFjBAFBMgaYU7kSsniJJEVziuePu89YgCQtSXk3vp7ZHZdCjYQHkxIAQGyR/nkuUvM/EGSyHiPld07fwoxAMj6EtJRf6HkT6ReB/HzGB0KCJA1TPqJTCHXSGTsqyUWCU5jSweAj25FH4v3jpFpfirN1R7o8PYTqzZlhCggQFYouWd+veQzSCIzudmFg+6a9yZJAMBHBk1tarFI/Eil1u3oo72xyPGMDgUEyB6mH0viuRAZN6x6uuzu+jtIAgA+qXTywoWuYFwqXQdpZid7HWtRCgiQJcrubljk3BEr03S7+akmOVEAwGeV3zPvCZNfkjrvyLdqWVy7PyNDAQGyhuf4ZSl6j3Re6/IK7FdldzcsYssGgC9Wes/8q112R8o8rykSTmJUKCBA1hhwZ8Prct1OEhnhjfac/F8QAwCsXllp91mSvZIK78Vlh7ZPrNmEUaGAANnzBQh6LlNqXZSHdRAqOH/T217pIAkAWD27salbER0tqTUF3k5Ob9ROYFQoIEDWKLmr6X0z/Zwk0pjrzwPunsezXQBgLZTdWd9ksnNSohBJp/oYRRiVLCrBRICsX7+eXZHX0pZbL2kYaaSdHrP4NqWTFy4kCqS6tuNrN3aLV7mCoaFZzpr8bwJXd+j+OUf3fJWCT95wIVDQFTdvN480q0sryyrnNludQpLHl2k+fsQUmSYkf2dsB5bdXf9HRoQCAmSNVSfWHmXuvyWJNJvAzK8sndzwXZJAqlh+Rm1xbmdYaa5KWVApeZXklZJVSipNRu9xWbMpfF0WvOGh3jTTG+Z6PRba6/Fo72sbTF7Yyshlrw8nVJRGc3P/qST/COey35XfVX8kI0IBAbKrhBw/4q9m2pMk0sbb3QVWteEt9W1EgWRoPr5muBTsJGknM982lFWafLM0/CgfSHrNTEslXyIPGsIwPq8jr6iBa6uyZFs+qfarCv05STlJfBuxiNvmxXfXv8uIUECArNF6Us3I0O2fSZ6AsaaTl/sppXc18NBBJIQfPyS/2Yp2MwtHS9pZsp0kDcjwjx3K9JqkeXKfYx75WxDR34vvmPceW0TmaTmh5mI3uzLJE/t5ZXc2XM9oUECA7JqAT6q5Uq6LSSLlzS9pbdjGZilOFOiXwjFGkdaS6q+a2z5uvo9ku0nKJxlJ0uuS/ib5y+7Bc6VbbviK1c2OEUuab/N1Ctper/mjm5L5YMCXSyc37MJoUECArPL2pFGFxbGOeZK2Io1U3lP6oaV3LXiUINC3pWNwQWtp8X7y4BDJD5e0EamskXaXXjTTn0PzP5cNXvAvLn5PT63HbrOh5/S+KmnjpH0PLRhedmd9E6NBAQGySsuJtYdJ4cMkkbKeKZ3csBcxoC+sPH678kjQfZSkb0raVxzl6AsfSHrcZI/2Rrv+NPC2Jc1Ekkb7wBNGHC7zh5K4NP1B6eT5PFiWAgJkYwmpniWzb5FEynEPbdeyu+a/TBRY543o7Iq81vacg2SaKOlgSXmk0m965f6smz0aSg8OuLPhdSJJfa0njZjq8vFJWpnOLb2jYRtGgQICZN/ke9o2G3pv7zxJG5BGSplVemfDWGLAulh1YtWOgdnJko1V5l9AnpLdT64XPbAZ0cBnFd3W8A6RpKaWSZVfUSyol9mGSVqcbl1yZ8M8RoICAmRfCTlxxFg3n0ESKaPXFYzg3GCsjY+v6zpGptMk7UgiKSMu2TNyn9qtcCbPIknBfeDJtd9yD2clp6nq52V3NlzKKFBAgKzUclLNTEljSCL53PSbsjsaTicJrInmk2orAouf427HSionkZTWJtMMhX5n6eQFLxJHCu0Dk3c68uKSOxuGm+SMAgUEyDqrTt96QNAb+5ekLUkjqXrirkrOH8dqi8cptTuZxy+W7EhJAYmknXqX7ghjeXcPuPvfq4gjyc3w5JEbhYrXSxqU6H/bPdi57M76vzEKFBAgK7WcUr2b3P4qKUoaSeK6vfTOhkkEgc/fPGQtJ9ccaNJFkkaTSGasfd11rwV+fentCxqJI4ml/qTq8WY2NQkL1OtK7mg4nxGggADZW0JOHvF9yX9OEknRG4965YDfLFhKFPjM4uiUEQea+2Xi+o5MFcr0eCBdV3R7w1OckpOkfeBJ1Q/L7LAE/7NvldzRsDljTgEBspbXKWhZVvOEffScACTWnaV3NJxMDPhfbafU7Be6LpO0K2lkjbkyv6ZkVWSazarvIY7EaT+xatN4ENQrwddThfIdy+9Y8AojQAEBslbrpBFj3H0mSSRUbxiPV5dPblxCFJA+vsZD4VWSeBhl9npH8hs9jNxadmf9CuJI0D7wlJozXLo5kf+mm/2k7Lb5daSfebhAD1hDofuRpJBg5lMoH5CkjpO3GdwyqeY+U/gy5SPrbSLZLywI32g9pfqGjpO3GUwk/a94VcOtLv07oYtU90NJPkN370QArN67x25TVJjf+56kItJImLjkI7gANbu9PWlUYbF3nC3pB5JKSASfo0dmd0eD2GWFv2l8izj6T8sp1btJ9lwC148e9ZwtCu+Ys4z0MwtHQIA1UFDQczjlI7FMmkn5yPLFzqSaI4q9faGkKygf+BK5cp8Ui0eaWifVXNt2Ru3GRNI/Sm9f8IKkKYncFcSD2MEkn3m4rSiwRovh4GgZN+JIpNCDa0khO62YVLtFVPEbJR0m40A91li+S+cpFk5qOXXE9d298ct5wnrfC3KCi8NYeLik0kT8ey7/uqRbST7T1lUAvlTzSbUDLRK+IymXNBLmudLbGvYghuzidaOjre+8e47cfiKpmESwnt4z8x8Vr1hwp81SnDj6cL84qeZ8k65J0D+3smRlwwaMYYYVWSIAVtPSg/hRlI8EZ27O0Y9sW9CcWjO89Z33npXb1ZQP9JGN3O3W1gE1/24+pfoA4ug7pSq8SVJ9gv65AS2DakeROgUEyLYGcgwhJDTwJcUrFjxMDtnBJWudVHO6uf4l1y4kgn4w0sz+2HJqzSMrT6seQhx9MEvf9kqvKTw7YYvVMNyf1DNsGyIC4Iu1n1W1abw3eJOyntAF6XlltzZcTxLZ8v2yOyX7BmkgQYueDpcuK/HCa+y2V3pJZP20nFYzU64xCRi5p0tvnb8PiWcOFlXAl4jFgnF8TxK7P4vl9t5FDJmvdVLV3vHe4BXKBxLJpUJJV7Rax7y2U0fsSyLrmafrB5ISUOR8Fx9Ty6nQFBAgO5hrHCkkdHd226Abm1rIIYNHeIwizaeNqHML/iyJ26UiWSpD+ZMtp4649cOzK0qJY92U3dqwSO6TE/BPFTQPjG1D4hQQIOOtmjRymKSvkkTChGHcbyGGzNV62jYbtgyq+aO5/5j9D1KAST4ppztnDkdD1l0k1y8zqaPfB8sju5E2BQTI/Ek1iB8tk8k+2k3x6t+Xm54uv2Pha2x5GVroT68e5er9p0n7sb3zSqlXoC1D8yebT6u5ZfkZtdyBbS0V3bTwbZdu7P9x8l1JmwICZLzQ9S1SSCD3OwkhM7WePmJMxO0ZSZuRBlKUmXR6fuivtp5asydxrOX+MoheKWllvw6QRAGhgACZbeWZNVuaaTuSSFT50KrSwraHCCLThlXWcnrNJe5+/8cX/wKpvtUOddPTradVX++TRuWQx5op//XclZL/sp//mS07Tt5mMGlTQIDM/WLE7XBSSBwzm2LXLuskiQxaxp1dkddyWs00ua5gX4N02wW47JzWSMdfVkyq3YI41kxbWHSDpLf789+IR+I8K4gCAmTyglhHcG504l6BNJmtLnMsP6O2uC2W83szHc32zSttX9Lu0Ug4p/W0mqP5Vq/epre90mHSz/r1WkGuA6GAAJlq1elbD5B8d5JIUNlz/bPoN/P/RRKZoX1SzSZ5Hj7r0tdJAxmgzE3TW88YcSPPoVi94o03ul2uuf33Lzh3wqKAAJm6II4fJIlzfxMWOEc/MkXzqTXD4xE9b+L6KWQWdz+rdYNwdsdpldxI4cum87rZMQuCy/rxn9jez67II2kKCJCBXwo/mBQSpjuu6DRiSH+tp9WMtMCfk7QVaSAzW4h2jQWRV1pPqx5NGF+seMMNHpLZgn7683nt8bwaUqaAAJm1f6lT4IH25/znBL0C/9NHd09BOms7u3ZbD/QXmW3Ids0rw68L2cgDe7LljOoL/D//F3yC1c2OyfTd/hqDuEKeiE4BATJLy/LaUZK+QhIJKnyhZpBCems/bcT2YTx8StIGpIEsEZXsV21nVN/nxw/JJ47PKlk+/1FJ/fJgWZNRQCggQIZ9ISw8gBQSprPbIr8nhvS16vTqUfHAn5I0iDSQbVw2obWw4Om2c0duRBqfKgmzFHf5Nf1TQJwCQgEBMmyH4qKAJC7tP2x4S30bOaSn1tNqRgZmf5I0gDSQxXbxWPxvbWfXbksUn9QeK5os6b2+L36igGRCSSUC4CMrJg0ti+bkfSApShoJmHw8GFNyS/1vSSL9NJ9RW2FB+Ixcm5AGIElqkwUTSm+q56ju/2g5s/rbkt3d1383iEY2Lr5+3nsknL44AgJ8LBrN3ZPykbiddXFe8x+IIf10nL3NYLPwScoH8AnF8vDBljNrTiaK/yq9ecE9Lt3f1383FotzFIQCAmQIsz0IIUFRy35v1y7rJIn00jKp8iuxMPakpCGkAXxGRNJtLWeNuJAo/ieUILiizxevZpzyRgEBMmZVTAFJEDfj7lfpNmbnDy5QTuRhyatJA/iSPYn7Vc1n1PyMKD5SfGP9qzL9tW8nJC5ET3ecbgJIenvSqEKpYweuikqI9pK29ieIIY3Kh2RtvaV3yHw30gDWoIWYftB8ds3A0kENZ1mdQlqZ3+hme/XdH+SHkHTHERBAUklu1y6SckkiIZ60u5d2EUP6aD1zxFUuH08SwNqskXV66/sj7vQ61lrFX9n4YZPe6LM/6DacLYwCAmSAOKdfJWyvbI8QQjqVj5rTZX4BSQDr1EKOb/2gZnK2lxCrmx1z1y19+CfLW8+u4OGnFBAgvbm0JykkRBjE7TFiSA8tZ9Tu7qbrSAJYL99u+aBmqo9RJKsn/zB6m0kdfbbfDqMVbFoUECB9y8ekUTky21km8er318vFt9S/y1aX+laeWbOlIuGDMuWy3fLitX4vMx3dslHNFK8bnbXX3pb/eu5KDzS9rzL1gNOwKCBAGmvJ6xglqYgkEsEeJYPU9+6F2xRFAv1eEqc4AH01+5mObv3gvTuy+XSswIMb++yPuSrZqiggQPruFMTtdxO38wm5/iMNFPb03iWJ21wCfb/D+XbLhzU3ZOvHL76x/lVJz/VRlpyCRQEB0nqPQAFJjNeLb1owlxhSW/M5I86WawxJAP3VQXRm81nZ+5wQl/fJxeiBxClYaYzngCCreZ2C1hX+NZJIwE7XuftVqlt1TvUok1/F83CAfp4PTT9oOaempfSGhl9m22cvHRR5oHVF+K6kjdevyFBA0hlHQJDV2laNrJI0kCT6Xyj/Iymkrg/PrigNZDMk5ZFGQqyQbMkXvT5+ZkIvMWW0K1rPqZ6UdeWrrr5Hsrv64E+VtJxZPYjNKD1xBATZvSj22PbGz72J0NOZlzObGFJ5Z5Bzm6RhJLHu3PWmTI0mvSbTh3JvNllL6L4i8Mh7pvj7FrUPCss3et/qZsdW+/fqFHQ2V24S67UhHrEtTdrC3bY005YfX4C7lfghMa3X4i77devZ1R+U3Ljgwez65PF75MH31vfPRIJgC0kfsiml4SZABMhmLedUXyXZhSTR71PN06U3zN+HHFJT87kjJpr7fSSxVj6Q7EW5P68geL4jJ/KvjX81pz2hhef4Ifnt5UXV8bjXBkH4VXfbWdL2knIZnrTSqcD3Lb1uwYvZtf+teV7Sbuu5bzmi9Ib5D7MJpR+OgCCrudn2tPBECJ8gg9TUcfY2g2PqvZGfo1azzJHecPlT8uBZhbEXS25qXGiSJ/U93b20S9K/P35NlSQ/uyKvTdFdwsD2M2lfSTuxr095BXJ7uPn82t3Krq1vyp4vld8t2XoVEFe4OZsPBQRIr/IhWetHvxaiv+uHGQUkRb8DbUHvZEnlpPEZccmecfPfB4r8qeS6eQ1psaa7salb0l8/fv1wxSVDy6Kd+aPNtJ/L95VUw9CmpA0sDB9vuaBy19KrGz/Iii+Y5c+KePeNWo/rzsyMApKu/ZMIkK1Wnlc9JOp6jST63fvFAxZsbHUKiSK1tJ5bc4bkN5PE/3YyPSv36cqNPVjyq8XLM+0DNp9fW2EeH2Mf3WqZH2BSz4vFQdu+du2yzuyYg6oflnTYevyJ+0uuX3AMm0364QgIsnnj34EKnpAl3ZOUj9TTfl7NJqH8FyQhybRSrlkK7caSGxrmZfJH/fgUn8slXb7yvOohOeaHu9sYSdyOPDXs2ubFt0uamBVfvUAz3NejgJi2YJOhgADptjLejoOACUjZ9CQppJ5QfpOksqyOQHpS8juKy6K//+jWoNllwHULlkq6XtL1Ld+prjS3YxX6ybL1ez4D1tuElnOrXi29fuFVmf5BO7ojvy/IjXdIKly3HQwFJG3LJxEgW7WdV/2oSweTRP8KYr5Z0U0L3yaJ1NFyfvWh5vp9lu702l2aHI/5teU3LeQUzE+v5+pqc9uawyPlfrqkPUkkaeJmfkjxtQsz/vlJrefVzJB87Dr+z3tLrlvAXd8oIEA6TXrVb0nalCT61cKS6xZUE0PqePfCbYoKYz31Jm2ZbV95Sdd4r24svXkBzw1YA23nV2/tbqdLPlFSCYkkvA6u8sB2Lr1mQWOG74uPlPTAuv7vi+Ox/I9vvoA0wgOMkJ071nNHbiTTprKPaziv/nr9la0ttRTFe79rpi2zaBvskekGxWPDSq5bUEf5WIuF3bUL5pZc13BGTzw22AJdIOlt5rREvqzcXA+/f3FVRpe/4vKux2RqWdecWsNoMd9WCgiQJlt+L3d/SQATBSSVdHxn5OaSX5Atn9dlj4eK1JZcu+Dckhub3mcLWDeDbmxqKb5mwTXF5V3DJDvTpddJJWGq83t0e0bvJ+qWdrl8nR8mmJNvFBAKCJAeQtl2pJCICSakgKSQuGKXSyrIgurxplxHlV7bcFBWPdgtAQvFkmsbbikpi1TK/FxJlLqEBG/jWs+vOSPDP+Ssdf1fxkIKCAUESB9cl9DfuxNpaeG1jW+RRGpoPr/yq3KNz/y1mk3uicVHlly34EFGvb+KSH1PyTULb+jK8WGSLpPUQSr9XqqvaT+vZodM/XQlsdgTkq9al/9tGIoCQgEB0mQHGqiS84v79+XSP9jSUmiyt+AqmSyDt7l33HRo8TUNJw26samFEe9/G/xyYWvJtQt+HA1shMweZt7r11deGGjmikuGZuSts+3Gpm4P1m0bikQoIBQQIG1+TFIVIfRzxIH9nRRSQ9t3RuyrzL2laijp1liYP6L0mgWPMtqJV3B1w+sl1zQc4dKhJnFr4/6bVYfl9OTekbGfztbtNKzQ4xQQCgiQ+lrPrthA0kCS6F9mIUdAUqZve12GbmUNLu1Rcs2C0wZc9+9VjHRylV6z4NEib6uV7OeSuC1qv2zy+lbLd6qPz8jtpzh4UtLKtV7IBhwBoYAA6bAYi0QqSaH/Y+6N9L5CDMnXdn7NfpLvnnnrMN3dHuTsVHrNghcY5RQal2uXdZZc03CpS9tI/hSJ9Mu2f/2qC6u2yrjPVVff4+5rfRTTnYvQ01GUCJCFtbuKR3D2u9cGXrmkmRhSoAma12XY9t5pbqcVX9NwL6ObukqvWdDo0v7tF9ac6+6XS8onlb6LNxLqHh+jvW2W4hlVQgL9XtKxa/W/cR6SmZ5LMSDbNnrj+o/+X/XqVUJIvpYLKneX6WsZ9JE+cIVfp3ykyWJS8uJfNVwnRUZJzAl9G67t0bpF9UWZ9rE6O6N/1FqevudSERsEBQRIg7WxOAWr32cWn0cIqbAADM7PoI8zLxbXTqVXNz7HyKaXkqvr5xeHbbvKddNHUzD6qOD9pO2i2u0y6TNteEt9m6TZa7VP5xoQCgiQJtM2zwDpb6Hxa2eSfXyO+OEZ8nFe8VyNHnDdgqWMbJrOutcu6yy5ZsHZJjtA0tsk0idyPYzf7ZNG5WTUp3J7ZK22LfdCNgUKCJDa81rd6KhMQ7mnvPr7GSBz2dqSK+J2vkyR9N+e/Nmentg+pZcv+JBRTX/FVzc8KevdXubPMlf2yWvb1rKOTDrSqWhO8Mha7W/MOAWLAgKktpbm94dIyiWJ/mNSe0npgiaSSJ73L64qkemEDPgos9uVdyAPFswsJb9avLy4OLqfzO8gjT6Yc93rms+vrciUz1NwZf0bktb4NF7jGhAKCJDyIiEXoPe/eVankBiSJy8ejJPS/Lxo00tdgR+28a/mtDOiGbhorqvvKblq4SlynSqpl0TWb80eROK3uzLnfnfm/tia/rcuTsGigAApv6bRSFLoX27O6VfJ3s4DPynNP8IrvUHPNzb45cJWRjOzlVy94DZzO1jr8AA6fMLo1ouqTsiUD+Nmj6/5fp3ngFBAgNRfmG3HOcP9/JLNYUtLntZLRtRK2iWNt6E5nqMDeI5M9ii+uuFJD7WLTAuYQ9f9ZbKrms+vHZgR20RL0fMyNa/hZy/nW0QBAVL7VxXXMFLo55JntoAUkriNh2EaH/2wBnnv/lxwnn1Kr1nQGOvN31Uunmy/7gYG0XhdRuxHbnulV9Kf13DWG8DQU0CA1J7UpC1JoX9FLFhICkkqH3WjoyaNT9O3/14kHjmg5FeLlzOS2WnAdf9e1VkcOUDS06Sxzk5vvXh4TUbMZ1rT60CsnGGngACpO5mdP7hA0gYk0a868gvqlxFDksJvfXt/SRul4VvvVWhjC6+Z9yajmN02rKtvK+6KHSj5Q6SxTqLyyA2Z8EEivcHjWrMHV5Zk3LNQKCBA5mjLLR0qk3GucH++vJE7YCVPGAkmpOdzY+yMkqsbnmEEIUl2Y1N3cVF0nAI9wJy6Tq/92i+qOSjdt4Oi6xrekenfa/KZmwf2cCE6BQRIVb41GfT70mEJGSTH8rraYpOOSMO3flPpVQ08DwKfnEnq6nuKCzY+2uX3kcY6/Bhh+pXXjY5mwJawJqdhxcryB3HHPAoIkHrav1s9yuTnkUR/7yuMU2iSpLAzfpin3wO5ni4u3Ph8Rg+fX0Jmx0oKFx5vZpNJY215TWv7O8dlwD5lurTao+p/s7rZMcacAgKkjNYLa0a2Xlz9QBjq7+7amUT6eV/hTgFJ1nLD9c00e8vveDwcy8IBX15CFBYtaZgk6feksdaL9x/52RV56fwRSq6cXy/TFV8++ekaBpsCAqSE5otqhrd+t3qKIv6qTEdy7UdiXh4YF6Ano3ycP7hApm+k0bbiQcROLr268QNGD6tdR89SvLi37WhJzzPPrvnLTFu2FUROTffxL75ywaUK/Kcy9Xx6HjHTFSVXLXiAb0kafq+JAJmk5YLKr1g0cpnkp0iKkkiCF8KBdiu9fMGLJJHg7f6S6kMtvX4hvrXkygWnMXJYqx+Wzq8dGOTGn5U0gjTW2Hvt8dxhG/9qTnu6f5BV360cGlFwnLm2kPtyC/yBoisa/84QpycWaMiMhe+kUTnt5R1nuvmPeChRUjUSQeIF0jc9fd5uU3s89wJGDWur7Nr6FR0/GPmNeCz2gqTBJLJGNioMes6RdHm6f5DyKxqXSKpjSDNmvwWkt7bv1uzXNqD9X25+rSTKR/Is5wnWSSjfkrn0jTR5u6GHwYmZ8GsskqPw5/PeVBA5QNIK0lgzZrrw/YurSkgCqYQjIEhbK79bPSRHusnlB3MyYUpYQASJ135J5TYybZImC6Ffllw5/1lGDeuj5PL6+a3frT5K0hOSeADd6g0sMJsk6WqiQKrgCAjSjteNjrZdUnVuVJrj0sEkkjLLy/lkkHjhR78Gp4Nlbb25P2PE0Ccl5IoFs2V+IUms4X5TutDrhuSTBCggwDpo/271qLbOd192s+skcUg5leqH+SJSSELuYfj19FgB2UWceoU+LSGXL7zBpXtIYo1s3NaVfxwxgAICrM3apW5Ifst3q38VSi/LtAOJpOAYyd8ghQRnfv7gApntngY16bniKxtmMGLo8xKS33WapFdJYk2+hnaxj1GEIEABAdZA+3dHbN/Wnf8PM10gU4T7u6fmK1SEhxAmWFtuyU4y5aX4thEG8vNMckYMfb6mrlva5VEfJ1Mb8/BqXvJh7cOqx7LVgAICfAmvU9D2/apzQwtfklRLIqktErPXSSHRq69wj9R/jz656IoFrzBY6C+lP1u4UGankMQa7FdNXDcDCgjwRVZdWjGsrav6WXe7TlIuiaS8nqKi+uXEkODFhIKvpfhb7LDe6A8ZKfS3kl803C9pKkms1g4t36velRhAAQE+peV7NUdE4pF/yLQbaaSN961OITEksHzUKTALU30hcUfxVfXvMlpIhN6w50zJORV0NUw6mxRAAQH+s6A6uyKv9ftVN5v572RWzjm7afVayRacWG3dtdUp/j3piQTRXzFSSJSBVy5pDsxPlcmZk7/09a32i6s2ZYsBBQRZr/m7tRVtJdEXJDuDNNISTyVOMLPYDqn9/vy+wp/P49doJFTRLxofN/PJJPGlcsKoTiMGUECQ1Vp+UH1oEMRfkbi9bvpyCkiiE3eNSuG3F49bcCWjhKRsfDnRi+XimrQvnUDsVK+r5fpKUECQhfOfZK3fr/qBuR6SVEoi6bwvs2ZSSDCzVC7ss8p+1sCDKZEUZXX1K0zG3Z6+dP7Qhm3dscMIAskSJQIkw7sXblPUltd7l+RjSCMT9mXqJoXElvc203ap+v4C+dWMEpKp6PKGKW0/qD5e0j6k8QXziAUnSvotSSA5+wkgwTp/ULNlUV73c5SPjNJDBIn8Do0crNQ9ajin6OcL/8EoIZlMcgt0nqQ4aXxRRv71jrqKwSQBCggyXtv3q7aJuT8n2XakkTncOAKSSKHFalJ2UcMFwEgRxT9dMFeuO0jiC0XiPZFvEwMoIMho7ZfWHORmz8vELy4ZN5F4jBQSWPikqhR9az1h1HkYHFJHbu+PJLUQxBf9YhCc4B/dnBeggCDztFxafUoof1imYu7BnoEvGQ8hTKyqFN0Wfl9a1/gBw4NUUVK3eLnkVzFPf9HLh7VdWr0XWwooIMg4rZdWXWbSbeKmB0BfGZ6SO5Qw5PQrpJyuXl0viWL8RVzHEAIoIMigOU3W+sPq6yX7IWkAfck2T8E3tbxwUeMTjA1SzQa/XNjqbleRxBdNJzrKJ43KIQgkEr9Io3/KxxhF2quqbjf3E0gjS+omErheCLdIvU3AH7NZ3HEIqamkO+fm9vzuCyVtQBqfMajjK637SXqcKJAoHAFB369D6mpzO6qrpst0AufXZsmLmSRhmutqB8pUlGrbgJv9gdFBypb2X81pN/ObmK+/4PsbaBxbCSggSOvy0R6P/dYlnvEB9INIvDcVT7/q7YnGOf0KKS0e0S2SOkji8xqaHeFnV+QRBCggSMvy0RaPzZJ0KGkA/fVFS8lTSJ4ZVNfErU6R0krrGj8w0z0k8bnKOgZEvkEMSBSuAUHfrIkmjcppi7fNMNNhpAH043ct0KCUu2m/61FGBukgEvivYqFNkhQhjU9/jXW4pIdJAonAERD0Sfno2Kj1fjMdQRpAf0/aQXnKzQEe/omRQTrIr2tc4rLfk8TnfpMP8jrWhaCAIB2mK8naN2m9zc2OJA0gIV+6QSn2jlYV/2zRAgYG6SIShFeQwuexjTrjw3ciB1BAkPI6flx5g9yOJwkgQf3DwuIUe0P/MO7DjDRSWNf4N0l/I4nPigfBIaSAROAaEKyz1h9X/8TlZ8nIIuuxDSROoJRa7ruFLOSQfkVeuttMXyWJz0zlh0ji4cFIyK4MWPvyUVd9lsl/RBJAdou4/kEKSDdhEJ0hUzdJfKaBbNvxg2GbEwQoIEg57XXVh5j8OpIAoDinsiD9lNXVrzB3Hp75aS7znOj+BAEKCFJKxw+H7+zuM+TcwhCA3i78eeNbxID0XGzbvYTwObG49iYF9DeuAcEa6/xp1VbxuD8sqZA0gCRKnWtunmUwkK4KNyt+rP2dtg8kfYU0PmEfIkB/4wgI1sjKuiHl8bgek2wj0gAgSW76KykgbXv8qa/0mvx+kviMTVt+WlVFDKCAILmLjJmK5ChvuqRq0sAX7MoLyCAb9yDhbEJAWs9c0n2k8FmROKdhgQKCJGufX3WFpG+QBL7EICLIuoVbW/GlPIAQ6e3jZ4K8ThKf5KKAoH9xDQi+VNtPqiZIupAksJrl6EAySNzKP0UWKE1mPIAQGfCVMj3m0ukk8QlfIwL0J46A4IvLx2WV20q6nSSw+sVoyBGQ7LOSCJAhM9gjZPAZm75/ZVUJMYACgoR6/8qqErnNlMS5/Vgt4whINg46D3FDRij0nqcldZDEJ7/hhZ3iQnRQQJBYBZ36jaRKksAaooAASM+Vdt3SLnFL6c/wgBvPgAKCBGq/rPJkBRovk3jxWsPXAK9jPknciikFXkBmrYaeYh7/1Mt9OzYMUECQEK11NSNddj1JYC1FmvO2LiOG/ucW9JIC0Med3u0vpPDpUGwHQgAFBP1ueV1tsQXhLPGkc6zLvqqbC9ETsyZQFykAfaswXPAvcWOFT9vOneOdoICgvyfgIH6zeNgg1nUyCeKbkUIChFpKCEAfF/s6hZL+RhKfMKDrZ1VDiAH9geeAQJLU9tOqEyQ/jiSwzjtw0xBJfyWJ/hUJ/KV4CrwPd+6ChcziZi+Z/ACS+K/YR6dhvUYS6GscAYE666qHSOK6D6zvgnQrUuh/BT9c+JqkVSlQOD9gNJBJTP4SKXxmYt+eEEABQX8sGi0e9Tsk8cAhrOfOOxxCCgnzRgq8BwoIMkoYsb+TwqcXCRpJCKCAoM91/LTqVLn2JQn0QQWhgCRsUWBvJn9dYlwMj4xS+v0FH0paRhL/M6uLhxGif3ANSBbr/FnNlnGFvyQJ9BEKSKIW/4G/mexb05iUx0ggA1fccyQNJoj/z2OY3zoqx059hdt/o09xBCRbFzAui4tTr9CnBvuto3KIIQFrArMUOAXL8xkJZOC3aw4ZfEJO2/KWCmIABQR9ouNn1ZMk348k0Ici3StaNyeGBCz9Qy1MgbfBc1+Qgf3D6wnh05lERhACKCBYb50/q9nSza8iCfS1WExDSSEBBUQpsEhybcFIIOMWRfFwESl8eqEY1pIC+hrXgGShuIW/FqdeoT+Ytpb0Z4LoXyXxTRa357zTrWReh2HakpFApukNcxdFIjGC+B9uxhEQ9EOxRVZp/0XlEZIOJAn005SyHRkkYO1fNzsmJf00rM18piKMBjJJWV39CkkrSOITKCCggGDd+TWDC9ztWpJAP25lFJCERe3/SvI7yOlsHLYpA4EMrPichvWJuUZVXjeaM2ZAAcG6aess+p64VSr6V43fUMHtWROxRJIl/anNsSDKdSDIwC+XNxHCJ+S25r7NnbDQp2i0WaL58toK89hFJIF+ltPRHh0p6RWi6F8e9RcVJvdpIBH5CEnPMxrIqP5hvshlBPE/AukgSQtIAn24TSEbRDx2vSTu248ErIw5DSsRioY2zpPUmuSl2vaMBDJuCpNxBOSzmexBCqCAYK20X1F1uD769QJIxK6KApKIpf9YxSV7OZnvITSngCDzhP4uIXxqvnEbSAqggGDNl4J1tbkKdTVJIHEbnVFAEhf2k0lelGzDnbCArGggnEEBCgjWXFt+/FQ3DZNJvHgl5BVoO+6Ykqj+ET6R5PEubFsyopqBQOYtuHl94gVQQLCm3r+yqsTcLyUJJHRNLBV35L3NqTkJUPT9Ra9K/l5S12ke7sRIAAAoIJAk5Yd2gaQNSQIJLyEuLlhMxOLf5JI9keTGeQAjAQCggEBtPx+5USC/gCSQlDWp2Z6kkKiyZw8ltwX5/lwHAgCggEAWif3QTcWcu8orGS8z7e51zC+JUNxT9EeZOpI43oM6m6q/ykggY0SZwz/n2j6AAoIvt+qXFcNcPokkkESDOvIqRxFDAn5sqHulw2V/SuZ7iAf6BiMBAKCAZLFoGPm+pBySQHJXxsa1AQmL2h9I6r8vP5BRAABQQLJU5xW1W0iaSBJIARSQBCkK8h4yqS2Jb2Gnll9UcjteAAAFJBvFLPY9mXI5Z5VXsl9u2mXltUPK+Vb2P7toTrvLHkzmeAdRO4GRQOZ8qXjxLBBQQLBGOq6p3MwkFgFIFdGc7vyDiCFRC6bw3qT++67j/NZRnPoJAKCAZJOw1y6WlEcSSJk1sfkRpJAYRZ2NT0t6I4lvYeOOVa0HMxIAAApIlmi9atiGkk4hCaSYA71uSD4xJKDs1Sk06Y5kvgeXTmIkAAAUkKwZyMjpMhVwniqvFLsOpLijMH8/vqEJKgAWvV2mnuSNuR3YfHltBSOB9G/0vLgGBP0pSgQZsOi4oSKvo0unmZwwkIIbqB8h6VGC6H/FF9e/2/bLygdMOiZJbyESDXovlsRziJDO3aNE7E+BfsURkAzQ3mnjJW1MEkjRvfmhPlMRgkjQpB4GNyV5vL/dcfWwzRkJpCs3LycFgAKC1e3vzc4jBaSwDbuWVu5GDIlR+N0FL8j0QhLfQq6H0Z8wEkjbhZHZQFIAKCD4Eq1XVe0j0zacn8orlV9x6Zt8WxPI/fLknivux7VdVbUNA4H0/PrYAObtT3+nFbJlgAKC/2fmnGuNNNhOdaQ7lzEmSuFFi/4g19wkvoVI4H4NY470XBn5AEL49CSuOCGAAgJJUssvqgeZ6wiSQBrYsuvqyq8RQ8IKn7v5Fcl8D27at/2qymMZDaTd98eNAvLp77MoIKCA4GPRnPgEmfI4PMwrHV6h+3i+tYlT1L7ofpleTeaYW6BrWm+o2IDRQHottn0gc/YnXwFHQEABwf9PkmYnkALShtk4r6vNJYgExV2nUG4/TvLbGBT0BFcxGkivL484AvKZUkYBAQUEktqvqdpR0nYkgTQysKOk5+vEkDhFFy18WNJLSX4bx7VdXbkvo4E0siERfLqUGRehgwICSaFOIgSkG3fjNKyET/J+SdKXLq47Vl47pJzRQMrPUXWjo5J4js1nggm7CAEUkGyfB64ZXCDzozkvlVe6vczscL+5tphvceIUXLjoGTfNSPLYD8kNc+/jrlhIdd2Fy7aUKcp8/Zm5u4WtAxSQLNepokMllZME0rA+F7Z3xY4gh0RP9PGLJOtI8ts4pPPayjMZDaSyWGBDSeFzZm55KymAApLtE4H7t0gB6coUTiSFxCq8YPGbsvDy5M9d+lX71RXbMyJI2fnJRAH5/OXiCjIABSSby0fd6KhJ3yAJpPEufv/Oq6q2IocEl5CoXyWpIclvI8/NZnA9CFJ2dhIF5AtWH++QASgg2Tw51s2OeaDvcU4qrzR+BR7xSXybEzx3nNPUbRE/QaZ4Us8llw3PCXMf9hsq8hgVpNwy2zSUOfpzvremt9k6QAHJckXnN97spmtIAmm7k5dOZAGaeIXnLXrZZTcnvQyZ9uyMBXdwUTpScFnEEZDP/9IuJwRQQKCi5saL3DWdJJCmNmyP2VHEkIS5Iy/6A0lLUqCETuy4ruqnjAhSxUeF2IeRxGeFJi5CBwUEHz3luKg153iTniINpOlWfBoZJCH1M+vbzMKJkmIpsOL7QfvVlacwKkgFXb+qGiKpjCQ+K9JLAQEFBP9fQup72nvtmwr0L85R5ZWG5xTv0XZN9dZ8kxOv8PymF2V2WUpsC4Fubb+m8gxGBUnvwznakbn5c1+e397NReiggOC/NrhkYav35BzkUiNpIO1KtIWnkkKSSshmC3/h0rOpsBnIdFP7tVWnMypIcgXZgQw+1yqrW8qT0EEBwScVX1z/bhDG95O0lDSQZo7lyehJWvWPVTxwHSPpvZQoIfKbO66pOpeRQdLqh2sUKXxOLtL7pAAKCD5X4QWL34xI+0p6izSQRko7u2MnEUOS5o3vNL4VKjhaqXA9iGRufl3bdVWXMDJIQvkwiQLyBb8OUEDQH9sVMknLjZXVkbj+KmlD0kB67Pn1emFhyXA79ZVewkiOtuuHX2huV6XOJqFri1Y1Xmh1ChkdJELnjVVbhXFfQhKf649F5zUeSAzoSxwByTClZzcucNn+klaQBtKCacv2zrZxBJE8RecsutqVOrf1Nun89vLKKV5Xm8voICGlN8bRjy9xQPv1lTw8FhQQfLni8xbOkYf7S/qQNJAeHcQv4qF0Sczf5EVlPSdKeiGFSsgxneW9j314Q0UpI4T+3+CcAvKlU7R+03Hd8HOIAhQQfKmi85v+6bJ9JPH0UqSDbTpuqDqMGJK4wjhhaVcYhEcoBR5S+B8u7ZsfBs+23FhZzQihP4Vuu5LCaiqa7Pr26ypv48gk+qbVIqO1Xju8JgjsKUmbkAZS3L8Lz2ncwUxOFEmfM56R9JUUelttLp1VfG7jPYwQ+rzoXjO4oCNSuFJSHmms0Q8Dz8Zy8g4vP2PuStLAuuIISIYrOX9RQ0SRvSQtIw2kuO06b6g8ghiSP2fIdZAppZ58XGzS3e3XD5+18toh5YwS+rTd5hTtSvlYcybtkdPb/Vz7jVWbkgYoIPhC+ec2LIqE2ks8JwQpzqU6rgVJvqLzGv8eD+wISSn28DH7Vk6Q+3LnDRV7MUros4VQ3Nme1t4ID/3pjquHbU4UoIDgi0vI+Y1LFNjXJM0lDaSwbdqvr5pADMlXcvbCv8h9jKTulKogUmXowdMd11fe13Zz7caMFPpgo/o6Iazbd9GjkWe7rq8ZThpYh+0H2WTltUPKcyK5vzdpD9JAilpWmNdWZae+3UEUydd2fdU3zPx3kvJT8O01m9mPCzZaeJONVZzRwtrquKZyM4/qTdZD67WSfCsS05755zfyHBWsMY6AZJkB5y9dVRTrOEDy35MGUtTgju7i84ghNRSfu/CPbsERkjpT8O2Vuft1He8O/3fHDVXf8jr2aVhLUX2T8rGeXJvFo3qSa0Kwdr0V2Tlf1I2Odgx861bJTiQNpODE1BqGvcOLz3vtPdJIDZ03VO4RSg9LGpDCb3OuyesKzl70u0y+m1rrr4dtGPQG35RslKRyuVok/cvieqjwO41vsbWuuY4bKv/i0t4k0Sfqe6N5e3B3LFBA8OUlxGUdN1T+WKYfsS0gBaenW4vOWXgaOaTQwvf6mpFBEP+jXJul+Ft91aVrikp6ZtoJS7syJf+267bayIKcUyVdJKn4c/6TXsnv6JJ/d9A5TS1ssavZnm+o2CBQ8LakKGn01aLSZxesyD3A6up7SAMUEHz5Tu2Gqglmfqe4DSFSSyy0cLuSs5rqiSJ1dF4/dIswiD4qaes0eLsr3f0ej+i2kjMXNaTvHF25rQU6T65j1nCenhvrzRld9p36FWyxX6z9huGnyuw3JNHnC8spBWc1HscznUABwWp13Fj1NZf/TtIGpIEU8njR2Y0HEUNqef/KqpLCwnCKZGnz9HqXnjXTDIvoocLTU/80Jb9108LO7pKDZH66S/uswwe+o+icxlPYWr9sv1f51DplizXZAC8tOnvRz8kBFBCsVtctlUPjcT0qqYY0kDK7MQ8PKD6n6QmSSLFxqVPQMajyZ5K+m2b7Epf0Nzf7XRjTQ6XnLVyYKm9sxa1Dy/J7cw5w929JOkhS0Xr8ue64BZuVnrXgQ7bWz2r99bANg1jkbUkR0ugXoaRDis5ufJwoQAHBaq28dkh5bjR3mqQDSQMpMUmZFhaE4bZ2TlM3aaSe9hsrj5B0l6TyNP0Iy8z1tMtmR6I+O/+MxN1K1Otqc9sGxXcLzPeV+36SdurTBbH7IUXnLPoDW+nnbLc3VZ0u91tIon+XFBEPd8o/p2kxUYACgjXYKSro2KDqMrl/n20EKeLHRWc1XkYMqanrlsqh8VAzJO2YAR9nmaS/S/qHW/iP0KOv9NVRBHdZ+6+rtg5C38+l/fXR85iK+uuDuOnbxWc23ssW+lkdN3H3qwR5tbCoZ5dMuhkEKCDo/wn6m5LucamENJDsNW5Ewbb5Zy1oJIrU5DdU5HVGIj9z9+8o854x9UczPeGu9rXcw0Yl21TuI12qMWlTff7dq/qpgNiBxWcu/CNb5ye13Vy7sXnvMnH6VWK2Q9kNxWctPJckQAHBGmu9eXhNxO13LlWRBpI8WT1VcGbj/txZJcXnjBurRwcW3i1pS9JIqs7unNgmA09d0kwUn9R+c+UZct1MEgnsIPLDis5a9ChR4D94aiy+VMmZixo6w/CrLs0kDSR5D7Zv+01VE0gixeeMsxfM7s6JbSvZrfroQlQk5wtzJ+XjC7M5hhASyiSb3H5rzSZEgf/ZKIA1037L8NPkdq2kfNJAkiyP5eXUlJ3M8w3SQcctFbu4gt/ItS1pJHTHvqA93766wUkLW0njk1purKyOBGogiWQUP/990VmLDicISBwBwVooOmPRb9xsZ5MWkgaSZMNod+8VxJAeCs9oeqlw+aY7mukCSW0kkhD/8mhkH8rH54sGOpkUktWM7bCOmyqPJghIHAHBOvCba4s7rfcWdx1LGkjGJhiY9io4o/FZokgfHTdUDPZIcIOkb5JGv7mlsLDnAu449AUTx8za3I73e5eJB+4m0/vxqEaUntr4AVFQQIB1W1DcVDXW5b+WaSBpIMEz1+LC9vxt7aI57YSRXtpurD7AgvDnkkaRRp9ZbvLTC89c9CBRfNk+q/JoN00niSRP327TCs9ayPV8FBBgPRYTt2+1kfXm3CnpYNJAYvmvi85YdAY5pOnccUvlfib9SuL6kPU0Kx7RGfyivHrtt1S+JGlnkkiB2dvDA4rPbHqCJCggwHpMJLLOXw8/y2VXSiogESRs0/PwG+zE0ngAZyrS/n7lBDPVSdqKRNbKO+Z+Fkc91kzHTcN39sBeIomUWX3OLXxv0x2sbnaMMLITF6Fj/ecRkxeesejGuGx7Sc+RCBK26QXBnSuvHVJOFGk6gGMVLz6z8d7Cr+RUS366pCZSWd26Ta0y+1Fhe/5wysfarHaCcwghhbi27tjw7VMJIqvnMqAP55Q6BR0bVp5u0uU8QR0JmsTuKzyj8TiSyJT5Y/iBUnCO5Puzj/qEXplu92jvZcWnvPYecay5zluHbhHGo02SckgjpXwYD4Oq0rMWfEgUFBCgbyb8m2q2DIP4b2T6BmkgARPZkYWnN/6OJDJH683Da4JAZ8vtOJmKsnmR5vIpUYvenH9awyK2jLXX/pvKm+Q6kyRS8EcH+fXFpy86jyQoIECfartl+Hgzu1rSxqSBfvR+qPjIktMXLyeKzLLy2iHlefm5E102XvJdsmS/FcrszyafXNATPmTnNHWzJazjPujm2o0t6H1NPEA3VXVZNBxeeErTMqKggAB9asWtQ8vy45GfynSGpAiJoF8mM9Mf8k9ddKiZnDQyU+ftVVup14+R+TEujczAj/imyyYH8d67Cs567XVGfP11/Gb4L+W6iCRSeO52/abgjEWnkwQFBOgX7b+u2N5kt0jahTTQT1PahYWnN15NDpmv7dbqrS0eOyYwHeKyrdP4o/RIeiS08I6idxc/YXUKGd0+2kZu32qjoDe6OMtP4UuL74BFg+qCUxa+RhQUEKBfuMu6bq081uW/kLQZiaDPF3NuexSe3vg3osiihebNQzaOBNH9Q9N+Jttf0iYp/pY7JD3lbo+Eij/MqYP9FPKvh18vE3e/Soe1gXRX0WmLTiQJCgjQv5PNvdsUdbR3XWTmF0kqJBH0oSVdFt9h4KlLmokiO7X+etjISBDs49K2JttW7rVK7jUAoaQ3zPSnMNSjhZ2dT9l3lnUyUv2n89ahW7hHGiXlkUZaiFksVsGphxQQICE6bq8Y7HH93GQTxXNp0HdT28zC0xrHkQMkyetGR3s2eGt4PGLbuMJtTRoqabAsGCz3DdT3P4K859IcuV4y+bzenLw/l51cv4KRSJz2W4ffaS5+UU+vb+o1hac1XUAOFBAgYT7+xfLnch1GGuiTXZnrtKLTF91KEljttjKzNretrbsspyv4xLOLeiJqKYnldNmZ9W2klD7abhu+XRDqH+KmJ+n1PZRaCnt8czunqYU0KCBAQnXcOnxnyS6XfG/SwHrqCt12KT6t8VWiALJqPzJb0l4kkZbL0gsLT+VGIhQQIEk6bx22d6jg+ybtRxpYDwt74t27lp/xxkqiALKgfNw2/Ci5fksSabssfb3gnU0rrG52jCwyG+fcIyUVnLr46aJTF+2v0HaW2cMSz3bAOqnKjeQ/4DNrc4kCyGx+zeACua4iibQexS07N152BDlQQICkKjy98W+FkxqPiJtvLbP7ZIrJJF681vzle3es6uFaECDDdRTlXyrTVsx56f2ySHASW3Pm4xQspJXOX1cP8Wj8fLkmKbm31US6TXZmPyg4pfEXJAFknq47q6rCePiquO1uJggVDYcUnrj4TaLIXBwBQVopOH3B0sJTFp3rkWCYyy6T9A6pYE24+886bq/k1rxAxn23ZWEY3kb5yJy1qcUiE4khs3EEBOm947l1VE6nmo+QBadLPpptGqvRJYX7Fk5a/AJRAJmh/fbKSebOaZaZtXdvLDilqdqM6z8pIECqryxvq64Mg/BEuZ8iaSCJ4At8GMTju+aftmQRUQDprfOOrbZ0j86VVEIambZCDXYvPHnh8wSRmTgFCxkjf9KCxsKTG79b0JO7pZtOk/QSqeBzDAqjkT+03b7VRkQBpC93mXv0TspHhvYPDzkNK5PHlwiQybruGFbhsvHumiBZJYngf8zp6e0ezTNCgPTUflvFGWZ2M0lkrHcK3lo02OoUEgUFBEhbrbdV1EaC4Fi5HydpExKBTC8XWLC/nbSwlTCA9NE9uWJEPG5/l1RIGhks8N0KT2p6kSAoIEDa85mKdDcP3ycM/HC5HSppC1LJ5lnQ/1IQxA62E5Z2EQaQBnP4XUPyO+M5L0vahjQyfbB1VeEpiy4mCAoIkHE+OjKiQyQdKtlufC+y0iMF8dKj7NRXeokCSG0ddw6/Xq5zSCIrNBWevGg4MVBAgMzesd1eMdjNDja3fWS+t6QNSCVrZsPpBW8umsj5xkAql4/Kb8r9AdYv2SMe+siSSU31JEEBAbKCu6z97uqRQTy+j2R7S76XpHKSyeAJ0XRb/omLTuPe80Dq6bqtujIexP9uUilpZNNC1b5fcHLj5SRBAQGydwc4uXKou3Z3+SjJR0m2o3j6boY1T5tSUNp4vI1VnDCAFPla3rtNUVes82V31ZJGlo299ETRSYsOIAkKCID/TIy3blrYGSkeaRZu7R7UuvnWJlVLGkw6lBAAfaPjzuHTJR1NElmpvaAkd6CNre8hCgoIgC9bv84cXNDWkjcskG2lINhErk1NfrGkAtJJl9nRZhX0lkzgwnQgyeXjjuHnynQdSWTzTpWnolNAAKyT9snDf2quS0kijSZI12P5kd6juEUvkKTycWfFrpLNlpRLGlk8F5suLThx0c9JInMERAAkRqEHv5TZu7KPqz+vlH95oIO6POchnzmYI1dAgrXfWrOJAntAplzmo+x+hdJefCMoIADW5Reckxa2uulHJJFeXDqgs63gT35nVQlpAAn63t26aaHlxB6UaxPSgElf85m1HAWjgABYF4VFjZNNPpck0s4enRY+1Xb7VhsRBdDf5WNUTle0+AFJu5AG/rP77GiNbUMMFBAA68DGKm6uC0kiLe0URKIvdN1ZVUUUQD+VD5d15LTc6ubfIA18cgfq2xECBQTAOso/qekJmT/Eeb1p+RoaBv5i593D92RLBvpexz3DLzPTCcw1vD79MgspIBQQAOv1Q04kPFdSO0mkIx/gric6Jg8/hiyAvtN+V+Up3CkQX7Jk3Z4MKCAA1kPBcUveMPlVJJG28mSa2n5XZR1RAH1QPu4efrCZ30IS+GK+rdexbqWAAFgv+YpdKWkJSaQtM/mPO+4afoPPVIQ4gHXTObliL3PNlCtKGvgSRd1bVVcQAwUEwPqsXk9Y2uWBzuXc3rR/nd3VUfHIqqlbDGCrBtayfNwzbG8P7A8yFTKX8Frt80A8th3fGgoIgPX9Oefbix6V+wySSG8uOzC3N+/vbfdUcZtIYE3Lx92V+7oHj0oqIg2sgRUeqokYKCAA+kA84udI+pAk0t6wwMMXOu7m4nRgdbruGr6/yx+RVEgaWANLIqHvUXRi0z+JIjMYEQDJ13lXxbFudi9JZMzEelt+d+lZduorvaQBfKp83F3x9VD2kKQC0sAaeC4ehEeVHLd4OVFQQAD0sY57hj8s6TCSyBCuZ0PvHVt8wtJ3CQP4SNu9FQcEbg9JyicNrH6R6rfnF+SdZWPre0iDAgKgH3TeO3QL98g8SSWkkTHelOxbhd9u/BtRINt13Dv8SLmmScojDaxGu5mfW3Bc051EkZm4BgRIEQXHLXnDzb5HEhllc8mfb7+nso5b9SKry8c9w8+VaxblA6tj0ry4hbtQPiggABKkcEnjr+V6liQyStTkP+7sHP5s1+TKocSBbOIu67in8gpJ17HmwOo2F5luyG/2HUuOWzyPODK+aAJIJV33VFeGFn9VnCOdiRNus6QzCo5bNI00kPGrybuG5HdGondLNo40sBrLXXZC0XGNjxEFBQRAknTeV/l9d/85SWTowsx1V2FB7jk2tr6NNJCJWidXbBCJ2O9l2oU0sJoZcUZcfg53uaKAAEj2dHzrqJzOgpbnJe1EGpk6yFrkEZtQNLHx74SBTPLxUdzHJA0jDXyJN911RtG3Fz1KFBQQAKmyE586dHgYj/xTUjFpZKyYpGsK8jvrbOyyTuJAumu/Z/ghZrpH0kDSwBfolXRzQW/wIztpYStxUEAApJjOeytOcrM7SCLjLQnMT8+f2PQEUSAd+UxFOrorf2jyH4qLzfHFngotcn7xxAVziYICAiCFddw3fJakb5FE5q/hXLo3HkYuKP32gg+JA+mibdpWGwWxnOky35s08AUWufzComObfk8UkPiVAkh53bHeUyS9QRIZz0z6dtTije33VU4iDqSDzvsq9wji0X9SPvC5XG+67NSCwZuNoHzgEzs8IgDSYCc/ddjeHgZ/5keDbJqc/XHFomcUnLBgKWkg5daVLuucMvwCSZdLipIIPuUtN/9FYW7eHTa2voc4QAEB0lTHlMrLJf8uSWRX93Tzawu7IldwsSZSRdtdQzYOcnJul3QIaeBTFrjZtYU9PffaCUu7iAMUECDN+dOjo51vvfWcpJ1JI+t8INfPCvIW3WRjFScOJEvH1IoxcrtF0ldIA/+zh3pepusLcpoeZI4CBQTIMF33VFeGkfgr4ta8WTph+1xzuyD/2EVPkgYSqfXeYRtGIsEtch1FGvjYKpPuDyN+W9ExTf8iDlBAgAzWOaXiRJfdSRJZPXH/IQh1Ud5xixpIA/2tY0rFt+R2i0wbkEbWC930lIW6qyDW+ztOswIFBMimEjK1YrKkE0giq8UkmyzFflEw4bXXiQN9rWVa5VdyPLxJ0jjSyGpxmb/grt8r0IzCYxa/SSSggABZyGcOLujuzX/epe1JI+v1SrrHFFyeP6FxCXFgveeXOgVdlRUnyvVzSRuSSFbqMOkJN/t9LOqPloxtep9IQAEBoK6plUOl8B8uDSANfFREfKqF+nn+sYubiAPrtOqcPmy3ILQbXBpFGlm1GFwZSs+b6wV58Fx+rOfvnF4FCgiAzy8h04cf7KH/XjwfBP8VkzTdwsjP849duJA4sEbF457KzSwaXilpPGuDjOaSvy7ZQpcvNNe8ILAXco9pmm8mJx5QQACskc7pwy6T2w9JAp8Sl+u3brq+cHzTi8SBz12NPlaR17VK35H0fXF3vXTwun9096kSSbkmFbnUKanr40Vds7utkPmHcl+hwFa4+wrJ3gzdGotyOhfa2GWdxAgKCID1W0B8dL72Y5IOIA18gX/IdEN+JG8GTyXGf+aNzuHDxprZzyQNI5G0sCA/1M42samFKEABAZB0LfdUD8rJib0iaUvSwJd4V65b4zmx3xSPXfoucWR18fihpBEkkjZCD33PwomLnycKUEAApIz26UN3DBQ8KymfNLAaPXLNcg9uKJzQ+DfiyJLiUTVsjLn9SEbxSMMR/E3BMYtPJwdQQACknM7pw06R7DaSwFqY52b3ugdTi45Z+DZxZGjxkP1QUi2JpOVC7V95ka6vce0GKCAAUlbH/RU3m+sMksBaikt60t3uLYh2PsRiJ82Lx5SK0u6oJnioszjikdbazMJR+UcvaSQKUEAApO7C4+nR0a53l/1J0j6kgXXUIulhC4J788Y2PsXtOdNH+9Rho4IgmCT5eHFXqwxYpdmJBUcvuosgQAEBkPKaZ9YOzA27X5ZUQRpYT29I9kczfzRvVdkf7dRXeokktfhdQ/I7C6KHmnySZPuRSKZ0D/02f1zTGJIABQRA2uieVlHrgZ5zqZw00DcrXX0o2aNhED5UWNj5hB36dgehJE/H/RW7mHScpAmSSkkko75sS7vy4tsP+ObSVWQBCgiAtNI5vWK0TH+UlEca6Ov1r0lPuPlD8Xj4x+Lxr71HJP2v6/6hla5ggj56YjlHODNTzN33Kjxm8QtEAQoIgPRcJc6oGGuu6ZIC0kA/WiLZn13+5554z5/LJ7yxkkj6RsuD1YNye3qPctlxknZj353h3H5UcMyinxIEKCAA0r2EnG/SNSSBBIlJ+oekv8j8qfz2+At2wtIuYllz7dOrNo1YeKgHfqRc+0qKkEpWeCbfmvaxsYoTBSggANJe1/3DfulmF5EEkrH5yfRPc/0tdH/ZgujLBWMXvkYs/+V1Cjqqhu4QBJFvSDpM8h3ZR2edFR76doXHLH6TKEABAZAZCxyXdc0YNllmx5MGUsD7kv9NZn8z+d+6entfzqbTttxlPQ9UVnkY31Nu+7u0t6RBbBZZPEfLvlU4btEDJAEKCIDM2sE9PTrauXzZgyYdShpIQcskNbj7/CDQfI9HGnrzgvmlRy74MN0/WMcDFYODuI90D3aStIvku0gayJDjo8nZbis4etGpBAEKCIDM3M/NHFzQpYInJN+dNJAmlkuql7TA3Zco0DKFelNRe70g3vROKp0v7zOHlnW6jQyCYGQo39pcIyVtTdnAl6jPL+j4Kre1BgUEQEZbNXWLAXk5uX/9eGEEpLOYpHckvSHzNyzUmwqCJR6GjWZ6szMn/kFfPUuheWbtwLygc1AYCwYFgQ1yaQO5D5G0lUwf/b/S5gwJ1kJrEARfzftW4wKiAAUEQMZrn161aRCJPS/ZENJAlugyqXNt/gcuFUnKJTr0A3dpbOHYpt8SBSggALJnNXZ/xTAP9LykjUgDABK4ADP7Vf6YRdyZEBQQANmnY1bFeSZdSxIAkCCuZ/I3GLyv7T07RhjIRjwZGchy5rY/KQBAwtrHO3HFxlE+kNVrDyIAstfK3w0pz49F3xPnuANAInR5oL0Lj2p6iSiQzTgCAmSx/N6cIygfAJAgrrMoH4AUJQIgi1n4LRkHQgGg36db19X5Y5vuJAmAIyBA1vKZtcUy248kAKDf/SnPmy4hBoACAmS1jqBrP0l5JAEA/aqxu7vnGBurOFEAFBAgy7/8wYGkAAD96kMLI4eVT3hjJVEA/8U1IEC2Mj+AEACg33S5/PCCsQsXEgXwSRwBAbJQ94PDRkrakiQAoF+E7jax8KjFzxMFQAEBICkuHj4IAP3FTRcWfmvRAyQBUEAA/P/eUaMJAQD6Y3713xQe2XQtQQBfjGtAgGzbN9Yp6DJ9jSQAoG+Z/MG8+OKzSAKggAD4H+3bDt8m4j6IJACgTz2Zl2/j7SButwtQQAB8+ku/lxMDAPQhfzY/1n24HbSsmyyA1eMaECDbdpPuu5ECAPTRnCq92p3be7iNXdZJGsCa4QgIkG1MOxICAPTJfLog3qP9y4/kQYPA2n11AGSNlkcqv5ITC98nCQBYb40eDfYpPLTxLaIA1g6nYAFZJDcW34kUAGB9+cIwiOxN+QAoIABWt8tUwOlXALB+GuK98dFFhy98myiAdcM1IEAWMfNtuAMWAKyzBWE8Z9/isU3vEgWw7jgCAmQRl2pJAQDWZf60ObHQ9yo6quEd0gAoIADWZOf5WEWepOEkAQBr7eVYGNmn5MjFy4kCWH+cggVkifZuq4mY850HgLXif8iPdI4tOOLtDrIAKCAA1kIQUY24AAQA1sa9+aWbn2R7z44RBdCHaxIiALKDuYaRAgCsGXe7Mf9fTSdQPoC+xxEQIHsayFCOgADAavWa+QUFhzfdSBQABQTA+uAICACszgcyH5d/2OK/EAVAAQGw/obKCAEAPp/93aN+ZOFBi5eRBdDP3zYiADKfPz062t36ZpekCGkAwKcXQz4lt6tnko1d1kkaQP/jCAiQBTqb39wkCCgfAPApMZNfmnfYkiuJAqCAAOhTwaZSSAwA8F/vu2tc/uFLniYKgAICoI9FIuGm3AALAP7fP13+zYLDlrxBFEDi8RwQIAu4fCNSAABJ0h15Edut4FDKB5AsHAEBsoApGOA8BARAduty6ZyCQxffThQABQRAP3PzgfQPAFlsURAEY3MPXvRvogAoIAASwGQD3WggALJyAnworyd+gn1z8SrCACggABLE5eWkACDL9Ei6MP/gxTcSBUABAZD4BlLAY0cBZA3Tm2Fo4woPbXqRMAAKCIDk7IxzKSAAsmTCezQv0vVtO3jZCrIAUhO34QWyYn/sOYQAIMPFXPaTvL83HW7foHwAqYwjIEA29A+zHOcadACZ653QNKbwoKbniQJIfRwBAbKAS3mkACBz5zh7uvCgxZQPIE1wBATIDjlcAwIAAFIBR0CAbODGNSAAAIACAiBBzHMJAUDGLmbM46QAUEAApBJ3TsACkLlTXKgOUgDSB9eAANkgsE5CAJCxzNsJAUijZQkRAJnPxa+DADJ5jjPmOIACAiCVmDk7ZwCZu5gxtZICQAEBkEqcXwcBZPQkt4wMgPTBNSBANjBOwQKQuUL5m6QApA+OgABZwJ2L0AFkMMvlCAhAAQGQUvtmrgEBkLnC/OboW8QAUEAApJYWIgCQod63sfU9xACkD64BAbKB6V1CAJCJ3PQGKQDphSMgQDbsoN3eIwUAGbmQcTWQAkABAZBizOIcAQGQoROc6gkBoIAASLX9c2AUEAAZyeXzSAFIL1wDAmSBnt7g3ZyoEwSAjBO6zSUFIL0YEQCZz13W/eSwbkk5pAEgcyY3vZt/wOJNCAJIL5yCBWQBM7mk5SQBILMmN/2NEAAKCIDU9RoRAMio/uH2EikA6YdrQIBs2VGbNbp8d5IAkCk8CP9OCkD64QgIkDUNRE2EACCD9OTFi18kBoACAiBVedhICAAyhvlLdsCcdoIAKCAAUndnvYgQ0tJySQ9JaiMK4H+nNP2FFID0xDUgQJbILexd1N2RF4ofHtLJ7HgYnVD09YVv+9Ojo12xN3YxCw6R/JuSKokH2Sx0PUUKQHriOSBAFun687A3JG1OEikvbtJPcp9b/HOrU/h5/0H3n7faRoocIvmhLn2VYoks05q3Iv8rNra+hygACgiAlC4gFY9IfghJpLRlHtrEgq83/XWNV2J/GrZhNOoHm+wQub4uqZgYkeFm5e+3eCwxAOmJX8yALOLSP0khtRdVebHubdemfEhSyQGLlxfsu+Su/H0XH5UX2XyAu+8h2ZWSuPEAMpK5P0QKQBp/h4kAyB7dfx52hJt+RxIpZ6ncT8nfb8mf+37MPzpVywPfX66dJRUQN9Jcb15u70a2xxsriQKggABIcZ1PDt3CAnudJFKGy3V7Xn70Qtt9YWu//2NPj472+pvbuvt+rmB3ffRgynKGAWm2cvlz/j6L9ycIgAICIE10PzXsA5cGkUTSNbnZyQX7rN3pVn1eSMLXdwgt2MXddjYLd5XbVgwNUtzZ+fsuvokYAAoIgDTR9ZdhT8q1H0kkrwO67Nr8jo6f2qFvd6Tam2v781YbRYPIzi7f2aSvmmt7CitSSKw3ps1KDli8nCgACgiANNH59LCfmutSkkiKxxTx8/L3WpJWD4XsfHLoFkEk2D50bW/m20vaTtIWDCeS4A/5+yzmTn5AmuNBhECWsdCelTlBJFaTzM/P33vJo+n45gv2X/KGpDckPfyf/5s/VlHamW81Zj7S5NVyjZRU83Ex4cct9M/8JbuXFIBM+C4DyCr+XFVJd09shfgBIhE+kPTTvA/yf5MtD0zzRzYt7CnNH6Z4MNSlYVI4TLJhcg2VaQtJeWwWWEfNefndm9huyzqJAqCAAEgznX8Z9neTdiSJftPhrmvzu+2XdlBTC3H8V9uft9ooNyeyaRjTYJk2d/dNA9PmLn3F5INctoGkDSSVkBY+2W51R/6+i08hCCD98QsokIVM/qzMKCB9H2yPpLvjPdGfFH194dsE8lnF+732nqT3JP3rS9eaj1XkdUQjg6J5vYPi8UhhYPESc5WFQVBoHhaZVNZf7zGUFZv0PUkRRix1hAruIAWAAgIgXdfJZs+4dD5J9JluuU32MH5lwb6v8ZyVvthGD2rqlvT2x6+E63x6mEzcrCFVuPSPwn0WvUwSAAUEQJrK7bS/dBd4r6Qc0lifVfJHRzxCt58W7tO0jEAyR742/0m33txb0tdIIyXw3A8go3afALJS1+yhfzXXniSxTlbJ/fZYNLy2aM/X3yGOzNT59JAhgYJ/iafFJ5VLH+Qp3Nz2XtpFGkBm4AgIkKVM+qOMArKWXpPp1twwvNX2WbqKODJbwd5Ll3b9ZcjRFgR/ENeDJHOuut1GUz6ADPteA8hGPU8P2c4t+BdJrJ5Lz5rs2ty9Fj9sppBEskv37GE/lPwykkiKWBj3Cq6tAiggADJhUe2ynr8OWyb5pqTxuZpdmhYEwR25ezb9kziy/bsy9AFJ3ySNhJuSN3rJscQAZJaACIDsZCZ3+UMk8em1pp4x+XG5uT2b5I9ecgblA2by3GjOtyW9ShoJFcrivyAGIAPnVSIAslfnX4ftE8ifIgl7W/L7PNDk/D2WNJIHPk/7c5tvGo3nvChpC9JIxM8B+m3e6CVjCAKggADIpP37TEW6Nxr6jn305Ols+/QfyoLHPAxn5fmWj9ves2NsEVid7mcqRsjD5yQNII1+XqAEtmPuHotfIQmAAgIgw3T9degdJp2UFZVDel/Sg+42I3/54mdsrOJsAVhbvc8M2Sv04DFJhaTRb1/WR/NGLzmUIAAKCIDMXUzNzuBprsHMHw/jejxPW8zmSAf6pLg/M+QA8+BhSXmk0ff1w4Jw19w9lvLkc4ACAiAj9/Qu63l26CJJwzLkI3WY9ELoetSj/lDB17h9J/qphDw77Bvm/hAlpM/9Nm9Prv0AKCAAMlr3M0N/JOknafr2O136u0nPhxY8kV9Q9rzt+Eovo4oEfXeOkjRNUi5p9Iled9Xm77VkEVEAFBAAGazz+a22DOK2ROlxa+53JL0i03OB6floS/B3O6ipm1FEsnQ9N+xAC/0BSQWksb6LEr8xd8/XziEJgAICIAv0PDf0KXftk2Iz1FKFmi/TPEn/Dk3PF+y+5A1GCylX4p8btnfg/ntJxaSxzlpyPaiwPZveJwogs0WJAIAkuXSnlLQC8pbpP0XD6+U+L8fy5tvuC1sZGaSDgt0XP93z/NB9FOoRlzYikXVgusL2oHwA2fF1BwBJXl+b27Oi6zXJN+3bP+wfymyZpDddesPc3zLTm+b+RjwSXZbXrGWcQoVM0fnXLbcKgsjjkqpIY628mRvpqbLdlnUSBUABAZBFup4ZcoBZsN3HzaFYspwvLhbqkKnbXC0yi7vCle7WEYkEK0KLrewNbGVRSeFKq63vIVlkVZl/uXpQd0/P70zagzTWeDVyVN7uSx4kCIACAgAA1qWEPD062pP7xs/kuoQ0VuvxvN2XHEQMAAUEAACsp55nh01y8xvFbXq/SEcYj48s2Ov114gCyB4BEQAA0D9y91h8myncSxIPxPwc7v4jygdAAQEAAH1ZQnZf+lJuNNhGZrNI4xPm5BUMvIEYgOzDKVgAACSAu6z7xa3OMNmVchVleRyhme+au9trf2PLALIPR0AAAEgAM3n+bq/d7PHoNmY+O7vbmF1D+QCyeD4kAgAAErz+dlnvi8NOcferlX1PT6/P7Ql3tL2XdrElABQQAACQQJ0vDhkSCYM7XNo3Sz5ytyL+1bxdXpvD6AMUEAAAkATust6Xhp7q7j+TbFBGf1bp/PzdllzHqAMUEAAAkOzF+bNbDOiJRi+R63xl4HNDzPVkzm5LDjCTM9oABQQAAKSIrpeHVlpcV0s6JIM+1sp41LYt/OriNxlhABQQAABSsYg8N/QgC3S1pOo0/ygu07fydl3yIKMKgAICAEAqr9xdQc+LWx2lwH4qV1Wafoxf5u265BJGEwAFBACAdCsiZpcpjY6ImOsvOd1bHGB7z44xigAoIAAApFsRmalIz+ZDj5bsB5LXpPjbfSO3N9jR9mx6n5EDQAEBACCdi4jLul8auq9J50o6OAX3510Was/cry35O6MFgAICAEAG6XphWIVF/GS5TpVUnhKLC/OTc3d+7U5GBwAFBACADOX/GFrWHdPxJh0vabukvQ/Xb/J3XXI6IwKAAgIAQJboeXmrbRXat2Ua79JGCVxU/CWnpOBAq63vYRQAUEAAAMgy/vToaHf+6wdaYOPkOkRSWT/+c3Nzo9rDdlzSTPIAKCAAAGR7GZmpSGyLobu6fIybjZW0cR/++bfiZrvypHMAFBAAAPD5ZWSrYbuE8fAbMjtA0ihJwTr+uVUKbI+8nRbPI1kAFBAAALD6QvKPyq/0xOL7ufmeJu0pacQarhG6Q7cDC3ZZ/DQpAqCAAACAdS4k3b29u1nERsm1vaTtJQ3+9H8maULezkumkxgACggAAOj7UuK928u1jcwqglCv5u685DckAwAAAAAAAAAAAAAAAAAAAAAAAAAAAAAAAAAAAAAAAAAAAAAAAAAAAAAAAAAAAAAAAAAAAAAAAAAAAAAAAAAAAAAAAAAAAAAAAAAAAAAAAAAAAAAAAAAAAABAVjEi+HIHHnhgXmlp6ZZmtmkYhoPcfUMzGySpWFKJmUXd3SSVS2o2s9Dde82sNQzD94Mg+MDdPzCzt8IwXDxr1qw2UgUAAAAFJMt985vfHBSNRrcNgmAbd99aUpWkrSRt0sc5vefui4MgmOfu/zKzf3d0dMx55JFHOhgFAAAAUEAyUF1dXbBw4cKRYRju7u67mdnu7r5lEt9STNK/JD0j6a/RaPS5adOmrWTzBAAAAAUkTR1zzDFfCcNwb0n7ufuh+ujIRqqKS/q3pEfd/ZFZs2a9wqYKAAAACkiKGzNmzMaSvmVm4yTtJilI048yX9L0eDw+7YEHHljCZgsAAAAKSOqUjoIgCMa4+/GS9pQUyaCP55JeknRHZ2fn/Vw3AgAAAApIkowbN26ku0+SNFHSgCwYu1WS7ovH47c88MADC9iUAQAAQAFJgDFjxuwu6RIzO1jZeVG9S3pK0g0zZ858hE0aAAAAFJA+VldXFzQ0NBzj7pdI2pph/LiJuL8QBMHPZsyY8ThpAAAAgALSB+937Nixh0i6TNJ2DN8XetHdL501a9ZfiAIAAAAUkHUwZsyYfST9ysy2Z9jW2J/i8fgFDzzwQD1RAEi2448/Pr+zs3OrMAy3lLRZEASF7l4oqVhSToLexj9nzpw5k9EAAArIlxWPLYIg+Jm7H8twrZPQzKaGYXjBrFmz3icOAIkwfvz4AfF4fJcwDHcys69K2kGp8fylw7heDgAoIJ/r+OOPz+/o6PiBpIsk5TFU622FmX1/xowZt+mjC9cBoE8dffTRQ+Lx+NclHWpmByhxRzXW1OIRI0ZU1tXVhYwWAFBAPr0T2y0Mwzsk1TBEfe55d580a9as+UQBYH0deOCBeaWlpYd9fBv0/VL5vbr7ebNmzbqeUQMACsj/O/TQQwsLCgp+Kel0pe9Ty9NBt6SfLV++/IrZs2fHiANY0K0wAABA+0lEQVTA2ho/fvyAWCx2oaRJkr6SBm+5NScnZ/DUqVNbGD0AoIBI+v8HCU4Tt9VNpL+Z2bEzZsxoJAoAa+LjH4rOlnSJ0uuhrzfMnDnzXEYQAJIvFY4y2JgxYy5y91coHwn3VXf/57hx404lCgCrM27cuEMKCgoWSroizcpHaGY3M4IAkBqSegTksMMOK8nPz79L0lEMRXK5+8O9vb3HP/TQQ6tIA8D/GjNmTFkQBL/8+DqPdPSHmTNnHsJIAkBqSNoRkDFjxlTl5+e/RPlIkSZqdnheXt7fxo0bty1pAPiPcePG7WRm9WlcPmRmNzCSAJDlBWTcuHGHmNk/JI1gCFKHuw939xfHjh37bdIAMG7cuDHuPlvSZmn8MRpnzJjxJKMJAFlcQMaOHXuKu/9OHz35FqmnQNLd48aNu3X06NFR4gCy09ixYy919xmSCtP5c7j7deLZRwCQUiKJ+ofq6uqCDTfc8GpJvxC32E0Ho4qKinbcbrvtHp07d243cQDZY8yYMReZ2eVK4YfVrqFV+fn5354zZ04vowoAqSMhO5cxY8ZEzGyypOPSNKcPJC2RtFTSm5Led/cPgiBokdTm7v+/czOzIn10FGEDd9/QzAaHYTjMzKokbZiGn31eEAQH3X///W/ydQGyonx8x8yuzogdnNlVM2bMuJhRBYAsKyCTJk3KWbVq1VRJY9Ikk2ZJz3z8+nckEpk7ffr09/riD3/84K6vStpJ0i7/196Zh8lRlH/8+9bMZjcniZAAKhjkygFRTkWuBY2ywoZkQ3XvJAQiwnIIggh4IQwCyikIiBLwZyAkO91FNiGAESG4gQCinJIsCTdySQJkc5E9pvv9/bEDBgiQY6qne+b9PM8+4chWVb9HVb11vAXgIAD9EyCT14IgOGzmzJmLxGUEoayDj0lEdEuZfE6glNopl8u9LJoVBEGooABEa92LiG4DUB9jGbzHzAuI6D5m/juAx4wxQRQV19bWpocMGfI1AIcBGAtgtxjLablS6shcLveAuI0glB+ZTGZUEAQPI+F3Pt6HmVuMMZJlURAEIYZYu2RcuMDcHNPgI2DmeUQ0rbq6eta0adPWlKIRra2teQAPFn5+qbXeiYgmAjgOwPYxk9mgMAz3ACABiCCUGRMmTBgUBMGscgk+ACCVSl0rmhUEQYgnVnZAstmsamtruwXAxJh9bxsAo5SaGudt+YL8DgXQhJ6dkaoYNGu67/tHi8sIQvnhOM5UAOWUfnuh7/ujINmvBEEQYomVHZC2trbfxyz4uBfAr33f/3sSlJLNZsNCm+9taGjYNp1Ofw/ADwFsXaImPcnMJ4i7CEL5obU+GMlNELJeiOi3EnwIgiDEuJ+2MJj9tJC+sdQwM9+llLrY87x/JF1R9fX1fWpqak4gop8A2DbCqt8NgmCfmTNnvijuIgjlRV1dXXX//v2fADC8jD5rWZ8+fbafOnVqh2hYEAShAgIQrbVLRM0ofe742cx8njHm6XJTWH19fZ/evXufDOBs2N8RCZi5zhgjrwgLQhniuu4ZzHxVmX3Wr33f/4VoVxAEoQICENd1v17IIlVTwu95AcAPfd//S7krrhCInA7gFwD6Wqrmp77vXypuIgjlRyFF+vOIX8KLzaE7n89/uaWl5TXRsCAIQpkHIJlMZusgCB4F8MUSfUcXgKv69OmTrbRtd631F5RSv2HmSUUuerbv+w2Qc9SCUK59RxMR3VCCql8lolZmfoKIXgTwVhiGxXqpfK0xpk20KwiCEG82+xJ6bW1tOggCr4TBx31E1OR53guVqEBjzOsAjnEcZzoRXcvMOxeh2LZCQCPBhyCUJ0REZ0dYXweAGcx8gzHmX9K3CIIgVDZqcwsYMmTIJQAOLkHbA2Y+f8SIEaMrNfhYF9/37165cuXuAM5Dz47QprKCiMYZY1aLewhCedLY2HgAgJ0iqm66UmoX3/e/b4z5pwQfgiAIwmYdwdJajyaiuxH9pfOlzHy0XI5eP67r7haG4XQiGrWRv8pEdJTneS0iRUEo6z7iBmZuslzNO8x8nDFmjkhcEARBWJdN3gHJZDJbEdHNUQcfzDyPmb8iwccn43newr59+34NwDXYuNXGCyT4EITypq6urpqZteVqng+CYD8JPgRBEISiBiD5fP4mRPseBYjodyNHjvy2Mea/orpPZ+rUqR2+75/OzPUA3tqAwO7OESNGXCiSE4TyZsCAAQcDGGSxipfy+fwhM2fOfE6kLQiCIKx3Tr8pv+S67kRmvjXCdjIz/9wYc4mobOMZN27ckHQ67RFR7ScEds91dnbuO3v27HaRliCUN47jXAzg55aKX8XM+xhjloikBUEQhE9io3dAxo0btyUz/zbCNgYATpTgY9OZNWvW0mXLlo0GsL43PVYDaJDgQxAqhoNsFUxEJ0vwIQiCIBQ9AKmqqroawJCI2vceMx/p+/6NoqrNo7W1Ne/7/k8BNOF/WbKYiI7zPG+hSEgQyh+tdW8A+1gq/m7P86aLlAVBEISiBiBa60MBHB1R27qYebwx5i5RU/Hwff9GZv4meu6FXO55nhGpCEKFdPhK7Qag2kLRrJT6mUhYEARBKGoAorVOAbgqonaFACYbY/4qKio+xpgF+Xx+D2b+uUhDECoHZt7JUrn35HK5J0TCgiAIwoawMS+hN23CuxKbBBH92PO8ZlGPPVpaWt4UKQhCxWElAFFK/VlEKwiCIGzwuLEhf0lrvQURXRBRmy70PO9qUY0gCEIiApB8Op3+i4hWEARBKGoAQkQ/AjA4gvZM933/PFGLIAiCFbYrdoHM/Nj06dNXimgFQRCEogUgY8eOHQjg9Aja8mxHR8fJohJBEARr9Ct2gUT0tIhVEARBKGoAUl1d/RMAAy23o4OInDlz5qwSlQiCIFijb7ELZOaXRayCIAhC0QKQCRMmDGLmU203gohO8TzvKVGHIAiCVYq+A6KUkuNXgiAIQvECkO7u7hNtDFgf4WbP8ySDiiAIgn36WCizS8QqCIIgFCUAaWpqqiKiH1iu/79dXV1niBoEQRBK2+cLgiAIQskHoxUrVmQAfNFy/WfOnj27XdQgCIIgCIIgCBUegDCz7d2P+b7v50QFgiAIgiAIglA5rPcl9EwmMyoIgn0t1tsVBMFJAFhUIAiC1rqfUmo3ALsw804AdgCwNTNvTUSDAdQA6IWeLE4dAFYT0cowDFcU/vkdAEuIaAkRtXV0dCyR3VUhqUycOHFAd3f37sy8s1JqJ2YeyszbENEQ9LzJVV346QNgbcEHVjFzO4DVzPw2ES1h5meUUovT6fQSeaslWWQyma3z+fzeSqmdAewYhuGORLQdEfVh5oEAegOoAvAuEb0bhuG7AN5VSr0ahuHTANry+fzCWbNmvSPSjAfZbFY9/fTTu6RSqWHoeRR2JwCfBzCYiIYw86DCXx1Y+LMdwKqCT68ionYALxPR4oJvL8nlcq8kdS5N6/uPjuNcB8DmDsiF8uCgUEzGjx8/LJ1O77655YRhuMgY01ZMH9Nabw1gm1QqVR2GYX8AKSIaYEsWzLzS9/2746wv13V3BHAIgIOYeS8AuwJIFbmaNwDcT0TzwjCcZ4x5Ke72BwBE9FIul3vURjsdx3kHwOeKOogQneR53g3SC22e/SilDlFKHcDMewPY+ZPG583gVSJqZeZ5+Xx+XktLy2sWJ8+jwjDctRhlKaWWNDc3/9vi4sfhSqnNTs6wcuXKOXPnzu3c1N8fN27ckHQ6XU9EBxLRN5h552L1gwW9/00pdU8ul3tDPC4axowZ0793794HM3MtM+9LRF8F0L/I1bwH4FFmnpdKpe7973//+8/W1ta8je+pq6urHjBgwJhilfexHZDJkyfXvPfeexMt6uSdjo6Oy8U0hWKSSqXGMfOvi1DU+QB+tQmDWArA7kqpPZj5q8w8Sim1AzNvi56Ve4RhuG6QYFMc1wKIVQBSW1ub3mabbQ4Ow3AcgHpm3j6Caj8PoJGZG4kIjuO8AOBepVRu2LBh92ez2TCG9gcAfwJwfFJ8j5lPdxznqJi05VRjzJK4y0xr3QvAoUTUAODwgq3a7he2Y+ZJACal02k4jrOEiO4houZcLvdQMSsKw/BoZj67SGVdDuAcW0JRSv2emb+0ueXU1NRsDWDpJgQd44lIAzjo/UWYItvB55l5AoAJYRjCcZyFAGYFQTB15syZL8rsobi4rrtjGIYNAMYS0b7MnC4s1Niqsg+Ag4jooDAMLxgyZMgqrfV8pdTtYRgaY8yKYlVUU1OzBTP71gKQtWvXfhcWHx5k5mvkwUGhHMhkMluFYfhdAN9l5tEAPvf+wEFEticTn+ZjN8ZoorWXUmoyM2fCMNyyxM3ZET1HGU5sa2t72XXdW8IwnGaMeV6sebMYXviJA1vEWVCNjY3fCMNwMgAnBm3dlZl3ZeZTHcd5lplvATDNGPMfMWnrk9Q9AZxYCAh7R1z9bgB2S6VSv3Qc5zFmnlJTUzN92rRpa0Qzmz4XCIJgAjNPZuY9LAYbG0J/IjqCmY8gomscx5kN4GZmvtcYE8RJbuu7A+JYrG9lVVXVtWKuQlLJZrOqra3tUCI6JgiCo0oweHwW/zDGPF3KBtTV1VX369fvaCI6DcBXShWIfQZDmfk8Ivql4zgPALjU9/2/iIULxWbSpEl9u7q6jgVwWhiGw2LazF2I6CIAv3IcZx6A3/i+/3fRXtEDj7owDM9l5m/EpEl7EdENnZ2dFzmOcwUzX2+MWS2a2jC01vsqpc4MgmAcgF4lDjzWR28AGQAZInrdcZzrq6qqrovLfbAPBSD19fV9mPlwi/VdN2PGjOVitkICIcdxdFtb26/Qs3IYy0Yy802lqrtwcfaHAE4FsHVS9Iqeow8HOY7zODNfZIyZDUmQIWwm48aN27KqqurMzs7Ok1DkezcWUQBGAxjtOM6DBX/4q2hzsyeqI4joMmY+PIaTVKAnscGlRHSO4zjXMfNVxTy6U4aB5BHM/FMA+8d1LrAevgDg4u7u7rMcx7mGma8xxrwbmwCkT58+hzGzrZfP1zDz1WK6QtJwHOcQAFcA2DPmTV0FwCvB4NoPwOnd3d1nJmiitT72JKIWx3GeJqJfep53u1i/sLFMmDBhUD6fPxPA6Sj+hdMo2Z+I5jqO8y9m/oUx5h7R7sYxduzYgb169boSwGQk4xHQLQGcT0QnaK1PN8bcJlr80Fh3GBFdwMz7JvgzBhV0fKbjONcy829Ktev10SNY37VY1zRjzDIxYSFBnU1vIjofwNkJGTxmRNyRkOu6RzHzFQC2LyPV787Msx3HuYuZT7OZPUsoH7LZrHrmmWeOzufzlwMYUkaftg8R/U1rfSeAH8gdkQ0eP0YT0Z8AbJfA5n+eiIzjOH9RSv0gl8u9XMm6dF13F2a+yvIcOWr6A/g5EU12XfdnnufdEnUD1p1UETMfZm2mQnSzdElCgjqc3YjoCQA/SUjwAaVUZMevMpnMKK31w4WMGNuXqRkcTkSLtNa/KGQtEoT10tjY+LVFixY9wcw3l1nwse4YfgQRPe267hm1tbVp0fr6mTx5co3rutcT0d0JDT7W5bthGC50HOekStRlfX19H9d1r2TmhWUWfHwo2GTmmx3HmVtIjx99AJLJZHZHzxkxGx3Xc57nPSJdk5CQyUQtMz+AnrcpEgEz/9vW2xHrorXu5bruBUEQPEpEX6sAc+hNRBcR0ZOZTGaUeIewvglKGIYPElEl2McAZr5qyJAhj4wfP35nsYAPM27cuC3fe++9u5n5ZBT/HZdS0RfAHxzHuXXSpEl9K0WXWutD+/Tp8zQzn4meBx/LncOYeaHW+vSobPeDACQIgtEWJ0e3QC51CgmAiA4Lw/CvsJiK2oojK2X9ITit9a4A/sHM51VIh7wuw4MgeKTQOQsCxo8fP7J3796PFCYoqQr7/D1TqdRjjuNkxBJ6SKfTu1VVVT2KnqQW5cjErq6uR13X3a2c9djU1FTlOE6WiO5h5i9XmBnXENHVjuPM1lpbv8+p1gkSDrQXf/B06Z6EhLAfgOqEtXltZ2fnDMvBx2QieoyI9qhg26ghoqtd150+ZsyY/uIqlYvruqelUqnH0POmQqXSH8AMx3H+OHny5JpKtwkiugvA0HL+RmYexswPaq0PLsfv01rv1N7e/jB6HiRWFWzOY4joMa211cv26n++Q/tZMtj5colTEKwOfN7s2bPbbZRdWA36PRH9GT1b8RUPM0/o3bv3P7XWO4g0KgutdW/HcW5l5msSuFBhixPXrFnzUENDw7YVLodKCcIGENHdWutxZebbhxHRvwDsJS4NABhKRA84jnOc1QDEdd2dYe/i3GzRoyBYDUCsvHyeyWS2am9vvwfAKSLljwUhw4joQdd1vyLSqJjg4wsA7gcwUaTxsT5oj3Q6/aDcC6kYqonIaK0nl8PHOI5zFhHdiYQdvY6AXgBuchznZ9YCkDAMrV0mVUrNFR0KgrWBf3Eul3u42OU2NDR8KQzDBwAcLFL+RLZl5gVa69EiivLGdd0diWg+Ee0t0vhEdkilUg+7rvt1EUVFkCKiP2mt3SQPoY7jXAHgclTePa4NlhGAX7uue206nS7qsbR0YRJjJXsHEb3oed6zoj9BsMYNKHKCh8KrvX9j5i+IeD+TfkQ0h5n/EdMXjoXNDz72Yea/ANhKpPGZbMnMfwPwlIiiIlBEdIvjOO/4vn9vkhre1NRU1d7efjMASaSwATDzqUS0U1GNp/DnVyw1eL6oTRCs0RmGYVETPGitdyWie2EpJXeZUkNEtSKGsgw+9mTmv0rwsVH0B3CAiKFi6AVgZpKOo2qtU+3t7bdI8LHRFPWtwPcDECs7IMz8oOhLEOxARDONMcuKONkaTkTzAWwr0hUqncbGxr2ZeR6Az4k0BOFTGcDMd2itB8e9obW1tWkiygFoFLWVFjVu3LgtAWxto/AwDP8hIhYEawFI0S6fa62/UFjp3VokK1Q6ruvuGIbhXZBLqYKwoWxHRLcg3g8w0pAhQ24AcJSoKwYBSHV1ta1UkmuVUotFxIJghRdyuVxRjjhOnDhxQCGH/fYiVqHSKazizoW9zJCCUK4c5rpubB9rdV03C+A4UVNMApAgCIZaKnuhMSYQEQuCFaagCJfPa2tr093d3TNh6R6YICSJyZMn1xDRncws6WQFYRNg5ktc190zbu3SWk9i5vNEQ/EhTUTWAhARryBYIZ/P56cVo6AhQ4ZcBuBbIlJhUyGiKQBikQGHmZ/fnN9fu3btdQD2Fa0KMWcVgA70ZDIdgHilkK0Ow/DPtbW1e7W2tubj0KDGxsY9wjD8o5hNzAIQWDp2wcwvJFkwWuudiOh4MRH7dHV1XWLrJe8y5faWlpY3N7cQx3EyAH4U50ALwMvMvFgp9QaA1QBWM/N7RNSfmQcUBt/PARgO4Mv4X2INIToe9zzPJP0jXNc9hZm/H+MmLgPwDIAXiGgNM68BsJyZq4nofV8YxMxDiWgEgD5imonnXQD3M3MrES1i5meNMa/iI7vfEyZMGBSG4S5hGI4kogOZ+VCU8EgtEY0aPHjwSQCuK7UAx40bt2UYhrNj7A+dAJ4DsJiI3gWwIgzD1UTUSUQD1xnnBgMYAWC7sglAiGgIM9so+6UkCyaVSn0pDMOfSP9nH6XUHwCUewCyEsB8Zn4IwJLCz7udnZ1r5syZs6oEAfYOAOK2ItTOzPOVUvOUUvPz+fxiY0zXhv5yfX19n759+44IgmBPIjoMwGgA/cTDhA3wh92Z+coYNSlg5keJ6D6l1LwgCJ4wxry7ob+czWbVokWLvgxgd6XUocx8OIAdRNOJoAPATADTmPneDTnKPmPGjOUAHin8/F/BpvciomMBTEQJMrkR0a+01l4xMzVuClVVVTchXvcb3wRwHxHNy+fzC5RSL27MdYWxY8cOrKqq2o2I9mHmw4noQPSkQk5eAMLMVgwzlUq9LP2IUOGsATCTmW9etmzZ/XHZji6kIZyOnlWVOAy2cwDczMx3b869sTvuuOM9AI8WfqbU1dVVDxgw4GBmdtGT7723mKSwnuCjNxHNAFATg+Y8RkQ3K6Wam5ub397UQrLZbAjg+cLPLACnFR4YPRLACRKMxHa8+GM+n7+yGDvcxpjHADymtf45gJOJ6MeINsvhICK6GEBTqQTquu6JzDw2BrptJyKfiG7O5XIPbU5BhdMiCwo/V02cOHFAd3f3aABHA6hHgl50T6NnW6foMPNb0p8IFcpKAH9g5ss2ZtUyKoYMGfJjAPuVuBnLAFyVTqf/WFi9Kzpz587tBPA3AH8bN27cOVVVVd8HcDKAoWKiwvsQURbAbiVsQgDAJ6JLPc+z9oK4MaYNQFs2m7100aJFRxDRqei5/0ViBaWFme8E8ANjzH8s6H01gMsnTZp0fWdn5y8BnBXhJPU4rfVlxpjno5ZpY2Pj0DAMS72r+QIz/6Zv377Tp06d2mGjgunTp69Ez47ZzMI3nwzg+wC2TEIAYmUHpLOz8x3pVoQKIySi6V1dXT+aNWtWLO1//PjxOwM4v4RNeIeZf11TU3PDtGnT1kRVaUEflzU1NV3V3t7eBCALed264im8dH5mqeadAKYT0YWe5z0bVaWF3ZE5AOY0NjZ+LQiC3xLRN8QaSsIKZj7eGHOb7YoK/e1PGxsbZ4VhmEM0CzEppdSZAE6JfDDuuXTet0SLGi8y8/lLly7NRXnyIZfLvQzgJ2PGjLmopqbmp+i54xnbnX9lqXH52bNnr5C+RaggXiKi/T3POyauwQfwwX2bUnRIjJ5jVsONMb+NMvhYlylTpnT7vv/7rq6unYnocgDdYrqVSTabVcw8BT0LcdE6A/MipdTBvu9PijL4WM+E5RFjzAFE5AB4WawiUhYS0V5RBB8f1Xk6nd4TwF8isvXvaa23ifIbtdYTAHynBDrtIqKLwzDczff9W0t17HrOnDmrfN//hVJqVwDT4xyAVFsody2K8EaBICQBZr69q6trT8/z/hHndjqOM5aIvlmCql9VSh3q+/7kUl9IfJ/Zs2e3e553jlLqGwCeFSuuPNra2iYD2CviagMA2UGDBu2Ry+UeiEsX5nme6ejoGAXgFrGMSPhXKpU6xPO8kmQLnTFjxnJmHgPgxgiqqyGiH0b1bfX19X2I6JISiPVxIvqq53nnGmPWxsHIcrncq77vH01EYwG8HTcnULBze74LglAZ/HHkyJENcU8jrLXuBeDSEgRn81Kp1D65XK41jnLJ5XKPMvNXAVwjplw5aK37Abgo4mqXMXOd7/sXTJkyJXY7b4VV02OZWQNYLlZirU98pLq6+pDNSTJQDIwxge/7JwK4IYLqjm9qaqqK4rtqamrOQsSpaoloGjMf4HneM3G0Oc/zbk+lUrsx89y4BSA2jEICEKESuNL3/ZMLZ6pjjVLqeAC7RFzthcaY0c3NzbFOSGGMWev7/unouaAeiFmXP0R0BoBtI6zyn8w8yhhzT9xlY4y5jZn3Q8JT6ceUJel0+ohSHUFdfzzEP0DPJWabDF6+fPm3bX9MJpPZiojOilB+XQAmeZ53TFx2PT6J5ubmt0aOHHkEEf0uTgGIDaogCOXNrb7vn52EhhZ2P86JclADcKbv++chQUcxfd//IzM3oOcIqVCmFHY/To+wyr9XVVWNNsb8NykyMsYsYeZvAHhcLKZorCGicaXe+ViProM+ffocDeApm/UopSbY/pYwDH8MoH9EonuPiMb6vn9rUgwwm82GnuedwcxnACj5wqmCnd0KefxLKGcWLF269HsJmlx/n5m/FFFdATMf7fv+VUlUrDFmDjN/Gz2vrgvlyemILgPa7FWrVtUVUmUmzRf+W1VVdQgzPyAms/kw8+lxPaIzderUDiLKoOctElvff2Qh+LfCuHHjtizs5kTBSmb+lud5c5Noi8aY3wE4rtRBiK0ApKa2tjYNQSg/3s3n80fH5VHBDYAKx02iquxHxpgZSVawMWYBMx8JoFPMvbzQWvcqvH8RxYSzddWqVY2F92gSyfTp01f26tXrCFheHa+A4GOeMeZPcW5jITjKWqyir1Kqzlbh6XT6JESz+9HFzEcZYx5Osk36vn8zM59ayjbYCkAwcOBA2QURNohevXolJhUqM5/W0tLySlLa67ru4Yju7kfW87xry8EmjTH3AfgeYrBNLRRxwFOqEUAUKUGf7u7uHpfk4GPdIEQp9V0iekUsaJPoBvDDJDR06dKlVwN42uL4WWuj3Nra2jQRnRSBiEIiOjoJd7k2cJz7A0qQnGbdAMTKlptSSgIQYYOoqqpKypsx840xzUmSbYQrHMb3/QvKyS59328G8Cvx0PIhoiMa7yilDo97ZryNIZfLvQHgCADviRVtNLcWXqGPPa2trXlmPtei/x1so9ytt956HIAvRiCirOd5pszGuZ8BuK0UdSsA79ooOJVK9YUgfDZdMcoI8lmd54+RoEvVWusvAPiW7XoKr76eUI7GOWLEiAsB/F3cNPlorUcA2Nd2N0FE38/lcq+Wm/w8z1tIRGeKJW2cPQRBcGWSGmyMuQPAY5bGihGZTGbrYpcbhuH3IhDNfGb+dTnaaFdX1wkowUOk1gIQItoKgvDZtCck+LjTGPNYkgRLRBMBpCxXkwfQaIxZUY7Gmc1mQ2aeDHkXIfEQ0TERVPM7z/NuL1cZep53A4BZYk0bPG7cN3PmzEVJazYR/d6WG4ZheFCRFxa2IaLRlmWyLJ/PZ4wxZZmmffbs2e1KqWMQcRp6ZXFg3Um6H2EDJgXvJqSpSczqdHQE+rvG87x/lbONGmP+Q0Snibcmu6sBMNFyHf+prq4+t9wF2d3dfQKAZWJSG8StSWx0GIYG9jIB7lbk8lwAVpMeMfM5LS0tb5azoeZyuQcAXBF1AGKlIyGinaXvETago3s9AUHSKyNHjmxNklzHjx//ZQC7W67mv2EYVsQdCc/zpgNYIB6bTFzX3RuWz4gz8xlJOU66OcyaNesdZj5frOozySOhu0XGmNVEdJclPyl2UpSxlsXxoDHm5kowWGa+CEBkgZZiZltnVWUHRNiQyf1/EtDM5iS8dv4hx1aqPgLdnVWuR68+4XvPRoLuAAkf4gjLA/ffjDEVczRp2bJlNzLzIjGrT7WJx5LcPzLzPEtFF21xesKECYOI6ACLYggLiVwqot83xqxm5l9GNk8B8B9LxisBiLAhvBb3BoZhmLiUe0R0uOUqng3DMFdJhup53j8AeOKyiZxMHW7Z3yoqW1pra2teKXW2WNanTK6Uuj/J7Sei+ywVXbQdkCAIvgO7x69uN8Y8WWGmO5WZ/x1FRWmLub0TfQQrCIKHwjDcUbpRIJVKnYueNxFsTAziHoB09O3b96Ek6Utr3QvANywPTpf4vh9Umi8w86VE1Ci9QqL8YQsAX7VYxXzf9x+sNLl6njdXa/1vIholVrbevmJRwvX7ouM4awAUO6Np/0wms1Vzc/PbRZBxrWUdXl5pdmuMCbTWVwC4xXoAwswvE5GNsgc0NjZul9R0hMaYtQBelG4UcBzH2kN2RLQ45p+/eOrUqR0JCxj3DsPQZhrsN8IwnF6JvmCMedJxnAUADpCeIRkopQ5kZpvZ4C6rVNkS0XUApoiVrVc2S5IeQwFYAmDPYhfc1dU1AMDbRZDxwczWTkfdl/TXzjeV1atX+/37978CwBCrfbMx5nUAVs4phmEog3TCqaurqwawl8UVhmfiHoAkTWdhGB5ouYpbjTFdFewW10rPkKBZFLNNf3idme+uVNmuXbt2OiRF9SdNjl8vA9+xsoCcTqf7b24ZWuvBzLyrxc//c6Xa7ty5czujWFhQhT+fseSAB0JINAMGDNgDQI2l4t8xxsQ9neMrSdMZEe1hs/wgCG6pZJ8YOHDgLFh6P0mwwh4WfW1Gub4NsCHccccd7wGYISa2nsmVUquT/g1EtMpSYNOvCMV8FT3ptW2wurq6uqLfu8nn8zdFFYAstGRkB0s3lGyYeT+LxS9KwPevSqDavmJRHk8k8GGtojJlypRuAHOldxB/UErdWunCJaI5YmIfp7u7e00Z6NZWANK/CMV81eJ3z6qElNqfRktLyysAnrIegDDzQkvlD9daD5auKNEByMEWnfzRBIggUatYWuvezGwtAYRS6m7xCoCZ7xApJMIftoG9c8xvNDc3/7vSZbxy5cr5AFaJtX2YZcuWhWXwGVZ294hos09VKKWsvXMVhuFfxYIBIrrTegAC4J+22g+5rJnkwbs3EX3LopP/MwFiSNTxCqXUUAApizq7TzwDAPBXAF0ihtgPoDYzGYov4IPz4n8TSQgbCjNTEcqw9tRDKpVqFS0BRGR1oU0BQN++fZ+wNZgS0XdEjclEKfVtFD8F37rlPypSLjpDLZbd1dHR8aCIGCg8MLZQJBH7AdSmP/xdJPzBZPABkYJQJmPdM7lc7g0RLxAEwaMArGUBVQAwderUDosPj4xvamqqElUmclA50mLxyzzPkzTHRSYMw6EW7WFx4dKp0DO5/bdIoXL9QSn1hEj4A54WEQhRUcjOuY2l4h8XCfdQSLBh7c6nWmcwtZXveKv29vbRospkobVOAai3WEUrevKMC8XF2p2rMshrX+zJrUy6Yo5SypY/cBAEz4mEe8jn80+JFISo6Nev31awlwFLxrkPY22hTa3zz9bOs8rLwcmDiA4BsJXF8ueJlK3IdaDF4qVj/rCsZQck5jCzLX94zRizWiTcw6xZs94BIMdWhKgWFgbJOBcZ1hbaPghAqqqq7gOQtzQIjNVa9xY9JooTbRYehqEEIHYmxYMslv2KSPhD8nhdpBB7rPgDM78sov0Y4g9C4sc5pZSMcxH59QcByPTp01cC+JelevorpY4QPSaDhoaGbQHYvP/xkjHmeZG0lYlRjcXiV4iEPxREywvQFeoPRLRSpPsx2kUEQhQEQWBtnOvu7pZx7sN9qLVxTn3k3++2+BGniiqTQSqVOg6AzcQBt4uUrZG2OOGWXP/rsHr1aglAYg4R2fIH8YWPI/4gRIJSKm2xbPHtD8ujPZIAhIhmW/yOg1zX/bqoM95ks1lFRMdbjqhni6TtxY8WJ3OSAWsdCu8fdIgkKs8fiGiNiPZjMmkXKQhJH+eqqqpknFuHfD4fTQDied5TRGQtNSoz/1jUGW/a2tqOgt23JN5ZtmyZvCVhD5sPJ/YS8UY3EArx9QdmrhbRii8IpSEMw7ytsplZxrmI/Fqt57/NtvghDePHj99Z9BlPstmsAnCu5WpaWltb8yJtOxDRaotlDxAJ/4/JkyfXwO5RRWHzseIPzNxfRCsyEUo0I06lrO1AdnV1yTi3DlVVVf0iC0CIyLf4LSqdTv9IVBpP2traXAC726xDKTVNJJ28CRcAhGEoHfM6dHZ29hMpVGZALsG4BCBCeY5zSinx7Q+P+9b8+mMBSC6Xe4SIFlvspL6ntd5B1BovCg8P/tJyNS/lcrkFIm2rk4B2i8VvIRL+H/l8XiZcFeoPFt8XSTISkAtRYS3hQSqVEt+OyK/VJ3Sut1j8mBoAV4hOY8cEAMMt13Er5PVz2xMua4+BKaV2Egl/iO1FBJXpD0S0M+y9xJxIiGg7kYIQBUEQvGFrLsHMMs5FNM6tNwDJ5/PTAIQWO6oGrfWhotd4MHHixAFEdIntPoOZbxJpW8fao0HMPELE+yFEHpXrD/0aGxu/KOLtQWvdD8CXRBJCFBhjugC8Y6n44SLhaMa59QYgLS0trzHzX2x+ERFd29TUJBc4Y0B3d/dFAD5vuZo7jDH/EWnbRSn1msXiR4qEPyRrCUBiDhFZ84cwDEX/BVKp1DDIjpAQIcz8qqVyZZz7sDyiDUAKg+u1tqOq5cuXnyjqLS1a670AnBKBEV8v0rZPGIbPwt4xt60zmczWImX7HbNQHPL5/GKLxX9FJCy+IJRscWGJpaJHSTD9ITlHH4B4nncPgCWWP+zChoYG2bYtXfCRAvBHWM7fTkSLjTH3isTtY4xZTUTWdpqCIBgtUgYKu7d7iSTiTUtLy+sAVloq/lsi4Q+QR4aFqIPeZywVPcR13VEiYaCQMGpI5AFIj375OsvfNzCdTt9amAgL0fNTIto7go7iEsjl83LomAHgOyJhYOXKlQdBsoIlwh0A2NoFObC+vr6PiBjEzEeIGISIabM4hso4B4CI6m2W/2kBCPr27XsTgDctf+MBRHSuqDpaGhsbv0ZE50dQ1avM3CwSj5THLZY9GrI9DWYeK2ZW8f5Q06dPn4MrXbha6z0BSAYsIVLCMLQ5zkkA0oPVce5TA5CpU6d2ALg6go8813Gc/UXXkQ0YnwvD0CCCV5yJ6JJCxgohusnxIxaL31prfVAly7eurq6amTNiaeIPzKwrXb5EdIxYmRA1M2fOfBHAMkvFH6i13qbC54nbA7C6wKI+6y90dHT8AcC7lr81DeDWCRMmDBK3sj9eAPg/RLNi9fLKlSv/JCKPnH9annBUdPKI/v37HwlgSzEz8QcArta6Yo/iaa17oecNKUEoJ9+uIqLvVfjCwrEbEiNYDUDmzJmzCtE8HDi0u7u7pa6urlp8yh6O45xLREdGZMDnz507t1OkHi3GmP8CeN5iFQ2ZTGarChbxj8TKksPIkSMXA3jbUvF9AEyqYPFOALCVWJlQCph5gcX5y/HZbFZVolwLCwvWFxrVBir5agCv2m4MEdUOGDDg5kpVegTBRwbABRFVt3D48OG3itRLxlyLZVcHQfD9ShRqY2NjLSTjT6LIZrMhgLstVnFShY5ZRERni4UJJeSvFoObL7e1tR1WiUJVSk0E8IVYBCDGmLXMHMnElZndZ5555mLxq6JPnL4J4GZEdIGYiM4pDPxCmXXMBc6aOHHigEoTahiGF4hpJXKmPNdi2SPb2trcSpOp67pHweIryYKwAXPTpwC8YbGKX6HCkq4UUsz/LJJAZyP+7lQACyMKQn7qOM5J4l7FIZPJjArDcCYiuHRe0N/tnufNFcmXDmb+O4D3LFaxVXd391mVJFPHccYCOEisK5GB498ABDYnKoWBu5ImKbJQKJR8qLO5uABgr0KgXTG0t7c3MfPOsQpAjDGBUuoURPeew3Wu6x4v/rV5aK2/GgTBvYjuzYK1kDPyJccYsxbAHMvV/KhSXkbXWvcGcLlYVmL9YRkzz7NYxU4rVqw4oYImKadGNUkRhM9YXPCsRjjMF1bK4oLW+nMAzouqvo06t5rL5R4goqjO9aeYeYrW+kxxsU3Ddd19iOg+AIMjrPY3xpiXRPqlJ4L3V/rl8/kbKkGWSqmLAOwkVpVomi37268LqSvLmoaGhi+h52iKIJSckSNHzoPdY1i7tre3/6JCxrkrYfHl880KQAoNPBtAe0TtIyK60nEc6ew2PpI9gJnvBRBZamNm/jczXyrSjw1/BfCOZQc90nGcoyvAl04Xc0o2vXr1akHPDq0ttgBwI8r4zHg2m1XpdPomAP3EooSY2GQIwLdczc+11nuV+Th3GDMfG2nAs7G/0Nzc/BYRRb0r8UvHca6R7FgbbEhjiOivAKK8JJwHcJw8OhgfCrqYGkFV1zQ0NHyxTH1pMBHlAKTEopLN9OnTVwLIWQ7Iv+267snlKsNFixadA+BbYk1CnGDmG2H3ekAVEd1SOIpbdjQ0NGxLRJElKdrkAAQAPM/7M4C7IpbRaYsWLbpz3Lhx8gDYp4x/juOcT0SzAfSNuO7LjDGPiQriRRAE18Pu5VsAGJRKpWbV19f3KSfZNTU1VRHRDESQjlCIaMBT6toIJkO/1VofUIbB+MFEdKFYkRA3jDFtAOZZrmaEUurPKLMdzqampqp0Ot2MCI9ebVYAAgD5fP4E2H8h/cOza6K6qqqqJ1zXlTz8Hx8c+mmtbwOQjdpBmPnRqNI0CxvHzJkzX4xisYCI9q6pqZlWTruUK1as+B1ktbesyOVyTwBYYLmaaiKarbUumztD48eP/zIRGQBpsSIhjhDRdRHMdVzXdbPlJLf29vZrARxciro3ebLQ0tLyJhGVIlXudszc6rruKeJyPWQymVFE9AgRNZSg+pVKqUY5ehVfmDmS7E1E1NDW1nZZOcjMcZwLmflksR7xh01kSyKao7UenHR5NTY2fj6VSt2NaJOZCMJGMXz48DsAPBNB//FLrfXkcpCZ67oXIIIXz4segACA53kGwPUlaHc1M//ecRy/UtKAro/a2tq04zjnBkHwL5ToQSgiOtHzvBek+4svxpgFllOQrsuPHcf5PRK8Te04zvkAzhXLKVt/mAPgX1HMiZRS92utE3uET2s9OAzDeyAZ4ISYU7iMHsURQSKi/9Nan5pkeWmtz2Tm80rZhs0+LrFq1aozATxeKhkGQbBYa3261rqiLomOHz9+5JAhQx4qOFyvEgUfv/M8Lwch9qRSqSg7mlMcx7khgcexyHGcLHqOMQplDDNfFFE9w4howfjx47+cNBk1NjYOVUrdD3ntXEgII0aM8BDNg9lERNck9JkIchwnS0RXlrohmz1BmDt3biczu4j4Psg6DCSiq4nogUwmM6rcHWzixIkDXNe9KJVKPQZgnxIO4K1vvfVWRb2EnWRyudxDiDZxxAltbW2zJ0yYMCgJ8qmvr+/jOE4OwPliLeWPMeYOZn4oouqGplKpB5J0MV1rvVcYhg8x8zCxFiEpZLPZMMJVfSKiK13XvTopDxVqrXu5rvt/cRnnirJCaYx5XinloCcVa6nYLwiCxxzHuSbJW96fRFNTU5XjOD/o7u5+jpl/AaC6ZOEz0SsAnNbW1jyExEBEpwPojHJen8/nn9Ra7xtnuYwfP37nmpqahwE4YiUVA6dSqVMBhBHV93ki+rvjOD9BzI8nuq57DBHdD2BbMRMhgYsLswDcHVlHwnz68uXLH2psbBwaZ7k0NDR8kYhamXlyXNpUtCMSuVxuHoAzSvw9aQCnEdELjuP8vhxepdVap1zX1e3t7QsBXIcSpEr7CMvz+fzhxphl0tUlC8/zXiCiayKudnsimu84zlkxXCUi13WPT6VSjxLRKLGQyiKXyz1BRH+OeHy6xHGc2xsbG7eLmzwymcxWjuM0M/PNAPqIhQhJhYjOQoQL4kS0dxiG/3QcJxNHeTiOk0mn008C2C9O7SrqGW3f938fRSq0DaAawClE9JzjODcmMR3ixIkTBziO8yOl1LPM7APYJQbN6mTmcTNnzlwkXVwyWbt27YWFHawoqQFweXt7++ONjY0HxkEO48eP39lxnLsLD1gNEMuoTMIw/BmAqBdT6sMwfEZrfXZMgnJyHCcTBMFCAI1iFULS8TxvIYCrI652MIAZWut7tda7xkEOWuvtHceZBWAGgNi9oVf0S6LDhw8/nYi8mHxfLwDHE9GzjuPMdxznuIkTJ8Z6suG67nDXda/u7u5+FcBvmTkulxdDAMcYY+ZL95Zc5syZsyoMwxNg99XYT2K3MAznO47jaa2/WqIO+XOu616ZSqUWAhgtFlHZFHZyS5HNpi8RXdbe3v6U4zhH19bWpkvkD/s5jvNgYYKytViEUC4U7oIsiTyaJ/omET3luu61DQ0NXyqRX2/hOM7FRLQYwNi46qjoAUg2mw3DMDwGwD0x+k4CcBCAP3V3d7/pOM4013W/HZcjIVrrEVrr8xzHeZqZ25j5dMRrVZYBnOD7vi/dWllMuu4BcFMJfdEhose11n9pbGysRQRn4hsaGr7ouu6VRPQKM5+JEmWOE+JHoV+bWaLqhwOYNmTIkGdd1z1lzJgx/W1XmM1mldb6MMdx7iOihxCzYxmCUKRxbq1S6jgAQQmqr2bmU9Pp9HOO49wcVYKkxsbGzzuOc0nhlMPPAfSOs47SlhTfpbVuAPAXIjowZt/cB8DRzHx0e3v7GsdxHmDm+5RS84YPH/5kIZe0VTKZzFb5fP4bRHQgM9cR0cg4LyQQ0ame5/2fdGnlAzOfqZQ6sIRZboiI6sIwrHMc5z8AcszcbIx5slgVTJo0qW9HR0cdEX0PwHeYOSWaF9ZHKpU6KQiCfQGU6m7GDsz8+5qamiscx7mTmZv79u07d+rUqR3FqmD8+PHDUqlUY1tb27FENFS0LpQ7uVzuIdd1Ly7hexdVAI4JguAYx3GeXmece6lYFWit+yml6pj52DAMDwOQmHHO2ravMWa11vq76En9eVBMv78vgMOI6DBmRltb27uO4ywA8AwRLQnDcDGAJcaYTUoxXFtbm95yyy23T6fTO4VhuCMR7Qlg/yAIhhERFWZhsZ6nAjjD87zrIZQVxpjVrutqAI+g9BdOtwdwDhGd4zjOawAeAvAgET2cTqeXTJ8+feVGBBx7ENHXmfnQzs7OQ4ioRrQtfBbNzc1va61dIppfmDSUit4ANBHp9957b43W+l9EtADAw0qpJ3O53JvYgOOThXexdgKwLxF9vTDGfVk0LVQaYRj+CsD+RPTNEjdldwC7E9HFjuMsIaKHATwYhuEjAJ43xqzdkEImTJgwKJ/P7wVgXwCHADiImRO5o2/13KkxZvWkSZO+29nZeReAgxMgj88BGANgDDN/EBw4jrOMmV8korcBvAOgHcD7xtJBRH0AbMHMfQuTuYHoWUn7EoCqdctKEAEzH2+MmSpdWHnied5Cx3FOARAnHX8RPelwHWZGd3c3HMdpB/AqM79CRB/tpLcCsA2Az3d2dm7xvp8l0N+E0gflDxfS5P42Jk3qS0S1AGoLEyk4jtMJ4DUA/wHw9kf+fh/0pM7dFj3ZEj9YCWVmUbBQqX4dZDKZiUEQPA7g8zFp1q7MvCuAyevMM5cWxrnXiKhrnb+rmHmIUmobZv5CPp8vmwx11i++TZs2bU1dXd13+vfvfyuAoxIqp8FENPiT/mcZdu5dzDzRGHObdF/lje/7N7uuO6pwLyKuDETPg6O7i8YEy/5wleM4uwI4MaZNrAawY+FHEIQNoLm5+S3XdeuZ+X70nHyJI0MADCGivT76P4ioLBcRVBSVzJ07t3Pp0qUZlO7iq7DhvANgtAQflcPw4cPPBjBbJCEIwMCBA09j5nkiCUEoHzzPe5yZXZTmUrpQqgAEAFpbW/O+7zcBuAClSQEqfDbPBkGwn+/794soKodsNhtWV1cfDeAfIg2h0pkyZUp3VVWVBrBQpCEI5YMx5i5m/rFIosICkALs+36WmR0Aa0T88YGZ5zHzfjNnznxOpFF5TJs2bQ0zH8bMj4o0hEpnxowZy7u7u78JoE2kIQhlFYT8DsBZIonKC0DeN4DbiGh/AC+LCkofewD4NYDvbGq2L6FsOuYV6XS6DrLyKwiYNWvW0nw+/x0ielGkIQjlg+/7VxLRxSKJCgxAAMDzvKeYeS9mvl3UUDKWE9EY3/d/YYyRc5ECmpub306lUocA+KdIY6NYKSIoP1paWl4Lw/AgZl4k0hB/EMoHz/POZeZzRRKl82tVyi8xxrxrjBlLRMfif2lthWi4Tyn1Fc/z7hRRCB8NQqqrqw8FcLdI47MhoqkArhBJlCfGmNerqqoOZOaHRBobxDUAbhQxCAnw7YuZ+XsA8iKNz+QlZj68bAKQdSLRW5j5G8z8b9GxdToBnDVixIjRuVzuVRGHsD6mTZu2ZtWqVUcCuFmk8alkPc+TAazMmTFjxvKamppvM3OLSOMTCZn5DN/3TyeiUMQhJCQImQpAA1gt0lg/zPxoKpXaL5/PP1t2AUjBCJ4cNGjQ3ujJktUtKrfCAmbe0/f9K7PZrAwQwqcyd+7cTt/3JwM4E5K68KOsJaJjfd+/QERROUG5MeYoSCbH9bGKmY8qXPAVhETh+/5sZv4GgJdEGh9jJoBDmpub3yp2wSpOXzllypRu3/ezRLQPgIdF70VjOYAm3/cPMsZIVhdhYzvnqwAcBuAtkQYA4GWl1P6e590ioqg42Pf9LICGQr8qAM8EQbCvMWaWiEJIKsaYp7u7u/dh5rkiDQA9i44/8X1fG2Os7A6pOH6153lP+b6/f+Fsnkx6NsOAiGhKd3f3MN/3b4Ss2gmbHoTc293dPUo6Z9zV3d29dy6Xe0KsoqL9YbZS6isAKvrNJCLyOjo6vjZz5szFYhVC0pk1a9Y7xpjDmfkM9BxXr1TeVEp9x/f9y2zOG1WMBcDGmKnMvCsRXQ65pL5xwmOel0ql9vQ878RZs2YtFYkIReiclxY659MArKqwz19FRCf4vn/ErFmz3hFrEHK53KvMfCgz/6wCx6d3iSjjeV7jnDlzVok1COU0fTLG/I6Ivgbg8UpcVOju7t49l8vNs12XirswjDErPM87p7u7eyiASys8Kt0QHgYwxhjzrebmZrnUL9jonK9TSo0EMKdCvvk+pdQoz/NuEvULHxmfAmPMJcw8ipnnVUQHwHxnPp/fzfO8nFiAUK54nvfU0qVLv4aeRwsr4eHsZczc6HleY1SLbOmkSKawiv9T13VvZOazARwLoEbc5AMeBHCh7/uSOlWwTiGD2pGu6x7JzJcC2LUMP/M1IjpbJlrCBgQizwMY7ThOI3oedh1ahp/5AoAfGWPuEI0LlUBra2sewJUNDQ23pdPpSwC4AKjMPjMP4A/pdPr8GTNmRHqvTSVNUp7nveD7/kmpVGpooaOv5IuAAQBDRPv5vn+ABB9CCfzx9oEDB+5ORD8AUC5H/dYQ0cXV1dXDJPgQNgL2fb951apVwwCcXUZj0woAv1i1atVI3/cl+BAqjpaWlld8388UjmXNL6NPu6eQGfWHUQcfQIJ2QD5KISXYL+rr6y+uqalxiOhEAF+vEH94nYimEtFNuVzuZekehFIyZcqUbgDX19XV/WnAgAEuM/8SwE5JDDwA/Cmfz1/S0tLypmhW2BTmzp3bCeAKrfUfAXyfiM4G8IUEfsoqANen0+lLSzE5EYS44XnevwDUaq0PAPATIjocydwReZCZzzPG3FfKRqSTbhB33HHHewCmApjquu5XmPlY9Dwq88Uys/21AO5i5qkA/ur7vrzLIMRx4nVLU1NTc3t7u8vMTUR0YAKa/iaAKalU6rrm5ua3RZNCMSikrvxdXV3dHwcMGDCJmU8AsG/c201Er4Rh+EcAfzDGrBBNCsLHfHsBgAVa668qpU5lZhdAv5g3uxvAbGa+yhgTi2cu0uVkFJ7nPQXgzGw2e1ZbW9sB6DmvNybBwch7AOYyswFwl61czIJQTAo7IrcCuHX8+PHDUqnU8QCOATA4Rs0MAcxn5usHDRp0e6HNgmArML8JwE2ZTGZUGIYnMPNEAINi1MyAmf9GRH8Iw/AvxhhZ4BKEzw5EngRw/JgxY35UU1PTCOD4GC4yvArgxnw+f1PcdvbT5WgUhVe+7y/8/CCTyYwKgqCOmQ8joq8j3pfXnwZwN4C7+/Tps2Dq1Kkd4uZCUim8D3CW1vrnAA4moiMLiwLblSLoYOYHieg2Zp5pjHldNCRESSEz4WmTJ08+e82aNd9USo1h5noA25Yo6GglottSqdQsGy8dC0IlUEhFfSOAG13X3YWZxxbGuf1QmrvWrwKYqZQyw4YN+0dhThw70pVgHIVO/98ALtVa90qlUnsHQbA/gP2J6CsoXcaSlcz8FBE9BODBVCr1sBwB2TSI6CVmvrfY5SqlXhXpbj7GmC4A9xR+TnVdd09mHs3M+xUWBba2VPWzRNTKzK2pVOo+W5OsYtofMz9jURXzAfQvalQXhq+JhW8chYWluwDclc1mT168ePE+QRB8i4j2Q89dxi0tVMvM3Pa+P6TT6VZb400Yhs8T0b3FKsumLph5AYDnil3u4MGDE//wbxiGS4qlx4/0l2X7Npnnec8CuAzAZePGjRtSVVVVB2D/QjAywlJA0g7gAQB/V0q15nK5J2HhAUFm7gJQNHsgCNBabwFgdwC7E9GOzLwDEQ0FsAM2f5u8k4j+w8wvA3gZwAvMvDCVSi2SC+SC0IPrujuGYbg3Ee0MYCdm3pmIvgzgcwB6fVYgT0RvMPNbAJ4FsFAptaizs/NpeYRTSOJ6itZ6FyLas+AHOxf+HFrwh6oNmIy8CeC/AJa87w9BEPzbGPOuiFcQSsPEiRMHdHV1fU0pNQzALsy8E3oStmyDz75D0oWeTJNvAHgFwCJmXhSG4UKl1HNJPDYpAchnBye9giDYsqqqasswDLcEsIVSqpqZiZkHvm8YSqk1hRWDValUankQBO8AWCaX+ARh86ivr+/Tt2/fgcy8RT6f/+AhUmYOUqnUUmPMWpGSUClMmjSpb0dHx0Cl1IB1/UEple/bt+9SObYrCImca6by+fzAXr16Dczn81WFgAOFeeWKqB4HjJL/B/ANcx7/LV0/AAAAJXRFWHRkYXRlOmNyZWF0ZQAyMDI0LTA3LTA4VDAyOjA5OjM4KzAwOjAwSDk28wAAACV0RVh0ZGF0ZTptb2RpZnkAMjAyNC0wNy0wOFQwMjowOTozOCswMDowMDlkjk8AAAAASUVORK5CYII=;" vertex="1" parent="1">
          <mxGeometry x="525" y="290" width="70" height="71.57" as="geometry" />
        </mxCell>
        <mxCell id="x_g3UTr6BPIwBnfjf8XP-6" style="edgeStyle=orthogonalEdgeStyle;rounded=0;orthogonalLoop=1;jettySize=auto;html=1;entryX=0.5;entryY=1;entryDx=0;entryDy=0;" edge="1" parent="1" source="x_g3UTr6BPIwBnfjf8XP-8" target="x_g3UTr6BPIwBnfjf8XP-9">
          <mxGeometry relative="1" as="geometry" />
        </mxCell>
        <mxCell id="x_g3UTr6BPIwBnfjf8XP-8" value="&#xa;&#xa;&#xa;&#xa;&#xa;Prometheus" style="shape=image;aspect=fixed;image=data:image/png,iVBORw0KGgoAAAANSUhEUgAAAbgAAAG0CAYAAABACDLIAAAABGdBTUEAALGPC/xhBQAAACBjSFJNAAB6JgAAgIQAAPoAAACA6AAAdTAAAOpgAAA6mAAAF3CculE8AAAABmJLR0QA/wD/AP+gvaeTAABG0ElEQVR42u2deZxcVZn+n/fc6iUrS7bu6gQSDBBSVZ1Ay44agflJhIR0N4XgiBNHBxdGRWBkZETaBWYUFVBcCIqRHSvdHRIwgCBBgYCQrbsrCSSSQNLVnR2y9lL3vr8/0uxJr7Xc5fl+Pv2ZMVTdOvc57z3Pec89C0AIIYQQQgghxBsIJSCkd2g8bm1OvzLCgTMCKoMBwIhzmG2METiWOGb4gU86g9SYYgAQR4cr0AEjbQCgqm8ZFUehthrZdeDCzn5xTBsAmALZYbW3bxu14JXdVJwQGhwh/WZHvOKwfZ1tE8TgKFGMgcgoqI4AzAg1OsIoRih0BCAjARyZw6J1ANj+zp9gOxRbodgG6HYBtjvGpEK2rt9WoBsjiWQHa5MQGhwJEGunTywaPnhQWRo4RoBjBM4xCjkGwDFQhAGU+uRJ3gngNQCvCfQ1hXlNgddCwGujt494QxYvTjMaCA2OEI8a2eDBhZMNpNyBREUxBUAMQAnVQRqKV0XQqMBKFW0ydkFj6fwVGygNocER4iJSVSccbdSKOYKYAFNUEYPgOAAhqtMn3gLQCKARigYVbSze3944YtG6XZSG0OAIyTI6bVqo5fDtU2DpWVBUAPgEgKOoTFZ5DcBzEHlWYD9XUrtqlQBKWQgNjpABsH36xOFtgwedAtWzBDgTB/4GUZm80qqCl+HIswLnub1t7S8du2hdO2UhNDhCejC09uLicyH6KUA+BmAS49L17APwkkCeApzHSsqTS6UGDmUhNDgSeDZXx46xoTOguADAxwEUUhVPsw2CpwF5Mt3Z8chRC15JURJCgyOBoPWy8iH2PvtsUVwAyHQA46iKb3EgWC7QJx2YJ8MjCp+ROUs7KQuhwRHfsDE+pcxy7IvgaDVETgdnOAaV7VAsUqN/2rev/Qm+uyM0OOJJNlVOGmHBOt8xEhfFeTQ18gHeBLBQRRNvGjzO3VcIDY64PFOLHBlK4wKaGuljy7MTikdUNBEeUfwYhzEJDY64gu3TJw5vG1QcF+AzAM4GYFEVMgC2AagVlQdK6hv/xjV3hAZHck5qVqwCxrkckM8CGEpFSBZYqyq/D9k6d8yCps2Ug9DgSNbYEa84rM3p+AygX4ViKhUhOcIG8LSozCkJTaqTRMKmJIQGRzKdrX0OwGAqQvJIs4jeq+r8Jly3+nXKQWhwpF/ZWrvd/iVV/AcEx1MR4rasToA/q+qvS+uTj/NdHaHBkR5pmTV1PKzOr6jKlwEcTkWIB1gLwa9sM2zOuMSS/ZSD0ODI+2iunnyiqPkWgEvB6f3Em2xR4Deq6V+OrV+znXIQGlyAUUBS1bFzAP3mga2zCPEF7QD+BJGbwrWNaygHocEFiPWzxxcX7R72eTh6Fd+vER/jAKh3VH42tr5xCeWgwREfk4xHCo9wzGyofg9AGRUhAeI5Ufmf0vrGZygFDY74CL28oqB1a9ulKnIDgGOoCAkwT0LwnXBt08uUggZHvGxsNTCtK2PVKnojgGOpCCHvMTqYa8N1DcsoBQ2OeMzYUisjFwukhu/YXMd2APsBjKUUeccRIKEiNZyM4n8MJfA+qerYrJaG6EoReYDm5o5GFMDTAvmCUTOmtK5pFACecu2SNk+Bz0C1KVUV/WNrvHwCJWEGR1zIpsrIFAO5FYJpVMMlmbTgEXHw7XB90+p3OyCRaqjMozqupA3ALSFLbxqdSO6hHDQ4kmdaK8tHO2L/EJAvgkfVuKa/oSJfKKttfPJ9hhePWy326kYAJ1AiV9MikOtKyhvvlho4lIMGR3JMMh4pPDIt31DBdwEcRkXc8hTpInR0fj688NVtH/xPzZWRS0TkAYrkGV5W6JVldcnnKAUNjuSI5qrITIH8FJwZ6S5Uf15an7zmUBv/pqqijwH4FIXyVq0K8JBj49tlDzdtpBw0OJIlWqonR1TNLQD+hWq4rh28PlyX/NGh/usbM48Ph0IFb4DDyF5lnwI3S2fRT8ILl+6jHN6DsyhdyvrZ44tTVdEbVc1ympsbu4byne7MDQAKCgr+lebmaQYLcAMK2puaK6N8BpnBkUyQqoycBZE54MQEt3JHuK7pKz1m35WRJ1XkHMrlm9YygY6Orx3sXSthBkd6YEe84rBUVfS3EPkbzc2tbZwsKLVOuKKnz2kNjEJOpmI+QhFHQWGyuTJyCcVgBkf6QGtl9AJH8GsA46iGa3ndtvSkcYnkjp7rszzqiNNIyXzLn2HpV8OJ5BuUghkcOQRbq04oTVVF5zmChTQ3V9MBwUW9MbcDnX37JErmaz4NW5qaq2P/qTVsR2lw5EO0VMVmd8JaBaCaargckb7tRm9kDEXzPcNE9ZctDdG/b6qcchzloMERdL1rq4zdr9A/ADiciriel0rNpNv68gXHwSjKFhjOMGKvSFVHv0kpaHCBprUycnab3d4E0UuphidIqzhflkTC7uODNYLSBYpBUNyaqorWp2YcN5Jy0OACRTIeKWyujt7siPwFPDbFS9xWVrtqeV+/pIIiShdIZklB0Uqum6PBBYZUdWzSEbYsEcU11NxDCHbalt7Uz29zZ/qAotCwCB5PVUdvWzt9Ijs6NDj/0lIZ+TxUXwbAWXVew9Ef9nbW5IdbOd1LAQPePVJ8Y8igQUs3VkfLKQcNzldsqpw0ork6ulBF/ghgCBXxXD98w9629l/3+9siu6khATRiKV5oqY5+lVrQ4HxBc/XkE42EXhLFBVTDo91vkZ8cu2hd+wC675uoIulikCp+naqK3JeaUTGYctDgPEuqOvo5UfMsgAlUw7NsSZthcwfWcccaykg+0O35LAran988K/oRakGD8xRrp08sSlVHb4PiHgDspXka/eW4xJL9A2rKQoWvUEdyEKbYgmWp6tgsSkGD8wSbqsrHDh5UvBiKb1ANz9OOzs7fDvQipYnlWwFsp5zkw70fDIdqbUt17HvK/YBpcG4mdVH5xwyclwQ4jWr4oe1BfQaPQ3mRipJDtb2q+v2Wqugjr58fO4Jy0ODcZ27VscvhOE8BKKEa/sA25neZc0v5OxUlPfDpwiL9B5cS0OBcQzIeKUxVxuZC9Q4ABVTEN6wvizY8namLqTo0ONJznAATLcVzrZVRzrqmweW5BZw19fDDbbMIov9GNfyFiP5JauBk6nr79re/DGA/lSW9YKgjmN9SGbmCUtDg8kLLrKnjiyT9nEDPpho+xEZdJi/XtY7urxSW9BJLRW5PVUdv4xlzNLjcmltV5GQ16RcgmEw1fElzyfzkS1nICxdSWtInFN9oaYjWclE4DS43LV9l7EKFLAbAQyz92qaIzBdAM33ddLpjIbJwXeJ7ZqGg46+tleWjKQUNLmukqqPfFNFacPG2rxHVp7Jx3aMWvJIC8DIVJv3odp3qiPNCqjJ6ArWgwWU2tGpgunYmuRWARUV8jWNb+kzWzFOQoMSkn0yAwXMtlbFPUAoaXGbMLR63WlbG7uLOJIHJ31b2+1icXtDZ2XkfAJs6k/41SDhCRR9PVUUrKQYNbkCsnT6xqMVePY/LAAJkb3Cey+b1j1rwSgqKp6g0GQBFAB5qqY5eTClocP0iNaNi8JBBxQ8DmEU1goMDWZEDG73bZ7LtE2AJoyenFKji/paq2GxKQYPrE1tnHj8MBe2LAHyKagQsgxOszPqDNlTmA/DLIait4ugnFeAeirnHUuhdXBBOg+s162dNPbwjVPAEgI9TjcCRbh+2pynbP1JyT8Nehdb6QK/NYuk5TkhCACYxfPLTJ1OR21uqY9+jFDS47ruileWji0x6MU8DCCyvT5i7oS1HXe97PK5Vi6PWx0sTyVXi4AsMnfyiqt9PVcV+SCVocAdlY3xKmSPOMwCmMBSC2kpgY65+asyU5GIAb3hUp12O6vSx9Stf1WnTQgDiDB5XVMx3U1WxW3iuHA3ufWytOqE0ZNuLwWGWYCO5M7iujZzv9aBKnbAQH1ufXAkAqZHbTgFwGIPHNSZ3ZUt19FbqQIMDAKRmHDeyE6G/KDCRIRB4Nubyx9Qyd8NrW3eJ/Hd4XtMT7zQajpzDsHFdhv2NVFX0RgoRcIPbEa84DAWFiwCNsPqJKHbm8vfKEg2vAPibhwR6uLS28Zb3t6V6LiPHlVyXqop+hzIE1OC2xCND2+z2PwP4KKuedDXg+/Lwo3M8os4bxab43967CfX62eOLAZzKwHEtNzVXRb9OGQJmcMl4pDBtyzwAZ7DayXsegZwb3E7LmQdgq8uFUYhefmRi6Vvv/ceCt4YcjwO7ahC39tmA21LVscupREAMLhmPFB5hSx24iJu4IIOLJJIdUHX1kgGB/ipcm3z8Q/9ueB6iJzxO9dfNlZFLaHA+R+Nx60hb/gjgfMY9+SAOdH9e4jJkzYF7J5u0tjkF1x+8P2BocN7AEpF7W6oiF9Hg/GpugLSk1/xegUsY7+TgDidt+fhZN082UeDKCfNXvHmI/8qzyTxkcgq5t7UycjYNzoe0VEW+z1MBSHdInjK4A14hd7pQkn+E65r+1I1iYxk1nqLIgdRvrI6W0+B8RHNl7AuAXM/4Jt0/AfnJ4ABgb9t+1002Eeh/SzdDpwIdwaDxXC9uuKX486aq8sB1TnxpcC2VsU+I6G8Z2aTHB8AxeTO4Yxeta3fZZJPHS+uST3efdIIG503KDJyHt8QjQ2lwXja36skRFX0YQCFjOn8JNARLAXS4vaCdIbstv0+guRPumGyiAu12xEPjcQvKLbo8zEmdjjyg8bhFg/MgW+KRElXzKLhPXr6xSs0Jp+7d3zYcgssAvOzWgopt5dXgwrWNa6D6bP6FQH1pXfKl7j6yrb1hMHgCiacRxQUpZ81tNDiP0XpZ+ZC0LQsBHM0wzjslm9OrPnHsonXt4dqme8N1TSer6GcBbHddBueYPXlvdAx+n+/szTjmhh4/VBRShrYfTE6vSFXHrqLBeQSNxy3d6zwAbsHlGhwj7ztOpaw2+UDI0iiAp11UzI7x81e8lfcGZ7A1D4pd+XuA8JeS+oYeD311ii0anF9QvTlVGa2iwXmAFnvNTxWYwah1Uy8RH9qQd3Qi2bp3f9t0QOa5pJhbxAXvv0ruadgL0QfzVleCXzBiA4eB4N5UdfSj/r5Jj5Oqin0W0CsZry7rIAITDzYt+dhF69pLrUmXQOWP+XdhbHZNh8DJ2zDl2pLypkW9+eB+a5fNyPYVg6CYl5px3EganAs5sHhR72ScujSLE/tjB/33RMIuHVX4HwCezLMNb3GLVqXzk/8A0JR7CXB710GsPTJh7oY2APsZ2b7iaBQU+nZmpWcN7vXzY0dYijoAgxmjLjU4B4fcPUHmLO1sd0JxKFblzd7UPRlcV4lym8UpdhXYnX/o47e2M7J9x7kt6VU/osG5pRmogSko0nsAfISx6eJ6MhLtNiOYv+JNMc7FAPIyVd+Iywyus/Ne5HDtoIjePWrBK7tpcAQi1/px0oknDS7VEP0eeDqA+4NLMamnz5TWrkpC9bq8GDDMFjfpFV746jYIHs6hwd3b5++obmNk+9PiAPwhVR2b5Keb8pzBtVZGLxCAe0x6IYMDwr35XOmU5G3Ix/IBx21DlAAcvStHv7S2pHbVi30unmAjI9u3FjccqnVbZx4/jAaXB1pmTR3vCOaCuyl4hcHbp08c3uNzVQPHtvRy5HxrL+d1twlWOiX5BIA3ctBdv6+f3/snw9rXnNBZELpHD2R0NLhcsTF++iC10gsAbvbqJfYNLRrdm8+NSyTXAfLrXJYtFMI613Wia+Co6txs/05a7Pv7lZULDc73qFzYWhm9mgaXy4I6e26GIsbo8xYFaau4t5/tbMcPAOTqHc/u0Ylkqxs1s0LWXGR1Abq8OK529dp+PYc2DS4YHocbU7NiFTS4HNBSFT1fVL/GsPMejvT+VIejH23cCZH/zVGutM6tmpUkGtYDeD57rZfe39+vFra3rwF6t26OeJpCiN7Xeln5EBpcFtk8MzpGgbvgkzHhoGEkXdCnzw+WO3KRxanqWlcLp7g3a7fuoL6/Xx6xaN0u8D1cMBAc7+zTW2hwWXvGIekC/A7AaEabN0k7fTsxu+Sehr2A3pb9ZxeuNjg7pH9CNibdCFaWPdy0cYDaLWVkBwTV/2ipjMVpcFkgVR27QhQXMMq8TKjPWzu1OwW3A8jqLv8KcXUWMi6R3CGQxzJ/4/JIBkxyGeM6QB4n+ps3Zh4f9mLZXWtwLdWTI6L6E4aXxxHd19evTJi/4k0IsroZs8BZ63rtsjBMacTOhMG9xMAOFCNCoYI/ao33lme5ssBrp08sUjX3ARjE2PJ252///n1b+/VNB79FFmcSWra43uDaDtu9EMCbGbzkljGxVQM2p7ahe15AnrZXI3nj3NaG6LdocBlgyOCi/wUwhTHl9ewNbx67aF17f74arm9aDeC5LJVs25gFTZvdLt+EuRvaoJKxrbtE8UhvTw7osVzAPxjgAeutAjdumhWZSoMbAKmq2MehciXDyQc4aBngFeZkqWSemSQhBn/KYAP1aMaupbqYAR44iowld+vlFQVeKbCrDG797PHFUJ0DLgnwSwa3YSBft61h8wDszkLJPGNwO4zzJAQ7M9HdcJB+JmMNhyVPM8ADmcbFWra1XUuD60/3YNfQ70FwPKPINw/DgN5zjUss2Z+RWX8f5mWvSBhJJDtUNRPDlI1j69dk7Kibkm0jn0Vm3w8S7/Rcv9sSj0ymwfWBA6dz4xoGj58SuAwsphZNZLxglnpqHZcRM3ANFIszWreLF6cFeJxRHkiKHFt+74VZla4ooMbjlqX4PYACxo6PEjjLahjoNdqH71kExa4MFmtbOJF8w0s6lowo/AuAHQPsbTyT8fpVWcgoD2rnFae1Nka/TIPrBa326isBfJRh4yvskNjLB3qRCXM3tEGQuYZUvbdIWeYs7VToggFcwnE0/bfMV7CzCEAnQz2gHVgH/7cxPqWMBtcNm6tjxyjwA4aL77p4q0Ynknsy8iCJPprBcnlymykDmTeA3nZTJt+/vc24RHIHRJ9ksAf2GR8esp1fu/u5yWcPABBb9Q4AgxktPot9J3O7XRhT+CQytYO9qCcNLm0N+yuA/f38+jNZrOcHGe0BzuKgM928V2VeDa61KvZvAM5lmPgx8DNncKWJ5VuBzAwtalo8uUB5XGLJfkj/1p6pZG9RdmFb+3xwV5NgP+uiv3j9/NgRNLj3sH7W1MMV3GvSvymcyXSj+kQGrvHaQHfSzytO/zZfdhwrawY3YtG6XRl9R0q8SElhkePK10x5M7gi6bwewCjGhi/ZWzqyoDGjfqkyYIOTLA7V5aSnbJy/9+Omd5bVr8zuvpuC3zHkA57FQb7SUj05QoMDsDEemQiRKxgWvmWxzFma0dl1e9r2vwCgfWBPobe3lwqbSEOfl0yovChZ3LQaAEqjTU8CeJ1hH2hCcOQ2txUqLwZnHLkFQBFjwrfduScyfcljF61rV2BAyw5UHE9ncJJI2Oj7+7Ss79oiNXBE5C4GfsAfe5FzmqsjMwJtcM3VsXN5iKm/cWA9lo3riuiSAXx9bbhuteezDNW+mbxRfTEn5uvIb8HJJoFHVG5ZO32ia5KXnBqcTpsWEkdvYxj4uh+3YWz9ylez04iafhucAI/5QV0DberT50Oak303S+obtojifsZ/4PnI0EHF/xlIg2s5YtvXIJjMGPB1Hy5r+xN22h39Px/OkUW+6D6oSfbh462jE8nWnJXNyM3I8vs+4oEYBW7YEo+UBMrgNlVOGgHBDax+30f3E9m69FELXkkB/Tpjrk3twmf8IK9dMHQVALuXH2/KZdnCtY1rIPoYH4LAMyztGFcsG8iZwVli1QA4knXva9qL2tqyvXVTPxptWRxeuHSfHwQel1iyH9B/9u62tTHX5VOYn/MxIFD9dzec/p0Tg2uZNXW8Qi5nrfsbAZ4YsWjdruz+iPbd4NSp85fQ0tQ7qUxDrotWVtv4JCDL+TQEHssY87+BMDg16e8DKGSd+93htDbrseSYvmYltoH1sJ9kVqd3Jq/96Qxkhp/yYSCAntdcFTnT1wa3qXLKcQA+y8r2PZ1pk/0tm4w6yT5+5W8l9Q1b/CS0AXozRGmjo2hVPspXWt74IAQr+EgQUfxvnp+VLOepYn8fQIhV7Xv+Oi6R3JH1B2aYlUQfThZQoN5/UpterOfTf+brvaPUwDEOrucjQSDysdbKyNm+NLiW6skRBS5mLQdiOGJeLn6l5J6GvQCae/nxdIGlCf9JbfVscILV+SxiSX3TI1As5nNBHJEf+tLgVM0P4ZJTw0lWscUqzOV7rvW9/NwTuVwHljPzePPwTehhqYBC1ua/pMosjgDAGanKyHm+MrhUVflJAGaxboOQvOGprjPbcsWG3hULd/tRblm8OA0g1X0Cl3+DC9cnn1XBI3xACIz8SAHxUQbn/BB5uCGShwbXaE63aNLeZHCKXY41bIGPZe92mFJEX3VFbDj4NoA0n5LAd4IrUlW534g5KwbXWlV+GoBPs1YDwf7Cfe05nchhRNf3IrLvP7Ao2rcNRrdZbFqstW4oZri+aTXPiyNdowo/yHUWlxWDc6Dckis4UftI1hd3f7BtV9OjwRnH/Mrnund3MvmesYmVKbcU1Tjmhj6fY0f8yJSWqugsTxtca2V5FNBPsS4D43A530HeEmzq4SNPl9Q3NPlZde1uT07BOnHRpscl9Q1bIPg/PisEwDWeNjhb7KvBd29Byd527t23P+e79ItxtvTQ+t/ud+kN9NAGp7LObeVtH77nFvDUbwKc0XxR9AxPGtzWqhNKBXIp6zAwDjfv2EXr2nP9q6MTyT0ADrGIWTeU7hy5wO/Kq6Kb5Q/qOiOZMHdDGyDX8ZkhorjakwbXCevrAIpYhQFBcW8ef33rIbKXH3dNo/c1lkrLoavFnZlSaV3jAwCe44MT+HZj1sbqE471lMG1XlY+BMCXWXuBidINpXWNf89jAQ42TNm8t63tD4FQf5g5dAan8oYre+6AKvRaPjuBxxi1rvSUwTl7nC+C570FiXvyPJFh60Fa0JvzMWSaD0ruadh7qJmJqo5r33WV1SWfA/AoH59gI8Ds1IzjRnrC4DQetyD4JqstONji3JPfFEY+aHDN6Ci6M1ithB40i9MCvOHmYqs418NFszxJXhgsBUVf9YTBtdqrKgEcwzoLBgq8MK52dV4XEos4u9//v/V//HJqdx9UONh7uN25ONVhQFlc7arlgNTySQp6O6JXrJ89vtj1BudArmZ1BQcjLtjjUbD3Pf/r5ZJY8p7ANRCKzQcR5g0vlF0s5wb0sGE08T1jinYN+ZyrDS41K1YhwGmsq8DQoR0d+T+CRs27BmfMVVLT+zPifJO/HXSxt27yQtlLE8lVUDzAxynYCOTr7s7gjP4HqylQPBpe+Oq2/Gcvzp4D/4/8MTyv4e8BbR0+nMGpeOZ4IDuk3wfQyUcquChQ3lIVOdmVBtd6WfkQKLiwO1CNqrjjCBox+wC0dHbgW4FtHA5mZqLNXin/uERyHUTm8qEKvMl9yZUGZ+9zPgPBcFZRYNi+0zh/dslTsUdFv3z0o407g1oZ5iC7mSjgqQNexbZuAo/TCXqv+dIt8chQ1xkcFByeDFZP66FIItnhhrJ0duDPZbXJhUGuD8eyWz/8QHezR6ULKZ2/YoMq6vh0BZphnbZ8xlUG13phLMbJJcHCEsc1J2QHOXN7G7vT/tA7OFtNs9fuQwxu5tMV8BwOkpVkqd8G54T0S6yWQOVvr5bUrnqROriHcbtKtwDvnz0aCkmr1+4jXNv0MoBnWaOBbl9O3VgdLXeFwa2fPb4Yis+xUgLFPZTAZb3eA5tKv29Gq9NWsNmbNyM/Y40Gm5BmfrJJvwyuaPfQi8B9JwPVvTKWdR9lcKEvvH9SyX6v7uZSGmtcAGAtazTAjYzgcxvjpw/Ku8FBweHJIAUe8GJJomE9lXBh3bx/JuU2r96H1MAR6K2s0UA3NEdYzu7qvBpc84XRcQA+ztoIUJYgeJAquDaFe8+QpGzz8q1oZ/FcCHayUgPtcp/Nq8EZCxcDEFZEYHDSnZ0JyuBWf3vPhsuqW718L+GFS/eJKofCA+1vcu6mykkj8mZwClzMWgjSqIEsPmrBKykq4db24D0ZnOg2r99PWuRO1mqgKRAJzcqLwbXMmjoewMmsgwBlCIKHqIKreyCt72Zz2OH12xlX29QA4GVWbIDbHCBji777lsFZ6Tg4PBkkOh2nk+d2udnfjG541+v88f5KVOeyZgPNJ1viJ47KucFpBp2VeKKleXJs/ZrtFMK9FDr2+nezbdntjx68lQD3pwwyIbXTVTk1uM3VsWOgqKD2QUoPuEeg2xlZt7oVwD4AUJVdfrinkvqGLVD8lbUb5KYnM3M9em1wtuollD1QOCELj1AGt2c7UABvn+K92y/3pRAuTQl0XOu0N2YeH86ZwUEQp+yBajhfHJ1ItlIJT/AaAKg4vjG4dAfmg8OUQcYUWKHKnBjcpsopx0ExlZoHKH1TeZgqeCTbEVkPAMYn7+CArtMilBswBzyuBzxM2SuDs8SeQbkDlsEZ0OC80tVVXQ8A6phdvopB4RB5wDlzYzwyoD2Pe2VwDuTT1DpQrAnXNq6hDB7p6aomAcC2bF8ZXNpSdrKCjWVs+ZesGtyWeGSoQM+k1gHK3iALqIKHWgFblgNAEbDHT/c1LpFcB4CbfAe5LVKZnlWD67Rx9oFnhwQmIwAepQreYcyCps0AWtJtxbv8dm+ieJo1HGiH+5QOYHORHg1OZGAOSjzH3p2W8wJl8FinRLDUq2fBdXtfhgYXcEpS1ZOnZs3goPh/1DhQPBNJJDsog9ecQP/ux9tKd3ZywXfgkzjT7ySrW4NLVUZPAHAMJQ5SNMlTFMF7WLD+5sf76jrJ4p+s4UCTHYMD9DxqGywcx6HBeZAxIwuW+rbPBbzEGg40p62fNfXwzBuccHlAwNhSVp9soAweNIE5Szv9em8qQoMLNqFi03luRg2u9bLyIQA+Rm0D1EgCf+3a25AQ9+A4/6AIwUYh/RpNPKTBOfudM8HlAQELIuXwJHEdZqi1HIBDJQJNZjM4OHoWNQ1YBmfheapA3EbJPQ17AWygEoHm6OYLo+MyZnAKw91LgsWeEkx+hTIQV3a+gCRVCDgWzsiIwem0aSGBnkJFA8UySSRsykDcyNv7bZLgYoAz+/GdD9Ny5I5yAEMpaaD6yMuoAXFv6yY0uKB3cjJlcFCH79+CB6diE9fiOMLF3mTK1pnHDxuwwfXHKYnHe0eWLKUKxK0USXoDVQg8VkdB4akDNjiRvr/MI57O/XeFIw1rKQRxKyPrVrcCaKMSwcZo345u+5DBpeKRowCMpZQBQrBcarjOiLg5RKGAvkElgt4Xx8AMTh0OTwaw9VhNEYgHApUGR07TeNzqt8EZldOpYdC6Rcr1b8QL3fdWihB4hjWnV0X7n8EBJ1LDgPWLHUODI15wuC3UgFhieu1R5gPmJgCilDBYpAscTjAh7seYrRSBqDqxfhlcS9UJRwE4nBIGK17a9rRvpAzE9YHKDI4AgEj/DM6oFaN6gWPLsYvWtVMG4gGLYwZHAKC8XwbnGEyhdoGD2RvxBEZkN1UgAMZsnhkd02eDE+X7t8Bl+5AUVSCeyN/SNDhygHRB74YpPzjJhBlc0BoNDvsQr8RqgeyhCuRAx7x3w5TvGNza6ROLABxL6QLWaCh2UAXiBRzQ4Mjb7ZbTtwxu8ODCyQBClC5gPSHBm1SBeIHBe/ZyiJJ0ZXDStwzO9PILxHcGt5MqEC+wa0y6gyqQLibrtGk9JmTvvoNTM5maBQ/HEe7QTjzB+A3j01SBdFG8acTmCb02OBWdQM2CmOqDvWLiDRYvtgEohSAAYInVe4ODYjwlo8ER4uJYVQA2lSBdWVmPnvXeZQI0uCDGiEEnVSAegsOU5ACO07sMbks8MhTAKCoWyCixqAHxUp+MEhAAEOllBuekLWZvwW0tCqkC8RBFlIAAgNOLUUcDALaxOcEkoBgaHPFKZ+zAtHBDJQgACNDLSSa9eFlHfNpoqCmmCsQLtAzbzc4YeS+jUzMqBvdocKJKgwuuxR1JDYgXsKR9GFUg70viQu1H95zBiXCIMqj2JqDBEU9gW4xV8gGHM917V9d4Nocog4px2GgQr3TGONpAPkAPSwW6DE7LqFRgM7gSqkC8gKVyBFUg72+/pFvvMgoIwF58gDmKEhBPdNaBsVSBfMDiRnRrcJvikSPAY3KCzNGUgHgCwTiKQN4fEzKyW4Nj9hZ4hm2MRxgDxAvQ4MgHEjh0b3AFtjWSKgW8E5Q2x1MF4gE425t8sPXqfogS6tDgAo4RJ0IViAeYRAnIB1K47jM47WEMkwTC4mhwxNW0xE8cBYBtFfkgR3ZNlDyUwfEdXOCTfHViVIG4up+uNrM3cjAKdsYrhh/S4KDKXlHQGw/IyVrDTWyJi2PUcaZSBXIwOjvbRx7a4DhESQTDW1ZGOdGEuDhEcTJVIAfD6WYtnOlpoRwJSAMicipVIC6GBkcOjmW6yeAUw6kQgerHKAJxIzviFYcBOI5KkINmcI7T7Ts4npBLoIJzqQJxIx3p9o+BB52SQ5rYoQ9tNhDDQwQJABy1MR6ZSBmI63ro0E9SBXLIzjlQ1I35gQZHAABWWpjFEfchhgZHDm1wxtDgSG9yfZ1JEYibaK0sHw3oFCpBDtn/6W6IUsB3cOTtrpCcvX36RE46Iq7BNs4F4Ps30j2HNjhlBkfepaijeNCnKANxTe9cMYMqkO5jRDlESXqHA72IKhA3sH72+GKAs3tJ93Q/yUTAIUrybm9IMHP9rKmHUwmSb4p3DbkAwFAqQXqgm2UCygyOvL9dKbTSVZSB5L1nLnIpVSA9dsq7NTgOUZIPBozi81SB5JPt0ycOh+LTVIL02BFC9+/gLEpEPsDHU9UxHk9C8kb7oKKLARRTCdKLLrnVncF1UiDyoaxf8WXKQPIYgow/0ls6Dm1winbqQw6S+M9OzagYTB1Irtk0KzIVwEepBOllZ6j90AYnNDhyUA5HqJ3v4kjOMUauoAqk1/bWXQYnEA5RkkNFzn9pPM53tCRnHNiaC/9KJUhvUTiHzuAUygyOHIpjWtNruGSA5Awb9hUABlEJ0ge6eQcHDlGSbnpHRq9VQKgEyTYb46cPEpGvUQnStwyuO4MTzqIk3UZPRaoyxlMGSNax0ru+AmAklSB9QaS7SSacRUl6DCD9kdZwR3eS7ezNXEMlSJ9x0I3BcYiS9Ew0tTJyMWUg2SKU3n2FQsNUgvQVNd2/g+ugRKQXwwA3de3uTkhG2RGvOEwF36YSpF9tUzceFgKwnxJlpiMBweehOhJqpkJ0KoDJAAp8cn8TinYPuxLA/7GqSSZptzuuAzDK57e5SSDLHOhyQJcZwRmqci1rPyNN7/5DG5xiB+fIZaYjoUBhWV3y1rf/Yf3s8cUFbw070UBPhuAUQE8G5Fh4dVai6nVb4pG5oxPJVlY3yQQts6aOV6S/4bPbeg2QZYAug+gy41jLS+obtrz3A6mqKGeLZq7h3dFdBredEmVM6M8BuOudlGfuhjYAS7r+AACvnx87omCQngxHTxGYkxV6CoASj9zisLSNn4ELcUmm+kxW+idQz26qbAN4FdDl0mVobU7B8gnzV7zZ3ZcOnLeY/iRrP0Ptrm22HdrgRLdxmVPG+ETzhdFxZQ83bTzUB45+tHEngCe6/gAAzRdGxxkjp6lxTheV0xQ4CXDrQbTy2dRF0T+G5zU9weomA8veYtNVNe6R4nYCWCXAMkdkGdRZbg2xVpTc07C3rxcqEvt88JiyjNGhHYdM0kIisl2VImUIA0svBfCTvnypyxA3AkgAwNrpE4sGFQ86ycA5DUZOh+J0AGNdc5cOfr0xfnpsXGIJ39+SfrExfvogtXff7tLitQFoBLAMciAz27uvrfHYResyM+NctJIRkDnaO+1DGxwc2Qahw2Usv4H5fF8N7oN0PUhvD23eAgCbqsrHWrBPU8XpEDkNQEUes7yPWPbuHwLguiXSL0LOrhsUcowLirIHwAoIlonK8rTosrHbR66SxYvT2fixruHJ8xkBGWN3dx0Paa2MnO2IPEWdMpnGmdNL6hpeyOZv6LRpodYRW45XWGdC9SwoKiCYnMs8TgzOKZ3XtJg1TvpCa1X5aQ6cZ5Hrw5YVuyBohGCpOLoURpeWxFatlho4uSpCS3X0q6r4NaMgY7wWrmv6yCE7Up1GtllM4DLb8sP5IoCsGlxXDzPZ9TcHALZWnVDaIeajUKkQ4Ewc+MvWxrVGHf3D9ukTp4xYtG4Xa530KoOZPb7Yecv5PSTr5vYmgOT7zKxu1SoB3t/a1eb2/lUxm1GQUbqdJBmCsbbDtilTZrlk68zjrxq14JXdufzRUXWrWwAs7PpDMh4pHOHoiQ7MaaI4TYEzAByVQZsd3z6o+HYAPDeO9Iqi3UN/nIWRhjcgulxglomjyzpD1vJxiZXNbrv3VGX0BACnMAoy2tXv3uDSQ97abu0aSp0yy9BOK3QJgDvzWYhIItkB4MWuv9sA4I2Zx4dDVsFpanC6OHoqRCoADOTk7suaK2NPl9U3/oHVTrqjuSoyE4qvD/Ay+wG8BOA5o3heQwUvliaWb/VEUywyW8HhsgznxN0anABAqiq6GwBdLrO8FK5rcn1vTadNC7UcuaNcYJ+mkFOhOBWCY4E+ba68z6g5taS+oYnVTg6avcQjR8GW5QCO7ONXNwLyItR53hh9fsyIQctkzlLPnYCydvrEoiGDijfAO2tePeJvuC1c33TlITO4rv+7hQaXcU5uvih6Rtm8pudd3as88C5vWdffrwFg68zjh3WGCk8EnJMA6frTSTj0pIDBjjiJHfGK045MLH2LVU/eSzIeKRRbHtSezE2xS6AvqciLqvKPQkn/o2vY3fMMHVx0iSrNLeMYdJu9v21wrwM4hmpl2Dwc+RaA571W7q53h3/r+jvQA59RMdgJdUyxukxPDU6CIoJ399qc1Oa0PaDx+AxJJPhSl7zDEY65XaGnf+Cf352eD10Gg5dKIsk1uZzRmNtEQ65kJGSF13s0OAE2cGQ4K2Fdubk6dsyY2sbXvH4n4YVL9+ED247p5RUFrdv3HwdHKtRIBVQqUvbq6wHUsO4JALRURb6mqpcAeO59MxpNZM2HOkIJf2qw6aLyc+A4UxkNWWhhVdf3nMGJbAC3M8kGlu04VwC42pcZ6oF3IW8vVbgbOPBOj9VO3sEp+HPp/BW/+dD0fKwKTiPgON9k65ql8LJCG7r776Y3LkgG4gLyxa0zjx8WmNvN0g4QxJuUzl+x4cPmFhw2VU45TgHuXJId2sdGVrb0aHAwZgO1yhqHdYYK/pMyEBI8jNhXom8zkklvUWzo6Z3tgQyu06HBZZert0+fOJwyEBIcWuInjgI3Qcgegh59ywBA+MSmZnRz7DcZMCM6Bg36JmUgJDg46c7/AjCESmTN4Hp8tWYAoCvN20jFsplN69Wvnx87gkoQ4n9SM44bKYKvUokstqmO9C6D64ITTbLLYaEiZRZHSBAa38LCa8HNM7KcwWkfDE6EBpf1jBpXboxHjqQShPiXrVUnlIoye8s2lvQ8d+Qdg1N11lGyHGRxttRQBkL8SydMDfjuLeuknZ496x2DM45ppGTZR4GvtV4Yi1EJQvxHc7z8eED+nUpkX+qx9Wu299rgbCM0uBxl1raFWykDIf5DHPvHeHePX5I1obWhNx97x+DG1jVsArCDyuWgbqBnp6qilVSCEP+QqoycBZULqUQu/K13I47vX2GvaKB0OeNn62ePL6YMhHgfrYGByC1UIkd699KrzAf+Fw0ud0wo2j30aspAiPdpbYh8BcBHqURusI32J4NTvofLaTcE32mNl0+gEIR4l9SM40Yq5IdUImd07jK6ps8GZ4QGl2OGOLbzewWEUhDiUQoKbkRPp5WTjCHA6kgi2autJd+fwQ0ONQH+PFHXxXyypTLyJcpAiPfYVBk7HRA+vzlEoU29/ez7DK7knoa9AP5JCXPeJ/lp84XRcdSBEO+QjEcKjeBO8Dic3Bqcml7PFTlYxXCiSe5z7uFi4TcUghDvcLgt1wEaoRK5xRj0+lXahw1O5GVKmBfOT1VFL6MMhLifVHVskgD/TSVyn8CJ03uPOpjBPUcN88atW+KREspAiItb2HjcUtU/ACiiGjlXf21JfcOWfhucLUNeBg8/zRdHph38ljIQ4l5a7NXfFuA0KpF7BH1LwD5kcOMSS/YrsIxS5i0Bv7ClKvI1CkGI+0hVlZ8EoIZK5AdH8OyADO6AS4LDlPn0OMjPNlVGplAJQlxkbjMqBgPOfQAKqUaeMGZgGVwXNLj8Umwg9x94oAghrqCg/acAJlGIvLEtnGh4dcAGZ6XxPLXMM4LJKGjj5q2EuIDWyugFAL5CJfLZJMrzAuiADW7MgqbNAvCE7/xX6eXNlZFLqAMh+SMVjxzlCP4AbqmX5+ZQn+3rVw65Al+VywVcUaciv2mZNXU8lSAk96ydPrEIttQCGEk18osjfX911s0WMw4Nzh0crib9kF5eUUApCMktQwYX3woeg+MG2vftbVuaOYMz5u/U1DWc0rK17QeUgZDckaqM/SuU791cwovHLlrXnjGDC9c2rgF0A3V1CSLXpiqjVRSCkOzTemEsBtE7qIRreLw/X+phF2x5nLq6x+Ig+GNL9WRu7kpINjO3GceNdCytBzCEargDFWdRxg1OVRZRWlcxVNXUr5819XBKQUjmWT97fLEUFC4A8BGq4Z6EOly7akXGDc4aKk8CaKe+ruLYYpO+W2t4BhUhGc0SACl6a+idCpxONdxUL/pYX9e/9crgSu5p2KvgcgEXPogzWhtj36UShGQwTaiOXQ/B56iE25DH+vvNHrMAo8phSjeanOoNLVXR86kEIQOnuTJyiarWUAnXYTuW/iVrBicwj1FjV2IUeCBVGT2BUhDSfzZdVH6OiMwFdypxIy+OSyR3ZM3gSuobmgC8QZ1dyTAI6rZPnzicUhDSd1pmRU4xjjMfPLzUlcgAhid7ZXAHUGZx7mVS+6DiuZx0Qkgfza16ckSNLAIwlGq4FScHBieG7+HcTWXLysjNlIGQ3mZuU8ermscBHEk1XMuWkvLk0oFcINSbD9lm6OOWvXsPezpuzuXlqlRVVCHyKsUgpHtU09cAKKMSrqZeauAMqFns7QdTlbH7IXopNSeEEJL1PrvBJ0vnNS0eyDVMHz75J0pOCCEkB7SWyAkD3vC/1wa3d9/+RQDeou6EEEKymr1B50kiYefM4LqOKlhA6QkhhGQTVTyUiev0aWq5UQ5TEkIIySotpVOSz+fc4MaMKnocwA7qTwghJDvIQwOdPdkvg5M5SzsFeJgVQAghJBs4GRwp7PPuF6rKYUpCCCHZYGNZfeMLeTO40lHFTwHYxnoghBCSYf7U37PfMmJwMmdpJwT3sx4IIYRkEkf1nkxer38b9Dr4LauCEEJIphBgydj65Mq8G1y4vmm1AEtYJYQQQjKTvcmdmb6mcVNhCCGEBJLdBSEn4R6DCw19EMCbrBdCCCEDQnDf6ERyj2sMblxiyX4IHmTNEEIIGRC2/C4blx3QKdCOo5xsQgghZADJGxrC8xuXZuPaAzK4rhkvy1hFhBBC+ulwWUuUzICvoOBkE0IIIf1hf5sdeiBbFw8N9AJFbW33tw8qvhnAUNZVfgMFyOwiSUL8izkK0POoQ35R6EMT5q94M3vJYQZIVUZvheCbrK68siVc1zSGMhDSMy1V0fMVeIRK5BfH0RPHzk+uyFo3JiMuqaFbAaRZXYQQQnrJ49k0t4wZXOn8FRtUUcf6IoQQ0htU8bNs/4bJ1IXE4GZWGSGEkJ4NA43h+qYnPWNw4dqml6H6d9YcIYSQ7tM33JzJY3GybnAHymx+xpojhBDSDc07LX0oFz+UUYML1zcuALCa9UcIIeTgiZD+IpJIdnjO4A6knHIbq5AQQshB2N3hFMzJ1Y+ZTF+wffjuPwLYzHokhBDy/vRN78zmwu6sG9yEuRvaIPgla5IQQsh78x915NZc/qDJxkVDRm8DsIX1SQghBAAEmFP2cNNGzxvc6ERyjwh+yiolhBACoC1tWT/O9Y+abF04bYbdLpAU65UQQgLPr8YlVjb7xuDGJZbsV9GfsF4JISTQ7DVq8uIFJpsXbx+25w4Am1i/hBASWH5RUt+QlzkZWTW4CXM3tIngJtYvIYQEEMUu29K8zccw2f6BkhFFvwPwGmuaEEIC5m+CW8Ylkjt8a3AyZ2mnCm5kVRNCSKB4s8MJ3ZrPAphc/Eh4+8i7AX2V9U0IIQFB5Me53LUkbwYnixenVXANa5wQQgLB+vZhu2/NdyFMrn6orDa5EJDHWO+EEOL37E3/a8LcDW2BMTgAgOpVADpZ+4QQ4lueK61N1rmhIDk1uHB902qB3sH6J4QQX+LAkW/m4rRu92VwADrazfcAbGMcEEKI39Dfhec3LnVLaXJucEc/2rhTRb7PQCCEED95G3aFLNzgpiKZfPxo2Ez6DQSNjAhCCPEJRr4/OpFsDbzBSSJhO2K+xYgghBBf8M+9+/b/ynWem68fHjuv4SmBLGBcEEKIx5M3xZXHLlrXToN7D2o5Xwewm+FBCCEeRZAoqW96xJXGm88fDyeSbyjwP4wQQgjxJG/ZxnLt6yaT7wKEy5t+BeA5xgkhhHgLBa7Ox0ndnjE4qYEDkS8BaGe4EEKIZ3gmXNd0l5sLaNxQiHBt4xoF/o/xQgghnqAdIl9xy44lrjY4AHjT0psASTJuCCHE3ajKDeHaxjVuL6drDC6SSHYYsb8IwGb4EEKIOxGgITyq8OdeKKtxU2FKale9KNDfMIQIIcSV2OrIv8ucpZ44FSbkugKl09d1hgrOBzCBsdQnBjdXxq6lDIT0jANnkkAoRJ+zN/lZqYs2U+5Ftuk+mqsiZwrkGQAWQ4oQQlxhF8t3Ws5pkUSywyslNm4sVFld8jlAb2JAEUKIK9gHwWe9ZG6uNTgAKN0x6gcCLGFcEUJI3rO3q7wwa/JDpXZz4TZXx46xHV0OwXAGGCGE5MMldFFpbfJ8t69581QGBwBjahtfU8iVjDBCCMkLW6xO+YIXzc31BgcAZfWNfxDgQcYZIYTkFBWRL4xZ0LTZqzdgvFDINif0VQBvMN4IISRX9qa3lNY2/tnLt+AJg5swf8WbYvBvABxGHSGEZJ2Ve9var/P6TRivFLR0XtNigdQw7gghJKvshuJSN57Q3Vc8tZRfAWmpjs6DoooxSAghWWhmRePh2mStH27GeKmwAmhBZ+dsAKsZh4QQkvFW9ka/mJvnDA4ARi14ZTdEqqDYxWAkhJCM8WSpNanGV3bt1YKnqqKVAGq9fA+EEOISXkdnx0fDC1/d5qebMl4teLiuqR6qtzAuCSFkQLTBkWq/mZunDQ4ASneOuhaKxYxPQgjpHyq4IuyhI3ACY3CyeHHawHwGwCaGKSGE9JnflNU23eXXm/PF+6tUdfSjXZncEMarm3uK8nXjYDOVCEJd62cAVFMJN1cSFu8M6ae8dgRO4AwOAFqqoucr8DB4SKp7nyfLTCpLNLxCJfxPS1Xsxwr9NpVwLWs62+WMox9t3OnnmzR+uZHSuqZHAbmCcetig0vbxVQhMBkc69q9bLMtneF3c/OVwQFAuK7xDihuY/y6E8uSI6hCUBwOrGt3st9RmTkukVwXhJs1fruh0ilNVwGoZxy7D8fWEqoQGFjXLnwEofjc2PrGJUG5Yd8ZnNTAQWfR5wC8xHh2Wd0ApVQhMLCu3ZdWXx2ub6oL0h0bP95UeOHSfWIVnC/AOga1ix4vkYlUIQD1XAMD4Bgq4SruCNclbw3aTRu/3lhpYvlWVcyEYCdj2zU53CRq4H82J8uPBjCYSriGR0utEwI5Ac/4+ebC9U2rVXUGgL2McRfYGzSm3DvU99i2HaMKruFv6Cy6WBIJmwbnQ8rqks85xlwIoI2xnndGbZkV5dCV7zsychpVcEVNLG93QheGFy7dF1QFTBBucuy8hqdU9GIAnQz6PPfuLZxOFfyNQk6lCvnuZKDBtpxzJ8xf8WaQdTBBudGy2uRCKC4BkGb45/HBU5xPFfxL62XlQwR6JpXIK2stSz81LpHcEXQhTJBuNlzfVCeqXwTg8BnIV+8e56+dPrGISviUPc4nAbB+88dGwP6X0YlkK6UImMEBQGl98m5R/QarPm8MGzK4aBpl8CeOkZlUIT8IJGU5+GS4bvXrVCOgBtdlcr8C9Fus/rw9irOogQ+z88srCqBaRSXywjZYzr+Mmd/0T0oRcIMDgHBd8lYFvs8QyEdLiAv18ooCCuEvUtvapgMYQSVyznYV5/+VJpKrKAUN7h3K6ppqFHotAGUo5DaJbtnWEacMvmtOvkkNcs5mW3B2We2q5ZSCBncQk0v+BIqvgRNPcovoVRTBP7ReGIsJ9JNUIqe8YYv9sXG1TQ2UggZ3SML1Tb+FyufBJQS5Q1GRqop9nEL4A8fSa8BdanLJekvkk+NqV6+lFDS4Xphc432qchGAdqqRM5fjRB8fsLXqhFIAl1CJnLHatqyPjaltfI1S0OB6TVl948NGcRG4rVeumNlcPflEyuBt0rC+A6CQSuQAwVJ0dnx8XGJlM8WgwfWZkvqmR0TlPAC7qUb240/U3M4NmL1LSzwyWYGvUImc8GyxKTonvPDVbZSCBtdvSusbn1GD83jUTk44o6Uqdill8CaObX4JgEs+so3iCTPEnHdkYulbFKMvCS85JBvjkYmWLX8GcCzVyCrNIUsnjU4k91AKD2VvVZGLFJKgEtn2Np0bHll8ucxZys3imcFljnGJ5DorjY8B+AfVyCpltm2upwzeYevM44cp5KdUIsveBr2+rC75BZobDS4rjFnQtLl9+J5PCPAQ1chqL/Wa5urYuVTCG3SGCn4F4GgqkTU6IPh8uC75I0rRfzhE2fuulKSqojcIcAPVyBqbQ5ZO5U7o7qa5MvYFEb2LSmStVd4pgqrSeU2LKQYzuFz1BLSsrqkGqpeDC8KzljCnbfMHrWFcupWN1SccK6K3UYmssR6QM2huNLi8EK5P3qmiVQD2Uo2s5MrnpVbG/os6uI/UjIrBIbXmARhGNbIQ+cALRs1p4drGNVSDBpc3ymqTC+HIJwBsohpZyJZFb2qpjl5MJVzU+E6bFtLC9ocUKKcaWYh54CHHGnZ2SX3DFqqRUV1J/3u0x41EQeEDADg5IvN0wGBGeF7TE5Qi75mFtFZGf6eCf6caGcdWlf8J1zf+RHiqCTM4NxFe+Oq2UuuE80T0x2BwZppCOJiXmhWroBT5pbUq9n80t6ywTUXOK6tv/DHNjRmcq2mpjMX1wMyyoVQjo2x21Pr42PqVr1KKPMR1VfRqBbjeLfNZ8QsKEx9b18DXHMzg3E9pfWNCLfNRKHiqbmYZY8ResqkydjqlyC3NlbFraW5Zsbc5b1r6CZobMzjPsXXm8cM6Q4V3AXoR1cgoe6F6Ubg++RilyHLzG49bLc7q26HcRDnDtCnwn2V1Tb+nFDQ47zYQgLRUx66F6o8AWFQkY3QA8oVwXeP9lCI7rJ89vrho99D7oKiiGpmVVsWpLqtdtZxS0OB8QaoychZE7gW3NMokjkBqSsobb5QaOJQjc2yMTymzbPshAGdSjYw2sg+2OaGvTpi/4k2qQYPzFdunTxzePqj4dgCXUY2M8nQB7H8dVbe6hVIMnE0XlZ9jHOdeACVUI2Pshsg14drGOZSCBudrWipjcTV6BxRHUI2MsQUGl3GtXP/RadNCqSO3fVeA68FJZ5nkH7al/zoukVxHKWhwwTC5WVPHq0nfCw4BZRJbVW/c19Z+07GL1rVTjt7Tdd7hXMZjRkkrcGN4x8gfyeLF3LOWBhewHnM8bqXSa64R0R+CJyFnMpDXqcEVzOZ6EYOXVxSktnZcJaI1AIqpSMZ4HcZcFp7X8HdKQYMLdjZXFTlZIfeBp4VnOqITVie+PmZB02aKcZC4q4x9QkV/A+AEqpHZuOtsky8f/WjjTopBgyMAWi8rH+Ls1R8B+nVwOUEmo3ongO+3D9tzx4S5G9ooCLB5VvQjtsgPIXop1cgozapyRVl948OUggZHDsKmWZGpxpLfQcF9FzPLFlX5uRMa+otxiSX7A5mxzZo6Xk3ndwD5dwAhhkTGUAD32pZeOS6R3EE5aHCku6dl2rRQ6ojtV/O9CI2Oxub6RnOdqH65pD75V6pBgyN9YPOs6Ecc0TtU5ByqkfFo3wnVhFHrlyX1DU2+6yTVwKQaY2cL9HIoZoGTmDJNp4j+vG3Y3hoOfdPgSH8bKkBaKyOXqcgtAI6kIlmJ/KWAzLHN0Hu8ntW9MfP4sGUVXibifAWQ8azcrATMckC+FK5rWEYtaHAkQw1XKFR4GzduzirbBVigikfMUPN4yT0Nez2R6VfHjrGhM8TRGSoyDZyklC3eguJ7pVOabufWcDQ4kgVaLopOUwe3AphCNbJKGyCLRXQB7NCi0vkrNrgmq7+8oiC1re0UI5ihai4ANMLqyio2oL8Xq/C7pYnlWykHDY5ks4GrgWldGfmcivwEwBgqkhNaVfAyFEshulQ6OpeEF766LVfZu1UQqjDAmapyFoCTAAxileTiYcNiB3rl2PrkSopBgyM5ZEe84rA2u/16AF8HUEhFctz0Aa8BeA0iG6C6AZANanSD3dG5Qe3C/Ued3PhWT0NZG+OnD3L27SkODZbR4tjjAXM0VMdDZbyIjlfgePDdaz5YD9H/CtcmaykFDY7kkU2VU44TY/9MFBdQDdfRCcEeKPYA6Oz6tyEAigAcTnlcxx4AN7UP33MLZ0fS4IiLSF0U/X9w5Od8J0NIn3EUenchnOt47BINjriUA+/nYtUqzo8AOY6KENL9I6OCR9XW68fOT66gHDQ44iGjg+hNCkykIoR8iCfhyH+H5zcupRQ0OOJFo7u8oqB1a9ulKlIDYAIVIQRPCvS60rrkS5SCBkd8QDIeKTzCMbNFcYNCw1SEBJDnxOC7pfOaFlMKGhzxIakZFYMl1P41FVwFoJSKkADwtBj8gMZGgyMByuiOTOMSNXINFDEqQnyGo4I/W2puLKlreIFyEBpcULO6yshZauRaUZzPOCAeZw8Ed0Htn4frVr9OOQgNjgAANlVGphjB1wD5PHgOHfEWrQrc4Vj6Cx46Smhw5NBGV1U+VtT5hgguB3AYFSEubrQaoPqzHSE8GEkkO6gIocGRXrF+9vji4reGzVDRywGcS0WIS2iDYKFC5oRrG5+SA/uCEkKDI/0jVR2bJHBmq8oXAYykIiTnKFYp5G5F5+/G1q/ZTkEIDY5klLXTJxYNLR40syurO4dxQ7Jsarsg+iAU94Trk89SEEKDIzlhU+WU4yxxvqjQzwMooSIkY7YGLFHB763B5iGvnKxOaHDEj61RDUzLysgZMBKH4mKaHemnra1SQcIR+75xtavXUhBCgyPuaqPicaslver0LrO7BMBoqkJ6MjVY5oGyRMMrFITQ4IgXze5SAKOoCnnb1ETkwXBt4xoKQmhwxNOsnT6xaGjRoLNhnE8Dch6P8AkUnQCeVehjxsIjpYnkKkpCaHDEt2yujh1jA+cCei4U5wEYRlV8RSuAv4jKwqJQ4RNHJpa+RUkIDY4EjvWzxxcX7h52loFzrkLOhaKCqniONIAXVWWhKJ4snd+4jAuwCQ2OkA/QMmvqeDXpjwE4s+tvMgBDZVzFHlF90RF5VgyeN4PMc5zOT2hwhPSRrTOPH9ZRUHgqVM+SA4Z3BoDBVCa3/Q4VLIUjzwqc53aG8A/u/UhocIRkGL28omDz9v0nOY6cISKnqKIcguMAhKhORngLQKOKrBQHSyDpZ3n0DKHBEZJH02vdvv84ONZkRzQCQYUoJgM4huockjSAN1SwCoqlRiUJY68qqV21iu/PCA2OEJeTmnHcSKeoeIpRJyqqExUyAYoJEIxHcIY5Nyuw3gAbVHWDAKsdo41vGklymJHQ4AjxY6s/MzpGC5zxtprxUBkvohMAjAdwNARjoDjCA7fRAWA7BCkoNqhgvXF0A0Q2wNL1aQxfPy6xZD9rm9DgCCHvoPG4tTn9yggHzghAR8CYkao6AiojYXSkUYwAMFKBQV1P0AFDVBS9JzscDoEFBxYEwwHYEOzq+tw+AO1d390JAKLoUGDvO/+m2AboNohsB7BdbNkOONulwNpqtbdvG7Xgld2sKUJ65v8DCrgo3pnuoK0AAAAldEVYdGRhdGU6Y3JlYXRlADIwMjItMDctMjhUMjA6NDk6MTUrMDA6MDD87ZhtAAAAJXRFWHRkYXRlOm1vZGlmeQAyMDIyLTA3LTI4VDIwOjQ5OjE1KzAwOjAwjbAg0QAAAABJRU5ErkJggg==;" vertex="1" parent="1">
          <mxGeometry x="525" y="180.00000000000003" width="70" height="69.36" as="geometry" />
        </mxCell>
        <mxCell id="x_g3UTr6BPIwBnfjf8XP-9" value="&lt;div style=&quot;background-color: rgb(30, 30, 30); font-family: Consolas, &amp;quot;Courier New&amp;quot;, monospace; font-size: 14px; line-height: 19px; white-space: pre;&quot;&gt;&lt;font color=&quot;#ce9178&quot;&gt;cAdvisor&lt;/font&gt;&lt;/div&gt;" style="rounded=1;whiteSpace=wrap;html=1;" vertex="1" parent="1">
          <mxGeometry x="500" y="90" width="120" height="60" as="geometry" />
        </mxCell>
        <mxCell id="x_g3UTr6BPIwBnfjf8XP-10" style="edgeStyle=orthogonalEdgeStyle;rounded=0;orthogonalLoop=1;jettySize=auto;html=1;entryX=0.499;entryY=0.96;entryDx=0;entryDy=0;entryPerimeter=0;endArrow=none;endFill=0;" edge="1" parent="1" source="x_g3UTr6BPIwBnfjf8XP-5" target="x_g3UTr6BPIwBnfjf8XP-8">
          <mxGeometry relative="1" as="geometry" />
        </mxCell>
        <mxCell id="x_g3UTr6BPIwBnfjf8XP-11" style="edgeStyle=orthogonalEdgeStyle;rounded=0;orthogonalLoop=1;jettySize=auto;html=1;entryX=0.967;entryY=0.265;entryDx=0;entryDy=0;entryPerimeter=0;endArrow=none;endFill=0;startArrow=classic;startFill=1;" edge="1" parent="1" source="x_g3UTr6BPIwBnfjf8XP-5" target="x_g3UTr6BPIwBnfjf8XP-3">
          <mxGeometry relative="1" as="geometry" />
        </mxCell>
        <mxCell id="x_g3UTr6BPIwBnfjf8XP-12" style="edgeStyle=orthogonalEdgeStyle;rounded=0;orthogonalLoop=1;jettySize=auto;html=1;entryX=0;entryY=0.5;entryDx=0;entryDy=0;entryPerimeter=0;" edge="1" parent="1" source="x_g3UTr6BPIwBnfjf8XP-4" target="x_g3UTr6BPIwBnfjf8XP-3">
          <mxGeometry relative="1" as="geometry" />
        </mxCell>
        <mxCell id="x_g3UTr6BPIwBnfjf8XP-13" value="1.查詢" style="ellipse;whiteSpace=wrap;html=1;aspect=fixed;" vertex="1" parent="1">
          <mxGeometry x="310" y="370" width="40" height="40" as="geometry" />
        </mxCell>
        <mxCell id="x_g3UTr6BPIwBnfjf8XP-15" value="每10s 收集" style="ellipse;whiteSpace=wrap;html=1;aspect=fixed;" vertex="1" parent="1">
          <mxGeometry x="510" y="150" width="40" height="40" as="geometry" />
        </mxCell>
        <mxCell id="x_g3UTr6BPIwBnfjf8XP-17" style="edgeStyle=orthogonalEdgeStyle;rounded=0;orthogonalLoop=1;jettySize=auto;html=1;entryX=1.004;entryY=0.383;entryDx=0;entryDy=0;entryPerimeter=0;" edge="1" parent="1" source="x_g3UTr6BPIwBnfjf8XP-5" target="x_g3UTr6BPIwBnfjf8XP-3">
          <mxGeometry relative="1" as="geometry">
            <Array as="points">
              <mxPoint x="560" y="390" />
            </Array>
          </mxGeometry>
        </mxCell>
        <mxCell id="x_g3UTr6BPIwBnfjf8XP-19" value="" style="rounded=0;whiteSpace=wrap;html=1;fillColor=none;dashed=1;" vertex="1" parent="1">
          <mxGeometry x="790" y="70" width="260" height="340" as="geometry" />
        </mxCell>
        <mxCell id="x_g3UTr6BPIwBnfjf8XP-21" value="192.168.51.94" style="shape=cylinder3;whiteSpace=wrap;html=1;boundedLbl=1;backgroundOutline=1;size=15;" vertex="1" parent="1">
          <mxGeometry x="750" y="340" width="90" height="130" as="geometry" />
        </mxCell>
        <mxCell id="x_g3UTr6BPIwBnfjf8XP-23" style="edgeStyle=orthogonalEdgeStyle;rounded=0;orthogonalLoop=1;jettySize=auto;html=1;entryX=0.5;entryY=1;entryDx=0;entryDy=0;" edge="1" parent="1" target="x_g3UTr6BPIwBnfjf8XP-26">
          <mxGeometry relative="1" as="geometry">
            <mxPoint x="920" y="390" as="sourcePoint" />
          </mxGeometry>
        </mxCell>
        <mxCell id="x_g3UTr6BPIwBnfjf8XP-26" value="&lt;div style=&quot;background-color: rgb(30, 30, 30); font-family: Consolas, &amp;quot;Courier New&amp;quot;, monospace; font-size: 14px; line-height: 19px; white-space: pre;&quot;&gt;&lt;font color=&quot;#ce9178&quot;&gt;cAdvisor&lt;/font&gt;&lt;/div&gt;" style="rounded=1;whiteSpace=wrap;html=1;" vertex="1" parent="1">
          <mxGeometry x="860" y="90" width="120" height="60" as="geometry" />
        </mxCell>
        <mxCell id="x_g3UTr6BPIwBnfjf8XP-32" style="edgeStyle=orthogonalEdgeStyle;rounded=0;orthogonalLoop=1;jettySize=auto;html=1;entryX=1.004;entryY=0.383;entryDx=0;entryDy=0;entryPerimeter=0;endArrow=none;endFill=0;" edge="1" parent="1" target="x_g3UTr6BPIwBnfjf8XP-21">
          <mxGeometry relative="1" as="geometry">
            <Array as="points">
              <mxPoint x="920" y="390" />
            </Array>
            <mxPoint x="920" y="361.56999999999994" as="sourcePoint" />
          </mxGeometry>
        </mxCell>
        <mxCell id="x_g3UTr6BPIwBnfjf8XP-7" style="edgeStyle=orthogonalEdgeStyle;rounded=0;orthogonalLoop=1;jettySize=auto;html=1;strokeColor=default;endArrow=none;endFill=0;" edge="1" parent="1">
          <mxGeometry relative="1" as="geometry">
            <mxPoint x="590" y="223.53000000000003" as="sourcePoint" />
            <mxPoint x="772" y="387" as="targetPoint" />
            <Array as="points">
              <mxPoint x="770" y="224" />
            </Array>
          </mxGeometry>
        </mxCell>
        <mxCell id="x_g3UTr6BPIwBnfjf8XP-34" style="edgeStyle=orthogonalEdgeStyle;rounded=0;orthogonalLoop=1;jettySize=auto;html=1;endArrow=none;endFill=0;" edge="1" parent="1">
          <mxGeometry relative="1" as="geometry">
            <Array as="points">
              <mxPoint x="920" y="390" />
            </Array>
            <mxPoint x="920" y="361.56999999999994" as="sourcePoint" />
            <mxPoint x="770" y="380" as="targetPoint" />
          </mxGeometry>
        </mxCell>
      </root>
    </mxGraphModel>
  </diagram>
</mxfile>
